<svg xmlns="http://www.w3.org/2000/svg" viewBox="0 0 1024 768"><title>Slide J</title><path d="M183.0254,86.91l5.8711-32.0977h12.2344L190.2676,106H177.4707l-6.8555-29.18L163.9,106H151.1387L140.24,54.8125h12.27L158.3809,86.91l7.0313-32.0977h10.4766Z"/><path d="M216.9863,72.0391a11.857,11.857,0,0,1,9.7031-4.7812q6.293,0,9.4922,3.7266t3.27,11.0039V106H227.5684V82.27a6.6966,6.6966,0,0,0-1.23-4.4473q-1.23-1.4238-4.1836-1.4238-3.6562,0-5.168,2.32V106H205.1387V52h11.8477Z"/><path d="M267.4707,106a13.3772,13.3772,0,0,1-1.125-3.41,11.0168,11.0168,0,0,1-9.1406,4.1133,13.4964,13.4964,0,0,1-9.1406-3.252,10.3509,10.3509,0,0,1-3.7617-8.1738q0-6.1875,4.57-9.3516t13.2891-3.1641h3.6563V80.748q0-5.2646-4.5352-5.2637-4.2187,0-4.2187,4.1689H245.2168a10.621,10.621,0,0,1,4.6934-8.9541q4.6934-3.4409,11.9707-3.4414t11.4961,3.5508a12.3453,12.3453,0,0,1,4.3242,9.7383v16.84q.07,5.2383,1.6172,8.0156V106Zm-7.418-7.7344a6.6087,6.6087,0,0,0,3.6738-.9492,5.9491,5.9491,0,0,0,2.0918-2.1445V89.09H262.373q-6.1875,0-6.1875,5.5547a3.3916,3.3916,0,0,0,1.09,2.6191A3.9439,3.9439,0,0,0,260.0527,98.2656Z"/><path d="M298.0566,58.5039v9.457h6.2578v8.2266h-6.2578V93.59a4.4432,4.4432,0,0,0,.7734,2.9883q.7734.8438,3.0586.8438a17.38,17.38,0,0,0,2.9531-.2109v8.4727a21.8651,21.8651,0,0,1-6.68,1.02q-6.1172,0-9.0352-2.8828t-2.918-8.7539V76.1875h-4.8516V67.9609h4.8516v-9.457Z"/><path d="M368.8613,88.668a18.6939,18.6939,0,0,1-2.8828,9.4395,17.3986,17.3986,0,0,1-7.4,6.3457,25.1881,25.1881,0,0,1-10.8809,2.25q-10.09,0-15.8906-6.5742t-5.8008-18.5625V79.0352a30.984,30.984,0,0,1,2.6191-13.166,19.8453,19.8453,0,0,1,7.541-8.7188,21.04,21.04,0,0,1,11.3906-3.0762q9.3164,0,14.9766,4.9043t6.4336,13.5176H356.6621q-.1406-4.6758-2.3555-6.7148t-6.75-2.0391a7.3711,7.3711,0,0,0-6.75,3.4453q-2.1445,3.4453-2.25,11.0039v3.6211q0,8.1914,2.0566,11.707t7.084,3.5156q4.2539,0,6.5039-2.0039t2.3906-6.3633Z"/><path d="M372.6582,86.6289a22.4512,22.4512,0,0,1,2.2148-10.1426,15.8389,15.8389,0,0,1,6.3633-6.8379,19.1644,19.1644,0,0,1,9.7383-2.3906q8.543,0,13.4648,5.291t4.9219,14.3965v.4219q0,8.8945-4.9395,14.1152t-13.377,5.2207q-8.1211,0-13.043-4.8691t-5.3086-13.2012Zm11.8477.7383q0,5.2734,1.6523,7.7344a5.5047,5.5047,0,0,0,4.8867,2.4609q6.3281,0,6.4688-9.7383V86.6289q0-10.23-6.5391-10.23-5.9414,0-6.4336,8.8242Z"/><path d="M437.24,101.8867a12.215,12.215,0,0,1-10.16,4.8164q-6.2578,0-9.4746-3.6387t-3.2168-10.459V67.9609h11.8477V92.6758q0,4.8867,4.7461,4.8867,4.0781,0,5.8008-2.918V67.9609h11.918V106H437.5918Z"/><path d="M467.6855,106H455.8027V52h11.8828Z"/><path d="M473.4863,86.6992q0-9.0352,3.9023-14.2383a12.8449,12.8449,0,0,1,10.8984-5.2031,10.9244,10.9244,0,0,1,8.5781,4.0078V52H508.748v54H498.0957l-.5977-4.0781a11.2184,11.2184,0,0,1-9.2812,4.7813A12.8216,12.8216,0,0,1,477.459,101.5Q473.4863,96.2969,473.4863,86.6992Zm11.8477.7383q0,10.125,5.9063,10.125a5.8316,5.8316,0,0,0,5.625-3.3047V79.7734a5.6753,5.6753,0,0,0-5.5547-3.375q-5.4844,0-5.9414,8.8594Z"/><path d="M575.8613,99.6719a19.8406,19.8406,0,0,1-8.332,5.0977,35.9367,35.9367,0,0,1-12.0234,1.9336q-10.0547,0-16.0664-6.1523T533.0059,83.43L532.9707,79a30.5474,30.5474,0,0,1,2.6719-13.2012,19.8406,19.8406,0,0,1,7.6465-8.6836,21.6293,21.6293,0,0,1,11.5137-3.041q9.5625,0,14.8535,4.377t6.17,13.0605H563.9434q-.6328-4.2891-2.7422-6.1172a8.8478,8.8478,0,0,0-5.9766-1.8281,8.0515,8.0515,0,0,0-7.1719,3.9375q-2.5312,3.9375-2.5664,11.25v3.0938q0,7.6641,2.6191,11.5137t8.2441,3.85q4.8164,0,7.1719-2.1445V87.1211h-8.5781V78.6484h20.918Z"/><path d="M580.9941,86.6289a22.4512,22.4512,0,0,1,2.2148-10.1426,15.8389,15.8389,0,0,1,6.3633-6.8379,19.1644,19.1644,0,0,1,9.7383-2.3906q8.543,0,13.4648,5.291t4.9219,14.3965v.4219q0,8.8945-4.9395,14.1152t-13.377,5.2207q-8.1211,0-13.043-4.8691t-5.3086-13.2012Zm11.8477.7383q0,5.2734,1.6523,7.7344a5.5047,5.5047,0,0,0,4.8867,2.4609q6.3281,0,6.4688-9.7383V86.6289q0-10.23-6.5391-10.23-5.9414,0-6.4336,8.8242Z"/><path d="M681.0488,86.91,686.92,54.8125h12.2344L688.291,106H675.4941l-6.8555-29.18L661.9238,106H649.1621L638.2637,54.8125h12.27L656.4043,86.91l7.0313-32.0977h10.4766Z"/><path d="M725.6973,78.6836l-3.9023-.2812q-5.59,0-7.1719,3.5156V106H702.7754V67.9609h11.1094l.3867,4.8867q2.9883-5.59,8.332-5.59a11.5535,11.5535,0,0,1,3.3047.4219Z"/><path d="M727.209,86.6289a22.4512,22.4512,0,0,1,2.2148-10.1426,15.8389,15.8389,0,0,1,6.3633-6.8379,19.1644,19.1644,0,0,1,9.7383-2.3906q8.543,0,13.4648,5.291t4.9219,14.3965v.4219q0,8.8945-4.9395,14.1152t-13.377,5.2207q-8.1211,0-13.043-4.8691t-5.3086-13.2012Zm11.8477.7383q0,5.2734,1.6523,7.7344a5.5047,5.5047,0,0,0,4.8867,2.4609q6.3281,0,6.4688-9.7383V86.6289q0-10.23-6.5391-10.23-5.9414,0-6.4336,8.8242Z"/><path d="M780.0137,67.9609l.3867,4.4648a12.9,12.9,0,0,1,10.8633-5.168q5.9414,0,8.877,3.5508t3.041,10.6875V106H791.2988V81.9883a6.4191,6.4191,0,0,0-1.16-4.2363q-1.16-1.3535-4.2187-1.3535a5.65,5.65,0,0,0-5.168,2.7422V106H768.9043V67.9609Z"/><path d="M808.35,86.6992a25.6841,25.6841,0,0,1,1.8984-10.1953,15.2831,15.2831,0,0,1,5.4492-6.8379,14.3643,14.3643,0,0,1,8.2617-2.4082,11.4215,11.4215,0,0,1,9.2813,4.0078l.4219-3.3047H844.42v36.5977a16.0376,16.0376,0,0,1-2.3379,8.7363,15.0013,15.0013,0,0,1-6.7676,5.6953,24.8752,24.8752,0,0,1-10.2656,1.9863,21.46,21.46,0,0,1-8.1035-1.582,14.6275,14.6275,0,0,1-5.9941-4.1133l4.957-6.9609a10.8636,10.8636,0,0,0,8.7188,3.9023q7.875,0,7.875-8.0859v-1.1953a11.1253,11.1253,0,0,1-8.6133,3.7617,13.7479,13.7479,0,0,1-11.25-5.3262Q808.35,96.0508,808.35,87.1211Zm11.8828.7383a13.5319,13.5319,0,0,0,1.7578,7.4,5.546,5.546,0,0,0,4.9219,2.7246q3.832,0,5.59-2.5664V79a6.1351,6.1351,0,0,0-5.52-2.6016,5.5829,5.5829,0,0,0-4.957,2.83Q820.2324,82.0586,820.2324,87.4375Z"/><path d="M859.9238,89.793a22.8824,22.8824,0,0,1,1.16-8.1035,12.674,12.674,0,0,1,3.7617-5.15,25.01,25.01,0,0,0,3.9551-3.99,6.5135,6.5135,0,0,0,1.3535-3.99q0-5.3086-4.57-5.3086a4.24,4.24,0,0,0-3.41,1.5469,6.5789,6.5789,0,0,0-1.3711,4.1836H848.92q.07-7.0312,4.43-10.9512t12.2344-3.92q7.84,0,12.1465,3.6211t4.3066,10.3008a11.9976,11.9976,0,0,1-1.16,5.3086,17.9412,17.9412,0,0,1-3.7266,4.8867l-4.043,3.7617a9.5112,9.5112,0,0,0-2.3906,3.3926,13.4443,13.4443,0,0,0-.7383,4.4121ZM858.4824,100.48a5.456,5.456,0,0,1,1.8809-4.2715,7.43,7.43,0,0,1,9.3867,0,5.7908,5.7908,0,0,1,0,8.543,7.43,7.43,0,0,1-9.3867,0A5.456,5.456,0,0,1,858.4824,100.48Z"/><path d="M44.1445,177.6973H33.1484v-4.5508H44.1445Z"/><path d="M82.1523,187.6H76.293V175.4121H64.8672V187.6H59.0078V159.1621h5.8594v11.5234H76.293V159.1621h5.8594Z"/><path d="M99.1445,187.6a6.2532,6.2532,0,0,1-.5664-1.8945,6.83,6.83,0,0,1-5.332,2.2852A7.4964,7.4964,0,0,1,88.1,186.1934a5.7742,5.7742,0,0,1-2.041-4.5312,5.9751,5.9751,0,0,1,2.49-5.1562q2.49-1.7959,7.1973-1.8164h2.5977v-1.2109a3.4841,3.4841,0,0,0-.752-2.3437,2.96,2.96,0,0,0-2.373-.8789,3.3648,3.3648,0,0,0-2.2363.6836,2.3238,2.3238,0,0,0-.8105,1.875H86.5273A5.6713,5.6713,0,0,1,87.66,169.416a7.4972,7.4972,0,0,1,3.2031-2.4512,11.6837,11.6837,0,0,1,4.6484-.8887,9.2247,9.2247,0,0,1,6.2012,1.9629,6.87,6.87,0,0,1,2.2949,5.5176v9.16a10.0929,10.0929,0,0,0,.84,4.5508v.332Zm-4.668-3.9258a4.8624,4.8624,0,0,0,2.3047-.5566,3.6579,3.6579,0,0,0,1.5625-1.4941V177.99H96.2344q-4.2393,0-4.5117,2.93l-.02.332a2.2576,2.2576,0,0,0,.7422,1.7383A2.8759,2.8759,0,0,0,94.4766,183.6738Z"/><path d="M120.2188,171.76a15.45,15.45,0,0,0-2.0312-.1562q-3.2036,0-4.1992,2.168V187.6h-5.6445V166.4668h5.332l.1563,2.52a5.2306,5.2306,0,0,1,4.707-2.91,5.9569,5.9569,0,0,1,1.7578.2539Z"/><path d="M131.1953,180.7051l3.9258-14.2383H141.02L133.8906,187.6H128.5l-7.1289-21.1328H127.27Z"/><path d="M153.2266,187.99a10.3674,10.3674,0,0,1-7.5684-2.8516,10.1325,10.1325,0,0,1-2.92-7.5977v-.5469a12.772,12.772,0,0,1,1.23-5.6934,9.0452,9.0452,0,0,1,3.4863-3.8672,9.79,9.79,0,0,1,5.1465-1.3574,8.7727,8.7727,0,0,1,6.8262,2.7344q2.49,2.7363,2.49,7.7539v2.3047h-13.457a5.2356,5.2356,0,0,0,1.65,3.32,4.986,4.986,0,0,0,3.4863,1.25,6.0925,6.0925,0,0,0,5.0977-2.3633l2.7734,3.1055a8.46,8.46,0,0,1-3.4375,2.8027A11.2731,11.2731,0,0,1,153.2266,187.99Zm-.6445-17.3633a3.526,3.526,0,0,0-2.7246,1.1387,5.8835,5.8835,0,0,0-1.3379,3.2559h7.8516V174.57a4.2056,4.2056,0,0,0-1.0156-2.9131A3.6411,3.6411,0,0,0,152.582,170.627Z"/><path d="M176.5664,181.76a1.8208,1.8208,0,0,0-1.0254-1.6309,11.6761,11.6761,0,0,0-3.291-1.0645q-7.54-1.582-7.5391-6.4062a5.8067,5.8067,0,0,1,2.334-4.6973,9.4168,9.4168,0,0,1,6.1035-1.8848,10.1431,10.1431,0,0,1,6.4355,1.8945,5.9741,5.9741,0,0,1,2.4121,4.9219h-5.6445a2.7335,2.7335,0,0,0-.7812-2.002,3.3077,3.3077,0,0,0-2.4414-.791,3.3765,3.3765,0,0,0-2.207.6445,2.0327,2.0327,0,0,0-.7812,1.6406,1.7371,1.7371,0,0,0,.8887,1.5137,9.1055,9.1055,0,0,0,2.998.9961,24.6676,24.6676,0,0,1,3.5547.9473q4.4722,1.6406,4.4727,5.6836a5.5125,5.5125,0,0,1-2.48,4.6777,10.7014,10.7014,0,0,1-6.4062,1.7871,11.1668,11.1668,0,0,1-4.7168-.9473,7.8962,7.8962,0,0,1-3.2324-2.5977,6.0315,6.0315,0,0,1-1.1719-3.5645h5.3516a2.9418,2.9418,0,0,0,1.1133,2.3047,4.4058,4.4058,0,0,0,2.7734.8008,4.0891,4.0891,0,0,0,2.4512-.6152A1.916,1.916,0,0,0,176.5664,181.76Z"/><path d="M192.4453,161.2715v5.1953h3.6133v4.1406h-3.6133v10.5469a2.5154,2.5154,0,0,0,.4492,1.68,2.2494,2.2494,0,0,0,1.7188.5078,8.95,8.95,0,0,0,1.66-.1367v4.2773a11.6125,11.6125,0,0,1-3.418.5078q-5.9385,0-6.0547-5.9961V170.6074h-3.0859v-4.1406h3.0859v-5.1953Z"/><path d="M218.8906,187.99a10.3674,10.3674,0,0,1-7.5684-2.8516,10.1325,10.1325,0,0,1-2.92-7.5977v-.5469a12.772,12.772,0,0,1,1.23-5.6934,9.0452,9.0452,0,0,1,3.4863-3.8672,9.79,9.79,0,0,1,5.1465-1.3574,8.7727,8.7727,0,0,1,6.8262,2.7344q2.49,2.7363,2.49,7.7539v2.3047H214.125a5.2356,5.2356,0,0,0,1.65,3.32,4.986,4.986,0,0,0,3.4863,1.25,6.0925,6.0925,0,0,0,5.0977-2.3633l2.7734,3.1055a8.46,8.46,0,0,1-3.4375,2.8027A11.2731,11.2731,0,0,1,218.8906,187.99Zm-.6445-17.3633a3.526,3.526,0,0,0-2.7246,1.1387,5.8835,5.8835,0,0,0-1.3379,3.2559h7.8516V174.57a4.2056,4.2056,0,0,0-1.0156-2.9131A3.6411,3.6411,0,0,0,218.2461,170.627Z"/><path d="M236.0781,166.4668l.1758,2.3633a7.4255,7.4255,0,0,1,6.0742-2.7539q4.0811,0,5.6055,3.2227a7.2553,7.2553,0,0,1,6.3477-3.2227,6.3066,6.3066,0,0,1,5.1172,2.002q1.6787,2.0039,1.68,6.0254V187.6h-5.6641V174.123a4.0275,4.0275,0,0,0-.7031-2.627,3.1188,3.1188,0,0,0-2.48-.83,3.5235,3.5235,0,0,0-3.5156,2.4219l.02,14.5117H243.09v-13.457a3.9793,3.9793,0,0,0-.7227-2.6562,3.1483,3.1483,0,0,0-2.4609-.82,3.6576,3.6576,0,0,0-3.4766,1.9922V187.6h-5.6445V166.4668Z"/><path d="M277.66,187.6a6.2532,6.2532,0,0,1-.5664-1.8945,6.83,6.83,0,0,1-5.332,2.2852,7.4964,7.4964,0,0,1-5.1465-1.7969,5.7742,5.7742,0,0,1-2.041-4.5312,5.9751,5.9751,0,0,1,2.49-5.1562q2.49-1.7959,7.1973-1.8164h2.5977v-1.2109a3.4841,3.4841,0,0,0-.752-2.3437,2.96,2.96,0,0,0-2.373-.8789,3.3648,3.3648,0,0,0-2.2363.6836,2.3238,2.3238,0,0,0-.8105,1.875H265.043a5.6713,5.6713,0,0,1,1.1328-3.3984,7.4972,7.4972,0,0,1,3.2031-2.4512,11.6837,11.6837,0,0,1,4.6484-.8887,9.2247,9.2247,0,0,1,6.2012,1.9629,6.87,6.87,0,0,1,2.2949,5.5176v9.16a10.0929,10.0929,0,0,0,.84,4.5508v.332Zm-4.668-3.9258a4.8624,4.8624,0,0,0,2.3047-.5566,3.6579,3.6579,0,0,0,1.5625-1.4941V177.99H274.75q-4.2393,0-4.5117,2.93l-.02.332a2.2576,2.2576,0,0,0,.7422,1.7383A2.8759,2.8759,0,0,0,272.9922,183.6738Z"/><path d="M286.82,160.998a2.7805,2.7805,0,0,1,.85-2.09,3.6614,3.6614,0,0,1,4.6191,0,2.9825,2.9825,0,0,1-.01,4.1992,3.62,3.62,0,0,1-4.59,0A2.7689,2.7689,0,0,1,286.82,160.998ZM292.8164,187.6h-5.6641V166.4668h5.6641Z"/><path d="M303.4219,187.6h-5.6641v-30h5.6641Z"/><path d="M319.5156,181.76a1.8208,1.8208,0,0,0-1.0254-1.6309,11.6761,11.6761,0,0,0-3.291-1.0645q-7.54-1.582-7.5391-6.4062a5.8067,5.8067,0,0,1,2.334-4.6973,9.4168,9.4168,0,0,1,6.1035-1.8848,10.1431,10.1431,0,0,1,6.4355,1.8945,5.9741,5.9741,0,0,1,2.4121,4.9219h-5.6445a2.7335,2.7335,0,0,0-.7812-2.002,3.3077,3.3077,0,0,0-2.4414-.791,3.3765,3.3765,0,0,0-2.207.6445,2.0327,2.0327,0,0,0-.7812,1.6406,1.7371,1.7371,0,0,0,.8887,1.5137,9.1055,9.1055,0,0,0,2.998.9961,24.6676,24.6676,0,0,1,3.5547.9473q4.4722,1.6406,4.4727,5.6836a5.5125,5.5125,0,0,1-2.48,4.6777,10.7014,10.7014,0,0,1-6.4062,1.7871,11.1668,11.1668,0,0,1-4.7168-.9473,7.8962,7.8962,0,0,1-3.2324-2.5977,6.0315,6.0315,0,0,1-1.1719-3.5645h5.3516a2.9418,2.9418,0,0,0,1.1133,2.3047,4.4058,4.4058,0,0,0,2.7734.8008,4.0891,4.0891,0,0,0,2.4512-.6152A1.916,1.916,0,0,0,319.5156,181.76Z"/><path d="M350.8438,187.6a6.2532,6.2532,0,0,1-.5664-1.8945,6.83,6.83,0,0,1-5.332,2.2852,7.4964,7.4964,0,0,1-5.1465-1.7969,5.7742,5.7742,0,0,1-2.041-4.5312,5.9751,5.9751,0,0,1,2.49-5.1562q2.49-1.7959,7.1973-1.8164h2.5977v-1.2109a3.4841,3.4841,0,0,0-.752-2.3437,2.96,2.96,0,0,0-2.373-.8789,3.3648,3.3648,0,0,0-2.2363.6836,2.3238,2.3238,0,0,0-.8105,1.875h-5.6445a5.6713,5.6713,0,0,1,1.1328-3.3984,7.4972,7.4972,0,0,1,3.2031-2.4512,11.6837,11.6837,0,0,1,4.6484-.8887,9.2247,9.2247,0,0,1,6.2012,1.9629,6.87,6.87,0,0,1,2.2949,5.5176v9.16a10.0929,10.0929,0,0,0,.84,4.5508v.332Zm-4.668-3.9258a4.8624,4.8624,0,0,0,2.3047-.5566,3.6579,3.6579,0,0,0,1.5625-1.4941V177.99h-2.1094q-4.2393,0-4.5117,2.93l-.02.332a2.2576,2.2576,0,0,0,.7422,1.7383A2.8759,2.8759,0,0,0,346.1758,183.6738Z"/><path d="M365.2383,166.4668l.1758,2.4414a7.381,7.381,0,0,1,6.0742-2.832,6.1342,6.1342,0,0,1,5,1.9727q1.6406,1.9746,1.68,5.8984V187.6h-5.6445V174.084a3.6656,3.6656,0,0,0-.7812-2.6074,3.5038,3.5038,0,0,0-2.5977-.8105,3.8836,3.8836,0,0,0-3.5742,2.0313V187.6h-5.6445V166.4668Z"/><path d="M381.5664,176.877a12.7339,12.7339,0,0,1,2.2168-7.8711,7.1919,7.1919,0,0,1,6.0645-2.93,6.4785,6.4785,0,0,1,5.0977,2.3047V157.6h5.6641v30h-5.0977l-.2734-2.2461a6.6432,6.6432,0,0,1-5.43,2.6367,7.17,7.17,0,0,1-5.9863-2.9395Q381.5664,182.1123,381.5664,176.877Zm5.6445.4209a8.3392,8.3392,0,0,0,1.0352,4.5576,3.37,3.37,0,0,0,3.0078,1.584,3.7777,3.7777,0,0,0,3.6914-2.21V172.877a3.7234,3.7234,0,0,0-3.6523-2.2109Q387.21,170.666,387.2109,177.2979Z"/><path d="M426.3906,181.76a1.8208,1.8208,0,0,0-1.0254-1.6309,11.6761,11.6761,0,0,0-3.291-1.0645q-7.54-1.582-7.5391-6.4062a5.8067,5.8067,0,0,1,2.334-4.6973,9.4168,9.4168,0,0,1,6.1035-1.8848,10.1431,10.1431,0,0,1,6.4355,1.8945,5.9741,5.9741,0,0,1,2.4121,4.9219h-5.6445a2.7335,2.7335,0,0,0-.7812-2.002,3.3077,3.3077,0,0,0-2.4414-.791,3.3765,3.3765,0,0,0-2.207.6445,2.0327,2.0327,0,0,0-.7812,1.6406,1.7371,1.7371,0,0,0,.8887,1.5137,9.1055,9.1055,0,0,0,2.998.9961,24.6676,24.6676,0,0,1,3.5547.9473q4.4722,1.6406,4.4727,5.6836a5.5125,5.5125,0,0,1-2.48,4.6777,10.7014,10.7014,0,0,1-6.4062,1.7871,11.1668,11.1668,0,0,1-4.7168-.9473,7.8962,7.8962,0,0,1-3.2324-2.5977,6.0315,6.0315,0,0,1-1.1719-3.5645h5.3516a2.9418,2.9418,0,0,0,1.1133,2.3047,4.4058,4.4058,0,0,0,2.7734.8008,4.0891,4.0891,0,0,0,2.4512-.6152A1.916,1.916,0,0,0,426.3906,181.76Z"/><path d="M445.2383,187.99a10.3674,10.3674,0,0,1-7.5684-2.8516,10.1325,10.1325,0,0,1-2.92-7.5977v-.5469a12.772,12.772,0,0,1,1.23-5.6934,9.0452,9.0452,0,0,1,3.4863-3.8672,9.79,9.79,0,0,1,5.1465-1.3574,8.7727,8.7727,0,0,1,6.8262,2.7344q2.49,2.7363,2.49,7.7539v2.3047h-13.457a5.2356,5.2356,0,0,0,1.65,3.32,4.986,4.986,0,0,0,3.4863,1.25,6.0925,6.0925,0,0,0,5.0977-2.3633l2.7734,3.1055a8.46,8.46,0,0,1-3.4375,2.8027A11.2731,11.2731,0,0,1,445.2383,187.99Zm-.6445-17.3633a3.526,3.526,0,0,0-2.7246,1.1387,5.8835,5.8835,0,0,0-1.3379,3.2559h7.8516V174.57a4.2056,4.2056,0,0,0-1.0156-2.9131A3.6411,3.6411,0,0,0,444.5938,170.627Z"/><path d="M463.09,187.6h-5.6641v-30H463.09Z"/><path d="M473.6953,187.6h-5.6641v-30h5.6641Z"/><path d="M495.0625,161.2715v5.1953h3.6133v4.1406h-3.6133v10.5469a2.5154,2.5154,0,0,0,.4492,1.68,2.2494,2.2494,0,0,0,1.7188.5078,8.95,8.95,0,0,0,1.66-.1367v4.2773a11.6125,11.6125,0,0,1-3.418.5078q-5.9385,0-6.0547-5.9961V170.6074H486.332v-4.1406h3.0859v-5.1953Z"/><path d="M507.3281,168.7715a7.0445,7.0445,0,0,1,5.6445-2.6953q6.8745,0,6.9727,7.9883V187.6h-5.6445V174.2207a3.929,3.929,0,0,0-.7812-2.6855,3.3552,3.3552,0,0,0-2.5977-.8691,3.8422,3.8422,0,0,0-3.5937,1.9141V187.6h-5.6445v-30h5.6445Z"/><path d="M533.93,187.99a10.369,10.369,0,0,1-7.5684-2.8516,10.1362,10.1362,0,0,1-2.92-7.5977v-.5469a12.772,12.772,0,0,1,1.23-5.6934,9.0452,9.0452,0,0,1,3.4863-3.8672,9.7921,9.7921,0,0,1,5.1465-1.3574,8.7727,8.7727,0,0,1,6.8262,2.7344q2.49,2.7363,2.49,7.7539v2.3047h-13.457a5.24,5.24,0,0,0,1.65,3.32,4.986,4.986,0,0,0,3.4863,1.25,6.09,6.09,0,0,0,5.0977-2.3633l2.7734,3.1055a8.46,8.46,0,0,1-3.4375,2.8027A11.2731,11.2731,0,0,1,533.93,187.99Zm-.6445-17.3633a3.526,3.526,0,0,0-2.7246,1.1387,5.8906,5.8906,0,0,0-1.3379,3.2559h7.8516V174.57a4.201,4.201,0,0,0-1.0156-2.9131A3.64,3.64,0,0,0,533.2852,170.627Z"/><path d="M551.1172,166.4668l.1758,2.3633a7.4268,7.4268,0,0,1,6.0742-2.7539q4.0825,0,5.6055,3.2227a7.2564,7.2564,0,0,1,6.3477-3.2227,6.3053,6.3053,0,0,1,5.1172,2.002q1.68,2.0039,1.68,6.0254V187.6h-5.6641V174.123a4.0275,4.0275,0,0,0-.7031-2.627,3.1188,3.1188,0,0,0-2.48-.83,3.5251,3.5251,0,0,0-3.5156,2.4219l.02,14.5117h-5.6445v-13.457a3.9793,3.9793,0,0,0-.7227-2.6562,3.1454,3.1454,0,0,0-2.4609-.82,3.6576,3.6576,0,0,0-3.4766,1.9922V187.6h-5.6445V166.4668Z"/><path d="M44.1445,225.6973H33.1484v-4.5508H44.1445Z"/><path d="M73.7539,228.1387A3.01,3.01,0,0,0,72.582,225.59a15.4106,15.4106,0,0,0-4.2187-1.875,29.7149,29.7149,0,0,1-4.8242-1.9434q-4.8442-2.6162-4.8437-7.0508a6.8691,6.8691,0,0,1,1.2988-4.1113,8.4828,8.4828,0,0,1,3.73-2.8223,14.0637,14.0637,0,0,1,5.459-1.0156,12.8011,12.8011,0,0,1,5.43,1.1035,8.6629,8.6629,0,0,1,3.7012,3.1152,8.1546,8.1546,0,0,1,1.3184,4.57H73.7734a3.8365,3.8365,0,0,0-1.23-3.0371,5.0581,5.0581,0,0,0-3.457-1.084,5.4027,5.4027,0,0,0-3.34.9082,2.8646,2.8646,0,0,0-1.1914,2.3926,2.7406,2.7406,0,0,0,1.3965,2.3242,15.7623,15.7623,0,0,0,4.1113,1.7578,17.7818,17.7818,0,0,1,7.2852,3.73A7.43,7.43,0,0,1,79.6328,228.1a6.8437,6.8437,0,0,1-2.793,5.791,12.2247,12.2247,0,0,1-7.52,2.1,14.52,14.52,0,0,1-5.9766-1.2012,9.4444,9.4444,0,0,1-4.1113-3.291,8.4241,8.4241,0,0,1-1.416-4.8437h5.8789q0,4.708,5.625,4.707a5.4733,5.4733,0,0,0,3.2617-.85A2.7641,2.7641,0,0,0,73.7539,228.1387Z"/><path d="M102.25,225.2285a12.6738,12.6738,0,0,1-2.2168,7.8223,7.1054,7.1054,0,0,1-5.9863,2.9395,6.5823,6.5823,0,0,1-5.1758-2.2266v9.9609H83.2266V214.4668h5.2344l.1953,2.07a6.6331,6.6331,0,0,1,5.3516-2.4609,7.16,7.16,0,0,1,6.0742,2.8906q2.168,2.8916,2.168,7.9688Zm-5.6445-.41a8.3244,8.3244,0,0,0-1.0449-4.5508,3.4069,3.4069,0,0,0-3.0371-1.6016,3.6966,3.6966,0,0,0-3.6523,2.0313V229.35a3.7558,3.7558,0,0,0,3.6914,2.09Q96.6055,231.4395,96.6055,224.8184Z"/><path d="M115.4727,235.99a10.3674,10.3674,0,0,1-7.5684-2.8516,10.1325,10.1325,0,0,1-2.92-7.5977v-.5469a12.772,12.772,0,0,1,1.23-5.6934,9.0452,9.0452,0,0,1,3.4863-3.8672,9.79,9.79,0,0,1,5.1465-1.3574,8.7727,8.7727,0,0,1,6.8262,2.7344q2.49,2.7363,2.49,7.7539v2.3047H110.707a5.2356,5.2356,0,0,0,1.65,3.32,4.986,4.986,0,0,0,3.4863,1.25,6.0925,6.0925,0,0,0,5.0977-2.3633l2.7734,3.1055a8.46,8.46,0,0,1-3.4375,2.8027A11.2731,11.2731,0,0,1,115.4727,235.99Zm-.6445-17.3633a3.526,3.526,0,0,0-2.7246,1.1387,5.8835,5.8835,0,0,0-1.3379,3.2559h7.8516V222.57a4.2056,4.2056,0,0,0-1.0156-2.9131A3.6411,3.6411,0,0,0,114.8281,218.627Z"/><path d="M139.6133,235.6a6.2532,6.2532,0,0,1-.5664-1.8945,6.83,6.83,0,0,1-5.332,2.2852,7.4964,7.4964,0,0,1-5.1465-1.7969,5.7742,5.7742,0,0,1-2.041-4.5312,5.9751,5.9751,0,0,1,2.49-5.1562q2.49-1.7959,7.1973-1.8164h2.5977v-1.2109a3.4841,3.4841,0,0,0-.752-2.3437,2.96,2.96,0,0,0-2.373-.8789,3.3648,3.3648,0,0,0-2.2363.6836,2.3238,2.3238,0,0,0-.8105,1.875h-5.6445a5.6713,5.6713,0,0,1,1.1328-3.3984,7.4972,7.4972,0,0,1,3.2031-2.4512,11.6837,11.6837,0,0,1,4.6484-.8887,9.2247,9.2247,0,0,1,6.2012,1.9629,6.87,6.87,0,0,1,2.2949,5.5176v9.16a10.0929,10.0929,0,0,0,.84,4.5508v.332Zm-4.668-3.9258a4.8624,4.8624,0,0,0,2.3047-.5566,3.6579,3.6579,0,0,0,1.5625-1.4941V225.99h-2.1094q-4.2393,0-4.5117,2.93l-.02.332a2.2576,2.2576,0,0,0,.7422,1.7383A2.8759,2.8759,0,0,0,134.9453,231.6738Z"/><path d="M160.6875,219.76a15.45,15.45,0,0,0-2.0312-.1562q-3.2036,0-4.1992,2.168V235.6h-5.6445V214.4668h5.332l.1563,2.52a5.2306,5.2306,0,0,1,4.707-2.91,5.9569,5.9569,0,0,1,1.7578.2539Z"/><path d="M192.3867,225.2285a12.6738,12.6738,0,0,1-2.2168,7.8223,7.1054,7.1054,0,0,1-5.9863,2.9395,6.5823,6.5823,0,0,1-5.1758-2.2266v9.9609h-5.6445V214.4668h5.2344l.1953,2.07a6.6331,6.6331,0,0,1,5.3516-2.4609,7.16,7.16,0,0,1,6.0742,2.8906q2.168,2.8916,2.168,7.9688Zm-5.6445-.41a8.3244,8.3244,0,0,0-1.0449-4.5508,3.4069,3.4069,0,0,0-3.0371-1.6016,3.6966,3.6966,0,0,0-3.6523,2.0313V229.35a3.7558,3.7558,0,0,0,3.6914,2.09Q186.7422,231.4395,186.7422,224.8184Z"/><path d="M201.3906,216.7715a7.0445,7.0445,0,0,1,5.6445-2.6953q6.8745,0,6.9727,7.9883V235.6h-5.6445V222.2207a3.929,3.929,0,0,0-.7812-2.6855,3.3552,3.3552,0,0,0-2.5977-.8691,3.8422,3.8422,0,0,0-3.5937,1.9141V235.6h-5.6445v-30h5.6445Z"/><path d="M218.2266,208.998a2.7805,2.7805,0,0,1,.85-2.09,3.6614,3.6614,0,0,1,4.6191,0,2.9825,2.9825,0,0,1-.01,4.1992,3.62,3.62,0,0,1-4.59,0A2.7689,2.7689,0,0,1,218.2266,208.998ZM224.2227,235.6h-5.6641V214.4668h5.6641Z"/><path d="M240.3164,229.76a1.8208,1.8208,0,0,0-1.0254-1.6309A11.6761,11.6761,0,0,0,236,227.0645q-7.54-1.582-7.5391-6.4062a5.8067,5.8067,0,0,1,2.334-4.6973,9.4168,9.4168,0,0,1,6.1035-1.8848,10.1431,10.1431,0,0,1,6.4355,1.8945,5.9741,5.9741,0,0,1,2.4121,4.9219h-5.6445a2.7335,2.7335,0,0,0-.7812-2.002,3.3077,3.3077,0,0,0-2.4414-.791,3.3765,3.3765,0,0,0-2.207.6445,2.0327,2.0327,0,0,0-.7812,1.6406,1.7371,1.7371,0,0,0,.8887,1.5137,9.1055,9.1055,0,0,0,2.998.9961,24.6676,24.6676,0,0,1,3.5547.9473q4.4722,1.6406,4.4727,5.6836a5.5125,5.5125,0,0,1-2.48,4.6777,10.7014,10.7014,0,0,1-6.4062,1.7871,11.1668,11.1668,0,0,1-4.7168-.9473,7.8962,7.8962,0,0,1-3.2324-2.5977,6.0315,6.0315,0,0,1-1.1719-3.5645h5.3516a2.9418,2.9418,0,0,0,1.1133,2.3047,4.4058,4.4058,0,0,0,2.7734.8008,4.0891,4.0891,0,0,0,2.4512-.6152A1.916,1.916,0,0,0,240.3164,229.76Z"/><path d="M254.9453,216.7715a7.0445,7.0445,0,0,1,5.6445-2.6953q6.8745,0,6.9727,7.9883V235.6H261.918V222.2207a3.929,3.929,0,0,0-.7812-2.6855,3.3552,3.3552,0,0,0-2.5977-.8691,3.8422,3.8422,0,0,0-3.5937,1.9141V235.6h-5.6445v-30h5.6445Z"/><path d="M271.7813,208.998a2.7805,2.7805,0,0,1,.85-2.09,3.6614,3.6614,0,0,1,4.6191,0,2.9825,2.9825,0,0,1-.01,4.1992,3.62,3.62,0,0,1-4.59,0A2.7689,2.7689,0,0,1,271.7813,208.998ZM277.7773,235.6h-5.6641V214.4668h5.6641Z"/><path d="M287.6211,214.4668l.1758,2.4414a7.381,7.381,0,0,1,6.0742-2.832,6.1342,6.1342,0,0,1,5,1.9727q1.6406,1.9746,1.68,5.8984V235.6h-5.6445V222.084a3.6656,3.6656,0,0,0-.7812-2.6074,3.5038,3.5038,0,0,0-2.5977-.8105,3.8836,3.8836,0,0,0-3.5742,2.0313V235.6h-5.6445V214.4668Z"/><path d="M304.0078,224.877a12.3877,12.3877,0,0,1,2.3145-7.832,7.501,7.501,0,0,1,6.24-2.9687,6.5793,6.5793,0,0,1,5.41,2.3828l.2344-1.9922h5.1172v20.43a9.03,9.03,0,0,1-1.26,4.8242,8.0887,8.0887,0,0,1-3.5449,3.125,12.4534,12.4534,0,0,1-5.3516,1.0742,11.5728,11.5728,0,0,1-4.5312-.9277,8.0351,8.0351,0,0,1-3.34-2.3926l2.5-3.4375a6.609,6.609,0,0,0,5.1172,2.3633,4.841,4.841,0,0,0,3.4961-1.2012,4.5061,4.5061,0,0,0,1.25-3.4082v-1.1328a6.5261,6.5261,0,0,1-5.1367,2.207,7.4773,7.4773,0,0,1-6.1621-2.9785,12.3774,12.3774,0,0,1-2.3535-7.9Zm5.6445.4209a7.7091,7.7091,0,0,0,1.1523,4.5088,3.6637,3.6637,0,0,0,3.1641,1.6328,3.9189,3.9189,0,0,0,3.6914-1.9355v-8.9a3.9118,3.9118,0,0,0-3.6523-1.9375,3.6873,3.6873,0,0,0-3.1934,1.6641A8.6815,8.6815,0,0,0,309.6523,225.2979Z"/><path d="M44.1445,273.6973H33.1484v-4.5508H44.1445Z"/><path d="M75.0625,277.74H64.7891L62.8359,283.6h-6.23l10.5859-28.4375h5.43L83.2656,283.6h-6.23Zm-8.6914-4.7461H73.48L69.9063,262.35Z"/><path d="M91.9766,257.2715v5.1953H95.59v4.1406H91.9766v10.5469a2.5154,2.5154,0,0,0,.4492,1.68,2.2494,2.2494,0,0,0,1.7188.5078,8.95,8.95,0,0,0,1.66-.1367v4.2773a11.6125,11.6125,0,0,1-3.418.5078q-5.9385,0-6.0547-5.9961V266.6074H83.2461v-4.1406H86.332v-5.1953Z"/><path d="M105.4922,257.2715v5.1953h3.6133v4.1406h-3.6133v10.5469a2.5154,2.5154,0,0,0,.4492,1.68,2.2494,2.2494,0,0,0,1.7188.5078,8.95,8.95,0,0,0,1.66-.1367v4.2773a11.6125,11.6125,0,0,1-3.418.5078q-5.9385,0-6.0547-5.9961V266.6074H96.7617v-4.1406h3.0859v-5.1953Z"/><path d="M124.4961,283.6a6.2532,6.2532,0,0,1-.5664-1.8945,6.83,6.83,0,0,1-5.332,2.2852,7.4964,7.4964,0,0,1-5.1465-1.7969,5.7742,5.7742,0,0,1-2.041-4.5312,5.9751,5.9751,0,0,1,2.49-5.1562q2.49-1.7959,7.1973-1.8164h2.5977v-1.2109a3.4841,3.4841,0,0,0-.752-2.3437,2.96,2.96,0,0,0-2.373-.8789,3.3648,3.3648,0,0,0-2.2363.6836,2.3238,2.3238,0,0,0-.8105,1.875h-5.6445a5.6713,5.6713,0,0,1,1.1328-3.3984,7.4972,7.4972,0,0,1,3.2031-2.4512,11.6837,11.6837,0,0,1,4.6484-.8887,9.2247,9.2247,0,0,1,6.2012,1.9629,6.87,6.87,0,0,1,2.2949,5.5176v9.16a10.0929,10.0929,0,0,0,.84,4.5508v.332Zm-4.668-3.9258a4.8624,4.8624,0,0,0,2.3047-.5566,3.6579,3.6579,0,0,0,1.5625-1.4941V273.99h-2.1094q-4.2393,0-4.5117,2.93l-.02.332a2.2576,2.2576,0,0,0,.7422,1.7383A2.8759,2.8759,0,0,0,119.8281,279.6738Z"/><path d="M142.4844,279.4395a3.6975,3.6975,0,0,0,2.5391-.8594,3.0123,3.0123,0,0,0,1.0156-2.2852h5.293A7.2481,7.2481,0,0,1,150.16,280.23a7.7294,7.7294,0,0,1-3.1543,2.7734,9.8653,9.8653,0,0,1-4.4238.9863,9.1683,9.1683,0,0,1-7.1484-2.8809q-2.6177-2.88-2.6172-7.959v-.3711a11.2711,11.2711,0,0,1,2.5977-7.793,9.0684,9.0684,0,0,1,7.1289-2.91A8.8908,8.8908,0,0,1,148.9,264.332a7.99,7.99,0,0,1,2.4316,6.0059h-5.293a3.8842,3.8842,0,0,0-1.0156-2.68,3.7745,3.7745,0,0,0-5.5566.4063,8.3321,8.3321,0,0,0-1.0059,4.666v.5869a8.4347,8.4347,0,0,0,.9961,4.6943A3.439,3.439,0,0,0,142.4844,279.4395Z"/><path d="M162.23,275.123l-2.0312,2.0313V283.6h-5.6445v-30h5.6445v16.6211l1.0938-1.4062,5.41-6.3477H173.48l-7.6367,8.8086L174.1445,283.6H167.66Z"/><path d="M185.0039,272.8379a12.5306,12.5306,0,0,1,1.2109-5.6055,8.8568,8.8568,0,0,1,3.4863-3.8086,10.1689,10.1689,0,0,1,5.2832-1.3477,9.6263,9.6263,0,0,1,6.9824,2.6172,10.5137,10.5137,0,0,1,3.0176,7.1094l.0391,1.4453a11.0459,11.0459,0,0,1-2.7148,7.8027,10.5222,10.5222,0,0,1-14.58.01,11.24,11.24,0,0,1-2.7246-7.9687Zm5.6445.4014a7.892,7.892,0,0,0,1.1328,4.6064,4.07,4.07,0,0,0,6.4453.02,8.6484,8.6484,0,0,0,1.1523-5.0371,7.8268,7.8268,0,0,0-1.1523-4.5771,3.7482,3.7482,0,0,0-3.2422-1.624,3.6854,3.6854,0,0,0-3.2031,1.6143A8.7859,8.7859,0,0,0,190.6484,273.2393Z"/><path d="M227.5234,273.2285a12.6738,12.6738,0,0,1-2.2168,7.8223A7.1054,7.1054,0,0,1,219.32,283.99a6.5823,6.5823,0,0,1-5.1758-2.2266v9.9609H208.5V262.4668h5.2344l.1953,2.07a6.6331,6.6331,0,0,1,5.3516-2.4609,7.16,7.16,0,0,1,6.0742,2.8906q2.168,2.8916,2.168,7.9688Zm-5.6445-.41a8.3244,8.3244,0,0,0-1.0449-4.5508,3.4069,3.4069,0,0,0-3.0371-1.6016,3.6966,3.6966,0,0,0-3.6523,2.0313V277.35a3.7558,3.7558,0,0,0,3.6914,2.09Q221.8789,279.4395,221.8789,272.8184Z"/><path d="M250.043,273.2285a12.6738,12.6738,0,0,1-2.2168,7.8223A7.1054,7.1054,0,0,1,241.84,283.99a6.5823,6.5823,0,0,1-5.1758-2.2266v9.9609H231.02V262.4668h5.2344l.1953,2.07a6.6331,6.6331,0,0,1,5.3516-2.4609,7.16,7.16,0,0,1,6.0742,2.8906q2.168,2.8916,2.168,7.9688Zm-5.6445-.41a8.3244,8.3244,0,0,0-1.0449-4.5508,3.4069,3.4069,0,0,0-3.0371-1.6016,3.6966,3.6966,0,0,0-3.6523,2.0313V277.35a3.7558,3.7558,0,0,0,3.6914,2.09Q244.3984,279.4395,244.3984,272.8184Z"/><path d="M252.66,272.8379a12.5306,12.5306,0,0,1,1.2109-5.6055,8.8568,8.8568,0,0,1,3.4863-3.8086,10.1689,10.1689,0,0,1,5.2832-1.3477,9.6263,9.6263,0,0,1,6.9824,2.6172,10.5137,10.5137,0,0,1,3.0176,7.1094l.0391,1.4453a11.0459,11.0459,0,0,1-2.7148,7.8027,10.5222,10.5222,0,0,1-14.58.01,11.24,11.24,0,0,1-2.7246-7.9687Zm5.6445.4014a7.892,7.892,0,0,0,1.1328,4.6064,4.07,4.07,0,0,0,6.4453.02,8.6484,8.6484,0,0,0,1.1523-5.0371,7.8268,7.8268,0,0,0-1.1523-4.5771,3.7482,3.7482,0,0,0-3.2422-1.624,3.6854,3.6854,0,0,0-3.2031,1.6143A8.7859,8.7859,0,0,0,258.3047,273.2393Z"/><path d="M287.6016,277.76a1.8208,1.8208,0,0,0-1.0254-1.6309,11.6761,11.6761,0,0,0-3.291-1.0645q-7.54-1.582-7.5391-6.4062a5.8067,5.8067,0,0,1,2.334-4.6973,9.4168,9.4168,0,0,1,6.1035-1.8848,10.1431,10.1431,0,0,1,6.4355,1.8945,5.9741,5.9741,0,0,1,2.4121,4.9219h-5.6445a2.7335,2.7335,0,0,0-.7812-2.002,3.3077,3.3077,0,0,0-2.4414-.791,3.3765,3.3765,0,0,0-2.207.6445,2.0327,2.0327,0,0,0-.7812,1.6406,1.7371,1.7371,0,0,0,.8887,1.5137,9.1055,9.1055,0,0,0,2.998.9961,24.6676,24.6676,0,0,1,3.5547.9473q4.4722,1.6406,4.4727,5.6836a5.5125,5.5125,0,0,1-2.48,4.6777,10.7014,10.7014,0,0,1-6.4062,1.7871,11.1668,11.1668,0,0,1-4.7168-.9473,7.8962,7.8962,0,0,1-3.2324-2.5977,6.0315,6.0315,0,0,1-1.1719-3.5645h5.3516a2.9418,2.9418,0,0,0,1.1133,2.3047,4.4058,4.4058,0,0,0,2.7734.8008,4.0891,4.0891,0,0,0,2.4512-.6152A1.916,1.916,0,0,0,287.6016,277.76Z"/><path d="M296.6836,256.998a2.7805,2.7805,0,0,1,.85-2.09,3.6614,3.6614,0,0,1,4.6191,0,2.9825,2.9825,0,0,1-.01,4.1992,3.62,3.62,0,0,1-4.59,0A2.7689,2.7689,0,0,1,296.6836,256.998ZM302.68,283.6h-5.6641V262.4668H302.68Z"/><path d="M312.5234,262.4668l.1758,2.4414a7.381,7.381,0,0,1,6.0742-2.832,6.1342,6.1342,0,0,1,5,1.9727q1.6406,1.9746,1.68,5.8984V283.6h-5.6445V270.084a3.6656,3.6656,0,0,0-.7812-2.6074,3.5038,3.5038,0,0,0-2.5977-.8105,3.8836,3.8836,0,0,0-3.5742,2.0313V283.6h-5.6445V262.4668Z"/><path d="M328.91,272.877a12.3877,12.3877,0,0,1,2.3145-7.832,7.501,7.501,0,0,1,6.24-2.9687,6.5793,6.5793,0,0,1,5.41,2.3828l.2344-1.9922h5.1172v20.43a9.03,9.03,0,0,1-1.26,4.8242,8.0887,8.0887,0,0,1-3.5449,3.125A12.4534,12.4534,0,0,1,338.07,291.92a11.5728,11.5728,0,0,1-4.5312-.9277,8.0351,8.0351,0,0,1-3.34-2.3926l2.5-3.4375a6.609,6.609,0,0,0,5.1172,2.3633,4.841,4.841,0,0,0,3.4961-1.2012,4.5061,4.5061,0,0,0,1.25-3.4082v-1.1328a6.5261,6.5261,0,0,1-5.1367,2.207,7.4773,7.4773,0,0,1-6.1621-2.9785,12.3774,12.3774,0,0,1-2.3535-7.9Zm5.6445.4209a7.7091,7.7091,0,0,0,1.1523,4.5088,3.6637,3.6637,0,0,0,3.1641,1.6328,3.9189,3.9189,0,0,0,3.6914-1.9355v-8.9a3.9118,3.9118,0,0,0-3.6523-1.9375,3.6873,3.6873,0,0,0-3.1934,1.6641A8.6815,8.6815,0,0,0,334.5547,273.2979Z"/><path d="M371.3125,279.4395a3.6975,3.6975,0,0,0,2.5391-.8594,3.0123,3.0123,0,0,0,1.0156-2.2852h5.293a7.2481,7.2481,0,0,1-1.1719,3.9355,7.7294,7.7294,0,0,1-3.1543,2.7734,9.8653,9.8653,0,0,1-4.4238.9863,9.1683,9.1683,0,0,1-7.1484-2.8809q-2.6177-2.88-2.6172-7.959v-.3711a11.2711,11.2711,0,0,1,2.5977-7.793,9.0684,9.0684,0,0,1,7.1289-2.91,8.8908,8.8908,0,0,1,6.3574,2.2559,7.99,7.99,0,0,1,2.4316,6.0059h-5.293a3.8842,3.8842,0,0,0-1.0156-2.68,3.7745,3.7745,0,0,0-5.5566.4063,8.3321,8.3321,0,0,0-1.0059,4.666v.5869a8.4347,8.4347,0,0,0,.9961,4.6943A3.439,3.439,0,0,0,371.3125,279.4395Z"/><path d="M395.6289,283.6a6.2532,6.2532,0,0,1-.5664-1.8945,6.83,6.83,0,0,1-5.332,2.2852,7.4964,7.4964,0,0,1-5.1465-1.7969,5.7742,5.7742,0,0,1-2.041-4.5312,5.9751,5.9751,0,0,1,2.49-5.1562q2.49-1.7959,7.1973-1.8164h2.5977v-1.2109a3.4841,3.4841,0,0,0-.752-2.3437,2.96,2.96,0,0,0-2.373-.8789,3.3648,3.3648,0,0,0-2.2363.6836,2.3238,2.3238,0,0,0-.8105,1.875h-5.6445a5.6713,5.6713,0,0,1,1.1328-3.3984,7.4972,7.4972,0,0,1,3.2031-2.4512,11.6837,11.6837,0,0,1,4.6484-.8887,9.2247,9.2247,0,0,1,6.2012,1.9629,6.87,6.87,0,0,1,2.2949,5.5176v9.16a10.0929,10.0929,0,0,0,.84,4.5508v.332Zm-4.668-3.9258a4.8624,4.8624,0,0,0,2.3047-.5566,3.6579,3.6579,0,0,0,1.5625-1.4941V273.99h-2.1094q-4.2393,0-4.5117,2.93l-.02.332a2.2576,2.2576,0,0,0,.7422,1.7383A2.8759,2.8759,0,0,0,390.9609,279.6738Z"/><path d="M410.0234,262.4668l.1758,2.4414a7.381,7.381,0,0,1,6.0742-2.832,6.1342,6.1342,0,0,1,5,1.9727q1.6406,1.9746,1.68,5.8984V283.6h-5.6445V270.084a3.6656,3.6656,0,0,0-.7812-2.6074,3.5038,3.5038,0,0,0-2.5977-.8105,3.8836,3.8836,0,0,0-3.5742,2.0313V283.6h-5.6445V262.4668Z"/><path d="M426.3516,272.877a12.7339,12.7339,0,0,1,2.2168-7.8711,7.1919,7.1919,0,0,1,6.0645-2.93,6.4785,6.4785,0,0,1,5.0977,2.3047V253.6h5.6641v30h-5.0977l-.2734-2.2461a6.6432,6.6432,0,0,1-5.43,2.6367,7.17,7.17,0,0,1-5.9863-2.9395Q426.3516,278.1123,426.3516,272.877Zm5.6445.4209a8.3392,8.3392,0,0,0,1.0352,4.5576,3.37,3.37,0,0,0,3.0078,1.584,3.7777,3.7777,0,0,0,3.6914-2.21V268.877a3.7234,3.7234,0,0,0-3.6523-2.2109Q431.9956,266.666,431.9961,273.2979Z"/><path d="M449.73,256.998a2.7805,2.7805,0,0,1,.85-2.09,3.6614,3.6614,0,0,1,4.6191,0,2.9825,2.9825,0,0,1-.01,4.1992,3.62,3.62,0,0,1-4.59,0A2.7689,2.7689,0,0,1,449.73,256.998ZM455.7266,283.6h-5.6641V262.4668h5.6641Z"/><path d="M459.4961,272.877a12.7339,12.7339,0,0,1,2.2168-7.8711,7.1919,7.1919,0,0,1,6.0645-2.93,6.4785,6.4785,0,0,1,5.0977,2.3047V253.6h5.6641v30h-5.0977l-.2734-2.2461a6.6432,6.6432,0,0,1-5.43,2.6367,7.17,7.17,0,0,1-5.9863-2.9395Q459.4961,278.1123,459.4961,272.877Zm5.6445.4209a8.3392,8.3392,0,0,0,1.0352,4.5576,3.37,3.37,0,0,0,3.0078,1.584,3.7777,3.7777,0,0,0,3.6914-2.21V268.877a3.7234,3.7234,0,0,0-3.6523-2.2109Q465.14,266.666,465.1406,273.2979Z"/><path d="M495.16,283.6a6.2532,6.2532,0,0,1-.5664-1.8945,6.83,6.83,0,0,1-5.332,2.2852,7.4964,7.4964,0,0,1-5.1465-1.7969,5.7742,5.7742,0,0,1-2.041-4.5312,5.9751,5.9751,0,0,1,2.49-5.1562q2.49-1.7959,7.1973-1.8164h2.5977v-1.2109a3.4841,3.4841,0,0,0-.752-2.3437,2.96,2.96,0,0,0-2.373-.8789,3.3648,3.3648,0,0,0-2.2363.6836,2.3238,2.3238,0,0,0-.8105,1.875H482.543a5.6713,5.6713,0,0,1,1.1328-3.3984,7.4972,7.4972,0,0,1,3.2031-2.4512,11.6837,11.6837,0,0,1,4.6484-.8887,9.2247,9.2247,0,0,1,6.2012,1.9629,6.87,6.87,0,0,1,2.2949,5.5176v9.16a10.0929,10.0929,0,0,0,.84,4.5508v.332Zm-4.668-3.9258a4.8624,4.8624,0,0,0,2.3047-.5566,3.6579,3.6579,0,0,0,1.5625-1.4941V273.99H492.25q-4.2393,0-4.5117,2.93l-.02.332a2.2576,2.2576,0,0,0,.7422,1.7383A2.8759,2.8759,0,0,0,490.4922,279.6738Z"/><path d="M511.1172,257.2715v5.1953H514.73v4.1406h-3.6133v10.5469a2.5154,2.5154,0,0,0,.4492,1.68,2.2494,2.2494,0,0,0,1.7188.5078,8.9427,8.9427,0,0,0,1.66-.1367v4.2773a11.6077,11.6077,0,0,1-3.418.5078q-5.9385,0-6.0547-5.9961V266.6074h-3.0859v-4.1406h3.0859v-5.1953Z"/><path d="M527.6016,283.99a10.369,10.369,0,0,1-7.5684-2.8516,10.1362,10.1362,0,0,1-2.92-7.5977v-.5469a12.772,12.772,0,0,1,1.23-5.6934,9.0452,9.0452,0,0,1,3.4863-3.8672,9.7921,9.7921,0,0,1,5.1465-1.3574,8.7727,8.7727,0,0,1,6.8262,2.7344q2.49,2.7363,2.49,7.7539v2.3047h-13.457a5.24,5.24,0,0,0,1.65,3.32,4.986,4.986,0,0,0,3.4863,1.25,6.09,6.09,0,0,0,5.0977-2.3633l2.7734,3.1055a8.46,8.46,0,0,1-3.4375,2.8027A11.2731,11.2731,0,0,1,527.6016,283.99Zm-.6445-17.3633a3.526,3.526,0,0,0-2.7246,1.1387,5.8906,5.8906,0,0,0-1.3379,3.2559h7.8516V270.57a4.201,4.201,0,0,0-1.0156-2.9131A3.64,3.64,0,0,0,526.957,266.627Z"/><path d="M541.3906,290.7285l-2.9492-1.543.7031-1.27a10.1517,10.1517,0,0,0,1.3477-4.7461v-4.375h4.7656l-.02,3.9063a10.1449,10.1449,0,0,1-1.0937,4.375A11.1962,11.1962,0,0,1,541.3906,290.7285ZM539.4375,264.83a2.8426,2.8426,0,0,1,.9082-2.1875,3.5288,3.5288,0,0,1,4.57,0,2.8426,2.8426,0,0,1,.9082,2.1875,2.8011,2.8011,0,0,1-.8984,2.1582,3.5874,3.5874,0,0,1-4.59,0A2.8011,2.8011,0,0,1,539.4375,264.83Z"/><path d="M572.6016,281.4512A7.077,7.077,0,0,1,566.82,283.99a6.6735,6.6735,0,0,1-5.1855-1.9531,8.3357,8.3357,0,0,1-1.8262-5.7227V262.4668h5.6445v13.668q0,3.3047,3.0078,3.3047a4.0744,4.0744,0,0,0,3.9453-1.9941V262.4668H578.07V283.6h-5.3125Z"/><path d="M587.5234,262.4668l.1758,2.4414a7.3823,7.3823,0,0,1,6.0742-2.832,6.1342,6.1342,0,0,1,5,1.9727q1.6406,1.9746,1.68,5.8984V283.6h-5.6445V270.084a3.6656,3.6656,0,0,0-.7812-2.6074,3.5023,3.5023,0,0,0-2.5977-.8105,3.8836,3.8836,0,0,0-3.5742,2.0313V283.6h-5.6445V262.4668Z"/><path d="M616.1758,277.76a1.8208,1.8208,0,0,0-1.0254-1.6309,11.665,11.665,0,0,0-3.291-1.0645q-7.54-1.582-7.5391-6.4062a5.8094,5.8094,0,0,1,2.334-4.6973,9.4187,9.4187,0,0,1,6.1035-1.8848,10.1412,10.1412,0,0,1,6.4355,1.8945,5.9715,5.9715,0,0,1,2.4121,4.9219h-5.6445a2.7335,2.7335,0,0,0-.7812-2.002,3.3062,3.3062,0,0,0-2.4414-.791,3.3783,3.3783,0,0,0-2.207.6445,2.0356,2.0356,0,0,0-.7812,1.6406,1.7371,1.7371,0,0,0,.8887,1.5137,9.114,9.114,0,0,0,2.998.9961,24.6676,24.6676,0,0,1,3.5547.9473q4.4722,1.6406,4.4727,5.6836a5.5125,5.5125,0,0,1-2.48,4.6777,10.6994,10.6994,0,0,1-6.4062,1.7871,11.1731,11.1731,0,0,1-4.7168-.9473,7.8962,7.8962,0,0,1-3.2324-2.5977,6.0315,6.0315,0,0,1-1.1719-3.5645h5.3516a2.9418,2.9418,0,0,0,1.1133,2.3047,4.4077,4.4077,0,0,0,2.7734.8008,4.0871,4.0871,0,0,0,2.4512-.6152A1.9136,1.9136,0,0,0,616.1758,277.76Z"/><path d="M637.9531,281.4512a7.077,7.077,0,0,1-5.7812,2.5391,6.6735,6.6735,0,0,1-5.1855-1.9531,8.3357,8.3357,0,0,1-1.8262-5.7227V262.4668h5.6445v13.668q0,3.3047,3.0078,3.3047a4.0744,4.0744,0,0,0,3.9453-1.9941V262.4668h5.6641V283.6h-5.3125Z"/><path d="M666.7227,273.2285q0,5.08-2.168,7.92A7.1815,7.1815,0,0,1,658.5,283.99a6.5976,6.5976,0,0,1-5.4883-2.6367l-.2539,2.2461H647.68v-30h5.6445v10.7617a6.4284,6.4284,0,0,1,5.1367-2.2852,7.2406,7.2406,0,0,1,6.0645,2.8418q2.1973,2.8418,2.1973,7.998Zm-5.6445-.41a8.4139,8.4139,0,0,0-1.0156-4.6777,3.4358,3.4358,0,0,0-3.0273-1.4746,3.7241,3.7241,0,0,0-3.7109,2.207v8.34a3.7743,3.7743,0,0,0,3.75,2.2266,3.4848,3.4848,0,0,0,3.5938-2.6953A13.9041,13.9041,0,0,0,661.0781,272.8184Z"/><path d="M681.6445,277.76a1.8208,1.8208,0,0,0-1.0254-1.6309,11.665,11.665,0,0,0-3.291-1.0645q-7.54-1.582-7.5391-6.4062a5.8094,5.8094,0,0,1,2.334-4.6973,9.4187,9.4187,0,0,1,6.1035-1.8848,10.1412,10.1412,0,0,1,6.4355,1.8945,5.9715,5.9715,0,0,1,2.4121,4.9219H681.43a2.7335,2.7335,0,0,0-.7812-2.002,3.3062,3.3062,0,0,0-2.4414-.791,3.3783,3.3783,0,0,0-2.207.6445,2.0356,2.0356,0,0,0-.7812,1.6406,1.7371,1.7371,0,0,0,.8887,1.5137,9.114,9.114,0,0,0,2.998.9961,24.6676,24.6676,0,0,1,3.5547.9473q4.4722,1.6406,4.4727,5.6836a5.5125,5.5125,0,0,1-2.48,4.6777,10.6994,10.6994,0,0,1-6.4062,1.7871,11.1731,11.1731,0,0,1-4.7168-.9473,7.8962,7.8962,0,0,1-3.2324-2.5977,6.0315,6.0315,0,0,1-1.1719-3.5645h5.3516a2.9418,2.9418,0,0,0,1.1133,2.3047,4.4077,4.4077,0,0,0,2.7734.8008,4.0871,4.0871,0,0,0,2.4512-.6152A1.9136,1.9136,0,0,0,681.6445,277.76Z"/><path d="M699.5547,279.4395a3.6958,3.6958,0,0,0,2.5391-.8594,3.009,3.009,0,0,0,1.0156-2.2852h5.293A7.2317,7.2317,0,0,1,707.23,280.23a7.7232,7.7232,0,0,1-3.1543,2.7734,9.8653,9.8653,0,0,1-4.4238.9863,9.1711,9.1711,0,0,1-7.1484-2.8809q-2.6177-2.88-2.6172-7.959v-.3711a11.2758,11.2758,0,0,1,2.5977-7.793,9.07,9.07,0,0,1,7.1289-2.91,8.8876,8.8876,0,0,1,6.3574,2.2559,7.99,7.99,0,0,1,2.4316,6.0059h-5.293a3.88,3.88,0,0,0-1.0156-2.68,3.7745,3.7745,0,0,0-5.5566.4063,8.3321,8.3321,0,0,0-1.0059,4.666v.5869a8.4347,8.4347,0,0,0,.9961,4.6943A3.439,3.439,0,0,0,699.5547,279.4395Z"/><path d="M723.5,267.76a15.45,15.45,0,0,0-2.0312-.1562q-3.2036,0-4.1992,2.168V283.6H711.625V262.4668h5.332l.1563,2.52a5.2316,5.2316,0,0,1,4.707-2.91,5.9569,5.9569,0,0,1,1.7578.2539Z"/><path d="M726.1758,256.998a2.7805,2.7805,0,0,1,.85-2.09,3.6614,3.6614,0,0,1,4.6191,0,2.9825,2.9825,0,0,1-.01,4.1992,3.62,3.62,0,0,1-4.59,0A2.7724,2.7724,0,0,1,726.1758,256.998ZM732.1719,283.6h-5.6641V262.4668h5.6641Z"/><path d="M755.8633,273.2285q0,5.08-2.168,7.92a7.1815,7.1815,0,0,1-6.0547,2.8418,6.5976,6.5976,0,0,1-5.4883-2.6367l-.2539,2.2461H736.82v-30h5.6445v10.7617a6.4284,6.4284,0,0,1,5.1367-2.2852,7.2406,7.2406,0,0,1,6.0645,2.8418q2.1973,2.8418,2.1973,7.998Zm-5.6445-.41a8.4139,8.4139,0,0,0-1.0156-4.6777,3.4358,3.4358,0,0,0-3.0273-1.4746,3.7241,3.7241,0,0,0-3.7109,2.207v8.34a3.7743,3.7743,0,0,0,3.75,2.2266,3.4848,3.4848,0,0,0,3.5938-2.6953A13.9041,13.9041,0,0,0,750.2188,272.8184Z"/><path d="M769.0664,283.99a10.369,10.369,0,0,1-7.5684-2.8516,10.1362,10.1362,0,0,1-2.92-7.5977v-.5469a12.772,12.772,0,0,1,1.23-5.6934,9.0452,9.0452,0,0,1,3.4863-3.8672,9.7921,9.7921,0,0,1,5.1465-1.3574,8.7727,8.7727,0,0,1,6.8262,2.7344q2.49,2.7363,2.49,7.7539v2.3047h-13.457a5.24,5.24,0,0,0,1.65,3.32,4.986,4.986,0,0,0,3.4863,1.25,6.09,6.09,0,0,0,5.0977-2.3633l2.7734,3.1055a8.46,8.46,0,0,1-3.4375,2.8027A11.2731,11.2731,0,0,1,769.0664,283.99Zm-.6445-17.3633a3.526,3.526,0,0,0-2.7246,1.1387,5.8906,5.8906,0,0,0-1.3379,3.2559h7.8516V270.57a4.201,4.201,0,0,0-1.0156-2.9131A3.64,3.64,0,0,0,768.4219,266.627Z"/><path d="M790.043,272.877a12.74,12.74,0,0,1,2.2168-7.8711,7.1919,7.1919,0,0,1,6.0645-2.93,6.4757,6.4757,0,0,1,5.0977,2.3047V253.6h5.6641v30h-5.0977l-.2734-2.2461a6.6419,6.6419,0,0,1-5.43,2.6367,7.17,7.17,0,0,1-5.9863-2.9395Q790.043,278.1123,790.043,272.877Zm5.6445.4209a8.3392,8.3392,0,0,0,1.0352,4.5576,3.3709,3.3709,0,0,0,3.0078,1.584,3.7759,3.7759,0,0,0,3.6914-2.21V268.877a3.7234,3.7234,0,0,0-3.6523-2.2109Q795.687,266.666,795.6875,273.2979Z"/><path d="M812.582,272.8379a12.5306,12.5306,0,0,1,1.2109-5.6055,8.8687,8.8687,0,0,1,3.4863-3.8086,10.1713,10.1713,0,0,1,5.2832-1.3477,9.6263,9.6263,0,0,1,6.9824,2.6172,10.5048,10.5048,0,0,1,3.0176,7.1094l.0391,1.4453a11.0459,11.0459,0,0,1-2.7148,7.8027,10.5222,10.5222,0,0,1-14.58.01,11.24,11.24,0,0,1-2.7246-7.9687Zm5.6445.4014a7.8994,7.8994,0,0,0,1.1328,4.6064,4.07,4.07,0,0,0,6.4453.02,8.6408,8.6408,0,0,0,1.1523-5.0371,7.82,7.82,0,0,0-1.1523-4.5771,3.747,3.747,0,0,0-3.2422-1.624,3.6866,3.6866,0,0,0-3.2031,1.6143A8.7939,8.7939,0,0,0,818.2266,273.2393Z"/><path d="M841.2734,262.4668l.1758,2.4414a7.3823,7.3823,0,0,1,6.0742-2.832,6.1342,6.1342,0,0,1,5,1.9727q1.6406,1.9746,1.68,5.8984V283.6h-5.6445V270.084a3.6656,3.6656,0,0,0-.7812-2.6074,3.5023,3.5023,0,0,0-2.5977-.8105,3.8836,3.8836,0,0,0-3.5742,2.0313V283.6h-5.6445V262.4668Z"/><path d="M857.6016,272.8379a12.5306,12.5306,0,0,1,1.2109-5.6055,8.8687,8.8687,0,0,1,3.4863-3.8086,10.1713,10.1713,0,0,1,5.2832-1.3477,9.6263,9.6263,0,0,1,6.9824,2.6172,10.5048,10.5048,0,0,1,3.0176,7.1094l.0391,1.4453a11.0459,11.0459,0,0,1-2.7148,7.8027,10.5222,10.5222,0,0,1-14.58.01,11.24,11.24,0,0,1-2.7246-7.9687Zm5.6445.4014a7.8994,7.8994,0,0,0,1.1328,4.6064,4.07,4.07,0,0,0,6.4453.02,8.6408,8.6408,0,0,0,1.1523-5.0371,7.82,7.82,0,0,0-1.1523-4.5771,3.747,3.747,0,0,0-3.2422-1.624,3.6866,3.6866,0,0,0-3.2031,1.6143A8.7939,8.7939,0,0,0,863.2461,273.2393Z"/><path d="M892.9727,267.76a15.45,15.45,0,0,0-2.0312-.1562q-3.2036,0-4.1992,2.168V283.6h-5.6445V262.4668h5.332l.1563,2.52a5.2316,5.2316,0,0,1,4.707-2.91,5.9569,5.9569,0,0,1,1.7578.2539Z"/><path d="M907.1328,277.76a1.8208,1.8208,0,0,0-1.0254-1.6309,11.665,11.665,0,0,0-3.291-1.0645q-7.54-1.582-7.5391-6.4062a5.8094,5.8094,0,0,1,2.334-4.6973,9.4187,9.4187,0,0,1,6.1035-1.8848,10.1412,10.1412,0,0,1,6.4355,1.8945,5.9715,5.9715,0,0,1,2.4121,4.9219H906.918a2.7335,2.7335,0,0,0-.7812-2.002,3.3062,3.3062,0,0,0-2.4414-.791,3.3783,3.3783,0,0,0-2.207.6445,2.0356,2.0356,0,0,0-.7812,1.6406,1.7371,1.7371,0,0,0,.8887,1.5137,9.114,9.114,0,0,0,2.998.9961,24.6676,24.6676,0,0,1,3.5547.9473q4.4722,1.6406,4.4727,5.6836a5.5125,5.5125,0,0,1-2.48,4.6777,10.6994,10.6994,0,0,1-6.4062,1.7871,11.1731,11.1731,0,0,1-4.7168-.9473,7.8962,7.8962,0,0,1-3.2324-2.5977,6.0315,6.0315,0,0,1-1.1719-3.5645h5.3516a2.9418,2.9418,0,0,0,1.1133,2.3047,4.4077,4.4077,0,0,0,2.7734.8008,4.0871,4.0871,0,0,0,2.4512-.6152A1.9136,1.9136,0,0,0,907.1328,277.76Z"/><path d="M44.1445,321.6973H33.1484v-4.5508H44.1445Z"/><path d="M73.7539,324.1387A3.01,3.01,0,0,0,72.582,321.59a15.4106,15.4106,0,0,0-4.2187-1.875,29.7149,29.7149,0,0,1-4.8242-1.9434q-4.8442-2.6162-4.8437-7.0508a6.8691,6.8691,0,0,1,1.2988-4.1113,8.4828,8.4828,0,0,1,3.73-2.8223,14.0637,14.0637,0,0,1,5.459-1.0156,12.8011,12.8011,0,0,1,5.43,1.1035,8.6629,8.6629,0,0,1,3.7012,3.1152,8.1546,8.1546,0,0,1,1.3184,4.57H73.7734a3.8365,3.8365,0,0,0-1.23-3.0371,5.0581,5.0581,0,0,0-3.457-1.084,5.4027,5.4027,0,0,0-3.34.9082,2.8646,2.8646,0,0,0-1.1914,2.3926,2.7406,2.7406,0,0,0,1.3965,2.3242,15.7623,15.7623,0,0,0,4.1113,1.7578,17.7818,17.7818,0,0,1,7.2852,3.73A7.43,7.43,0,0,1,79.6328,324.1a6.8437,6.8437,0,0,1-2.793,5.791,12.2247,12.2247,0,0,1-7.52,2.1,14.52,14.52,0,0,1-5.9766-1.2012,9.4444,9.4444,0,0,1-4.1113-3.291,8.4241,8.4241,0,0,1-1.416-4.8437h5.8789q0,4.708,5.625,4.707a5.4733,5.4733,0,0,0,3.2617-.85A2.7641,2.7641,0,0,0,73.7539,324.1387Z"/><path d="M102.25,321.2285a12.6738,12.6738,0,0,1-2.2168,7.8223,7.1054,7.1054,0,0,1-5.9863,2.9395,6.5823,6.5823,0,0,1-5.1758-2.2266v9.9609H83.2266V310.4668h5.2344l.1953,2.07a6.6331,6.6331,0,0,1,5.3516-2.4609,7.16,7.16,0,0,1,6.0742,2.8906q2.168,2.8916,2.168,7.9688Zm-5.6445-.41a8.3244,8.3244,0,0,0-1.0449-4.5508,3.4069,3.4069,0,0,0-3.0371-1.6016,3.6966,3.6966,0,0,0-3.6523,2.0313V325.35a3.7558,3.7558,0,0,0,3.6914,2.09Q96.6055,327.4395,96.6055,320.8184Z"/><path d="M117.9922,331.6a6.2532,6.2532,0,0,1-.5664-1.8945,6.83,6.83,0,0,1-5.332,2.2852,7.4964,7.4964,0,0,1-5.1465-1.7969,5.7742,5.7742,0,0,1-2.041-4.5312,5.9751,5.9751,0,0,1,2.49-5.1562q2.49-1.7959,7.1973-1.8164h2.5977v-1.2109a3.4841,3.4841,0,0,0-.752-2.3437,2.96,2.96,0,0,0-2.373-.8789,3.3648,3.3648,0,0,0-2.2363.6836,2.3238,2.3238,0,0,0-.8105,1.875H105.375a5.6713,5.6713,0,0,1,1.1328-3.3984,7.4972,7.4972,0,0,1,3.2031-2.4512,11.6837,11.6837,0,0,1,4.6484-.8887,9.2247,9.2247,0,0,1,6.2012,1.9629,6.87,6.87,0,0,1,2.2949,5.5176v9.16a10.0929,10.0929,0,0,0,.84,4.5508v.332Zm-4.668-3.9258a4.8624,4.8624,0,0,0,2.3047-.5566,3.6579,3.6579,0,0,0,1.5625-1.4941V321.99H115.082q-4.2393,0-4.5117,2.93l-.02.332a2.2576,2.2576,0,0,0,.7422,1.7383A2.8759,2.8759,0,0,0,113.3242,327.6738Z"/><path d="M132.4844,310.4668l.1758,2.3633a7.4255,7.4255,0,0,1,6.0742-2.7539q4.0811,0,5.6055,3.2227a7.2553,7.2553,0,0,1,6.3477-3.2227,6.3066,6.3066,0,0,1,5.1172,2.002q1.6787,2.0039,1.68,6.0254V331.6H151.82V318.123a4.0275,4.0275,0,0,0-.7031-2.627,3.1188,3.1188,0,0,0-2.48-.83,3.5235,3.5235,0,0,0-3.5156,2.4219l.02,14.5117h-5.6445v-13.457a3.9793,3.9793,0,0,0-.7227-2.6562,3.1483,3.1483,0,0,0-2.4609-.82,3.6576,3.6576,0,0,0-3.4766,1.9922V331.6h-5.6445V310.4668Z"/><path d="M170.9023,320.877a12.7339,12.7339,0,0,1,2.2168-7.8711,7.1919,7.1919,0,0,1,6.0645-2.93,6.4785,6.4785,0,0,1,5.0977,2.3047V301.6h5.6641v30h-5.0977l-.2734-2.2461a6.6432,6.6432,0,0,1-5.43,2.6367,7.17,7.17,0,0,1-5.9863-2.9395Q170.9023,326.1123,170.9023,320.877Zm5.6445.4209a8.3392,8.3392,0,0,0,1.0352,4.5576,3.37,3.37,0,0,0,3.0078,1.584,3.7777,3.7777,0,0,0,3.6914-2.21V316.877a3.7234,3.7234,0,0,0-3.6523-2.2109Q176.5464,314.666,176.5469,321.2979Z"/><path d="M193.4414,320.8379a12.5306,12.5306,0,0,1,1.2109-5.6055,8.8568,8.8568,0,0,1,3.4863-3.8086,10.1689,10.1689,0,0,1,5.2832-1.3477,9.6263,9.6263,0,0,1,6.9824,2.6172,10.5137,10.5137,0,0,1,3.0176,7.1094l.0391,1.4453a11.0459,11.0459,0,0,1-2.7148,7.8027,10.5222,10.5222,0,0,1-14.58.01,11.24,11.24,0,0,1-2.7246-7.9687Zm5.6445.4014a7.892,7.892,0,0,0,1.1328,4.6064,4.07,4.07,0,0,0,6.4453.02,8.6484,8.6484,0,0,0,1.1523-5.0371,7.8268,7.8268,0,0,0-1.1523-4.5771,3.7482,3.7482,0,0,0-3.2422-1.624,3.6854,3.6854,0,0,0-3.2031,1.6143A8.7859,8.7859,0,0,0,199.0859,321.2393Z"/><path d="M222.1328,310.4668l.1758,2.4414a7.381,7.381,0,0,1,6.0742-2.832,6.1342,6.1342,0,0,1,5,1.9727q1.6406,1.9746,1.68,5.8984V331.6H229.418V318.084a3.6656,3.6656,0,0,0-.7812-2.6074,3.5038,3.5038,0,0,0-2.5977-.8105,3.8836,3.8836,0,0,0-3.5742,2.0313V331.6H216.82V310.4668Z"/><path d="M238.4609,320.8379a12.5306,12.5306,0,0,1,1.2109-5.6055,8.8568,8.8568,0,0,1,3.4863-3.8086,10.1689,10.1689,0,0,1,5.2832-1.3477,9.6263,9.6263,0,0,1,6.9824,2.6172,10.5137,10.5137,0,0,1,3.0176,7.1094l.0391,1.4453a11.0459,11.0459,0,0,1-2.7148,7.8027,10.5222,10.5222,0,0,1-14.58.01,11.24,11.24,0,0,1-2.7246-7.9687Zm5.6445.4014a7.892,7.892,0,0,0,1.1328,4.6064,4.07,4.07,0,0,0,6.4453.02,8.6484,8.6484,0,0,0,1.1523-5.0371,7.8268,7.8268,0,0,0-1.1523-4.5771,3.7482,3.7482,0,0,0-3.2422-1.624,3.6854,3.6854,0,0,0-3.2031,1.6143A8.7859,8.7859,0,0,0,244.1055,321.2393Z"/><path d="M273.832,315.76a15.45,15.45,0,0,0-2.0312-.1562q-3.2036,0-4.1992,2.168V331.6H261.957V310.4668h5.332l.1563,2.52a5.2306,5.2306,0,0,1,4.707-2.91,5.9569,5.9569,0,0,1,1.7578.2539Z"/><path d="M287.9922,325.76a1.8208,1.8208,0,0,0-1.0254-1.6309,11.6761,11.6761,0,0,0-3.291-1.0645q-7.54-1.582-7.5391-6.4062a5.8067,5.8067,0,0,1,2.334-4.6973,9.4168,9.4168,0,0,1,6.1035-1.8848,10.1431,10.1431,0,0,1,6.4355,1.8945,5.9741,5.9741,0,0,1,2.4121,4.9219h-5.6445a2.7335,2.7335,0,0,0-.7812-2.002,3.3077,3.3077,0,0,0-2.4414-.791,3.3765,3.3765,0,0,0-2.207.6445,2.0327,2.0327,0,0,0-.7812,1.6406,1.7371,1.7371,0,0,0,.8887,1.5137,9.1055,9.1055,0,0,0,2.998.9961,24.6676,24.6676,0,0,1,3.5547.9473q4.4722,1.6406,4.4727,5.6836a5.5125,5.5125,0,0,1-2.48,4.6777,10.7014,10.7014,0,0,1-6.4062,1.7871,11.1668,11.1668,0,0,1-4.7168-.9473,7.8962,7.8962,0,0,1-3.2324-2.5977,6.0315,6.0315,0,0,1-1.1719-3.5645h5.3516a2.9418,2.9418,0,0,0,1.1133,2.3047,4.4058,4.4058,0,0,0,2.7734.8008,4.0891,4.0891,0,0,0,2.4512-.6152A1.916,1.916,0,0,0,287.9922,325.76Z"/><path d="M299.0078,338.7285l-2.9492-1.543.7031-1.27a10.1517,10.1517,0,0,0,1.3477-4.7461v-4.375h4.7656l-.02,3.9063a10.1588,10.1588,0,0,1-1.0937,4.375A11.2234,11.2234,0,0,1,299.0078,338.7285ZM297.0547,312.83a2.8426,2.8426,0,0,1,.9082-2.1875,3.5288,3.5288,0,0,1,4.57,0,2.8426,2.8426,0,0,1,.9082,2.1875,2.8011,2.8011,0,0,1-.8984,2.1582,3.5874,3.5874,0,0,1-4.59,0A2.7978,2.7978,0,0,1,297.0547,312.83Z"/><path d="M329.0078,325.76a1.8208,1.8208,0,0,0-1.0254-1.6309,11.6761,11.6761,0,0,0-3.291-1.0645q-7.54-1.582-7.5391-6.4062a5.8067,5.8067,0,0,1,2.334-4.6973,9.4168,9.4168,0,0,1,6.1035-1.8848,10.1431,10.1431,0,0,1,6.4355,1.8945,5.9741,5.9741,0,0,1,2.4121,4.9219H328.793a2.7335,2.7335,0,0,0-.7812-2.002,3.3077,3.3077,0,0,0-2.4414-.791,3.3765,3.3765,0,0,0-2.207.6445,2.0327,2.0327,0,0,0-.7812,1.6406,1.7371,1.7371,0,0,0,.8887,1.5137,9.1055,9.1055,0,0,0,2.998.9961,24.6676,24.6676,0,0,1,3.5547.9473q4.4722,1.6406,4.4727,5.6836a5.5125,5.5125,0,0,1-2.48,4.6777,10.7014,10.7014,0,0,1-6.4062,1.7871,11.1668,11.1668,0,0,1-4.7168-.9473,7.8962,7.8962,0,0,1-3.2324-2.5977,6.0315,6.0315,0,0,1-1.1719-3.5645H321.84a2.9418,2.9418,0,0,0,1.1133,2.3047,4.4058,4.4058,0,0,0,2.7734.8008,4.0891,4.0891,0,0,0,2.4512-.6152A1.916,1.916,0,0,0,329.0078,325.76Z"/><path d="M350.7852,329.4512a7.077,7.077,0,0,1-5.7812,2.5391,6.6735,6.6735,0,0,1-5.1855-1.9531,8.3309,8.3309,0,0,1-1.8262-5.7227V310.4668h5.6445v13.668q0,3.3047,3.0078,3.3047a4.0754,4.0754,0,0,0,3.9453-1.9941V310.4668h5.6641V331.6h-5.3125Z"/><path d="M379.5547,321.2285q0,5.08-2.168,7.92a7.1815,7.1815,0,0,1-6.0547,2.8418,6.5976,6.5976,0,0,1-5.4883-2.6367L365.59,331.6h-5.0781v-30h5.6445v10.7617a6.4271,6.4271,0,0,1,5.1367-2.2852,7.2406,7.2406,0,0,1,6.0645,2.8418q2.1973,2.8418,2.1973,7.998Zm-5.6445-.41a8.4139,8.4139,0,0,0-1.0156-4.6777,3.4369,3.4369,0,0,0-3.0273-1.4746,3.7241,3.7241,0,0,0-3.7109,2.207v8.34a3.7726,3.7726,0,0,0,3.75,2.2266,3.4855,3.4855,0,0,0,3.5938-2.6953A13.9041,13.9041,0,0,0,373.91,320.8184Z"/><path d="M394.4766,325.76a1.8208,1.8208,0,0,0-1.0254-1.6309,11.6761,11.6761,0,0,0-3.291-1.0645q-7.54-1.582-7.5391-6.4062a5.8067,5.8067,0,0,1,2.334-4.6973,9.4168,9.4168,0,0,1,6.1035-1.8848,10.1431,10.1431,0,0,1,6.4355,1.8945,5.9741,5.9741,0,0,1,2.4121,4.9219h-5.6445a2.7335,2.7335,0,0,0-.7812-2.002,3.3077,3.3077,0,0,0-2.4414-.791,3.3765,3.3765,0,0,0-2.207.6445,2.0327,2.0327,0,0,0-.7812,1.6406,1.7371,1.7371,0,0,0,.8887,1.5137,9.1055,9.1055,0,0,0,2.998.9961,24.6676,24.6676,0,0,1,3.5547.9473q4.4722,1.6406,4.4727,5.6836a5.5125,5.5125,0,0,1-2.48,4.6777,10.7014,10.7014,0,0,1-6.4062,1.7871,11.1668,11.1668,0,0,1-4.7168-.9473,7.8962,7.8962,0,0,1-3.2324-2.5977,6.0315,6.0315,0,0,1-1.1719-3.5645h5.3516a2.9418,2.9418,0,0,0,1.1133,2.3047,4.4058,4.4058,0,0,0,2.7734.8008,4.0891,4.0891,0,0,0,2.4512-.6152A1.916,1.916,0,0,0,394.4766,325.76Z"/><path d="M412.3867,327.4395a3.6975,3.6975,0,0,0,2.5391-.8594,3.0123,3.0123,0,0,0,1.0156-2.2852h5.293a7.2481,7.2481,0,0,1-1.1719,3.9355,7.7294,7.7294,0,0,1-3.1543,2.7734,9.8653,9.8653,0,0,1-4.4238.9863,9.1683,9.1683,0,0,1-7.1484-2.8809q-2.6177-2.88-2.6172-7.959v-.3711a11.2711,11.2711,0,0,1,2.5977-7.793,9.0684,9.0684,0,0,1,7.1289-2.91,8.8908,8.8908,0,0,1,6.3574,2.2559,7.99,7.99,0,0,1,2.4316,6.0059h-5.293a3.8842,3.8842,0,0,0-1.0156-2.68,3.7745,3.7745,0,0,0-5.5566.4063,8.3321,8.3321,0,0,0-1.0059,4.666v.5869a8.4347,8.4347,0,0,0,.9961,4.6943A3.439,3.439,0,0,0,412.3867,327.4395Z"/><path d="M436.332,315.76a15.45,15.45,0,0,0-2.0312-.1562q-3.2036,0-4.1992,2.168V331.6H424.457V310.4668h5.332l.1563,2.52a5.2306,5.2306,0,0,1,4.707-2.91,5.9569,5.9569,0,0,1,1.7578.2539Z"/><path d="M439.0078,304.998a2.7805,2.7805,0,0,1,.85-2.09,3.6614,3.6614,0,0,1,4.6191,0,2.9825,2.9825,0,0,1-.01,4.1992,3.62,3.62,0,0,1-4.59,0A2.7689,2.7689,0,0,1,439.0078,304.998ZM445.0039,331.6H439.34V310.4668h5.6641Z"/><path d="M468.6953,321.2285q0,5.08-2.168,7.92a7.1815,7.1815,0,0,1-6.0547,2.8418,6.5976,6.5976,0,0,1-5.4883-2.6367L454.73,331.6h-5.0781v-30h5.6445v10.7617a6.4271,6.4271,0,0,1,5.1367-2.2852,7.2406,7.2406,0,0,1,6.0645,2.8418q2.1973,2.8418,2.1973,7.998Zm-5.6445-.41a8.4139,8.4139,0,0,0-1.0156-4.6777,3.4369,3.4369,0,0,0-3.0273-1.4746,3.7241,3.7241,0,0,0-3.7109,2.207v8.34a3.7726,3.7726,0,0,0,3.75,2.2266,3.4855,3.4855,0,0,0,3.5938-2.6953A13.9041,13.9041,0,0,0,463.0508,320.8184Z"/><path d="M481.8984,331.99a10.3674,10.3674,0,0,1-7.5684-2.8516,10.1325,10.1325,0,0,1-2.92-7.5977v-.5469a12.772,12.772,0,0,1,1.23-5.6934,9.0452,9.0452,0,0,1,3.4863-3.8672,9.79,9.79,0,0,1,5.1465-1.3574,8.7727,8.7727,0,0,1,6.8262,2.7344q2.49,2.7363,2.49,7.7539v2.3047h-13.457a5.2356,5.2356,0,0,0,1.65,3.32,4.986,4.986,0,0,0,3.4863,1.25,6.0925,6.0925,0,0,0,5.0977-2.3633l2.7734,3.1055a8.46,8.46,0,0,1-3.4375,2.8027A11.2731,11.2731,0,0,1,481.8984,331.99Zm-.6445-17.3633a3.526,3.526,0,0,0-2.7246,1.1387,5.8835,5.8835,0,0,0-1.3379,3.2559h7.8516V318.57a4.2056,4.2056,0,0,0-1.0156-2.9131A3.6411,3.6411,0,0,0,481.2539,314.627Z"/><path d="M510.5117,305.2715v5.1953h3.6133v4.1406h-3.6133v10.5469a2.5154,2.5154,0,0,0,.4492,1.68,2.2494,2.2494,0,0,0,1.7188.5078,8.9427,8.9427,0,0,0,1.66-.1367v4.2773a11.6125,11.6125,0,0,1-3.418.5078q-5.9385,0-6.0547-5.9961V314.6074h-3.0859v-4.1406h3.0859v-5.1953Z"/><path d="M515.8047,320.8379a12.5306,12.5306,0,0,1,1.2109-5.6055,8.8687,8.8687,0,0,1,3.4863-3.8086,10.1713,10.1713,0,0,1,5.2832-1.3477,9.6263,9.6263,0,0,1,6.9824,2.6172,10.5048,10.5048,0,0,1,3.0176,7.1094l.0391,1.4453a11.0459,11.0459,0,0,1-2.7148,7.8027,10.5222,10.5222,0,0,1-14.58.01,11.24,11.24,0,0,1-2.7246-7.9687Zm5.6445.4014a7.8994,7.8994,0,0,0,1.1328,4.6064,4.07,4.07,0,0,0,6.4453.02,8.6408,8.6408,0,0,0,1.1523-5.0371,7.82,7.82,0,0,0-1.1523-4.5771,3.747,3.747,0,0,0-3.2422-1.624,3.6866,3.6866,0,0,0-3.2031,1.6143A8.7939,8.7939,0,0,0,521.4492,321.2393Z"/><path d="M561.5078,331.6a6.2532,6.2532,0,0,1-.5664-1.8945,6.83,6.83,0,0,1-5.332,2.2852,7.4964,7.4964,0,0,1-5.1465-1.7969,5.7773,5.7773,0,0,1-2.041-4.5312,5.9751,5.9751,0,0,1,2.49-5.1562q2.49-1.7959,7.1973-1.8164h2.5977v-1.2109a3.4841,3.4841,0,0,0-.752-2.3437,2.9572,2.9572,0,0,0-2.373-.8789,3.3666,3.3666,0,0,0-2.2363.6836,2.3268,2.3268,0,0,0-.8105,1.875h-5.6445a5.6778,5.6778,0,0,1,1.1328-3.3984,7.5031,7.5031,0,0,1,3.2031-2.4512,11.6837,11.6837,0,0,1,4.6484-.8887,9.2229,9.2229,0,0,1,6.2012,1.9629,6.8666,6.8666,0,0,1,2.2949,5.5176v9.16a10.0929,10.0929,0,0,0,.84,4.5508v.332Zm-4.668-3.9258a4.8624,4.8624,0,0,0,2.3047-.5566,3.6579,3.6579,0,0,0,1.5625-1.4941V321.99h-2.1094q-4.2378,0-4.5117,2.93l-.02.332a2.2576,2.2576,0,0,0,.7422,1.7383A2.8775,2.8775,0,0,0,556.84,327.6738Z"/><path d="M576.6641,331.6H571v-30h5.6641Z"/><path d="M587.27,331.6h-5.6641v-30H587.27Z"/></svg>