<svg xmlns="http://www.w3.org/2000/svg" viewBox="0 0 1024 768"><defs><style>.a{fill:red;}.b{fill:#9cdaf1;}.c{fill:#7dbbe6;}.d{fill:#f4cbb2;}.e{fill:#fff;}.f{fill:#ad5c51;}.g{fill:#c3e4d8;}</style></defs><title>Slide U</title><path d="M305.334,85.6094H285.4355V106h-12.34V54.8125h34.2422V64.34H285.4355V76.1172H305.334Z"/><path d="M334.0215,78.6836l-3.9023-.2812q-5.59,0-7.1719,3.5156V106H311.1V67.9609H322.209l.3867,4.8867q2.9875-5.59,8.332-5.59a11.5535,11.5535,0,0,1,3.3047.4219Z"/><path d="M356.6973,106.7031q-8.7539,0-14.168-5.2207t-5.4141-13.5879V86.91a23.3607,23.3607,0,0,1,2.1621-10.3008,15.8206,15.8206,0,0,1,6.3105-6.9082,19.0493,19.0493,0,0,1,9.8438-2.4434q8.0156,0,12.6563,4.9746t4.6406,13.8691V90.707H349.1738a8.5394,8.5394,0,0,0,2.7773,5.0273,8.2631,8.2631,0,0,0,5.5547,1.8281,10.6485,10.6485,0,0,0,8.7891-3.9375l5.4141,6.3984a15.1344,15.1344,0,0,1-6.2754,4.8691A21.2082,21.2082,0,0,1,356.6973,106.7031Zm-1.3359-30.3047q-5.2031,0-6.1875,6.8906H361.127V82.375a5.87,5.87,0,0,0-1.4414-4.4121A5.7357,5.7357,0,0,0,355.3613,76.3984Z"/><path d="M395.8965,106.7031q-8.7539,0-14.168-5.2207t-5.4141-13.5879V86.91a23.3607,23.3607,0,0,1,2.1621-10.3008,15.8206,15.8206,0,0,1,6.3105-6.9082,19.0493,19.0493,0,0,1,9.8438-2.4434q8.0156,0,12.6563,4.9746t4.6406,13.8691V90.707H388.373a8.5394,8.5394,0,0,0,2.7773,5.0273,8.2631,8.2631,0,0,0,5.5547,1.8281,10.6485,10.6485,0,0,0,8.7891-3.9375l5.4141,6.3984a15.1344,15.1344,0,0,1-6.2754,4.8691A21.2082,21.2082,0,0,1,395.8965,106.7031Zm-1.3359-30.3047q-5.2031,0-6.1875,6.8906h11.9531V82.375a5.87,5.87,0,0,0-1.4414-4.4121A5.7357,5.7357,0,0,0,394.5605,76.3984Z"/><path d="M456.0488,106a13.3772,13.3772,0,0,1-1.125-3.41,11.0168,11.0168,0,0,1-9.1406,4.1133,13.4964,13.4964,0,0,1-9.1406-3.252,10.3494,10.3494,0,0,1-3.7617-8.1738q0-6.1875,4.57-9.3516T450.74,82.7617h3.6563V80.748q0-5.2646-4.5352-5.2637-4.2187,0-4.2187,4.1689H433.7949a10.621,10.621,0,0,1,4.6934-8.9541q4.6934-3.4409,11.9707-3.4414t11.4961,3.5508a12.3453,12.3453,0,0,1,4.3242,9.7383v16.84q.07,5.2383,1.6172,8.0156V106Zm-7.418-7.7344a6.6087,6.6087,0,0,0,3.6738-.9492,5.9532,5.9532,0,0,0,2.0918-2.1445V89.09h-3.4453q-6.1882,0-6.1875,5.5547a3.3916,3.3916,0,0,0,1.09,2.6191A3.9431,3.9431,0,0,0,448.6309,98.2656Z"/><path d="M492.752,95.3125a2.7371,2.7371,0,0,0-1.582-2.4258,24.0642,24.0642,0,0,0-6.0117-1.8984,27.4134,27.4134,0,0,1-7.3125-2.584,12.2488,12.2488,0,0,1-4.3945-3.8848,9.2765,9.2765,0,0,1-1.5117-5.2383,10.5136,10.5136,0,0,1,4.3242-8.6309q4.3242-3.3926,11.32-3.3926,7.5234,0,12.0938,3.41a10.664,10.664,0,0,1,4.57,8.9648H492.3652q0-4.57-4.8164-4.57A4.7744,4.7744,0,0,0,484.42,76.1a3.2111,3.2111,0,0,0-1.2656,2.584,2.9475,2.9475,0,0,0,1.5469,2.5664,14.6158,14.6158,0,0,0,4.9395,1.6172,42.6847,42.6847,0,0,1,5.959,1.5117q8.5781,2.9531,8.5781,10.582a9.9622,9.9622,0,0,1-4.623,8.4727q-4.623,3.27-11.9707,3.27a20.6888,20.6888,0,0,1-8.7187-1.7578,14.5794,14.5794,0,0,1-5.9766-4.7812,10.8267,10.8267,0,0,1-2.1445-6.3633h11.0742a4.5786,4.5786,0,0,0,1.7578,3.85A7.2306,7.2306,0,0,0,487.9,98.8633a5.6881,5.6881,0,0,0,3.6387-.9844A3.1489,3.1489,0,0,0,492.752,95.3125Z"/><path d="M527.5566,58.1523a5.2881,5.2881,0,0,1,1.8281-4.1484,7.773,7.773,0,0,1,9.4922,0,5.6209,5.6209,0,0,1,0,8.2969,7.773,7.773,0,0,1-9.4922,0A5.2881,5.2881,0,0,1,527.5566,58.1523ZM540.1426,106H528.26V67.9609h11.8828Z"/><path d="M558.3184,67.9609l.3867,4.4648a12.9,12.9,0,0,1,10.8633-5.168q5.9414,0,8.877,3.5508t3.041,10.6875V106H569.6035V81.9883a6.4191,6.4191,0,0,0-1.16-4.2363q-1.16-1.3535-4.2187-1.3535a5.65,5.65,0,0,0-5.168,2.7422V106H547.209V67.9609Z"/><path d="M606.5176,106V54.8125h18.3867q9.8789,0,15.0293,3.6211t5.15,10.5117a12.1793,12.1793,0,0,1-1.8281,6.7852,10.6527,10.6527,0,0,1-5.3789,4.1484,10.788,10.788,0,0,1,6.1523,3.9375,11.4484,11.4484,0,0,1,2.1445,7.0313q0,7.5234-4.7637,11.3027T627.2949,106Zm12.34-29.8477h6.4336q4.043-.0352,5.7656-1.48a5.2563,5.2563,0,0,0,1.7227-4.2676q0-3.2432-1.8633-4.6719-1.8633-1.4268-6.0117-1.4277h-6.0469Zm0,8.0859v12.27h8.0859a7.6908,7.6908,0,0,0,5.1328-1.5293,5.3522,5.3522,0,0,0,1.793-4.3066q0-6.3984-6.3633-6.4336Z"/><path d="M670.8184,106.7031q-8.7539,0-14.168-5.2207t-5.4141-13.5879V86.91a23.3607,23.3607,0,0,1,2.1621-10.3008,15.8206,15.8206,0,0,1,6.3105-6.9082,19.0505,19.0505,0,0,1,9.8438-2.4434q8.0156,0,12.6563,4.9746T686.85,86.1016V90.707H663.2949a8.5394,8.5394,0,0,0,2.7773,5.0273,8.264,8.264,0,0,0,5.5547,1.8281,10.6479,10.6479,0,0,0,8.7891-3.9375l5.4141,6.3984a15.1344,15.1344,0,0,1-6.2754,4.8691A21.2065,21.2065,0,0,1,670.8184,106.7031Zm-1.3359-30.3047q-5.2031,0-6.1875,6.8906H675.248V82.375a5.8684,5.8684,0,0,0-1.4414-4.4121A5.7357,5.7357,0,0,0,669.4824,76.3984Z"/><path d="M710.0176,106.7031q-8.7539,0-14.168-5.2207t-5.4141-13.5879V86.91a23.3607,23.3607,0,0,1,2.1621-10.3008,15.8206,15.8206,0,0,1,6.3105-6.9082,19.0505,19.0505,0,0,1,9.8438-2.4434q8.0156,0,12.6563,4.9746t4.6406,13.8691V90.707H702.4941a8.5394,8.5394,0,0,0,2.7773,5.0273,8.264,8.264,0,0,0,5.5547,1.8281,10.6479,10.6479,0,0,0,8.7891-3.9375l5.4141,6.3984a15.1344,15.1344,0,0,1-6.2754,4.8691A21.2065,21.2065,0,0,1,710.0176,106.7031Zm-1.3359-30.3047q-5.2031,0-6.1875,6.8906h11.9531V82.375a5.8684,5.8684,0,0,0-1.4414-4.4121A5.7357,5.7357,0,0,0,708.6816,76.3984Z"/><path d="M753.8223,78.6836l-3.9023-.2812q-5.59,0-7.1719,3.5156V106H730.9V67.9609H742.01l.3867,4.8867q2.9883-5.59,8.332-5.59a11.5535,11.5535,0,0,1,3.3047.4219Z"/><path class="a" d="M482.8613,162.68H476.99L475.9648,166h-4.5776l6.519-17.7734h4.0273L488.502,166h-4.6025Zm-4.8457-3.3086h3.82l-1.916-6.1641Z"/><path class="a" d="M501.8682,159.5059a8.05,8.05,0,0,1-1.3428,4.9922,4.497,4.497,0,0,1-3.7842,1.7461,3.903,3.903,0,0,1-3.2471-1.6L493.3232,166h-3.6865V147.25H493.75v6.6035a3.7688,3.7688,0,0,1,2.9668-1.3057,4.501,4.501,0,0,1,3.8086,1.7705,8.0946,8.0946,0,0,1,1.3428,4.98Zm-4.126-.2617a5.38,5.38,0,0,0-.5059-2.7119,1.71,1.71,0,0,0-1.5566-.8105,1.9722,1.9722,0,0,0-1.93,1.06v5.2412a1.9819,1.9819,0,0,0,1.9531,1.0479,1.747,1.747,0,0,0,1.8438-1.4141A10.1651,10.1651,0,0,0,497.7422,159.2441Z"/><path class="a" d="M511.67,156.5156l-1.3545-.0977a2.4328,2.4328,0,0,0-2.49,1.2207V166h-4.1143V152.792h3.8574l.1348,1.6963a3.1863,3.1863,0,0,1,2.8926-1.94,4.0219,4.0219,0,0,1,1.1484.1465Z"/><path class="a" d="M520.2275,166a4.6576,4.6576,0,0,1-.3906-1.1836,3.8272,3.8272,0,0,1-3.1738,1.4277,4.6906,4.6906,0,0,1-3.1738-1.1289,3.5933,3.5933,0,0,1-1.3057-2.8379,3.6937,3.6937,0,0,1,1.5869-3.248,8.0823,8.0823,0,0,1,4.6133-1.0977h1.27v-.6992q0-1.8281-1.5742-1.8281a1.287,1.287,0,0,0-1.4648,1.4473H512.5a3.691,3.691,0,0,1,1.63-3.1094,6.8551,6.8551,0,0,1,4.1563-1.1943,6.0026,6.0026,0,0,1,3.9922,1.2334,4.29,4.29,0,0,1,1.502,3.3809V163.01a5.9873,5.9873,0,0,0,.5605,2.7832V166Zm-2.5762-2.6855a2.2874,2.2874,0,0,0,1.2764-.33,2.0562,2.0562,0,0,0,.7256-.7441v-2.1113H518.458q-2.1489,0-2.1484,1.9277a1.18,1.18,0,0,0,.3779.91A1.37,1.37,0,0,0,517.6514,163.3145Z"/><path class="a" d="M525.5381,159.2988a8.0621,8.0621,0,0,1,1.3555-4.9443,4.4582,4.4582,0,0,1,3.7832-1.8066,3.7909,3.7909,0,0,1,2.9785,1.3916V147.25h4.127V166H534.083l-.207-1.416a3.8945,3.8945,0,0,1-3.2227,1.66,4.4516,4.4516,0,0,1-3.7363-1.8066A8.3281,8.3281,0,0,1,525.5381,159.2988Zm4.1133.2559q0,3.5156,2.0508,3.5156a2.0247,2.0247,0,0,0,1.9531-1.1475v-5.0293a1.9692,1.9692,0,0,0-1.9277-1.1719q-1.9043,0-2.0635,3.0762Z"/><path class="a" d="M546.51,166.2441a6.79,6.79,0,0,1-4.9189-1.8125,6.26,6.26,0,0,1-1.8809-4.7187v-.3418a8.119,8.119,0,0,1,.751-3.5762,5.4989,5.4989,0,0,1,2.1914-2.3984,6.6061,6.6061,0,0,1,3.418-.8486,5.7146,5.7146,0,0,1,4.3945,1.7275,6.7872,6.7872,0,0,1,1.6113,4.8154v1.5986h-8.1787a2.9606,2.9606,0,0,0,.9648,1.7461,2.8634,2.8634,0,0,0,1.9277.6348,3.6964,3.6964,0,0,0,3.0527-1.3672l1.8789,2.2217a5.243,5.243,0,0,1-2.1787,1.69A7.3488,7.3488,0,0,1,546.51,166.2441Zm-.4639-10.5225q-1.8062,0-2.1484,2.3926h4.15v-.3174a2.0383,2.0383,0,0,0-.5-1.5322A1.9925,1.9925,0,0,0,546.0459,155.7217Z"/><path d="M299.0669,184.2324a4.6423,4.6423,0,0,1,3.6743-1.6846q4.2231,0,4.2847,4.8213V196H304.06v-8.5205a2.6058,2.6058,0,0,0-.5923-1.9346,2.4179,2.4179,0,0,0-1.7393-.5684,2.8568,2.8568,0,0,0-2.6611,1.5879V196h-2.9663V177.25h2.9663Z"/><path d="M313.74,179.582v3.21h2.3315v2.1973H313.74v7.373a1.6235,1.6235,0,0,0,.2993,1.0928,1.3865,1.3865,0,0,0,1.0679.3359,4.536,4.536,0,0,0,1.0376-.123v2.2949a7.2966,7.2966,0,0,1-1.9531.2813q-3.4182,0-3.418-3.7715v-7.4834h-2.1729V182.792h2.1729v-3.21Z"/><path d="M322.0527,179.582v3.21h2.3315v2.1973h-2.3315v7.373a1.6235,1.6235,0,0,0,.2993,1.0928,1.3865,1.3865,0,0,0,1.0679.3359,4.536,4.536,0,0,0,1.0376-.123v2.2949a7.2966,7.2966,0,0,1-1.9531.2813q-3.4182,0-3.418-3.7715v-7.4834h-2.1729V182.792h2.1729v-3.21Z"/><path d="M338.2148,189.53a7.861,7.861,0,0,1-1.3916,4.8887,4.8345,4.8345,0,0,1-7.2144.3975v6.2617h-2.9663V182.792h2.7344l.1221,1.3428a4.3574,4.3574,0,0,1,3.5522-1.5869,4.504,4.504,0,0,1,3.7905,1.8008,8.0762,8.0762,0,0,1,1.373,4.999Zm-2.9541-.2568a5.5117,5.5117,0,0,0-.7871-3.1367,2.56,2.56,0,0,0-2.2524-1.16,2.73,2.73,0,0,0-2.6123,1.502v5.8594a2.7548,2.7548,0,0,0,2.6367,1.5381,2.5545,2.5545,0,0,0,2.2153-1.1416A6.0616,6.0616,0,0,0,335.2607,189.2734Z"/><path d="M348.127,192.4111a1.3448,1.3448,0,0,0-.6528-1.208,6.9185,6.9185,0,0,0-2.167-.7324,11.1142,11.1142,0,0,1-2.5269-.8066,3.37,3.37,0,0,1-2.2217-3.1123,3.5158,3.5158,0,0,1,1.44-2.8564,5.6951,5.6951,0,0,1,3.6621-1.1475,5.9242,5.9242,0,0,1,3.8267,1.1719,3.718,3.718,0,0,1,1.459,3.04H347.98a1.83,1.83,0,0,0-.6348-1.4229,2.4354,2.4354,0,0,0-1.6846-.5674,2.6311,2.6311,0,0,0-1.5933.4512,1.4269,1.4269,0,0,0-.6162,1.209,1.2017,1.2017,0,0,0,.5737,1.0625,7.9107,7.9107,0,0,0,2.3193.7627,10.99,10.99,0,0,1,2.7407.915,3.8854,3.8854,0,0,1,1.4766,1.2754,3.2542,3.2542,0,0,1,.4824,1.8066,3.4428,3.4428,0,0,1-1.4771,2.8877,6.3,6.3,0,0,1-3.87,1.1045,6.8286,6.8286,0,0,1-2.8931-.5859,4.7573,4.7573,0,0,1-1.9775-1.6113,3.8122,3.8122,0,0,1-.708-2.209H343a2.091,2.091,0,0,0,.7935,1.6172,3.0861,3.0861,0,0,0,1.9409.5674,3.0016,3.0016,0,0,0,1.7822-.4453A1.3805,1.3805,0,0,0,348.127,192.4111Z"/><path d="M355.4146,182.5117a1.6942,1.6942,0,0,1,1.2817.47,1.6339,1.6339,0,0,1,.4517,1.1777,1.5751,1.5751,0,0,1-.4517,1.1533,1.9983,1.9983,0,0,1-2.5391.0059,1.5457,1.5457,0,0,1-.4639-1.1592,1.6319,1.6319,0,0,1,.4517-1.1777A1.6765,1.6765,0,0,1,355.4146,182.5117Zm0,10.3633a1.6942,1.6942,0,0,1,1.2817.47,1.6347,1.6347,0,0,1,.4517,1.1787,1.5782,1.5782,0,0,1-.4517,1.1533,1.9983,1.9983,0,0,1-2.5391.0059,1.5457,1.5457,0,0,1-.4639-1.1592,1.6326,1.6326,0,0,1,.4517-1.1787A1.6765,1.6765,0,0,1,355.4146,192.875Z"/><path d="M361.0908,197.5254h-2.3315l6.9946-19.2988h2.3315Z"/><path d="M367.9512,197.5254H365.62l6.9946-19.2988h2.3315Z"/><path d="M376.4839,189.2988a7.73,7.73,0,0,1,1.4463-4.9141,4.6439,4.6439,0,0,1,3.8394-1.8369,4.3474,4.3474,0,0,1,3.5522,1.5752l.1343-1.3311h2.6733v12.8057a5.3256,5.3256,0,0,1-1.6172,4.1016,6.1659,6.1659,0,0,1-4.3643,1.501,7.0226,7.0226,0,0,1-2.8379-.6045,5.0419,5.0419,0,0,1-2.106-1.58l1.4038-1.7832a4.24,4.24,0,0,0,3.3691,1.624,3.2768,3.2768,0,0,0,2.3315-.8,3.0655,3.0655,0,0,0,.8545-2.35v-.8906a4.3706,4.3706,0,0,1-3.418,1.4277,4.631,4.631,0,0,1-3.7905-1.8437A7.9744,7.9744,0,0,1,376.4839,189.2988Zm2.9541.2559a5.3183,5.3183,0,0,0,.8115,3.1309,2.6092,2.6092,0,0,0,2.2524,1.1416,2.855,2.855,0,0,0,2.6611-1.5381v-5.8105a2.8141,2.8141,0,0,0-2.6367-1.502,2.6209,2.6209,0,0,0-2.2769,1.16A5.9555,5.9555,0,0,0,379.438,189.5547Z"/><path d="M391.1812,179.3613a1.5748,1.5748,0,0,1,.4331-1.1348,1.6386,1.6386,0,0,1,1.2393-.4512,1.6585,1.6585,0,0,1,1.2451.4512,1.5616,1.5616,0,0,1,.4395,1.1348,1.5254,1.5254,0,0,1-.4395,1.1172,1.671,1.671,0,0,1-1.2451.4453,1.6509,1.6509,0,0,1-1.2393-.4453A1.5381,1.5381,0,0,1,391.1812,179.3613ZM394.3306,196h-2.9663V182.792h2.9663Z"/><path d="M401.2764,179.582v3.21h2.3315v2.1973h-2.3315v7.373a1.6235,1.6235,0,0,0,.2993,1.0928,1.3865,1.3865,0,0,0,1.0679.3359,4.536,4.536,0,0,0,1.0376-.123v2.2949a7.2966,7.2966,0,0,1-1.9531.2813q-3.4182,0-3.418-3.7715v-7.4834h-2.1729V182.792H398.31v-3.21Z"/><path d="M408.7959,184.2324a4.6423,4.6423,0,0,1,3.6743-1.6846q4.2231,0,4.2847,4.8213V196h-2.9663v-8.5205a2.6058,2.6058,0,0,0-.5923-1.9346,2.4179,2.4179,0,0,0-1.7393-.5684,2.8568,2.8568,0,0,0-2.6611,1.5879V196H405.83V177.25h2.9663Z"/><path d="M427.7534,194.7061a4.6011,4.6011,0,0,1-3.7109,1.5381,4.097,4.097,0,0,1-3.2529-1.2578,5.3455,5.3455,0,0,1-1.105-3.6367V182.792h2.9663v8.5205q0,2.5151,2.0874,2.5146a2.932,2.932,0,0,0,2.9175-1.55V182.792h2.9663V196h-2.7954Z"/><path d="M445.2339,189.53a7.9393,7.9393,0,0,1-1.373,4.8955,4.4736,4.4736,0,0,1-3.7783,1.8184,4.3069,4.3069,0,0,1-3.6133-1.6719L436.3228,196h-2.6855V177.25h2.9663v6.8115a4.2942,4.2942,0,0,1,3.4546-1.5137,4.5271,4.5271,0,0,1,3.7964,1.7939,8.07,8.07,0,0,1,1.3794,5.0176Zm-2.9663-.2568a5.6116,5.6116,0,0,0-.7568-3.2227,2.5241,2.5241,0,0,0-2.1973-1.0742,2.7542,2.7542,0,0,0-2.71,1.6855v5.4434a2.7814,2.7814,0,0,0,2.7344,1.7217,2.5006,2.5006,0,0,0,2.1484-1.0381,5.4334,5.4334,0,0,0,.7813-3.1367Z"/><path d="M449.5674,192.875a1.6942,1.6942,0,0,1,1.2817.47,1.6347,1.6347,0,0,1,.4517,1.1787,1.5782,1.5782,0,0,1-.4517,1.1533,1.9983,1.9983,0,0,1-2.5391.0059,1.5457,1.5457,0,0,1-.4639-1.1592,1.6326,1.6326,0,0,1,.4517-1.1787A1.6765,1.6765,0,0,1,449.5674,192.875Z"/><path d="M460.1265,193.876a2.6814,2.6814,0,0,0,1.8433-.6475,2.2087,2.2087,0,0,0,.7813-1.5986h2.7954a4.3577,4.3577,0,0,1-.769,2.3008,5.0406,5.0406,0,0,1-1.9531,1.69,5.8094,5.8094,0,0,1-2.6611.623,5.6274,5.6274,0,0,1-4.3945-1.7949,7.1128,7.1128,0,0,1-1.6235-4.9551v-.3057a7.001,7.001,0,0,1,1.6113-4.8281,5.5816,5.5816,0,0,1,4.3945-1.8125,5.4307,5.4307,0,0,1,3.8394,1.373,4.9222,4.9222,0,0,1,1.5562,3.6074H462.751a2.7177,2.7177,0,0,0-.7754-1.8682,2.4932,2.4932,0,0,0-1.8491-.7324,2.6112,2.6112,0,0,0-2.2217,1.0439,5.324,5.324,0,0,0-.7935,3.168v.4756a5.4116,5.4116,0,0,0,.7754,3.2051A2.6093,2.6093,0,0,0,460.1265,193.876Z"/><path d="M467.231,189.2734a7.7915,7.7915,0,0,1,.769-3.4971,5.62,5.62,0,0,1,2.1606-2.3926,6.0862,6.0862,0,0,1,3.1987-.8359,5.7651,5.7651,0,0,1,4.3389,1.7217,6.766,6.766,0,0,1,1.8008,4.5645l.0127.6963a7.8655,7.8655,0,0,1-.751,3.4912,5.56,5.56,0,0,1-2.1484,2.3809,6.1459,6.1459,0,0,1-3.2295.8418,5.7322,5.7322,0,0,1-4.4736-1.8613,7.1311,7.1311,0,0,1-1.6782-4.9629Zm2.9663.2568a5.3232,5.3232,0,0,0,.8423,3.1924,2.7389,2.7389,0,0,0,2.3433,1.1533,2.7066,2.7066,0,0,0,2.3379-1.1719,5.8781,5.8781,0,0,0,.8359-3.4307,5.2514,5.2514,0,0,0-.86-3.1738,2.9,2.9,0,0,0-4.6445-.0176A5.7635,5.7635,0,0,0,470.1973,189.53Z"/><path d="M484.8086,182.792l.0859,1.38a4.7541,4.7541,0,0,1,3.8086-1.624,3.6507,3.6507,0,0,1,3.625,2.0264,4.6865,4.6865,0,0,1,4.0527-2.0264,4.1235,4.1235,0,0,1,3.2539,1.208,5.32,5.32,0,0,1,1.0918,3.5645V196h-2.9658v-8.5937a2.6241,2.6241,0,0,0-.55-1.8437,2.4029,2.4029,0,0,0-1.8184-.5859,2.47,2.47,0,0,0-1.6543.5439,2.86,2.86,0,0,0-.8965,1.4219L492.8535,196h-2.9668v-8.6914a2.1161,2.1161,0,0,0-2.38-2.332A2.61,2.61,0,0,0,484.98,186.43V196h-2.9668V182.792Z"/><path d="M504.6094,197.5254h-2.332l6.9941-19.2988h2.332Z"/><path d="M521.2227,178.2266h3.0762v12.4629a5.3028,5.3028,0,0,1-1.5928,4.0527,5.8785,5.8785,0,0,1-4.2061,1.502,6.0847,6.0847,0,0,1-4.2969-1.4043,5.0638,5.0638,0,0,1-1.5137-3.9062h3.0762a2.9238,2.9238,0,0,0,.7021,2.1309,2.7257,2.7257,0,0,0,2.0322.7139,2.5329,2.5329,0,0,0,1.9844-.8242,3.2879,3.2879,0,0,0,.7383-2.2764Z"/><path d="M530.9141,193.5342h8.0693V196H527.8262V178.2266h3.0879Z"/><path d="M540.51,189.2734a7.7913,7.7913,0,0,1,.7686-3.4971,5.6215,5.6215,0,0,1,2.1611-2.3926,6.0834,6.0834,0,0,1,3.1973-.8359,5.7643,5.7643,0,0,1,4.34,1.7217,6.766,6.766,0,0,1,1.8008,4.5645l.0117.6963a7.8652,7.8652,0,0,1-.75,3.4912,5.56,5.56,0,0,1-2.1484,2.3809,6.1424,6.1424,0,0,1-3.2285.8418,5.7329,5.7329,0,0,1-4.4746-1.8613A7.1286,7.1286,0,0,1,540.51,189.42Zm2.9658.2568a5.3163,5.3163,0,0,0,.8428,3.1924,2.7367,2.7367,0,0,0,2.3438,1.1533,2.7084,2.7084,0,0,0,2.3369-1.1719,5.8777,5.8777,0,0,0,.8369-3.4307,5.2515,5.2515,0,0,0-.8613-3.1738,2.9,2.9,0,0,0-4.6445-.0176A5.767,5.767,0,0,0,543.4756,189.53Z"/><path d="M562.7021,192.4111a1.3462,1.3462,0,0,0-.6533-1.208,6.9185,6.9185,0,0,0-2.167-.7324,11.135,11.135,0,0,1-2.5273-.8066,3.37,3.37,0,0,1-2.2207-3.1123,3.5161,3.5161,0,0,1,1.4395-2.8564,5.6988,5.6988,0,0,1,3.6621-1.1475,5.9256,5.9256,0,0,1,3.8271,1.1719,3.718,3.718,0,0,1,1.459,3.04h-2.9658a1.83,1.83,0,0,0-.6348-1.4229,2.438,2.438,0,0,0-1.6855-.5674,2.6316,2.6316,0,0,0-1.5928.4512,1.4257,1.4257,0,0,0-.6162,1.209,1.2021,1.2021,0,0,0,.5742,1.0625,7.9069,7.9069,0,0,0,2.3184.7627,10.9947,10.9947,0,0,1,2.7412.915,3.8854,3.8854,0,0,1,1.4766,1.2754,3.2583,3.2583,0,0,1,.4824,1.8066,3.4408,3.4408,0,0,1-1.4775,2.8877,6.2977,6.2977,0,0,1-3.8691,1.1045,6.8263,6.8263,0,0,1-2.8926-.5859,4.7665,4.7665,0,0,1-1.9785-1.6113,3.8146,3.8146,0,0,1-.707-2.209h2.8809a2.0891,2.0891,0,0,0,.793,1.6172,3.0857,3.0857,0,0,0,1.9414.5674,2.9962,2.9962,0,0,0,1.7813-.4453A1.38,1.38,0,0,0,562.7021,192.4111Z"/><path d="M579.7676,189.53a7.861,7.861,0,0,1-1.3916,4.8887,4.834,4.834,0,0,1-7.2139.3975v6.2617h-2.9668V182.792H570.93l.1221,1.3428a4.3577,4.3577,0,0,1,3.5518-1.5869,4.5049,4.5049,0,0,1,3.791,1.8008,8.0762,8.0762,0,0,1,1.373,4.999Zm-2.9541-.2568a5.5117,5.5117,0,0,0-.7871-3.1367,2.5611,2.5611,0,0,0-2.2529-1.16,2.7285,2.7285,0,0,0-2.6113,1.502v5.8594a2.7548,2.7548,0,0,0,2.6367,1.5381,2.5548,2.5548,0,0,0,2.2148-1.1416A6.0616,6.0616,0,0,0,576.8135,189.2734Z"/><path d="M582.2813,179.3613a1.5732,1.5732,0,0,1,.4336-1.1348,1.6386,1.6386,0,0,1,1.2393-.4512,1.6585,1.6585,0,0,1,1.2451.4512,1.5616,1.5616,0,0,1,.4395,1.1348,1.5254,1.5254,0,0,1-.4395,1.1172,1.671,1.671,0,0,1-1.2451.4453,1.6509,1.6509,0,0,1-1.2393-.4453A1.5364,1.5364,0,0,1,582.2813,179.3613ZM585.4316,196h-2.9668V182.792h2.9668Z"/><path d="M591.4131,182.792l.085,1.5264a4.7513,4.7513,0,0,1,3.8457-1.7705q4.1265,0,4.1992,4.7236V196h-2.9668v-8.5566a2.7226,2.7226,0,0,0-.543-1.8623,2.2863,2.2863,0,0,0-1.7754-.6045,2.859,2.859,0,0,0-2.6738,1.624V196h-2.9668V182.792Z"/><path d="M602.01,189.2734a7.7913,7.7913,0,0,1,.7686-3.4971,5.6215,5.6215,0,0,1,2.1611-2.3926,6.0834,6.0834,0,0,1,3.1973-.8359,5.7643,5.7643,0,0,1,4.34,1.7217,6.766,6.766,0,0,1,1.8008,4.5645l.0117.6963a7.8652,7.8652,0,0,1-.75,3.4912,5.56,5.56,0,0,1-2.1484,2.3809,6.1424,6.1424,0,0,1-3.2285.8418,5.7329,5.7329,0,0,1-4.4746-1.8613A7.1286,7.1286,0,0,1,602.01,189.42Zm2.9658.2568a5.3163,5.3163,0,0,0,.8428,3.1924,2.7367,2.7367,0,0,0,2.3438,1.1533,2.7084,2.7084,0,0,0,2.3369-1.1719,5.8777,5.8777,0,0,0,.8369-3.4307,5.2515,5.2515,0,0,0-.8613-3.1738,2.9,2.9,0,0,0-4.6445-.0176A5.767,5.767,0,0,0,604.9756,189.53Z"/><path d="M624.2021,192.4111a1.3462,1.3462,0,0,0-.6533-1.208,6.9185,6.9185,0,0,0-2.167-.7324,11.135,11.135,0,0,1-2.5273-.8066,3.37,3.37,0,0,1-2.2207-3.1123,3.5161,3.5161,0,0,1,1.4395-2.8564,5.6988,5.6988,0,0,1,3.6621-1.1475,5.9256,5.9256,0,0,1,3.8271,1.1719,3.718,3.718,0,0,1,1.459,3.04h-2.9658a1.83,1.83,0,0,0-.6348-1.4229,2.438,2.438,0,0,0-1.6855-.5674,2.6316,2.6316,0,0,0-1.5928.4512,1.4257,1.4257,0,0,0-.6162,1.209,1.2021,1.2021,0,0,0,.5742,1.0625,7.9069,7.9069,0,0,0,2.3184.7627,10.9947,10.9947,0,0,1,2.7412.915,3.8854,3.8854,0,0,1,1.4766,1.2754,3.2583,3.2583,0,0,1,.4824,1.8066,3.4408,3.4408,0,0,1-1.4775,2.8877,6.2977,6.2977,0,0,1-3.8691,1.1045,6.8263,6.8263,0,0,1-2.8926-.5859,4.7665,4.7665,0,0,1-1.9785-1.6113,3.8146,3.8146,0,0,1-.707-2.209h2.8809a2.0891,2.0891,0,0,0,.793,1.6172,3.0857,3.0857,0,0,0,1.9414.5674,2.9962,2.9962,0,0,0,1.7813-.4453A1.38,1.38,0,0,0,624.2021,192.4111Z"/><path d="M629.1465,189.2734a7.7913,7.7913,0,0,1,.7686-3.4971,5.6215,5.6215,0,0,1,2.1611-2.3926,6.0834,6.0834,0,0,1,3.1973-.8359,5.7643,5.7643,0,0,1,4.34,1.7217,6.766,6.766,0,0,1,1.8008,4.5645l.0117.6963a7.8652,7.8652,0,0,1-.75,3.4912,5.56,5.56,0,0,1-2.1484,2.3809,6.1424,6.1424,0,0,1-3.2285.8418,5.7329,5.7329,0,0,1-4.4746-1.8613,7.1286,7.1286,0,0,1-1.6777-4.9629Zm2.9658.2568a5.3163,5.3163,0,0,0,.8428,3.1924,2.7367,2.7367,0,0,0,2.3438,1.1533,2.7084,2.7084,0,0,0,2.3369-1.1719,5.8777,5.8777,0,0,0,.8369-3.4307,5.2515,5.2515,0,0,0-.8613-3.1738,2.9,2.9,0,0,0-4.6445-.0176A5.767,5.767,0,0,0,632.1123,189.53Z"/><path d="M644.7705,197.5254h-2.3311l6.9951-19.2988h2.3311Z"/><path d="M661.7148,196a4.5491,4.5491,0,0,1-.3418-1.2324,4.6186,4.6186,0,0,1-3.4668,1.4766,4.6666,4.6666,0,0,1-3.248-1.1348,3.6358,3.6358,0,0,1-1.2568-2.8086,3.7484,3.7484,0,0,1,1.5684-3.24,7.601,7.601,0,0,1,4.4863-1.1289h1.8193v-.8672a2.312,2.312,0,0,0-.5742-1.6416,2.2753,2.2753,0,0,0-1.7461-.6162,2.6134,2.6134,0,0,0-1.66.5059,1.57,1.57,0,0,0-.6465,1.2881h-2.9668a3.2918,3.2918,0,0,1,.7207-2.0322,4.8,4.8,0,0,1,1.959-1.4834,6.8794,6.8794,0,0,1,2.7656-.5371,5.5411,5.5411,0,0,1,3.6982,1.166,4.1555,4.1555,0,0,1,1.416,3.2773v5.957a6.75,6.75,0,0,0,.501,2.8447V196Zm-3.26-2.1367a3.3734,3.3734,0,0,0,1.6543-.4268,2.852,2.852,0,0,0,1.166-1.1475v-2.49h-1.6a4.3721,4.3721,0,0,0-2.4785.5742,1.86,1.86,0,0,0-.83,1.623,1.7322,1.7322,0,0,0,.5684,1.3613A2.1954,2.1954,0,0,0,658.4551,193.8633Z"/><path d="M678.9385,189.53a7.9393,7.9393,0,0,1-1.373,4.8955,4.4729,4.4729,0,0,1-3.7783,1.8184,4.3075,4.3075,0,0,1-3.6133-1.6719L670.0273,196h-2.6855V177.25h2.9668v6.8115a4.2926,4.2926,0,0,1,3.4541-1.5137,4.5249,4.5249,0,0,1,3.7959,1.7939,8.0666,8.0666,0,0,1,1.38,5.0176Zm-2.9658-.2568a5.6072,5.6072,0,0,0-.7578-3.2227,2.5217,2.5217,0,0,0-2.1973-1.0742,2.7538,2.7538,0,0,0-2.709,1.6855v5.4434a2.78,2.78,0,0,0,2.7344,1.7217,2.5006,2.5006,0,0,0,2.1484-1.0381,5.4372,5.4372,0,0,0,.7813-3.1367Z"/><path d="M688.3379,185.502a7.4181,7.4181,0,0,0-1.209-.0977,2.7206,2.7206,0,0,0-2.7461,1.5625V196H681.416V182.792h2.832l.0732,1.4775a3.34,3.34,0,0,1,2.9785-1.7217,2.79,2.79,0,0,1,1.05.1709Z"/><path d="M697.7373,196a4.5491,4.5491,0,0,1-.3418-1.2324,4.6186,4.6186,0,0,1-3.4668,1.4766,4.6666,4.6666,0,0,1-3.248-1.1348,3.6358,3.6358,0,0,1-1.2568-2.8086,3.7484,3.7484,0,0,1,1.5684-3.24,7.601,7.601,0,0,1,4.4863-1.1289h1.8193v-.8672a2.312,2.312,0,0,0-.5742-1.6416,2.2753,2.2753,0,0,0-1.7461-.6162,2.6134,2.6134,0,0,0-1.66.5059,1.57,1.57,0,0,0-.6465,1.2881h-2.9668a3.2918,3.2918,0,0,1,.7207-2.0322,4.8,4.8,0,0,1,1.959-1.4834,6.8794,6.8794,0,0,1,2.7656-.5371,5.5411,5.5411,0,0,1,3.6982,1.166,4.1555,4.1555,0,0,1,1.416,3.2773v5.957a6.75,6.75,0,0,0,.501,2.8447V196Zm-3.26-2.1367a3.3734,3.3734,0,0,0,1.6543-.4268,2.852,2.852,0,0,0,1.166-1.1475v-2.49h-1.6a4.3721,4.3721,0,0,0-2.4785.5742,1.86,1.86,0,0,0-.83,1.623,1.7322,1.7322,0,0,0,.5684,1.3613A2.1954,2.1954,0,0,0,694.4775,193.8633Z"/><path d="M702.8154,189.2988a7.849,7.849,0,0,1,1.416-4.9014,4.5343,4.5343,0,0,1,3.7959-1.85,4.311,4.311,0,0,1,3.3936,1.4648V177.25h2.9668V196h-2.6855l-.1465-1.3672a4.3741,4.3741,0,0,1-3.5527,1.6113,4.5144,4.5144,0,0,1-3.7539-1.8672A8.1422,8.1422,0,0,1,702.8154,189.2988Zm2.9658.2559a5.4926,5.4926,0,0,0,.7754,3.1436,2.514,2.514,0,0,0,2.2031,1.1289,2.8,2.8,0,0,0,2.6611-1.624v-5.6387a2.758,2.758,0,0,0-2.6367-1.5879,2.5343,2.5343,0,0,0-2.2217,1.1416A6.1274,6.1274,0,0,0,705.7813,189.5547Z"/><path d="M723.2979,196.2441a6.1364,6.1364,0,0,1-4.5713-1.7764,6.44,6.44,0,0,1-1.751-4.7295v-.3672a7.9185,7.9185,0,0,1,.7627-3.5332,5.8052,5.8052,0,0,1,2.1416-2.4238,5.67,5.67,0,0,1,3.0762-.8662,5.1812,5.1812,0,0,1,4.1689,1.7217,7.276,7.276,0,0,1,1.4717,4.87v1.1963h-8.6309a3.9635,3.9635,0,0,0,1.0928,2.5879,3.28,3.28,0,0,0,2.4111.9521,4.0208,4.0208,0,0,0,3.32-1.6475l1.5986,1.5254a5.34,5.34,0,0,1-2.1182,1.8369A6.6261,6.6261,0,0,1,723.2979,196.2441Zm-.3535-11.3164a2.4983,2.4983,0,0,0-1.9717.8555,4.4346,4.4346,0,0,0-.958,2.38h5.6523v-.22a3.6063,3.6063,0,0,0-.7939-2.252A2.4783,2.4783,0,0,0,722.9443,184.9277Z"/><path class="a" d="M487.1719,254.5723a4.241,4.241,0,0,1-3.5283,1.6719,4.16,4.16,0,0,1-3.29-1.2637,5.3144,5.3144,0,0,1-1.1172-3.6309V242.792h4.1143v8.5811a1.4787,1.4787,0,0,0,1.6475,1.6973,2.1507,2.1507,0,0,0,2.0146-1.0137V242.792H491.15V256H487.293Z"/><path class="a" d="M497.1816,242.792l.1338,1.55a4.4813,4.4813,0,0,1,3.7725-1.7939,3.7677,3.7677,0,0,1,3.082,1.2334,5.8687,5.8687,0,0,1,1.0557,3.7109V256H501.1v-8.3379a2.2364,2.2364,0,0,0-.4023-1.4707,1.8693,1.8693,0,0,0-1.4648-.47,1.9616,1.9616,0,0,0-1.7949.9521V256h-4.1133V242.792Z"/><path class="a" d="M508.4121,256V245.6484h-1.917V242.792h1.917v-1.05a4.565,4.565,0,0,1,1.33-3.5039,5.2555,5.2555,0,0,1,3.7354-1.2441,8.18,8.18,0,0,1,1.9287.2559l.0127,3.0273a3.77,3.77,0,0,0-1.0137-.1094q-1.8677,0-1.8682,1.6113v1.0127h2.5762v2.8564h-2.5762V256Z"/><path class="a" d="M524.4277,254.5723a4.241,4.241,0,0,1-3.5283,1.6719,4.16,4.16,0,0,1-3.29-1.2637,5.3144,5.3144,0,0,1-1.1172-3.6309V242.792h4.1143v8.5811a1.4787,1.4787,0,0,0,1.6475,1.6973,2.15,2.15,0,0,0,2.0146-1.0137V242.792h4.1377V256h-3.8574Z"/><path class="a" d="M538.6484,246.5156l-1.3545-.0977a2.4328,2.4328,0,0,0-2.49,1.2207V256h-4.1143V242.792h3.8574l.1348,1.6963a3.1863,3.1863,0,0,1,2.8926-1.94,4.0219,4.0219,0,0,1,1.1484.1465Z"/><path class="a" d="M544.4717,256h-4.126V237.25h4.126Z"/><path d="M304.7432,274.2324a4.6423,4.6423,0,0,1,3.6743-1.6846q4.2231,0,4.2847,4.8213V286h-2.9663v-8.5205a2.6058,2.6058,0,0,0-.5923-1.9346,2.4179,2.4179,0,0,0-1.7393-.5684,2.8568,2.8568,0,0,0-2.6611,1.5879V286h-2.9663V267.25h2.9663Z"/><path d="M319.416,269.582v3.21h2.3315v2.1973H319.416v7.373a1.6235,1.6235,0,0,0,.2993,1.0928,1.3865,1.3865,0,0,0,1.0679.3359,4.536,4.536,0,0,0,1.0376-.123v2.2949a7.2966,7.2966,0,0,1-1.9531.2813q-3.4182,0-3.418-3.7715v-7.4834h-2.1729V272.792H316.45v-3.21Z"/><path d="M327.729,269.582v3.21h2.3315v2.1973H327.729v7.373a1.6235,1.6235,0,0,0,.2993,1.0928,1.3865,1.3865,0,0,0,1.0679.3359,4.536,4.536,0,0,0,1.0376-.123v2.2949a7.2966,7.2966,0,0,1-1.9531.2813q-3.4182,0-3.418-3.7715v-7.4834H322.59V272.792h2.1729v-3.21Z"/><path d="M343.8911,279.53a7.861,7.861,0,0,1-1.3916,4.8887,4.8345,4.8345,0,0,1-7.2144.3975v6.2617h-2.9663V272.792h2.7344l.1221,1.3428a4.3574,4.3574,0,0,1,3.5522-1.5869,4.504,4.504,0,0,1,3.7905,1.8008,8.0762,8.0762,0,0,1,1.373,4.999Zm-2.9541-.2568a5.5117,5.5117,0,0,0-.7871-3.1367,2.56,2.56,0,0,0-2.2524-1.16,2.73,2.73,0,0,0-2.6123,1.502v5.8594a2.7548,2.7548,0,0,0,2.6367,1.5381,2.5545,2.5545,0,0,0,2.2153-1.1416A6.0616,6.0616,0,0,0,340.937,279.2734Z"/><path d="M353.8032,282.4111a1.3448,1.3448,0,0,0-.6528-1.208,6.9185,6.9185,0,0,0-2.167-.7324,11.1142,11.1142,0,0,1-2.5269-.8066,3.37,3.37,0,0,1-2.2217-3.1123,3.5158,3.5158,0,0,1,1.44-2.8564,5.6951,5.6951,0,0,1,3.6621-1.1475,5.9242,5.9242,0,0,1,3.8267,1.1719,3.718,3.718,0,0,1,1.459,3.04h-2.9663a1.83,1.83,0,0,0-.6348-1.4229,2.4354,2.4354,0,0,0-1.6846-.5674,2.6311,2.6311,0,0,0-1.5933.4512,1.4269,1.4269,0,0,0-.6162,1.209,1.2017,1.2017,0,0,0,.5737,1.0625,7.9107,7.9107,0,0,0,2.3193.7627,10.99,10.99,0,0,1,2.7407.915,3.8854,3.8854,0,0,1,1.4766,1.2754,3.2542,3.2542,0,0,1,.4824,1.8066,3.4428,3.4428,0,0,1-1.4771,2.8877,6.3,6.3,0,0,1-3.87,1.1045,6.8286,6.8286,0,0,1-2.8931-.5859,4.7573,4.7573,0,0,1-1.9775-1.6113,3.8122,3.8122,0,0,1-.708-2.209h2.8809a2.091,2.091,0,0,0,.7935,1.6172,3.0861,3.0861,0,0,0,1.9409.5674,3.0016,3.0016,0,0,0,1.7822-.4453A1.3805,1.3805,0,0,0,353.8032,282.4111Z"/><path d="M361.0908,272.5117a1.6942,1.6942,0,0,1,1.2817.47,1.6339,1.6339,0,0,1,.4517,1.1777,1.5751,1.5751,0,0,1-.4517,1.1533,1.9983,1.9983,0,0,1-2.5391.0059,1.5457,1.5457,0,0,1-.4639-1.1592,1.6319,1.6319,0,0,1,.4517-1.1777A1.6765,1.6765,0,0,1,361.0908,272.5117Zm0,10.3633a1.6942,1.6942,0,0,1,1.2817.47,1.6347,1.6347,0,0,1,.4517,1.1787,1.5782,1.5782,0,0,1-.4517,1.1533,1.9983,1.9983,0,0,1-2.5391.0059,1.5457,1.5457,0,0,1-.4639-1.1592,1.6326,1.6326,0,0,1,.4517-1.1787A1.6765,1.6765,0,0,1,361.0908,282.875Z"/><path d="M366.7671,287.5254h-2.3315l6.9946-19.2988h2.3315Z"/><path d="M373.6274,287.5254h-2.3315l6.9946-19.2988h2.3315Z"/><path d="M382.16,279.2988a7.73,7.73,0,0,1,1.4463-4.9141,4.6439,4.6439,0,0,1,3.8394-1.8369,4.3474,4.3474,0,0,1,3.5522,1.5752l.1343-1.3311h2.6733v12.8057a5.3256,5.3256,0,0,1-1.6172,4.1016,6.1659,6.1659,0,0,1-4.3643,1.501,7.0226,7.0226,0,0,1-2.8379-.6045,5.0419,5.0419,0,0,1-2.106-1.58l1.4038-1.7832a4.24,4.24,0,0,0,3.3691,1.624,3.2768,3.2768,0,0,0,2.3315-.8,3.0655,3.0655,0,0,0,.8545-2.35v-.8906a4.3706,4.3706,0,0,1-3.418,1.4277,4.631,4.631,0,0,1-3.7905-1.8437A7.9744,7.9744,0,0,1,382.16,279.2988Zm2.9541.2559a5.3183,5.3183,0,0,0,.8115,3.1309,2.6092,2.6092,0,0,0,2.2524,1.1416,2.855,2.855,0,0,0,2.6611-1.5381v-5.8105a2.8141,2.8141,0,0,0-2.6367-1.502,2.6209,2.6209,0,0,0-2.2769,1.16A5.9555,5.9555,0,0,0,385.1143,279.5547Z"/><path d="M396.8574,269.3613a1.5748,1.5748,0,0,1,.4331-1.1348,1.6386,1.6386,0,0,1,1.2393-.4512,1.6585,1.6585,0,0,1,1.2451.4512,1.5616,1.5616,0,0,1,.4395,1.1348,1.5254,1.5254,0,0,1-.4395,1.1172,1.671,1.671,0,0,1-1.2451.4453,1.6509,1.6509,0,0,1-1.2393-.4453A1.5381,1.5381,0,0,1,396.8574,269.3613ZM400.0068,286h-2.9663V272.792h2.9663Z"/><path d="M406.9526,269.582v3.21h2.3315v2.1973h-2.3315v7.373a1.6235,1.6235,0,0,0,.2993,1.0928,1.3865,1.3865,0,0,0,1.0679.3359,4.536,4.536,0,0,0,1.0376-.123v2.2949a7.2966,7.2966,0,0,1-1.9531.2813q-3.4182,0-3.418-3.7715v-7.4834h-2.1729V272.792h2.1729v-3.21Z"/><path d="M414.4722,274.2324a4.6423,4.6423,0,0,1,3.6743-1.6846q4.2231,0,4.2847,4.8213V286h-2.9663v-8.5205a2.6058,2.6058,0,0,0-.5923-1.9346,2.4179,2.4179,0,0,0-1.7393-.5684,2.8568,2.8568,0,0,0-2.6611,1.5879V286h-2.9663V267.25h2.9663Z"/><path d="M433.43,284.7061a4.6011,4.6011,0,0,1-3.7109,1.5381,4.097,4.097,0,0,1-3.2529-1.2578,5.3455,5.3455,0,0,1-1.105-3.6367V272.792h2.9663v8.5205q0,2.5151,2.0874,2.5146a2.932,2.932,0,0,0,2.9175-1.55V272.792h2.9663V286h-2.7954Z"/><path d="M450.91,279.53a7.9393,7.9393,0,0,1-1.373,4.8955,4.4736,4.4736,0,0,1-3.7783,1.8184,4.3069,4.3069,0,0,1-3.6133-1.6719L441.999,286h-2.6855V267.25H442.28v6.8115a4.2942,4.2942,0,0,1,3.4546-1.5137,4.5271,4.5271,0,0,1,3.7964,1.7939,8.07,8.07,0,0,1,1.3794,5.0176Zm-2.9663-.2568a5.6116,5.6116,0,0,0-.7568-3.2227,2.5241,2.5241,0,0,0-2.1973-1.0742,2.7542,2.7542,0,0,0-2.71,1.6855v5.4434a2.7814,2.7814,0,0,0,2.7344,1.7217,2.5006,2.5006,0,0,0,2.1484-1.0381,5.4334,5.4334,0,0,0,.7813-3.1367Z"/><path d="M455.2437,282.875a1.6942,1.6942,0,0,1,1.2817.47,1.6347,1.6347,0,0,1,.4517,1.1787,1.5782,1.5782,0,0,1-.4517,1.1533,1.9983,1.9983,0,0,1-2.5391.0059,1.5457,1.5457,0,0,1-.4639-1.1592,1.6326,1.6326,0,0,1,.4517-1.1787A1.6765,1.6765,0,0,1,455.2437,282.875Z"/><path d="M465.8027,283.876a2.6814,2.6814,0,0,0,1.8433-.6475,2.2087,2.2087,0,0,0,.7813-1.5986h2.7954a4.3577,4.3577,0,0,1-.769,2.3008,5.0406,5.0406,0,0,1-1.9531,1.69,5.8094,5.8094,0,0,1-2.6611.623,5.6274,5.6274,0,0,1-4.3945-1.7949,7.1128,7.1128,0,0,1-1.6235-4.9551v-.3057a7.001,7.001,0,0,1,1.6113-4.8281,5.5816,5.5816,0,0,1,4.3945-1.8125,5.4307,5.4307,0,0,1,3.8394,1.373,4.9222,4.9222,0,0,1,1.5562,3.6074h-2.7954a2.7177,2.7177,0,0,0-.7754-1.8682,2.4932,2.4932,0,0,0-1.8491-.7324,2.6112,2.6112,0,0,0-2.2217,1.0439,5.324,5.324,0,0,0-.7935,3.168v.4756a5.4116,5.4116,0,0,0,.7754,3.2051A2.6093,2.6093,0,0,0,465.8027,283.876Z"/><path d="M472.9072,279.2734a7.8043,7.8043,0,0,1,.7686-3.4971,5.6277,5.6277,0,0,1,2.1611-2.3926,6.0845,6.0845,0,0,1,3.1982-.8359,5.7673,5.7673,0,0,1,4.34,1.7217,6.766,6.766,0,0,1,1.8008,4.5645l.0117.6963a7.8652,7.8652,0,0,1-.75,3.4912,5.5661,5.5661,0,0,1-2.1484,2.3809,6.1459,6.1459,0,0,1-3.2295.8418,5.7308,5.7308,0,0,1-4.4736-1.8613,7.1291,7.1291,0,0,1-1.6787-4.9629Zm2.9658.2568a5.3232,5.3232,0,0,0,.8428,3.1924,2.7391,2.7391,0,0,0,2.3438,1.1533,2.7061,2.7061,0,0,0,2.3369-1.1719,5.87,5.87,0,0,0,.8369-3.4307,5.2514,5.2514,0,0,0-.86-3.1738,2.7494,2.7494,0,0,0-2.3379-1.1719,2.7194,2.7194,0,0,0-2.3066,1.1543A5.76,5.76,0,0,0,475.873,279.53Z"/><path d="M490.4854,272.792l.085,1.38a4.7541,4.7541,0,0,1,3.8086-1.624,3.653,3.653,0,0,1,3.626,2.0264,4.6854,4.6854,0,0,1,4.0527-2.0264,4.1213,4.1213,0,0,1,3.2529,1.208,5.3206,5.3206,0,0,1,1.0928,3.5645V286h-2.9658v-8.5937a2.6288,2.6288,0,0,0-.55-1.8437,2.4054,2.4054,0,0,0-1.8193-.5859,2.47,2.47,0,0,0-1.6543.5439,2.8737,2.8737,0,0,0-.8965,1.4219L498.5293,286h-2.9658v-8.6914a2.1165,2.1165,0,0,0-2.38-2.332,2.61,2.61,0,0,0-2.5273,1.4531V286h-2.9668V272.792Z"/><path d="M510.2852,287.5254h-2.332l6.9961-19.2988h2.33Z"/><path d="M526.8984,268.2266h3.0762v12.4629a5.3028,5.3028,0,0,1-1.5928,4.0527,5.8785,5.8785,0,0,1-4.2061,1.502,6.0847,6.0847,0,0,1-4.2969-1.4043,5.0638,5.0638,0,0,1-1.5137-3.9062h3.0762a2.9238,2.9238,0,0,0,.7021,2.1309,2.7257,2.7257,0,0,0,2.0322.7139,2.5329,2.5329,0,0,0,1.9844-.8242,3.2879,3.2879,0,0,0,.7383-2.2764Z"/><path d="M536.59,283.5342h8.0693V286H533.502V268.2266H536.59Z"/><path d="M546.1855,279.2734a7.7913,7.7913,0,0,1,.7686-3.4971,5.6215,5.6215,0,0,1,2.1611-2.3926,6.0834,6.0834,0,0,1,3.1973-.8359,5.7643,5.7643,0,0,1,4.34,1.7217,6.766,6.766,0,0,1,1.8008,4.5645l.0117.6963a7.8652,7.8652,0,0,1-.75,3.4912,5.56,5.56,0,0,1-2.1484,2.3809,6.1424,6.1424,0,0,1-3.2285.8418,5.7329,5.7329,0,0,1-4.4746-1.8613,7.1286,7.1286,0,0,1-1.6777-4.9629Zm2.9658.2568a5.3163,5.3163,0,0,0,.8428,3.1924,2.7367,2.7367,0,0,0,2.3438,1.1533,2.7084,2.7084,0,0,0,2.3369-1.1719,5.8777,5.8777,0,0,0,.8369-3.4307A5.2515,5.2515,0,0,0,554.65,276.1a2.9,2.9,0,0,0-4.6445-.0176A5.767,5.767,0,0,0,549.1514,279.53Z"/><path d="M568.3779,282.4111a1.3462,1.3462,0,0,0-.6533-1.208,6.9185,6.9185,0,0,0-2.167-.7324,11.135,11.135,0,0,1-2.5273-.8066,3.37,3.37,0,0,1-2.2207-3.1123,3.5161,3.5161,0,0,1,1.4395-2.8564,5.6988,5.6988,0,0,1,3.6621-1.1475,5.9256,5.9256,0,0,1,3.8271,1.1719,3.718,3.718,0,0,1,1.459,3.04h-2.9658a1.83,1.83,0,0,0-.6348-1.4229,2.438,2.438,0,0,0-1.6855-.5674,2.6316,2.6316,0,0,0-1.5928.4512,1.4257,1.4257,0,0,0-.6162,1.209,1.2021,1.2021,0,0,0,.5742,1.0625,7.9069,7.9069,0,0,0,2.3184.7627,10.9947,10.9947,0,0,1,2.7412.915,3.8854,3.8854,0,0,1,1.4766,1.2754,3.2583,3.2583,0,0,1,.4824,1.8066,3.4408,3.4408,0,0,1-1.4775,2.8877,6.2977,6.2977,0,0,1-3.8691,1.1045,6.8263,6.8263,0,0,1-2.8926-.5859,4.7665,4.7665,0,0,1-1.9785-1.6113,3.8146,3.8146,0,0,1-.707-2.209h2.8809a2.0891,2.0891,0,0,0,.793,1.6172,3.0857,3.0857,0,0,0,1.9414.5674,2.9962,2.9962,0,0,0,1.7813-.4453A1.38,1.38,0,0,0,568.3779,282.4111Z"/><path d="M585.4434,279.53a7.861,7.861,0,0,1-1.3916,4.8887,4.834,4.834,0,0,1-7.2139.3975v6.2617h-2.9668V272.792h2.7344l.1221,1.3428a4.3577,4.3577,0,0,1,3.5518-1.5869,4.5049,4.5049,0,0,1,3.791,1.8008,8.0762,8.0762,0,0,1,1.373,4.999Zm-2.9541-.2568a5.5117,5.5117,0,0,0-.7871-3.1367,2.5611,2.5611,0,0,0-2.2529-1.16,2.7285,2.7285,0,0,0-2.6113,1.502v5.8594a2.7548,2.7548,0,0,0,2.6367,1.5381,2.5548,2.5548,0,0,0,2.2148-1.1416A6.0616,6.0616,0,0,0,582.4893,279.2734Z"/><path d="M587.957,269.3613a1.5732,1.5732,0,0,1,.4336-1.1348,1.6386,1.6386,0,0,1,1.2393-.4512,1.6585,1.6585,0,0,1,1.2451.4512,1.5616,1.5616,0,0,1,.4395,1.1348,1.5254,1.5254,0,0,1-.4395,1.1172,1.671,1.671,0,0,1-1.2451.4453,1.6509,1.6509,0,0,1-1.2393-.4453A1.5364,1.5364,0,0,1,587.957,269.3613ZM591.1074,286h-2.9668V272.792h2.9668Z"/><path d="M597.0889,272.792l.085,1.5264a4.7513,4.7513,0,0,1,3.8457-1.7705q4.1265,0,4.1992,4.7236V286H602.252v-8.5566a2.7226,2.7226,0,0,0-.543-1.8623,2.2863,2.2863,0,0,0-1.7754-.6045,2.859,2.859,0,0,0-2.6738,1.624V286H594.293V272.792Z"/><path d="M607.6855,279.2734a7.7913,7.7913,0,0,1,.7686-3.4971,5.6215,5.6215,0,0,1,2.1611-2.3926,6.0834,6.0834,0,0,1,3.1973-.8359,5.7643,5.7643,0,0,1,4.34,1.7217,6.766,6.766,0,0,1,1.8008,4.5645l.0117.6963a7.8652,7.8652,0,0,1-.75,3.4912,5.56,5.56,0,0,1-2.1484,2.3809,6.1424,6.1424,0,0,1-3.2285.8418,5.7329,5.7329,0,0,1-4.4746-1.8613,7.1286,7.1286,0,0,1-1.6777-4.9629Zm2.9658.2568a5.3163,5.3163,0,0,0,.8428,3.1924,2.7367,2.7367,0,0,0,2.3438,1.1533,2.7084,2.7084,0,0,0,2.3369-1.1719,5.8777,5.8777,0,0,0,.8369-3.4307A5.2515,5.2515,0,0,0,616.15,276.1a2.9,2.9,0,0,0-4.6445-.0176A5.767,5.767,0,0,0,610.6514,279.53Z"/><path d="M629.8779,282.4111a1.3462,1.3462,0,0,0-.6533-1.208,6.9185,6.9185,0,0,0-2.167-.7324,11.135,11.135,0,0,1-2.5273-.8066,3.37,3.37,0,0,1-2.2207-3.1123,3.5161,3.5161,0,0,1,1.4395-2.8564,5.6988,5.6988,0,0,1,3.6621-1.1475,5.9256,5.9256,0,0,1,3.8271,1.1719,3.718,3.718,0,0,1,1.459,3.04h-2.9658a1.83,1.83,0,0,0-.6348-1.4229,2.438,2.438,0,0,0-1.6855-.5674,2.6316,2.6316,0,0,0-1.5928.4512,1.4257,1.4257,0,0,0-.6162,1.209,1.2021,1.2021,0,0,0,.5742,1.0625,7.9069,7.9069,0,0,0,2.3184.7627,10.9947,10.9947,0,0,1,2.7412.915,3.8854,3.8854,0,0,1,1.4766,1.2754,3.2583,3.2583,0,0,1,.4824,1.8066,3.4408,3.4408,0,0,1-1.4775,2.8877,6.2977,6.2977,0,0,1-3.8691,1.1045,6.8263,6.8263,0,0,1-2.8926-.5859,4.7665,4.7665,0,0,1-1.9785-1.6113,3.8146,3.8146,0,0,1-.707-2.209h2.8809a2.0891,2.0891,0,0,0,.793,1.6172,3.0857,3.0857,0,0,0,1.9414.5674,2.9962,2.9962,0,0,0,1.7813-.4453A1.38,1.38,0,0,0,629.8779,282.4111Z"/><path d="M634.8223,279.2734a7.7913,7.7913,0,0,1,.7686-3.4971,5.6215,5.6215,0,0,1,2.1611-2.3926,6.0834,6.0834,0,0,1,3.1973-.8359,5.7643,5.7643,0,0,1,4.34,1.7217,6.766,6.766,0,0,1,1.8008,4.5645l.0117.6963a7.8652,7.8652,0,0,1-.75,3.4912,5.56,5.56,0,0,1-2.1484,2.3809,6.1424,6.1424,0,0,1-3.2285.8418,5.7329,5.7329,0,0,1-4.4746-1.8613,7.1286,7.1286,0,0,1-1.6777-4.9629Zm2.9658.2568a5.3163,5.3163,0,0,0,.8428,3.1924,2.7367,2.7367,0,0,0,2.3438,1.1533,2.7084,2.7084,0,0,0,2.3369-1.1719,5.8777,5.8777,0,0,0,.8369-3.4307,5.2515,5.2515,0,0,0-.8613-3.1738,2.9,2.9,0,0,0-4.6445-.0176A5.767,5.767,0,0,0,637.7881,279.53Z"/><path d="M650.4463,287.5254h-2.3311l6.9951-19.2988h2.3311Z"/><path d="M667.5,284.7061a4.6,4.6,0,0,1-3.7109,1.5381,4.097,4.097,0,0,1-3.2529-1.2578,5.3429,5.3429,0,0,1-1.1045-3.6367V272.792h2.9658v8.5205q0,2.5151,2.0869,2.5146a2.9319,2.9319,0,0,0,2.918-1.55V272.792h2.9668V286h-2.7959Z"/><path d="M676.1426,272.792l.085,1.5264a4.7513,4.7513,0,0,1,3.8457-1.7705q4.1265,0,4.1992,4.7236V286h-2.9668v-8.5566a2.7226,2.7226,0,0,0-.543-1.8623,2.2863,2.2863,0,0,0-1.7754-.6045,2.859,2.859,0,0,0-2.6738,1.624V286h-2.9668V272.792Z"/><path d="M688.3369,286V274.9893h-2.0146V272.792h2.0146v-1.208a4.542,4.542,0,0,1,1.2207-3.3945,4.6777,4.6777,0,0,1,3.418-1.1953,6.8542,6.8542,0,0,1,1.66.2188l-.0732,2.32a5.8142,5.8142,0,0,0-1.1348-.0977,1.9054,1.9054,0,0,0-2.125,2.1846v1.1719h2.6855v2.1973h-2.6855V286Z"/><path d="M704.1572,284.7061a4.6,4.6,0,0,1-3.7109,1.5381,4.097,4.097,0,0,1-3.2529-1.2578,5.3429,5.3429,0,0,1-1.1045-3.6367V272.792h2.9658v8.5205q0,2.5151,2.0869,2.5146a2.9319,2.9319,0,0,0,2.918-1.55V272.792h2.9668V286H704.23Z"/><path d="M716.9629,275.502a7.4181,7.4181,0,0,0-1.209-.0977,2.7206,2.7206,0,0,0-2.7461,1.5625V286H710.041V272.792h2.832l.0732,1.4775a3.34,3.34,0,0,1,2.9785-1.7217,2.79,2.79,0,0,1,1.05.1709Z"/><path d="M721.9922,286h-2.9668V267.25h2.9668Z"/><path class="a" d="M454.2974,331.5352h-5.3345V346h-4.2847V331.5352h-5.2368v-3.3086h14.856Z"/><path class="a" d="M459.937,334.208a4.5148,4.5148,0,0,1,6.665-.3662,5.8194,5.8194,0,0,1,1.1353,3.82V346h-4.126v-8.24a2.3275,2.3275,0,0,0-.4272-1.5439,1.838,1.838,0,0,0-1.4526-.4941,1.9767,1.9767,0,0,0-1.7944.8057V346h-4.1138V327.25h4.1138Z"/><path class="a" d="M476.416,346.2441a6.7914,6.7914,0,0,1-4.9189-1.8125,6.2606,6.2606,0,0,1-1.88-4.7187v-.3418a8.1189,8.1189,0,0,1,.75-3.5762,5.496,5.496,0,0,1,2.1914-2.3984,6.6055,6.6055,0,0,1,3.4175-.8486,5.7146,5.7146,0,0,1,4.3945,1.7275,6.7872,6.7872,0,0,1,1.6113,4.8154v1.5986h-8.1777a2.96,2.96,0,0,0,.9639,1.7461,2.8661,2.8661,0,0,0,1.9287.6348,3.6958,3.6958,0,0,0,3.0518-1.3672l1.88,2.2217a5.2463,5.2463,0,0,1-2.18,1.69A7.3488,7.3488,0,0,1,476.416,346.2441Zm-.4629-10.5225q-1.8076,0-2.1484,2.3926h4.15v-.3174a2.0426,2.0426,0,0,0-.501-1.5322A1.9916,1.9916,0,0,0,475.9531,335.7217Z"/><path class="a" d="M490.5527,342.2891a.95.95,0,0,0-.55-.8418,8.3542,8.3542,0,0,0-2.0869-.66,9.4635,9.4635,0,0,1-2.5391-.8965,4.2527,4.2527,0,0,1-1.5264-1.35,3.2125,3.2125,0,0,1-.5244-1.8184,3.6512,3.6512,0,0,1,1.501-2.9971,6.1865,6.1865,0,0,1,3.9307-1.1777,6.8569,6.8569,0,0,1,4.1992,1.1846,3.7019,3.7019,0,0,1,1.5869,3.1123h-4.126q0-1.5864-1.6719-1.5869a1.6578,1.6578,0,0,0-1.0869.36,1.1139,1.1139,0,0,0-.4395.8975,1.0228,1.0228,0,0,0,.5371.8906,5.0626,5.0626,0,0,0,1.7148.5615,14.8333,14.8333,0,0,1,2.0693.5244q2.978,1.0254,2.9785,3.6748a3.4614,3.4614,0,0,1-1.6055,2.9424,7.0451,7.0451,0,0,1-4.1562,1.1348,7.1786,7.1786,0,0,1-3.0273-.61,5.0623,5.0623,0,0,1-2.0752-1.66,3.7568,3.7568,0,0,1-.7451-2.21h3.8457a1.5866,1.5866,0,0,0,.61,1.3369,2.5077,2.5077,0,0,0,1.501.4209,1.9691,1.9691,0,0,0,1.2637-.3418A1.09,1.09,0,0,0,490.5527,342.2891Z"/><path class="a" d="M502.832,346.2441a6.7914,6.7914,0,0,1-4.9189-1.8125,6.2624,6.2624,0,0,1-1.88-4.7187v-.3418a8.1189,8.1189,0,0,1,.75-3.5762,5.5047,5.5047,0,0,1,2.1914-2.3984,6.6086,6.6086,0,0,1,3.418-.8486,5.7146,5.7146,0,0,1,4.3945,1.7275,6.7872,6.7872,0,0,1,1.6113,4.8154v1.5986h-8.1777a2.96,2.96,0,0,0,.9639,1.7461,2.8661,2.8661,0,0,0,1.9287.6348,3.6958,3.6958,0,0,0,3.0518-1.3672l1.88,2.2217a5.2463,5.2463,0,0,1-2.18,1.69A7.3488,7.3488,0,0,1,502.832,346.2441Zm-.4629-10.5225q-1.8076,0-2.1484,2.3926h4.15v-.3174a2.0426,2.0426,0,0,0-.501-1.5322A1.9916,1.9916,0,0,0,502.3691,335.7217Z"/><path class="a" d="M525.6348,341.2754a1.7624,1.7624,0,0,0-.665-1.4648,8.2984,8.2984,0,0,0-2.3369-1.0859,22.3492,22.3492,0,0,1-2.7344-1.0859q-3.4556-1.6963-3.4551-4.6641a4.1812,4.1812,0,0,1,.86-2.6055,5.5673,5.5673,0,0,1,2.4355-1.7578,9.46,9.46,0,0,1,3.54-.6289,8.304,8.304,0,0,1,3.4365.6836,5.449,5.449,0,0,1,2.3623,1.9473A5.09,5.09,0,0,1,529.92,333.5h-4.2725a2.1494,2.1494,0,0,0-.665-1.6846,2.597,2.597,0,0,0-1.8008-.5986,2.9292,2.9292,0,0,0-1.8125.5068,1.4918,1.4918,0,0,0,.0664,2.5273,9.2455,9.2455,0,0,0,2.5762,1.1475,15.81,15.81,0,0,1,3.0273,1.2754,5.0878,5.0878,0,0,1,2.8809,4.5781,4.339,4.339,0,0,1-1.7578,3.6621,7.8217,7.8217,0,0,1-4.8223,1.33,9.5557,9.5557,0,0,1-3.9121-.7754,5.8947,5.8947,0,0,1-2.6367-2.124,5.5351,5.5351,0,0,1-.8848-3.1064h4.2969a2.725,2.725,0,0,0,.7383,2.1055,3.4878,3.4878,0,0,0,2.3984.6777,2.7534,2.7534,0,0,0,1.6787-.458A1.5085,1.5085,0,0,0,525.6348,341.2754Z"/><path class="a" d="M536.2676,346h-4.126V327.25h4.126Z"/><path class="a" d="M538.77,329.3867a1.84,1.84,0,0,1,.6348-1.4414,2.7027,2.7027,0,0,1,3.2959,0,1.9517,1.9517,0,0,1,0,2.8809,2.6952,2.6952,0,0,1-3.2959,0A1.8333,1.8333,0,0,1,538.77,329.3867ZM543.14,346h-4.126V332.792h4.126Z"/><path class="a" d="M545.1543,339.2988a8.0621,8.0621,0,0,1,1.3555-4.9443,4.4582,4.4582,0,0,1,3.7832-1.8066,3.7909,3.7909,0,0,1,2.9785,1.3916V327.25h4.127V346h-3.6992l-.207-1.416a3.8945,3.8945,0,0,1-3.2227,1.66,4.4516,4.4516,0,0,1-3.7363-1.8066A8.3281,8.3281,0,0,1,545.1543,339.2988Zm4.1133.2559q0,3.5156,2.0508,3.5156a2.0247,2.0247,0,0,0,1.9531-1.1475v-5.0293a1.9692,1.9692,0,0,0-1.9277-1.1719q-1.9043,0-2.0635,3.0762Z"/><path class="a" d="M566.126,346.2441a6.79,6.79,0,0,1-4.9189-1.8125,6.26,6.26,0,0,1-1.8809-4.7187v-.3418a8.119,8.119,0,0,1,.751-3.5762,5.4989,5.4989,0,0,1,2.1914-2.3984,6.6061,6.6061,0,0,1,3.418-.8486,5.7146,5.7146,0,0,1,4.3945,1.7275,6.7872,6.7872,0,0,1,1.6113,4.8154v1.5986h-8.1787a2.9606,2.9606,0,0,0,.9648,1.7461,2.8634,2.8634,0,0,0,1.9277.6348,3.6964,3.6964,0,0,0,3.0527-1.3672l1.8789,2.2217a5.243,5.243,0,0,1-2.1787,1.69A7.3488,7.3488,0,0,1,566.126,346.2441Zm-.4639-10.5225q-1.8062,0-2.1484,2.3926h4.15v-.3174a2.0383,2.0383,0,0,0-.5-1.5322A1.9925,1.9925,0,0,0,565.6621,335.7217Z"/><path class="a" d="M580.2617,342.2891a.9488.9488,0,0,0-.5488-.8418,8.3654,8.3654,0,0,0-2.0879-.66,9.4882,9.4882,0,0,1-2.5391-.8965,4.2574,4.2574,0,0,1-1.5254-1.35,3.2208,3.2208,0,0,1-.5254-1.8184,3.6521,3.6521,0,0,1,1.502-2.9971,6.1865,6.1865,0,0,1,3.9307-1.1777,6.8549,6.8549,0,0,1,4.1992,1.1846,3.7019,3.7019,0,0,1,1.5869,3.1123h-4.126q0-1.5864-1.6729-1.5869a1.6569,1.6569,0,0,0-1.0859.36,1.1139,1.1139,0,0,0-.4395.8975,1.0228,1.0228,0,0,0,.5371.8906,5.0626,5.0626,0,0,0,1.7148.5615,14.8687,14.8687,0,0,1,2.0693.5244q2.978,1.0254,2.9785,3.6748a3.4614,3.4614,0,0,1-1.6055,2.9424,7.0451,7.0451,0,0,1-4.1562,1.1348,7.1786,7.1786,0,0,1-3.0273-.61,5.0623,5.0623,0,0,1-2.0752-1.66,3.7623,3.7623,0,0,1-.7441-2.21h3.8447a1.5892,1.5892,0,0,0,.61,1.3369,2.5067,2.5067,0,0,0,1.502.4209,1.97,1.97,0,0,0,1.2627-.3418A1.0891,1.0891,0,0,0,580.2617,342.2891Z"/><path d="M272.291,364.2324a4.6423,4.6423,0,0,1,3.6743-1.6846q4.2231,0,4.2847,4.8213V376h-2.9663v-8.5205a2.6058,2.6058,0,0,0-.5923-1.9346,2.4179,2.4179,0,0,0-1.7393-.5684,2.8568,2.8568,0,0,0-2.6611,1.5879V376h-2.9663V357.25h2.9663Z"/><path d="M286.9639,359.582v3.21h2.3315v2.1973h-2.3315v7.373a1.6235,1.6235,0,0,0,.2993,1.0928,1.3865,1.3865,0,0,0,1.0679.3359,4.536,4.536,0,0,0,1.0376-.123v2.2949a7.2966,7.2966,0,0,1-1.9531.2813q-3.4182,0-3.418-3.7715v-7.4834h-2.1729V362.792h2.1729v-3.21Z"/><path d="M295.2769,359.582v3.21h2.3315v2.1973h-2.3315v7.373a1.6235,1.6235,0,0,0,.2993,1.0928,1.3865,1.3865,0,0,0,1.0679.3359,4.536,4.536,0,0,0,1.0376-.123v2.2949a7.2966,7.2966,0,0,1-1.9531.2813q-3.4182,0-3.418-3.7715v-7.4834h-2.1729V362.792h2.1729v-3.21Z"/><path d="M311.439,369.53a7.861,7.861,0,0,1-1.3916,4.8887,4.8345,4.8345,0,0,1-7.2144.3975v6.2617h-2.9663V362.792h2.7344l.1221,1.3428a4.3574,4.3574,0,0,1,3.5522-1.5869,4.504,4.504,0,0,1,3.7905,1.8008,8.0762,8.0762,0,0,1,1.373,4.999Zm-2.9541-.2568a5.5117,5.5117,0,0,0-.7871-3.1367,2.56,2.56,0,0,0-2.2524-1.16,2.73,2.73,0,0,0-2.6123,1.502v5.8594a2.7548,2.7548,0,0,0,2.6367,1.5381,2.5545,2.5545,0,0,0,2.2153-1.1416A6.0616,6.0616,0,0,0,308.4849,369.2734Z"/><path d="M321.3511,372.4111a1.3448,1.3448,0,0,0-.6528-1.208,6.9185,6.9185,0,0,0-2.167-.7324,11.1142,11.1142,0,0,1-2.5269-.8066,3.37,3.37,0,0,1-2.2217-3.1123,3.5158,3.5158,0,0,1,1.44-2.8564,5.6951,5.6951,0,0,1,3.6621-1.1475,5.9242,5.9242,0,0,1,3.8267,1.1719,3.718,3.718,0,0,1,1.459,3.04h-2.9663a1.83,1.83,0,0,0-.6348-1.4229,2.4354,2.4354,0,0,0-1.6846-.5674,2.6311,2.6311,0,0,0-1.5933.4512,1.4269,1.4269,0,0,0-.6162,1.209,1.2017,1.2017,0,0,0,.5737,1.0625,7.9107,7.9107,0,0,0,2.3193.7627,10.99,10.99,0,0,1,2.7407.915,3.8854,3.8854,0,0,1,1.4766,1.2754,3.2542,3.2542,0,0,1,.4824,1.8066,3.4428,3.4428,0,0,1-1.4771,2.8877,6.3,6.3,0,0,1-3.87,1.1045,6.8286,6.8286,0,0,1-2.8931-.5859,4.7573,4.7573,0,0,1-1.9775-1.6113,3.8122,3.8122,0,0,1-.708-2.209h2.8809a2.091,2.091,0,0,0,.7935,1.6172,3.0861,3.0861,0,0,0,1.9409.5674,3.0016,3.0016,0,0,0,1.7822-.4453A1.3805,1.3805,0,0,0,321.3511,372.4111Z"/><path d="M328.6387,362.5117a1.6942,1.6942,0,0,1,1.2817.47,1.6339,1.6339,0,0,1,.4517,1.1777,1.5751,1.5751,0,0,1-.4517,1.1533,1.9983,1.9983,0,0,1-2.5391.0059,1.5457,1.5457,0,0,1-.4639-1.1592,1.6319,1.6319,0,0,1,.4517-1.1777A1.6765,1.6765,0,0,1,328.6387,362.5117Zm0,10.3633a1.6942,1.6942,0,0,1,1.2817.47,1.6347,1.6347,0,0,1,.4517,1.1787,1.5782,1.5782,0,0,1-.4517,1.1533,1.9983,1.9983,0,0,1-2.5391.0059,1.5457,1.5457,0,0,1-.4639-1.1592,1.6326,1.6326,0,0,1,.4517-1.1787A1.6765,1.6765,0,0,1,328.6387,372.875Z"/><path d="M334.3149,377.5254h-2.3315l6.9946-19.2988H341.31Z"/><path d="M341.1753,377.5254h-2.3315l6.9946-19.2988H348.17Z"/><path d="M349.708,369.2988a7.73,7.73,0,0,1,1.4463-4.9141,4.6439,4.6439,0,0,1,3.8394-1.8369,4.3474,4.3474,0,0,1,3.5522,1.5752l.1343-1.3311h2.6733v12.8057a5.3256,5.3256,0,0,1-1.6172,4.1016,6.1659,6.1659,0,0,1-4.3643,1.501,7.0226,7.0226,0,0,1-2.8379-.6045,5.0419,5.0419,0,0,1-2.106-1.58l1.4038-1.7832a4.24,4.24,0,0,0,3.3691,1.624,3.2768,3.2768,0,0,0,2.3315-.8,3.0655,3.0655,0,0,0,.8545-2.35v-.8906a4.3706,4.3706,0,0,1-3.418,1.4277,4.631,4.631,0,0,1-3.7905-1.8437A7.9744,7.9744,0,0,1,349.708,369.2988Zm2.9541.2559a5.3183,5.3183,0,0,0,.8115,3.1309,2.6092,2.6092,0,0,0,2.2524,1.1416,2.855,2.855,0,0,0,2.6611-1.5381v-5.8105a2.8141,2.8141,0,0,0-2.6367-1.502,2.6209,2.6209,0,0,0-2.2769,1.16A5.9555,5.9555,0,0,0,352.6621,369.5547Z"/><path d="M364.4053,359.3613a1.5748,1.5748,0,0,1,.4331-1.1348,1.6386,1.6386,0,0,1,1.2393-.4512,1.6585,1.6585,0,0,1,1.2451.4512,1.5616,1.5616,0,0,1,.4395,1.1348,1.5254,1.5254,0,0,1-.4395,1.1172,1.671,1.671,0,0,1-1.2451.4453,1.6509,1.6509,0,0,1-1.2393-.4453A1.5381,1.5381,0,0,1,364.4053,359.3613ZM367.5547,376h-2.9663V362.792h2.9663Z"/><path d="M374.5,359.582v3.21h2.3315v2.1973H374.5v7.373a1.6235,1.6235,0,0,0,.2993,1.0928,1.3865,1.3865,0,0,0,1.0679.3359,4.536,4.536,0,0,0,1.0376-.123v2.2949a7.2966,7.2966,0,0,1-1.9531.2813q-3.4182,0-3.418-3.7715v-7.4834h-2.1729V362.792h2.1729v-3.21Z"/><path d="M382.02,364.2324a4.6423,4.6423,0,0,1,3.6743-1.6846q4.2231,0,4.2847,4.8213V376h-2.9663v-8.5205a2.6058,2.6058,0,0,0-.5923-1.9346,2.4179,2.4179,0,0,0-1.7393-.5684,2.8568,2.8568,0,0,0-2.6611,1.5879V376h-2.9663V357.25H382.02Z"/><path d="M400.9775,374.7061a4.6011,4.6011,0,0,1-3.7109,1.5381,4.097,4.097,0,0,1-3.2529-1.2578,5.3455,5.3455,0,0,1-1.105-3.6367V362.792h2.9663v8.5205q0,2.5151,2.0874,2.5146a2.932,2.932,0,0,0,2.9175-1.55V362.792h2.9663V376h-2.7954Z"/><path d="M418.458,369.53a7.9393,7.9393,0,0,1-1.373,4.8955,4.4736,4.4736,0,0,1-3.7783,1.8184,4.3069,4.3069,0,0,1-3.6133-1.6719L409.5469,376h-2.6855V357.25h2.9663v6.8115a4.2942,4.2942,0,0,1,3.4546-1.5137,4.5271,4.5271,0,0,1,3.7964,1.7939,8.07,8.07,0,0,1,1.3794,5.0176Zm-2.9663-.2568a5.6116,5.6116,0,0,0-.7568-3.2227,2.5241,2.5241,0,0,0-2.1973-1.0742,2.7542,2.7542,0,0,0-2.71,1.6855v5.4434a2.7814,2.7814,0,0,0,2.7344,1.7217,2.5006,2.5006,0,0,0,2.1484-1.0381,5.4334,5.4334,0,0,0,.7813-3.1367Z"/><path d="M422.7915,372.875a1.6942,1.6942,0,0,1,1.2817.47,1.6347,1.6347,0,0,1,.4517,1.1787,1.5782,1.5782,0,0,1-.4517,1.1533,1.9983,1.9983,0,0,1-2.5391.0059,1.5457,1.5457,0,0,1-.4639-1.1592,1.6326,1.6326,0,0,1,.4517-1.1787A1.6765,1.6765,0,0,1,422.7915,372.875Z"/><path d="M433.3506,373.876a2.6814,2.6814,0,0,0,1.8433-.6475,2.2087,2.2087,0,0,0,.7813-1.5986h2.7954a4.3577,4.3577,0,0,1-.769,2.3008,5.0406,5.0406,0,0,1-1.9531,1.69,5.8094,5.8094,0,0,1-2.6611.623,5.6274,5.6274,0,0,1-4.3945-1.7949,7.1128,7.1128,0,0,1-1.6235-4.9551v-.3057A7.001,7.001,0,0,1,428.98,364.36a5.5816,5.5816,0,0,1,4.3945-1.8125,5.4307,5.4307,0,0,1,3.8394,1.373,4.9222,4.9222,0,0,1,1.5562,3.6074h-2.7954A2.7177,2.7177,0,0,0,435.2,365.66a2.4932,2.4932,0,0,0-1.8491-.7324,2.6112,2.6112,0,0,0-2.2217,1.0439,5.324,5.324,0,0,0-.7935,3.168v.4756a5.4116,5.4116,0,0,0,.7754,3.2051A2.6093,2.6093,0,0,0,433.3506,373.876Z"/><path d="M440.4551,369.2734a7.7915,7.7915,0,0,1,.769-3.4971,5.62,5.62,0,0,1,2.1606-2.3926,6.0857,6.0857,0,0,1,3.1982-.8359,5.7647,5.7647,0,0,1,4.3394,1.7217,6.766,6.766,0,0,1,1.8008,4.5645l.0122.6963a7.8654,7.8654,0,0,1-.75,3.4912,5.56,5.56,0,0,1-2.1484,2.3809,6.1429,6.1429,0,0,1-3.229.8418,5.7325,5.7325,0,0,1-4.4741-1.8613,7.1311,7.1311,0,0,1-1.6782-4.9629Zm2.9663.2568a5.3232,5.3232,0,0,0,.8423,3.1924,2.7391,2.7391,0,0,0,2.3438,1.1533,2.7075,2.7075,0,0,0,2.3374-1.1719,5.8779,5.8779,0,0,0,.8364-3.4307A5.2515,5.2515,0,0,0,448.92,366.1a2.9,2.9,0,0,0-4.6445-.0176A5.7635,5.7635,0,0,0,443.4214,369.53Z"/><path d="M458.0332,362.792l.0854,1.38a4.7541,4.7541,0,0,1,3.8086-1.624,3.6523,3.6523,0,0,1,3.6255,2.0264,4.6848,4.6848,0,0,1,4.0527-2.0264,4.1224,4.1224,0,0,1,3.2534,1.208,5.3283,5.3283,0,0,1,1.0923,3.5645V376h-2.9663v-8.5937a2.6288,2.6288,0,0,0-.5493-1.8437,2.4049,2.4049,0,0,0-1.8188-.5859,2.47,2.47,0,0,0-1.6543.5439,2.8677,2.8677,0,0,0-.897,1.4219L466.0776,376h-2.9663v-8.6914a2.1164,2.1164,0,0,0-2.38-2.332,2.61,2.61,0,0,0-2.5269,1.4531V376h-2.9663V362.792Z"/><path d="M477.833,377.5254H475.502l6.9941-19.2988h2.332Z"/><path d="M494.4473,358.2266h3.0762v12.4629a5.3,5.3,0,0,1-1.5937,4.0527,5.8777,5.8777,0,0,1-4.2051,1.502,6.0831,6.0831,0,0,1-4.2969-1.4043,5.06,5.06,0,0,1-1.5137-3.9062H488.99a2.9277,2.9277,0,0,0,.7012,2.1309,2.73,2.73,0,0,0,2.0332.7139,2.5329,2.5329,0,0,0,1.9844-.8242,3.2879,3.2879,0,0,0,.7383-2.2764Z"/><path d="M504.1387,373.5342h8.0693V376H501.0508V358.2266h3.0879Z"/><path d="M513.7344,369.2734a7.7913,7.7913,0,0,1,.7686-3.4971,5.6215,5.6215,0,0,1,2.1611-2.3926,6.0834,6.0834,0,0,1,3.1973-.8359,5.7643,5.7643,0,0,1,4.34,1.7217,6.766,6.766,0,0,1,1.8008,4.5645l.0117.6963a7.8652,7.8652,0,0,1-.75,3.4912,5.56,5.56,0,0,1-2.1484,2.3809,6.1424,6.1424,0,0,1-3.2285.8418,5.7329,5.7329,0,0,1-4.4746-1.8613,7.1286,7.1286,0,0,1-1.6777-4.9629Zm2.9658.2568a5.3163,5.3163,0,0,0,.8428,3.1924,2.7367,2.7367,0,0,0,2.3438,1.1533,2.7084,2.7084,0,0,0,2.3369-1.1719,5.8777,5.8777,0,0,0,.8369-3.4307,5.2515,5.2515,0,0,0-.8613-3.1738,2.9,2.9,0,0,0-4.6445-.0176A5.767,5.767,0,0,0,516.7,369.53Z"/><path d="M535.9268,372.4111a1.3462,1.3462,0,0,0-.6533-1.208,6.9185,6.9185,0,0,0-2.167-.7324,11.135,11.135,0,0,1-2.5273-.8066,3.37,3.37,0,0,1-2.2207-3.1123,3.5161,3.5161,0,0,1,1.4395-2.8564,5.6988,5.6988,0,0,1,3.6621-1.1475,5.9256,5.9256,0,0,1,3.8271,1.1719,3.718,3.718,0,0,1,1.459,3.04H535.78a1.83,1.83,0,0,0-.6348-1.4229,2.438,2.438,0,0,0-1.6855-.5674,2.6316,2.6316,0,0,0-1.5928.4512,1.4257,1.4257,0,0,0-.6162,1.209,1.2021,1.2021,0,0,0,.5742,1.0625,7.9069,7.9069,0,0,0,2.3184.7627,10.9947,10.9947,0,0,1,2.7412.915,3.8854,3.8854,0,0,1,1.4766,1.2754,3.2583,3.2583,0,0,1,.4824,1.8066,3.4408,3.4408,0,0,1-1.4775,2.8877,6.2977,6.2977,0,0,1-3.8691,1.1045,6.8263,6.8263,0,0,1-2.8926-.5859,4.7665,4.7665,0,0,1-1.9785-1.6113,3.8146,3.8146,0,0,1-.707-2.209H530.8a2.0891,2.0891,0,0,0,.793,1.6172,3.0857,3.0857,0,0,0,1.9414.5674,2.9962,2.9962,0,0,0,1.7813-.4453A1.38,1.38,0,0,0,535.9268,372.4111Z"/><path d="M552.9922,369.53a7.861,7.861,0,0,1-1.3916,4.8887,4.834,4.834,0,0,1-7.2139.3975v6.2617H541.42V362.792h2.7344l.1221,1.3428a4.3577,4.3577,0,0,1,3.5518-1.5869,4.5049,4.5049,0,0,1,3.791,1.8008,8.0762,8.0762,0,0,1,1.373,4.999Zm-2.9541-.2568a5.5117,5.5117,0,0,0-.7871-3.1367,2.5611,2.5611,0,0,0-2.2529-1.16,2.7285,2.7285,0,0,0-2.6113,1.502v5.8594a2.7548,2.7548,0,0,0,2.6367,1.5381,2.5548,2.5548,0,0,0,2.2148-1.1416A6.0616,6.0616,0,0,0,550.0381,369.2734Z"/><path d="M555.5059,359.3613a1.5732,1.5732,0,0,1,.4336-1.1348,1.6386,1.6386,0,0,1,1.2393-.4512,1.6585,1.6585,0,0,1,1.2451.4512,1.5616,1.5616,0,0,1,.4395,1.1348,1.5254,1.5254,0,0,1-.4395,1.1172,1.671,1.671,0,0,1-1.2451.4453,1.6509,1.6509,0,0,1-1.2393-.4453A1.5364,1.5364,0,0,1,555.5059,359.3613ZM558.6563,376h-2.9668V362.792h2.9668Z"/><path d="M564.6377,362.792l.085,1.5264a4.7513,4.7513,0,0,1,3.8457-1.7705q4.1265,0,4.1992,4.7236V376h-2.9668v-8.5566a2.7226,2.7226,0,0,0-.543-1.8623,2.2863,2.2863,0,0,0-1.7754-.6045,2.859,2.859,0,0,0-2.6738,1.624V376h-2.9668V362.792Z"/><path d="M575.2344,369.2734a7.7913,7.7913,0,0,1,.7686-3.4971,5.6215,5.6215,0,0,1,2.1611-2.3926,6.0834,6.0834,0,0,1,3.1973-.8359,5.7643,5.7643,0,0,1,4.34,1.7217,6.766,6.766,0,0,1,1.8008,4.5645l.0117.6963a7.8652,7.8652,0,0,1-.75,3.4912,5.56,5.56,0,0,1-2.1484,2.3809,6.1424,6.1424,0,0,1-3.2285.8418,5.7329,5.7329,0,0,1-4.4746-1.8613,7.1286,7.1286,0,0,1-1.6777-4.9629Zm2.9658.2568a5.3163,5.3163,0,0,0,.8428,3.1924,2.7367,2.7367,0,0,0,2.3438,1.1533,2.7084,2.7084,0,0,0,2.3369-1.1719,5.8777,5.8777,0,0,0,.8369-3.4307,5.2515,5.2515,0,0,0-.8613-3.1738,2.9,2.9,0,0,0-4.6445-.0176A5.767,5.767,0,0,0,578.2,369.53Z"/><path d="M597.4268,372.4111a1.3462,1.3462,0,0,0-.6533-1.208,6.9185,6.9185,0,0,0-2.167-.7324,11.135,11.135,0,0,1-2.5273-.8066,3.37,3.37,0,0,1-2.2207-3.1123,3.5161,3.5161,0,0,1,1.4395-2.8564,5.6988,5.6988,0,0,1,3.6621-1.1475,5.9256,5.9256,0,0,1,3.8271,1.1719,3.718,3.718,0,0,1,1.459,3.04H597.28a1.83,1.83,0,0,0-.6348-1.4229,2.438,2.438,0,0,0-1.6855-.5674,2.6316,2.6316,0,0,0-1.5928.4512,1.4257,1.4257,0,0,0-.6162,1.209,1.2021,1.2021,0,0,0,.5742,1.0625,7.9069,7.9069,0,0,0,2.3184.7627,10.9947,10.9947,0,0,1,2.7412.915,3.8854,3.8854,0,0,1,1.4766,1.2754,3.2583,3.2583,0,0,1,.4824,1.8066,3.4408,3.4408,0,0,1-1.4775,2.8877,6.2977,6.2977,0,0,1-3.8691,1.1045,6.8263,6.8263,0,0,1-2.8926-.5859,4.7665,4.7665,0,0,1-1.9785-1.6113,3.8146,3.8146,0,0,1-.707-2.209H592.3a2.0891,2.0891,0,0,0,.793,1.6172,3.0857,3.0857,0,0,0,1.9414.5674,2.9962,2.9962,0,0,0,1.7813-.4453A1.38,1.38,0,0,0,597.4268,372.4111Z"/><path d="M602.3711,369.2734a7.7913,7.7913,0,0,1,.7686-3.4971,5.6215,5.6215,0,0,1,2.1611-2.3926,6.0834,6.0834,0,0,1,3.1973-.8359,5.7643,5.7643,0,0,1,4.34,1.7217,6.766,6.766,0,0,1,1.8008,4.5645l.0117.6963a7.8652,7.8652,0,0,1-.75,3.4912,5.56,5.56,0,0,1-2.1484,2.3809,6.1424,6.1424,0,0,1-3.2285.8418,5.7329,5.7329,0,0,1-4.4746-1.8613,7.1286,7.1286,0,0,1-1.6777-4.9629Zm2.9658.2568a5.3163,5.3163,0,0,0,.8428,3.1924,2.7367,2.7367,0,0,0,2.3438,1.1533,2.7084,2.7084,0,0,0,2.3369-1.1719,5.8777,5.8777,0,0,0,.8369-3.4307,5.2515,5.2515,0,0,0-.8613-3.1738,2.9,2.9,0,0,0-4.6445-.0176A5.767,5.767,0,0,0,605.3369,369.53Z"/><path d="M617.9951,377.5254h-2.3311l6.9951-19.2988H624.99Z"/><path d="M638.6377,369.53a7.9393,7.9393,0,0,1-1.373,4.8955,4.4729,4.4729,0,0,1-3.7783,1.8184,4.3075,4.3075,0,0,1-3.6133-1.6719L629.7266,376H627.041V357.25h2.9668v6.8115a4.2926,4.2926,0,0,1,3.4541-1.5137,4.5249,4.5249,0,0,1,3.7959,1.7939,8.0666,8.0666,0,0,1,1.38,5.0176Zm-2.9658-.2568a5.6072,5.6072,0,0,0-.7578-3.2227,2.5217,2.5217,0,0,0-2.1973-1.0742,2.7538,2.7538,0,0,0-2.709,1.6855v5.4434a2.78,2.78,0,0,0,2.7344,1.7217,2.5006,2.5006,0,0,0,2.1484-1.0381,5.4372,5.4372,0,0,0,.7813-3.1367Z"/><path d="M648.5254,372.4111a1.3462,1.3462,0,0,0-.6533-1.208,6.9185,6.9185,0,0,0-2.167-.7324,11.135,11.135,0,0,1-2.5273-.8066,3.37,3.37,0,0,1-2.2207-3.1123,3.5161,3.5161,0,0,1,1.4395-2.8564,5.6988,5.6988,0,0,1,3.6621-1.1475,5.9256,5.9256,0,0,1,3.8271,1.1719,3.718,3.718,0,0,1,1.459,3.04h-2.9658a1.83,1.83,0,0,0-.6348-1.4229,2.438,2.438,0,0,0-1.6855-.5674,2.6316,2.6316,0,0,0-1.5928.4512,1.4257,1.4257,0,0,0-.6162,1.209,1.2021,1.2021,0,0,0,.5742,1.0625,7.9069,7.9069,0,0,0,2.3184.7627,10.9947,10.9947,0,0,1,2.7412.915,3.8854,3.8854,0,0,1,1.4766,1.2754,3.2583,3.2583,0,0,1,.4824,1.8066,3.4408,3.4408,0,0,1-1.4775,2.8877,6.2977,6.2977,0,0,1-3.8691,1.1045,6.8263,6.8263,0,0,1-2.8926-.5859,4.7665,4.7665,0,0,1-1.9785-1.6113,3.8146,3.8146,0,0,1-.707-2.209h2.8809a2.0891,2.0891,0,0,0,.793,1.6172,3.0857,3.0857,0,0,0,1.9414.5674,2.9962,2.9962,0,0,0,1.7813-.4453A1.38,1.38,0,0,0,648.5254,372.4111Z"/><path d="M654.0293,359.3613a1.5732,1.5732,0,0,1,.4336-1.1348,1.6386,1.6386,0,0,1,1.2393-.4512,1.6585,1.6585,0,0,1,1.2451.4512,1.5616,1.5616,0,0,1,.4395,1.1348,1.5254,1.5254,0,0,1-.4395,1.1172,1.671,1.671,0,0,1-1.2451.4453,1.6509,1.6509,0,0,1-1.2393-.4453A1.5364,1.5364,0,0,1,654.0293,359.3613ZM657.18,376h-2.9668V362.792H657.18Z"/><path d="M659.8535,369.2988a7.849,7.849,0,0,1,1.416-4.9014,4.5343,4.5343,0,0,1,3.7959-1.85,4.311,4.311,0,0,1,3.3936,1.4648V357.25h2.9668V376H668.74l-.1465-1.3672a4.3741,4.3741,0,0,1-3.5527,1.6113,4.5144,4.5144,0,0,1-3.7539-1.8672A8.1422,8.1422,0,0,1,659.8535,369.2988Zm2.9658.2559a5.4926,5.4926,0,0,0,.7754,3.1436,2.514,2.514,0,0,0,2.2031,1.1289,2.8,2.8,0,0,0,2.6611-1.624v-5.6387a2.758,2.758,0,0,0-2.6367-1.5879,2.5343,2.5343,0,0,0-2.2217,1.1416A6.1274,6.1274,0,0,0,662.8193,369.5547Z"/><path d="M680.3359,376.2441a6.1364,6.1364,0,0,1-4.5713-1.7764,6.44,6.44,0,0,1-1.751-4.7295v-.3672a7.9185,7.9185,0,0,1,.7627-3.5332,5.8052,5.8052,0,0,1,2.1416-2.4238,5.67,5.67,0,0,1,3.0762-.8662,5.1812,5.1812,0,0,1,4.1689,1.7217,7.276,7.276,0,0,1,1.4717,4.87v1.1963h-8.6309a3.9635,3.9635,0,0,0,1.0928,2.5879,3.28,3.28,0,0,0,2.4111.9521,4.0208,4.0208,0,0,0,3.32-1.6475l1.5986,1.5254a5.34,5.34,0,0,1-2.1182,1.8369A6.6261,6.6261,0,0,1,680.3359,376.2441Zm-.3535-11.3164a2.4983,2.4983,0,0,0-1.9717.8555,4.4346,4.4346,0,0,0-.958,2.38h5.6523v-.22a3.6063,3.6063,0,0,0-.7939-2.252A2.4783,2.4783,0,0,0,679.9824,364.9277Z"/><path d="M695.34,372.4111a1.3462,1.3462,0,0,0-.6533-1.208,6.9185,6.9185,0,0,0-2.167-.7324,11.135,11.135,0,0,1-2.5273-.8066,3.37,3.37,0,0,1-2.2207-3.1123,3.5161,3.5161,0,0,1,1.4395-2.8564,5.6988,5.6988,0,0,1,3.6621-1.1475A5.9256,5.9256,0,0,1,696.7,363.72a3.718,3.718,0,0,1,1.459,3.04h-2.9658a1.83,1.83,0,0,0-.6348-1.4229,2.438,2.438,0,0,0-1.6855-.5674,2.6316,2.6316,0,0,0-1.5928.4512,1.4257,1.4257,0,0,0-.6162,1.209,1.2021,1.2021,0,0,0,.5742,1.0625,7.9069,7.9069,0,0,0,2.3184.7627,10.9947,10.9947,0,0,1,2.7412.915,3.8854,3.8854,0,0,1,1.4766,1.2754,3.2583,3.2583,0,0,1,.4824,1.8066,3.4408,3.4408,0,0,1-1.4775,2.8877,6.2977,6.2977,0,0,1-3.8691,1.1045,6.8263,6.8263,0,0,1-2.8926-.5859,4.7665,4.7665,0,0,1-1.9785-1.6113,3.8146,3.8146,0,0,1-.707-2.209h2.8809a2.0891,2.0891,0,0,0,.793,1.6172,3.0857,3.0857,0,0,0,1.9414.5674,2.9962,2.9962,0,0,0,1.7813-.4453A1.38,1.38,0,0,0,695.34,372.4111Z"/><path d="M712.6,376H700.6484v-2.0391l5.9209-6.457a14.7638,14.7638,0,0,0,1.8252-2.3867,3.8725,3.8725,0,0,0,.543-1.9219,2.9221,2.9221,0,0,0-.7139-2.0508,2.476,2.476,0,0,0-1.9229-.7812,2.8572,2.8572,0,0,0-2.2344.8789,3.4574,3.4574,0,0,0-.793,2.4043h-2.9668a5.8088,5.8088,0,0,1,.7393-2.9238,5.09,5.09,0,0,1,2.1113-2.02,6.72,6.72,0,0,1,3.168-.7207,6.0139,6.0139,0,0,1,4.083,1.3,4.5138,4.5138,0,0,1,1.4961,3.5947,6.1085,6.1085,0,0,1-.751,2.79,15.8714,15.8714,0,0,1-2.46,3.3135l-4.3457,4.6514H712.6Z"/><path d="M726.4424,368.5176a9.6926,9.6926,0,0,1-1.4346,5.7793,5.0624,5.0624,0,0,1-4.3633,1.9473,5.1315,5.1315,0,0,1-4.34-1.8984,9.2859,9.2859,0,0,1-1.4961-5.6211v-3.0762a9.5526,9.5526,0,0,1,1.4346-5.75,5.9806,5.9806,0,0,1,8.7285-.0488,9.2613,9.2613,0,0,1,1.4707,5.5918Zm-2.9658-3.32a7.5324,7.5324,0,0,0-.6836-3.6689,2.6138,2.6138,0,0,0-4.31-.0605,6.9353,6.9353,0,0,0-.72,3.4482v4.0283a7.7146,7.7146,0,0,0,.6953,3.7109,2.3381,2.3381,0,0,0,2.1855,1.2207,2.2962,2.2962,0,0,0,2.1113-1.1289,7.2656,7.2656,0,0,0,.7207-3.5342Z"/><path d="M737.1,376h-2.9551V361.7207l-4.3574,1.4863v-2.49l6.9336-2.5508H737.1Z"/><path d="M754.47,362.9141a4.13,4.13,0,0,1-.6709,2.3252,4.6612,4.6612,0,0,1-1.832,1.6055,5.071,5.071,0,0,1,2.1426,1.7705,4.4591,4.4591,0,0,1,.751,2.5391,4.6643,4.6643,0,0,1-1.5869,3.7168,7.1988,7.1988,0,0,1-8.4658-.0059,4.6607,4.6607,0,0,1-1.5928-3.7109,4.5175,4.5175,0,0,1,.7568-2.5645,4.8733,4.8733,0,0,1,2.124-1.7451,4.63,4.63,0,0,1-1.8125-1.6055,4.15,4.15,0,0,1-.666-2.3252,4.6256,4.6256,0,0,1,1.4648-3.6016,6.5643,6.5643,0,0,1,7.9229,0A4.6256,4.6256,0,0,1,754.47,362.9141Zm-2.5752,8.0938a2.93,2.93,0,0,0-.7881-2.1309,2.767,2.767,0,0,0-2.0811-.8115,2.739,2.739,0,0,0-2.0693.8057,2.9535,2.9535,0,0,0-.7744,2.1367,2.8562,2.8562,0,0,0,.7627,2.0869,3.2509,3.2509,0,0,0,4.1992.0244A2.87,2.87,0,0,0,751.8945,371.0078Zm-.3789-7.9844a2.7568,2.7568,0,0,0-.6719-1.91,2.58,2.58,0,0,0-3.6006-.0361,3.1845,3.1845,0,0,0,.0059,3.8877,2.61,2.61,0,0,0,3.6016,0A2.75,2.75,0,0,0,751.5156,363.0234Z"/><path d="M295.35,394.2324a4.6423,4.6423,0,0,1,3.6743-1.6846q4.2231,0,4.2847,4.8213V406h-2.9663v-8.5205a2.6058,2.6058,0,0,0-.5923-1.9346,2.4179,2.4179,0,0,0-1.7393-.5684,2.8568,2.8568,0,0,0-2.6611,1.5879V406h-2.9663V387.25H295.35Z"/><path d="M310.0225,389.582v3.21h2.3315v2.1973h-2.3315v7.373a1.6218,1.6218,0,0,0,.2993,1.0928,1.3865,1.3865,0,0,0,1.0679.3359,4.536,4.536,0,0,0,1.0376-.123v2.2949a7.2966,7.2966,0,0,1-1.9531.2813q-3.4182,0-3.418-3.7715v-7.4834h-2.1729V392.792h2.1729v-3.21Z"/><path d="M318.3354,389.582v3.21h2.3315v2.1973h-2.3315v7.373a1.6218,1.6218,0,0,0,.2993,1.0928,1.3865,1.3865,0,0,0,1.0679.3359,4.536,4.536,0,0,0,1.0376-.123v2.2949a7.2966,7.2966,0,0,1-1.9531.2813q-3.4182,0-3.418-3.7715v-7.4834h-2.1729V392.792h2.1729v-3.21Z"/><path d="M334.4976,399.53a7.861,7.861,0,0,1-1.3916,4.8887,4.8345,4.8345,0,0,1-7.2144.3975v6.2617h-2.9663V392.792H325.66l.1221,1.3428a4.3574,4.3574,0,0,1,3.5522-1.5869,4.504,4.504,0,0,1,3.7905,1.8008,8.0762,8.0762,0,0,1,1.373,4.999Zm-2.9541-.2568a5.5117,5.5117,0,0,0-.7871-3.1367,2.56,2.56,0,0,0-2.2524-1.16,2.73,2.73,0,0,0-2.6123,1.502v5.8594a2.7548,2.7548,0,0,0,2.6367,1.5381,2.5545,2.5545,0,0,0,2.2153-1.1416A6.0616,6.0616,0,0,0,331.5435,399.2734Z"/><path d="M344.41,402.4111a1.3437,1.3437,0,0,0-.6528-1.208,6.9185,6.9185,0,0,0-2.167-.7324,11.1142,11.1142,0,0,1-2.5269-.8066,3.3706,3.3706,0,0,1-2.2217-3.1123,3.5144,3.5144,0,0,1,1.44-2.8564,5.6951,5.6951,0,0,1,3.6621-1.1475,5.9242,5.9242,0,0,1,3.8267,1.1719,3.718,3.718,0,0,1,1.459,3.04h-2.9663a1.83,1.83,0,0,0-.6348-1.4229,2.4354,2.4354,0,0,0-1.6846-.5674,2.6311,2.6311,0,0,0-1.5933.4512,1.4257,1.4257,0,0,0-.6162,1.209,1.2028,1.2028,0,0,0,.5737,1.0625,7.9107,7.9107,0,0,0,2.3193.7627,10.99,10.99,0,0,1,2.7407.915,3.8854,3.8854,0,0,1,1.4766,1.2754,3.2542,3.2542,0,0,1,.4824,1.8066A3.4428,3.4428,0,0,1,345.85,405.14a6.3,6.3,0,0,1-3.87,1.1045,6.8286,6.8286,0,0,1-2.8931-.5859,4.7573,4.7573,0,0,1-1.9775-1.6113,3.8122,3.8122,0,0,1-.708-2.209h2.8809a2.091,2.091,0,0,0,.7935,1.6172,3.0861,3.0861,0,0,0,1.9409.5674,3.0016,3.0016,0,0,0,1.7822-.4453A1.3793,1.3793,0,0,0,344.41,402.4111Z"/><path d="M351.6973,392.5117a1.6942,1.6942,0,0,1,1.2817.47,1.6339,1.6339,0,0,1,.4517,1.1777,1.5751,1.5751,0,0,1-.4517,1.1533,1.9983,1.9983,0,0,1-2.5391.0059,1.5457,1.5457,0,0,1-.4639-1.1592,1.6319,1.6319,0,0,1,.4517-1.1777A1.6765,1.6765,0,0,1,351.6973,392.5117Zm0,10.3633a1.6979,1.6979,0,0,1,1.2817.47,1.6347,1.6347,0,0,1,.4517,1.1787,1.5782,1.5782,0,0,1-.4517,1.1533,1.9983,1.9983,0,0,1-2.5391.0059,1.5457,1.5457,0,0,1-.4639-1.1592,1.6326,1.6326,0,0,1,.4517-1.1787A1.68,1.68,0,0,1,351.6973,402.875Z"/><path d="M357.3735,407.5254H355.042l6.9946-19.2988h2.3315Z"/><path d="M364.2339,407.5254h-2.3315l6.9946-19.2988h2.3315Z"/><path d="M376.38,392.792v14.38a4.35,4.35,0,0,1-1.0068,3.0947,3.8615,3.8615,0,0,1-2.9482,1.0674,5.9156,5.9156,0,0,1-1.5747-.207v-2.3437a4.5736,4.5736,0,0,0,1.05.1094q1.4766,0,1.5137-1.6113V392.792Zm-3.2227-3.4307a1.5732,1.5732,0,0,1,.4336-1.1348,1.6367,1.6367,0,0,1,1.2388-.4512,1.6585,1.6585,0,0,1,1.2451.4512,1.5616,1.5616,0,0,1,.4395,1.1348,1.5254,1.5254,0,0,1-.4395,1.1172,1.6672,1.6672,0,0,1-1.2451.4453,1.6452,1.6452,0,0,1-1.2388-.4453A1.5364,1.5364,0,0,1,373.1572,389.3613Z"/><path d="M382.7031,406h-2.9663V387.25h2.9663Z"/><path d="M385.3765,399.2734a7.7915,7.7915,0,0,1,.769-3.4971,5.62,5.62,0,0,1,2.1606-2.3926,6.0948,6.0948,0,0,1,3.1982-.8359,5.7647,5.7647,0,0,1,4.3394,1.7217,6.766,6.766,0,0,1,1.8008,4.5645l.0122.6963a7.8654,7.8654,0,0,1-.75,3.4912,5.56,5.56,0,0,1-2.1484,2.3809,6.1429,6.1429,0,0,1-3.229.8418,5.7293,5.7293,0,0,1-4.4741-1.8613,7.1328,7.1328,0,0,1-1.6782-4.9629Zm2.9663.2568a5.3232,5.3232,0,0,0,.8423,3.1924,2.7391,2.7391,0,0,0,2.3438,1.1533,2.7075,2.7075,0,0,0,2.3374-1.1719,5.8779,5.8779,0,0,0,.8364-3.4307,5.2515,5.2515,0,0,0-.8608-3.1738,2.9,2.9,0,0,0-4.6445-.0176A5.7635,5.7635,0,0,0,388.3428,399.53Z"/><path d="M407.5688,402.4111a1.3437,1.3437,0,0,0-.6528-1.208,6.9185,6.9185,0,0,0-2.167-.7324,11.1142,11.1142,0,0,1-2.5269-.8066A3.3706,3.3706,0,0,1,400,396.5518a3.5144,3.5144,0,0,1,1.44-2.8564,5.6951,5.6951,0,0,1,3.6621-1.1475A5.9242,5.9242,0,0,1,408.93,393.72a3.718,3.718,0,0,1,1.459,3.04h-2.9663a1.83,1.83,0,0,0-.6348-1.4229,2.4354,2.4354,0,0,0-1.6846-.5674,2.6311,2.6311,0,0,0-1.5933.4512,1.4257,1.4257,0,0,0-.6162,1.209,1.2028,1.2028,0,0,0,.5737,1.0625,7.9107,7.9107,0,0,0,2.3193.7627,10.99,10.99,0,0,1,2.7407.915,3.8854,3.8854,0,0,1,1.4766,1.2754,3.2542,3.2542,0,0,1,.4824,1.8066,3.4428,3.4428,0,0,1-1.4771,2.8877,6.3,6.3,0,0,1-3.87,1.1045,6.8286,6.8286,0,0,1-2.8931-.5859,4.7573,4.7573,0,0,1-1.9775-1.6113,3.8122,3.8122,0,0,1-.708-2.209h2.8809a2.091,2.091,0,0,0,.7935,1.6172,3.0861,3.0861,0,0,0,1.9409.5674,3.0016,3.0016,0,0,0,1.7822-.4453A1.3793,1.3793,0,0,0,407.5688,402.4111Z"/><path d="M424.6343,399.53a7.861,7.861,0,0,1-1.3916,4.8887,4.8345,4.8345,0,0,1-7.2144.3975v6.2617H413.062V392.792h2.7344l.1221,1.3428a4.3574,4.3574,0,0,1,3.5522-1.5869,4.504,4.504,0,0,1,3.7905,1.8008,8.0762,8.0762,0,0,1,1.373,4.999Zm-2.9541-.2568a5.5117,5.5117,0,0,0-.7871-3.1367,2.56,2.56,0,0,0-2.2524-1.16,2.73,2.73,0,0,0-2.6123,1.502v5.8594a2.7548,2.7548,0,0,0,2.6367,1.5381,2.5545,2.5545,0,0,0,2.2153-1.1416A6.0616,6.0616,0,0,0,421.68,399.2734Z"/><path d="M427.1489,389.3613a1.5748,1.5748,0,0,1,.4331-1.1348,1.6386,1.6386,0,0,1,1.2393-.4512,1.6585,1.6585,0,0,1,1.2451.4512,1.5616,1.5616,0,0,1,.4395,1.1348,1.5254,1.5254,0,0,1-.4395,1.1172,1.6672,1.6672,0,0,1-1.2451.4453,1.6471,1.6471,0,0,1-1.2393-.4453A1.5381,1.5381,0,0,1,427.1489,389.3613ZM430.2983,406H427.332V392.792h2.9663Z"/><path d="M436.28,392.792l.0854,1.5264a4.7475,4.7475,0,0,1,3.8452-1.7705q4.1257,0,4.1992,4.7236V406h-2.9663v-8.5566a2.7209,2.7209,0,0,0-.5435-1.8623,2.286,2.286,0,0,0-1.7759-.6045,2.8593,2.8593,0,0,0-2.6733,1.624V406h-2.9663V392.792Z"/><path d="M446.8755,399.2734a7.7915,7.7915,0,0,1,.769-3.4971,5.62,5.62,0,0,1,2.1606-2.3926,6.0948,6.0948,0,0,1,3.1982-.8359,5.7647,5.7647,0,0,1,4.3394,1.7217,6.766,6.766,0,0,1,1.8008,4.5645l.0122.6963a7.8654,7.8654,0,0,1-.75,3.4912,5.56,5.56,0,0,1-2.1484,2.3809,6.1429,6.1429,0,0,1-3.229.8418,5.7293,5.7293,0,0,1-4.4741-1.8613,7.1328,7.1328,0,0,1-1.6782-4.9629Zm2.9663.2568a5.3232,5.3232,0,0,0,.8423,3.1924,2.7391,2.7391,0,0,0,2.3438,1.1533,2.7075,2.7075,0,0,0,2.3374-1.1719,5.8779,5.8779,0,0,0,.8364-3.4307,5.2515,5.2515,0,0,0-.8608-3.1738,2.9,2.9,0,0,0-4.6445-.0176A5.7635,5.7635,0,0,0,449.8418,399.53Z"/><path d="M469.0679,402.4111a1.3437,1.3437,0,0,0-.6528-1.208,6.9185,6.9185,0,0,0-2.167-.7324,11.1142,11.1142,0,0,1-2.5269-.8066,3.3706,3.3706,0,0,1-2.2217-3.1123,3.5144,3.5144,0,0,1,1.44-2.8564,5.6951,5.6951,0,0,1,3.6621-1.1475,5.9242,5.9242,0,0,1,3.8267,1.1719,3.718,3.718,0,0,1,1.459,3.04h-2.9663a1.83,1.83,0,0,0-.6348-1.4229,2.4354,2.4354,0,0,0-1.6846-.5674,2.6311,2.6311,0,0,0-1.5933.4512,1.4257,1.4257,0,0,0-.6162,1.209,1.2028,1.2028,0,0,0,.5737,1.0625,7.9107,7.9107,0,0,0,2.3193.7627,10.99,10.99,0,0,1,2.7407.915,3.8854,3.8854,0,0,1,1.4766,1.2754,3.2542,3.2542,0,0,1,.4824,1.8066,3.4428,3.4428,0,0,1-1.4771,2.8877,6.3,6.3,0,0,1-3.87,1.1045,6.8286,6.8286,0,0,1-2.8931-.5859,4.7573,4.7573,0,0,1-1.9775-1.6113,3.8122,3.8122,0,0,1-.708-2.209h2.8809a2.091,2.091,0,0,0,.7935,1.6172,3.0861,3.0861,0,0,0,1.9409.5674,3.0016,3.0016,0,0,0,1.7822-.4453A1.3793,1.3793,0,0,0,469.0679,402.4111Z"/><path d="M474.0117,399.2734a7.7787,7.7787,0,0,1,.77-3.4971,5.6132,5.6132,0,0,1,2.16-2.3926,6.096,6.096,0,0,1,3.1982-.8359,5.7621,5.7621,0,0,1,4.3389,1.7217,6.766,6.766,0,0,1,1.8008,4.5645l.0127.6963a7.8655,7.8655,0,0,1-.751,3.4912,5.5539,5.5539,0,0,1-2.1484,2.3809,6.14,6.14,0,0,1-3.2285.8418,5.731,5.731,0,0,1-4.4746-1.8613,7.1349,7.1349,0,0,1-1.6777-4.9629Zm2.9668.2568a5.3232,5.3232,0,0,0,.8418,3.1924,2.7391,2.7391,0,0,0,2.3438,1.1533,2.709,2.709,0,0,0,2.3379-1.1719,5.8855,5.8855,0,0,0,.8359-3.4307,5.2515,5.2515,0,0,0-.8613-3.1738,2.9,2.9,0,0,0-4.6445-.0176A5.7674,5.7674,0,0,0,476.9785,399.53Z"/><path d="M490.65,402.875a1.6967,1.6967,0,0,1,1.2813.47,1.6343,1.6343,0,0,1,.4512,1.1787,1.5778,1.5778,0,0,1-.4512,1.1533,1.9983,1.9983,0,0,1-2.5391.0059,1.5457,1.5457,0,0,1-.4639-1.1592,1.631,1.631,0,0,1,.4521-1.1787A1.6794,1.6794,0,0,1,490.65,402.875Z"/><path d="M495.2637,399.2988a7.7257,7.7257,0,0,1,1.4473-4.9141,4.6436,4.6436,0,0,1,3.8389-1.8369,4.3464,4.3464,0,0,1,3.5518,1.5752l.1348-1.3311H506.91v12.8057a5.3256,5.3256,0,0,1-1.6172,4.1016,6.1676,6.1676,0,0,1-4.3652,1.501,7.0243,7.0243,0,0,1-2.8379-.6045,5.0433,5.0433,0,0,1-2.1055-1.58l1.4043-1.7832a4.2346,4.2346,0,0,0,3.3691,1.624,3.2748,3.2748,0,0,0,2.3311-.8,3.0655,3.0655,0,0,0,.8545-2.35v-.8906a4.3706,4.3706,0,0,1-3.418,1.4277,4.6319,4.6319,0,0,1-3.791-1.8437A7.9744,7.9744,0,0,1,495.2637,399.2988Zm2.9551.2559a5.3184,5.3184,0,0,0,.8105,3.1309,2.6112,2.6112,0,0,0,2.2529,1.1416,2.855,2.855,0,0,0,2.6611-1.5381v-5.8105a2.8141,2.8141,0,0,0-2.6367-1.502,2.6224,2.6224,0,0,0-2.2773,1.16A5.956,5.956,0,0,0,498.2188,399.5547Z"/><path d="M509.9609,389.3613a1.5732,1.5732,0,0,1,.4336-1.1348,1.6386,1.6386,0,0,1,1.2393-.4512,1.6585,1.6585,0,0,1,1.2451.4512,1.5616,1.5616,0,0,1,.4395,1.1348,1.5254,1.5254,0,0,1-.4395,1.1172,1.6672,1.6672,0,0,1-1.2451.4453,1.6471,1.6471,0,0,1-1.2393-.4453A1.5364,1.5364,0,0,1,509.9609,389.3613ZM513.1113,406h-2.9668V392.792h2.9668Z"/><path d="M520.0566,389.582v3.21h2.332v2.1973h-2.332v7.373a1.619,1.619,0,0,0,.3,1.0928,1.3867,1.3867,0,0,0,1.0674.3359,4.537,4.537,0,0,0,1.0381-.123v2.2949a7.2938,7.2938,0,0,1-1.9531.2813q-3.4175,0-3.418-3.7715v-7.4834H514.918V392.792h2.1729v-3.21Z"/><path d="M527.5762,394.2324a4.6433,4.6433,0,0,1,3.6738-1.6846q4.2246,0,4.2852,4.8213V406h-2.9668v-8.5205a2.6079,2.6079,0,0,0-.5918-1.9346,2.4179,2.4179,0,0,0-1.7393-.5684,2.8568,2.8568,0,0,0-2.6611,1.5879V406h-2.9668V387.25h2.9668Z"/><path d="M546.5332,404.7061a4.6,4.6,0,0,1-3.7109,1.5381,4.097,4.097,0,0,1-3.2529-1.2578,5.3429,5.3429,0,0,1-1.1045-3.6367V392.792h2.9658v8.5205q0,2.5151,2.0869,2.5146a2.9319,2.9319,0,0,0,2.918-1.55V392.792h2.9668V406h-2.7959Z"/><path d="M564.0137,399.53a7.9393,7.9393,0,0,1-1.373,4.8955,4.4754,4.4754,0,0,1-3.7783,1.8184,4.31,4.31,0,0,1-3.6133-1.6719L555.1025,406H552.417V387.25h2.9668v6.8115a4.2926,4.2926,0,0,1,3.4541-1.5137,4.5249,4.5249,0,0,1,3.7959,1.7939,8.0666,8.0666,0,0,1,1.38,5.0176Zm-2.9658-.2568a5.6072,5.6072,0,0,0-.7578-3.2227,2.52,2.52,0,0,0-2.1973-1.0742,2.7538,2.7538,0,0,0-2.709,1.6855v5.4434a2.78,2.78,0,0,0,2.7344,1.7217,2.5006,2.5006,0,0,0,2.1484-1.0381,5.4394,5.4394,0,0,0,.7813-3.1367Z"/><path d="M568.3477,402.875a1.6953,1.6953,0,0,1,1.2813.47,1.631,1.631,0,0,1,.4521,1.1787,1.5747,1.5747,0,0,1-.4521,1.1533,1.9983,1.9983,0,0,1-2.5391.0059,1.5486,1.5486,0,0,1-.4629-1.1592,1.6343,1.6343,0,0,1,.4512-1.1787A1.6809,1.6809,0,0,1,568.3477,402.875Z"/><path d="M573.4863,389.3613a1.5732,1.5732,0,0,1,.4336-1.1348,1.6386,1.6386,0,0,1,1.2393-.4512,1.6585,1.6585,0,0,1,1.2451.4512,1.5616,1.5616,0,0,1,.4395,1.1348,1.5254,1.5254,0,0,1-.4395,1.1172,1.6672,1.6672,0,0,1-1.2451.4453,1.6471,1.6471,0,0,1-1.2393-.4453A1.5364,1.5364,0,0,1,573.4863,389.3613ZM576.6367,406H573.67V392.792h2.9668Z"/><path d="M579.3105,399.2734a7.7913,7.7913,0,0,1,.7686-3.4971,5.6215,5.6215,0,0,1,2.1611-2.3926,6.0925,6.0925,0,0,1,3.1973-.8359,5.7643,5.7643,0,0,1,4.34,1.7217,6.766,6.766,0,0,1,1.8008,4.5645l.0117.6963a7.8652,7.8652,0,0,1-.75,3.4912,5.56,5.56,0,0,1-2.1484,2.3809,6.1424,6.1424,0,0,1-3.2285.8418,5.73,5.73,0,0,1-4.4746-1.8613,7.13,7.13,0,0,1-1.6777-4.9629Zm2.9658.2568a5.3163,5.3163,0,0,0,.8428,3.1924,2.7367,2.7367,0,0,0,2.3438,1.1533,2.7084,2.7084,0,0,0,2.3369-1.1719,5.8777,5.8777,0,0,0,.8369-3.4307,5.2515,5.2515,0,0,0-.8613-3.1738,2.9,2.9,0,0,0-4.6445-.0176A5.767,5.767,0,0,0,582.2764,399.53Z"/><path d="M594.9346,407.5254h-2.3311l6.9951-19.2988H601.93Z"/><path d="M615.5771,399.53a7.9393,7.9393,0,0,1-1.373,4.8955,4.4754,4.4754,0,0,1-3.7783,1.8184,4.31,4.31,0,0,1-3.6133-1.6719L606.666,406H603.98V387.25h2.9668v6.8115a4.2926,4.2926,0,0,1,3.4541-1.5137,4.5249,4.5249,0,0,1,3.7959,1.7939,8.0666,8.0666,0,0,1,1.38,5.0176Zm-2.9658-.2568a5.6072,5.6072,0,0,0-.7578-3.2227,2.52,2.52,0,0,0-2.1973-1.0742,2.7538,2.7538,0,0,0-2.709,1.6855v5.4434a2.78,2.78,0,0,0,2.7344,1.7217,2.5006,2.5006,0,0,0,2.1484-1.0381,5.4394,5.4394,0,0,0,.7813-3.1367Z"/><path d="M625.4648,402.4111a1.3451,1.3451,0,0,0-.6533-1.208,6.9185,6.9185,0,0,0-2.167-.7324,11.135,11.135,0,0,1-2.5273-.8066,3.371,3.371,0,0,1-2.2207-3.1123,3.5148,3.5148,0,0,1,1.4395-2.8564,5.6988,5.6988,0,0,1,3.6621-1.1475,5.9256,5.9256,0,0,1,3.8271,1.1719,3.718,3.718,0,0,1,1.459,3.04h-2.9658a1.83,1.83,0,0,0-.6348-1.4229,2.438,2.438,0,0,0-1.6855-.5674,2.6316,2.6316,0,0,0-1.5928.4512,1.4245,1.4245,0,0,0-.6162,1.209,1.2032,1.2032,0,0,0,.5742,1.0625,7.9069,7.9069,0,0,0,2.3184.7627,10.9947,10.9947,0,0,1,2.7412.915,3.8854,3.8854,0,0,1,1.4766,1.2754,3.2583,3.2583,0,0,1,.4824,1.8066,3.4408,3.4408,0,0,1-1.4775,2.8877,6.2977,6.2977,0,0,1-3.8691,1.1045,6.8263,6.8263,0,0,1-2.8926-.5859,4.7665,4.7665,0,0,1-1.9785-1.6113,3.8146,3.8146,0,0,1-.707-2.209h2.8809a2.0891,2.0891,0,0,0,.793,1.6172,3.0857,3.0857,0,0,0,1.9414.5674,2.9962,2.9962,0,0,0,1.7813-.4453A1.3791,1.3791,0,0,0,625.4648,402.4111Z"/><path d="M630.9688,389.3613a1.5732,1.5732,0,0,1,.4336-1.1348,1.6386,1.6386,0,0,1,1.2393-.4512,1.6585,1.6585,0,0,1,1.2451.4512,1.5616,1.5616,0,0,1,.4395,1.1348,1.5254,1.5254,0,0,1-.4395,1.1172,1.6672,1.6672,0,0,1-1.2451.4453,1.6471,1.6471,0,0,1-1.2393-.4453A1.5364,1.5364,0,0,1,630.9688,389.3613ZM634.1191,406h-2.9668V392.792h2.9668Z"/><path d="M636.793,399.2988a7.849,7.849,0,0,1,1.416-4.9014,4.5343,4.5343,0,0,1,3.7959-1.85,4.311,4.311,0,0,1,3.3936,1.4648V387.25h2.9668V406H645.68l-.1465-1.3672a4.3741,4.3741,0,0,1-3.5527,1.6113,4.5144,4.5144,0,0,1-3.7539-1.8672A8.1441,8.1441,0,0,1,636.793,399.2988Zm2.9658.2559a5.4926,5.4926,0,0,0,.7754,3.1436,2.514,2.514,0,0,0,2.2031,1.1289,2.8,2.8,0,0,0,2.6611-1.624v-5.6387a2.758,2.758,0,0,0-2.6367-1.5879,2.5343,2.5343,0,0,0-2.2217,1.1416A6.1274,6.1274,0,0,0,639.7588,399.5547Z"/><path d="M657.2754,406.2441a6.1364,6.1364,0,0,1-4.5713-1.7764,6.44,6.44,0,0,1-1.751-4.7295v-.3672a7.9185,7.9185,0,0,1,.7627-3.5332,5.8052,5.8052,0,0,1,2.1416-2.4238,5.67,5.67,0,0,1,3.0762-.8662,5.1812,5.1812,0,0,1,4.1689,1.7217,7.276,7.276,0,0,1,1.4717,4.87v1.1963h-8.6309a3.9635,3.9635,0,0,0,1.0928,2.5879,3.28,3.28,0,0,0,2.4111.9521,4.0208,4.0208,0,0,0,3.32-1.6475l1.5986,1.5254a5.34,5.34,0,0,1-2.1182,1.8369A6.6261,6.6261,0,0,1,657.2754,406.2441Zm-.3535-11.3164a2.4983,2.4983,0,0,0-1.9717.8555,4.4313,4.4313,0,0,0-.958,2.38h5.6523v-.22a3.6063,3.6063,0,0,0-.7939-2.252A2.4783,2.4783,0,0,0,656.9219,394.9277Z"/><path d="M672.2793,402.4111a1.3451,1.3451,0,0,0-.6533-1.208,6.9185,6.9185,0,0,0-2.167-.7324,11.135,11.135,0,0,1-2.5273-.8066,3.371,3.371,0,0,1-2.2207-3.1123,3.5148,3.5148,0,0,1,1.4395-2.8564,5.6988,5.6988,0,0,1,3.6621-1.1475A5.9256,5.9256,0,0,1,673.64,393.72a3.718,3.718,0,0,1,1.459,3.04h-2.9658a1.83,1.83,0,0,0-.6348-1.4229,2.438,2.438,0,0,0-1.6855-.5674,2.6316,2.6316,0,0,0-1.5928.4512,1.4245,1.4245,0,0,0-.6162,1.209,1.2032,1.2032,0,0,0,.5742,1.0625,7.9069,7.9069,0,0,0,2.3184.7627,10.9947,10.9947,0,0,1,2.7412.915,3.8854,3.8854,0,0,1,1.4766,1.2754,3.2583,3.2583,0,0,1,.4824,1.8066,3.4408,3.4408,0,0,1-1.4775,2.8877,6.2977,6.2977,0,0,1-3.8691,1.1045,6.8263,6.8263,0,0,1-2.8926-.5859,4.7665,4.7665,0,0,1-1.9785-1.6113,3.8146,3.8146,0,0,1-.707-2.209h2.8809a2.0891,2.0891,0,0,0,.793,1.6172,3.0857,3.0857,0,0,0,1.9414.5674,2.9962,2.9962,0,0,0,1.7813-.4453A1.3791,1.3791,0,0,0,672.2793,402.4111Z"/><path d="M689.5391,406H677.5879v-2.0391l5.9209-6.457a14.7213,14.7213,0,0,0,1.8252-2.3867,3.8725,3.8725,0,0,0,.543-1.9219,2.9221,2.9221,0,0,0-.7139-2.0508,2.476,2.476,0,0,0-1.9229-.7812,2.8572,2.8572,0,0,0-2.2344.8789,3.4574,3.4574,0,0,0-.793,2.4043h-2.9668a5.8088,5.8088,0,0,1,.7393-2.9238,5.0835,5.0835,0,0,1,2.1113-2.02,6.72,6.72,0,0,1,3.168-.7207,6.0139,6.0139,0,0,1,4.083,1.3,4.5138,4.5138,0,0,1,1.4961,3.5947,6.1085,6.1085,0,0,1-.751,2.79,15.8461,15.8461,0,0,1-2.46,3.3135l-4.3457,4.6514h8.252Z"/><path d="M703.3818,398.5176a9.6926,9.6926,0,0,1-1.4346,5.7793,5.0624,5.0624,0,0,1-4.3633,1.9473,5.1315,5.1315,0,0,1-4.34-1.8984,9.2838,9.2838,0,0,1-1.4961-5.6211v-3.0762a9.5506,9.5506,0,0,1,1.4346-5.75,5.9806,5.9806,0,0,1,8.7285-.0488,9.2613,9.2613,0,0,1,1.4707,5.5918Zm-2.9658-3.32a7.53,7.53,0,0,0-.6836-3.6689,2.6138,2.6138,0,0,0-4.31-.0605,6.9353,6.9353,0,0,0-.72,3.4482v4.0283a7.7146,7.7146,0,0,0,.6953,3.7109,2.3381,2.3381,0,0,0,2.1855,1.2207,2.2962,2.2962,0,0,0,2.1113-1.1289,7.2656,7.2656,0,0,0,.7207-3.5342Z"/><path d="M714.0391,406H711.084V391.7217l-4.3574,1.4854v-2.49l6.9336-2.5508h.3789Z"/><path d="M731.4092,392.9141a4.13,4.13,0,0,1-.6709,2.3252,4.6612,4.6612,0,0,1-1.832,1.6055,5.071,5.071,0,0,1,2.1426,1.7705,4.4591,4.4591,0,0,1,.751,2.5391,4.6643,4.6643,0,0,1-1.5869,3.7168,7.1988,7.1988,0,0,1-8.4658-.0059,4.662,4.662,0,0,1-1.5928-3.7109,4.5175,4.5175,0,0,1,.7568-2.5645,4.8733,4.8733,0,0,1,2.124-1.7451,4.63,4.63,0,0,1-1.8125-1.6055,4.15,4.15,0,0,1-.666-2.3252,4.6256,4.6256,0,0,1,1.4648-3.6016,6.5643,6.5643,0,0,1,7.9229,0A4.6256,4.6256,0,0,1,731.4092,392.9141Zm-2.5752,8.0938a2.9315,2.9315,0,0,0-.7881-2.1309,2.767,2.767,0,0,0-2.0811-.8115,2.739,2.739,0,0,0-2.0693.8057,2.9519,2.9519,0,0,0-.7744,2.1367,2.8577,2.8577,0,0,0,.7627,2.0869,3.2509,3.2509,0,0,0,4.1992.0244A2.8711,2.8711,0,0,0,728.834,401.0078Zm-.3789-7.9844a2.7568,2.7568,0,0,0-.6719-1.91,2.58,2.58,0,0,0-3.6006-.0361,3.1845,3.1845,0,0,0,.0059,3.8877,2.61,2.61,0,0,0,3.6016,0A2.75,2.75,0,0,0,728.4551,393.0234Z"/><path class="b" d="M619.7065,730.824c0,20.533-47.56,37.176-106.22,37.176-58.67,0-106.23-16.643-106.23-37.176s47.558-37.18,106.23-37.18C572.1465,693.644,619.7065,710.294,619.7065,730.824Z"/><path class="c" d="M484.6165,766.614v-26.5a21.8565,21.8565,0,0,0-1.653-8.701c6.853,5.322,7.316,18.695,7.316,18.695v17.004c6.166.481,12.534.773,19.053.861l-.172-16.92c-.944-23.13-20.769-25.961-20.769-25.961-7.245-1.645-7.137,1.991-6.409,4.34-7.108-12.122-26.158-10.556-26.158-10.556-6.611,2.357-.475,6.607-.475,6.607,10.387,3.775,11.33,15.105,11.33,15.105V764.21q8.58,1.47,17.94,2.4Z"/><path class="c" d="M568.1665,718.874s-19.053-1.566-26.16,10.559c.728-2.35.839-5.989-6.408-4.343,0,0-19.824,2.832-20.768,25.961l-.174,16.946c6.509-.025,12.876-.254,19.054-.671v-17.219s.465-13.373,7.316-18.695a21.853,21.853,0,0,0-1.653,8.701v26.775c6.214-.544,12.211-1.279,17.937-2.188V740.587s.944-11.33,11.33-15.105c0-.01,6.13-4.26-.48-6.62Z"/><path d="M700.9465,576.714l.28-1.389c-31.162-6.231-63.141-6.294-82.487-5.49,3.178-11.451,4.134-24.627,4.134-39.32,0-21.073-7.917-37.931-20.77-50.759,2.246-7.25,5.246-23.351-2.996-43.963,0,0-14.541-4.617-47.431,17.396a167.3337,167.3337,0,0,0-40.328-4.81,170.05,170.05,0,0,0-44.615,5.83c-33.94-23.154-48.923-18.411-48.923-18.411-9.78,24.457-3.733,42.566-1.896,47.063a68.1589,68.1589,0,0,0-18.513,47.659c0,14.658,1.669,27.808,5.745,39.237-19.511-.71-50.323-.437-80.373,5.572l.276,1.389c30.231-6.046,61.237-6.256,80.629-5.522a71.16,71.16,0,0,0,3.021,6.879c-19.177.618-51.922,3.062-83.303,11.915l.387,1.36c31.629-8.918,64.658-11.301,83.649-11.882,11.458,21.358,34.048,35.152,74.236,39.484-5.704,3.833-11.523,10.349-13.881,21.374-7.773,3.718-32.379,12.793-47.142-12.599,0,0-8.264-15.109-24.082-16.292,0,0-15.344-.235-1.059,9.562,0,0,10.267,4.838,17.351,23.019,0,0,9.241,31.01,53.835,21.061v32.032s-.943,11.33-11.33,15.105c0,0-6.137,4.249.475,6.606,0,0,28.792,2.361,28.792-21.238V662.653s-1.142-13.852,5.663-18.667v57.371s-.47,13.688-7.551,18.881c0,0-4.723,8.494,5.663,6.137,0,0,19.824-2.832,20.769-25.961l.449-58.06h4.765l.453,58.06c.943,23.129,20.768,25.961,20.768,25.961,10.383,2.357,5.663-6.137,5.663-6.137-7.08-5.193-7.551-18.881-7.551-18.881V644.481c6.801,5.296,5.663,18.171,5.663,18.171v34.929c0,23.6,28.793,21.238,28.793,21.238,6.606-2.357.474-6.606.474-6.606-10.386-3.775-11.33-15.105-11.33-15.105V651.322c0-17.854-7.518-27.309-14.87-32.3,42.859-4.25,63.426-18.089,72.903-39.591,18.773.516,52.557,2.803,84.873,11.919l.384-1.36c-32.131-9.063-65.692-11.408-84.655-11.96a70.9628,70.9628,0,0,0,2.378-6.755c19.25-.8,51.38-.79,82.66,5.46Z"/><path class="d" d="M580.9565,529.526c9.231,8.363,14.631,18.462,14.631,29.343,0,50.804-37.872,52.181-84.585,52.181-46.721,0-84.589-7.035-84.589-52.181,0-10.809,5.324-20.845,14.441-29.174,15.208-13.881,40.946-6.531,70.147-6.531,29.07-.004,54.72-7.429,69.95,6.357Z"/><path class="e" d="M482.8665,561.454c0,13.994-7.88,25.336-17.6,25.336s-17.6-11.342-17.6-25.336c0-13.992,7.88-25.33,17.6-25.33C474.9865,536.134,482.8665,547.464,482.8665,561.454Zm94.43,0c0,13.994-7.88,25.336-17.6,25.336s-17.6-11.342-17.6-25.336c0-13.992,7.88-25.33,17.6-25.33C569.4165,536.134,577.2965,547.464,577.2965,561.454Z"/><path class="f" d="M477.2265,561.774c0,9.328-5.26,16.887-11.734,16.887s-11.733-7.559-11.733-16.887c0-9.331,5.255-16.894,11.733-16.894,6.47,0,11.73,7.56,11.73,16.89Zm94.42,0c0,9.328-5.26,16.887-11.734,16.887s-11.733-7.559-11.733-16.887c0-9.331,5.255-16.894,11.733-16.894,6.47,0,11.73,7.56,11.73,16.89Z"/><circle class="f" cx="511.2665" cy="583.954" r="4.401"/><path class="f" d="M500.9965,595.084a1.4141,1.4141,0,0,1,2.666-.944,8.0057,8.0057,0,0,0,15.102,0,1.4146,1.4146,0,0,1,2.667.944,10.8325,10.8325,0,0,1-20.428.009Z"/><path class="g" d="M403.4075,615.214c0,1.174-1.376,2.122-3.07,2.122s-3.07-.948-3.07-2.122,1.377-2.127,3.07-2.127,3.07.95,3.07,2.13Zm8.5,4.72c0,1.174-1.376,2.122-3.07,2.122s-3.07-.948-3.07-2.122,1.377-2.127,3.07-2.127,3.07.95,3.07,2.13Zm5.193,6.14c0,1.174-1.376,2.122-3.07,2.122s-3.07-.948-3.07-2.122,1.377-2.127,3.07-2.127,3.07.95,3.07,2.13Zm4.72,7.08c0,1.174-1.376,2.122-3.07,2.122s-3.07-.948-3.07-2.122,1.377-2.127,3.07-2.127,3.07.95,3.07,2.13Zm5.188,6.61c0,1.174-1.376,2.122-3.07,2.122s-3.07-.948-3.07-2.122,1.377-2.127,3.07-2.127,3.07.95,3.07,2.13Zm7.09,5.66c0,1.174-1.376,2.122-3.07,2.122s-3.07-.948-3.07-2.122,1.377-2.127,3.07-2.127,3.07.95,3.07,2.13Zm9.91,3.78c0,1.174-1.376,2.122-3.07,2.122s-3.07-.948-3.07-2.122,1.377-2.127,3.07-2.127,3.07.95,3.07,2.13Zm9.87,0c0,1.174-1.376,2.122-3.07,2.122s-3.07-.948-3.07-2.122,1.377-2.127,3.07-2.127,3.07.95,3.07,2.13Zm10.01-1.64c0,1.174-1.376,2.122-3.07,2.122s-3.07-.948-3.07-2.122,1.377-2.127,3.07-2.127,3.07.95,3.07,2.13Z"/><path class="b" d="M392.1355,621.514l-3.066,10.683s-.8,3.861,2.84,4.546c3.8-.074,3.486-3.627,3.223-4.781Z"/></svg>