<svg xmlns="http://www.w3.org/2000/svg" viewBox="0 0 1024 768"><title>Slide B</title><path d="M102.2754,96.4375h-16.91L82.4121,106H69.2285L88.002,54.8125H99.6035L118.5176,106H105.2637ZM88.3184,86.91H99.3223l-5.52-17.7539Z"/><path d="M157.0137,87.2969q0,9.3523-3.8672,14.3789t-10.8984,5.0273a11.2392,11.2392,0,0,1-9.3516-4.6055L132.4043,106H121.7871V52h11.8477V71.02a10.8423,10.8423,0,0,1,8.543-3.7617q7.1,0,10.9688,5.0977t3.8672,14.3438Zm-11.8828-.7554q0-5.4741-1.459-7.8091a4.9186,4.9186,0,0,0-4.4824-2.334q-4.0078,0-5.5547,3.0537V94.5439q1.51,3.019,5.625,3.0186a5.0318,5.0318,0,0,0,5.3086-4.0713A29.2931,29.2931,0,0,0,145.1309,86.5415Z"/><path d="M160.74,86.6289a22.4527,22.4527,0,0,1,2.2148-10.1426,15.8416,15.8416,0,0,1,6.3633-6.8379,19.1619,19.1619,0,0,1,9.7383-2.3906q8.543,0,13.4648,5.291t4.9219,14.3965v.4219q0,8.8945-4.9395,14.1152t-13.377,5.2207q-8.1211,0-13.043-4.8691t-5.3086-13.2012Zm11.8477.7383q0,5.2734,1.6523,7.7344a5.5036,5.5036,0,0,0,4.8867,2.4609q6.3281,0,6.4688-9.7383V86.6289q0-10.23-6.5391-10.23-5.9414,0-6.4336,8.8242Z"/><path d="M225.3223,101.8867a12.215,12.215,0,0,1-10.16,4.8164q-6.2578,0-9.4746-3.6387t-3.2168-10.459V67.9609h11.8477V92.6758q0,4.8867,4.7461,4.8867,4.0781,0,5.8008-2.918V67.9609h11.918V106H225.6738Z"/><path d="M257.0684,58.5039v9.457h6.2578v8.2266h-6.2578V93.59a4.4432,4.4432,0,0,0,.7734,2.9883q.772.8438,3.0586.8438a17.38,17.38,0,0,0,2.9531-.2109v8.4727a21.8651,21.8651,0,0,1-6.68,1.02q-6.1172,0-9.0352-2.8828t-2.918-8.7539V76.1875h-4.8516V67.9609h4.8516v-9.457Z"/><path d="M302.666,54.8125l11.4258,35.6133,11.3906-35.6133h16.2422V106H329.35V94.0469l1.1953-24.4687L318.17,106h-8.1562l-12.41-36.457,1.1953,24.5039V106h-12.34V54.8125Z"/><path d="M364.2246,89.4063l6.3281-21.4453h12.6914L367.74,112.3633l-.668,1.6172q-3.3047,7.3828-11.6719,7.3828a18.567,18.567,0,0,1-4.8867-.7v-8.44h1.5469a8.1076,8.1076,0,0,0,3.8145-.7212,4.3793,4.3793,0,0,0,1.9512-2.5864l.9492-2.5327L345.5566,67.9609h12.6563Z"/><path d="M442.8691,64.34H427.5059V106h-12.34V64.34H400.084V54.8125h42.7852Z"/><path d="M463.0488,106a13.3772,13.3772,0,0,1-1.125-3.41,11.0168,11.0168,0,0,1-9.1406,4.1133,13.4964,13.4964,0,0,1-9.1406-3.252,10.3465,10.3465,0,0,1-3.7617-8.1738q0-6.1875,4.57-9.3516T457.74,82.7617h3.6563V80.748q0-5.2639-4.5352-5.2637-4.2187,0-4.2187,4.1689H440.7949a10.62,10.62,0,0,1,4.6934-8.9541q4.6934-3.4409,11.9707-3.4414t11.4961,3.5508a12.346,12.346,0,0,1,4.3242,9.7383v16.84q.07,5.239,1.6172,8.0156V106Zm-7.418-7.7344a6.6087,6.6087,0,0,0,3.6738-.9492,5.9572,5.9572,0,0,0,2.0918-2.1445V89.09h-3.4453q-6.189,0-6.1875,5.5547a3.3916,3.3916,0,0,0,1.09,2.6191A3.9423,3.9423,0,0,0,455.6309,98.2656Z"/><path d="M492.334,106H480.4512V52H492.334Z"/><path d="M514.9043,91.832l-3.34,3.34V106H499.7168V51.9648h11.8477V80.6523L512.76,79.07l8.93-11.1094h14.2031L522.5684,83.6055,536.7715,106h-13.57Z"/></svg>