<svg xmlns="http://www.w3.org/2000/svg" viewBox="0 0 1024 768"><defs><style>.a{fill:#1200bd;}</style></defs><title>Slide L a</title><path d="M204.1543,106H191.85V54.8125h12.3047Z"/><path d="M223.0684,67.9609l.3867,4.4648a12.8985,12.8985,0,0,1,10.8633-5.168q5.9407,0,8.877,3.5508t3.041,10.6875V106H234.3535V81.9883a6.4191,6.4191,0,0,0-1.16-4.2363q-1.16-1.3535-4.2187-1.3535a5.65,5.65,0,0,0-5.168,2.7422V106H211.959V67.9609Z"/><path d="M255.4121,106V76.1875h-5.52V67.9609h5.52V64.9375q0-6.5039,3.832-10.09t10.7578-3.5859A23.5609,23.5609,0,0,1,275.5566,52l.0352,8.7188a10.8259,10.8259,0,0,0-2.918-.3164q-5.3789,0-5.3789,4.6406v2.918h7.418v8.2266h-7.418V106Z"/><path d="M277.3848,86.6289A22.4512,22.4512,0,0,1,279.6,76.4863a15.8389,15.8389,0,0,1,6.3633-6.8379,19.1631,19.1631,0,0,1,9.7383-2.3906q8.543,0,13.4648,5.291t4.9219,14.3965v.4219q0,8.8945-4.9395,14.1152t-13.377,5.2207q-8.1211,0-13.043-4.8691T277.42,88.6328Zm11.8477.7383q0,5.2734,1.6523,7.7344a5.5042,5.5042,0,0,0,4.8867,2.4609q6.3281,0,6.4688-9.7383V86.6289q0-10.23-6.5391-10.23-5.9414,0-6.4336,8.8242Z"/><path d="M342.3184,78.6836l-3.9023-.2812q-5.59,0-7.1719,3.5156V106H319.3965V67.9609h11.1094l.3867,4.8867q2.9875-5.59,8.332-5.59a11.5535,11.5535,0,0,1,3.3047.4219Z"/><path d="M357.7871,67.9609l.3867,4.4648a13.0778,13.0778,0,0,1,10.8633-5.168q7.2063,0,9.7383,5.73a12.6594,12.6594,0,0,1,11.18-5.73q11.5664,0,11.8828,13.9922V106H389.9551V81.9883a7.2554,7.2554,0,0,0-.9844-4.2539q-.9844-1.3359-3.5859-1.3359a5.6128,5.6128,0,0,0-5.2383,3.1289l.0352.4922V106H368.2988V82.0586a7.622,7.622,0,0,0-.9492-4.3242q-.9492-1.3359-3.6211-1.3359a5.6817,5.6817,0,0,0-5.2031,3.1289V106H346.6777V67.9609Z"/><path d="M430.0332,106a13.3772,13.3772,0,0,1-1.125-3.41,11.0168,11.0168,0,0,1-9.1406,4.1133,13.4964,13.4964,0,0,1-9.1406-3.252,10.3494,10.3494,0,0,1-3.7617-8.1738q0-6.1875,4.57-9.3516t13.2891-3.1641h3.6563V80.748q0-5.2646-4.5352-5.2637-4.2187,0-4.2187,4.1689H407.7793a10.621,10.621,0,0,1,4.6934-8.9541q4.6934-3.4409,11.9707-3.4414t11.4961,3.5508a12.3453,12.3453,0,0,1,4.3242,9.7383v16.84q.07,5.2383,1.6172,8.0156V106Zm-7.418-7.7344a6.6087,6.6087,0,0,0,3.6738-.9492,5.9532,5.9532,0,0,0,2.0918-2.1445V89.09h-3.4453q-6.1882,0-6.1875,5.5547a3.3916,3.3916,0,0,0,1.09,2.6191A3.9431,3.9431,0,0,0,422.6152,98.2656Z"/><path d="M460.6191,58.5039v9.457h6.2578v8.2266h-6.2578V93.59a4.4432,4.4432,0,0,0,.7734,2.9883q.7727.8438,3.0586.8438a17.38,17.38,0,0,0,2.9531-.2109v8.4727a21.8651,21.8651,0,0,1-6.68,1.02q-6.1172,0-9.0352-2.8828t-2.918-8.7539V76.1875H443.92V67.9609h4.8516v-9.457Z"/><path d="M471.4473,58.1523a5.2881,5.2881,0,0,1,1.8281-4.1484,7.773,7.773,0,0,1,9.4922,0,5.6209,5.6209,0,0,1,0,8.2969,7.773,7.773,0,0,1-9.4922,0A5.2881,5.2881,0,0,1,471.4473,58.1523ZM484.0332,106H472.15V67.9609h11.8828Z"/><path d="M489.834,86.6289a22.4512,22.4512,0,0,1,2.2148-10.1426,15.8389,15.8389,0,0,1,6.3633-6.8379,19.1644,19.1644,0,0,1,9.7383-2.3906q8.543,0,13.4648,5.291t4.9219,14.3965v.4219q0,8.8945-4.9395,14.1152t-13.377,5.2207q-8.1211,0-13.043-4.8691t-5.3086-13.2012Zm11.8477.7383q0,5.2734,1.6523,7.7344a5.5047,5.5047,0,0,0,4.8867,2.4609q6.3281,0,6.4688-9.7383V86.6289q0-10.23-6.5391-10.23-5.9414,0-6.4336,8.8242Z"/><path d="M542.6387,67.9609l.3867,4.4648a12.9,12.9,0,0,1,10.8633-5.168q5.9414,0,8.877,3.5508t3.041,10.6875V106H553.9238V81.9883a6.4191,6.4191,0,0,0-1.16-4.2363q-1.16-1.3535-4.2187-1.3535a5.65,5.65,0,0,0-5.168,2.7422V106H531.5293V67.9609Z"/><path d="M622.584,84.2734H603.1777V96.5078H626.1V106H590.8379V54.8125H626.17V64.34H603.1777v10.793H622.584Z"/><path d="M641.4629,67.9609l.3867,4.4648a12.9,12.9,0,0,1,10.8633-5.168q5.9414,0,8.877,3.5508t3.041,10.6875V106H652.748V81.9883a6.4191,6.4191,0,0,0-1.16-4.2363q-1.16-1.3535-4.2187-1.3535a5.65,5.65,0,0,0-5.168,2.7422V106H630.3535V67.9609Z"/><path d="M684.9863,58.5039v9.457h6.2578v8.2266h-6.2578V93.59a4.4432,4.4432,0,0,0,.7734,2.9883q.7734.8438,3.0586.8438a17.38,17.38,0,0,0,2.9531-.2109v8.4727a21.8651,21.8651,0,0,1-6.68,1.02q-6.1172,0-9.0352-2.8828t-2.918-8.7539V76.1875h-4.8516V67.9609h4.8516v-9.457Z"/><path d="M718.9121,78.6836l-3.9023-.2812q-5.59,0-7.1719,3.5156V106H695.99V67.9609H707.1l.3867,4.8867q2.9883-5.59,8.332-5.59a11.5535,11.5535,0,0,1,3.3047.4219Z"/><path d="M720.4238,86.6289a22.4512,22.4512,0,0,1,2.2148-10.1426,15.8389,15.8389,0,0,1,6.3633-6.8379,19.1644,19.1644,0,0,1,9.7383-2.3906q8.543,0,13.4648,5.291t4.9219,14.3965v.4219q0,8.8945-4.9395,14.1152t-13.377,5.2207q-8.1211,0-13.043-4.8691T720.459,88.6328Zm11.8477.7383q0,5.2734,1.6523,7.7344a5.5047,5.5047,0,0,0,4.8867,2.4609q6.3281,0,6.4688-9.7383V86.6289q0-10.23-6.5391-10.23-5.9414,0-6.4336,8.8242Z"/><path d="M797.6621,87.2617q0,8.8594-3.99,14.15a12.7934,12.7934,0,0,1-10.7754,5.291,10.9664,10.9664,0,0,1-8.6133-3.832V120.625H762.4355V67.9609H773.51l.3516,3.5156a10.967,10.967,0,0,1,8.9648-4.2187A12.8965,12.8965,0,0,1,793.76,72.4434q3.9023,5.1855,3.9023,14.2559Zm-11.8477-.7383q0-10.125-5.9062-10.125-4.2187,0-5.625,3.0234V94.3984q1.5469,3.1641,5.6953,3.1641,5.66,0,5.8359-9.7734Z"/><path d="M818.0879,89.4063l6.3281-21.4453h12.6914l-15.5039,44.4023-.668,1.6172q-3.3047,7.3828-11.6719,7.3828a18.5727,18.5727,0,0,1-4.8867-.7v-8.44h1.5469a8.1082,8.1082,0,0,0,3.8145-.7207,4.3835,4.3835,0,0,0,1.9512-2.5869l.9492-2.5322L799.42,67.9609h12.6563Z"/><path d="M94.8706,207.2012H82.063L79.1865,215.2H75.0293l11.6738-30.57H90.23l11.6948,30.57H97.7891Zm-11.59-3.2969H93.6738l-5.207-14.2988Z"/><path d="M111.8774,209.93l5.627-17.4473h3.9683L113.3262,215.2h-2.96l-8.23-22.7178h3.9683Z"/><path d="M134.6372,215.62a9.923,9.923,0,0,1-7.5166-3.0342,11.2588,11.2588,0,0,1-2.8975-8.1152v-.7129a13.6305,13.6305,0,0,1,1.2915-6.0371,10.07,10.07,0,0,1,3.6113-4.1572,9.0765,9.0765,0,0,1,5.0283-1.501,8.5092,8.5092,0,0,1,6.8867,2.918q2.4565,2.9194,2.4565,8.3574v1.6162h-15.39a8.0768,8.0768,0,0,0,1.9629,5.4277,6.1735,6.1735,0,0,0,4.7769,2.0674,6.76,6.76,0,0,0,3.4854-.84,8.7363,8.7363,0,0,0,2.4985-2.2246l2.3726,1.8477A9.5391,9.5391,0,0,1,134.6372,215.62Zm-.4829-20.3662a5.1807,5.1807,0,0,0-3.9473,1.7109,8.3165,8.3165,0,0,0-1.9736,4.7979h11.38v-.2939a7.4023,7.4023,0,0,0-1.5957-4.5879A4.8811,4.8811,0,0,0,134.1543,195.2539Z"/><path d="M158.9717,195.9678a11.6766,11.6766,0,0,0-1.9106-.1475,5.1194,5.1194,0,0,0-5.186,3.2549V215.2h-3.8843V192.4824H151.77l.063,2.625a6.0486,6.0486,0,0,1,5.417-3.0449,3.9639,3.9639,0,0,1,1.7217.2939Z"/><path d="M175.7266,215.2a8.1407,8.1407,0,0,1-.5459-2.3936,8.6657,8.6657,0,0,1-6.4668,2.8135,8.0211,8.0211,0,0,1-5.5117-1.9,6.1463,6.1463,0,0,1-2.1519-4.8184,6.4246,6.4246,0,0,1,2.6978-5.5117q2.6982-1.9629,7.59-1.9629h3.7793v-1.7842a4.3646,4.3646,0,0,0-1.2178-3.2441,4.8953,4.8953,0,0,0-3.59-1.207,5.6669,5.6669,0,0,0-3.4854,1.0488,3.0951,3.0951,0,0,0-1.4067,2.541h-3.9053a5.3613,5.3613,0,0,1,1.2075-3.2861,8.2414,8.2414,0,0,1,3.2754-2.5088,11.0266,11.0266,0,0,1,4.5454-.9238,8.9826,8.9826,0,0,1,6.1519,1.9629,7.0836,7.0836,0,0,1,2.31,5.4063v10.457a12.7726,12.7726,0,0,0,.7979,4.9756V215.2Zm-6.4458-2.96a6.8273,6.8273,0,0,0,3.4644-.9453,5.718,5.718,0,0,0,2.3726-2.457v-4.66h-3.0444q-7.1389,0-7.1387,4.1777a3.5351,3.5351,0,0,0,1.2178,2.8555A4.6817,4.6817,0,0,0,169.2808,212.24Z"/><path d="M184.167,203.6523q0-5.3115,2.4565-8.4512a8.4692,8.4692,0,0,1,12.9966-.1992l.189-2.52h3.5483v22.1719a9.2386,9.2386,0,0,1-2.6143,6.9492,9.6467,9.6467,0,0,1-7.0229,2.541,11.6779,11.6779,0,0,1-4.8081-1.05,8.2831,8.2831,0,0,1-3.59-2.876l2.0156-2.3311a7.5957,7.5957,0,0,0,6.11,3.0869,5.9577,5.9577,0,0,0,4.42-1.5957,6.103,6.103,0,0,0,1.585-4.4941v-1.9521A7.9823,7.9823,0,0,1,193.09,215.62a7.7627,7.7627,0,0,1-6.4565-3.2119Q184.167,209.1943,184.167,203.6523Zm3.9053.4414a10.1876,10.1876,0,0,0,1.5747,6.0361,5.1187,5.1187,0,0,0,4.4092,2.1943,5.6906,5.6906,0,0,0,5.396-3.3389V198.6133a5.7556,5.7556,0,0,0-5.354-3.2539,5.1619,5.1619,0,0,0-4.43,2.2041Q188.072,199.7681,188.0723,204.0938Z"/><path d="M218.6426,215.62a9.923,9.923,0,0,1-7.5166-3.0342,11.2588,11.2588,0,0,1-2.8975-8.1152v-.7129a13.6305,13.6305,0,0,1,1.2915-6.0371,10.07,10.07,0,0,1,3.6113-4.1572,9.0765,9.0765,0,0,1,5.0283-1.501,8.5092,8.5092,0,0,1,6.8867,2.918q2.4565,2.9194,2.4565,8.3574v1.6162h-15.39a8.0768,8.0768,0,0,0,1.9629,5.4277,6.1735,6.1735,0,0,0,4.7769,2.0674,6.76,6.76,0,0,0,3.4854-.84,8.7363,8.7363,0,0,0,2.4985-2.2246l2.3726,1.8477A9.5391,9.5391,0,0,1,218.6426,215.62Zm-.4829-20.3662a5.1807,5.1807,0,0,0-3.9473,1.7109,8.3165,8.3165,0,0,0-1.9736,4.7979h11.38v-.2939a7.4023,7.4023,0,0,0-1.5957-4.5879A4.8811,4.8811,0,0,0,218.16,195.2539Z"/><path d="M256.6665,215.2a8.1407,8.1407,0,0,1-.5459-2.3936,8.6657,8.6657,0,0,1-6.4668,2.8135,8.0211,8.0211,0,0,1-5.5117-1.9,6.1463,6.1463,0,0,1-2.1519-4.8184,6.4246,6.4246,0,0,1,2.6978-5.5117q2.6982-1.9629,7.59-1.9629h3.7793v-1.7842a4.3646,4.3646,0,0,0-1.2178-3.2441,4.8953,4.8953,0,0,0-3.59-1.207,5.6669,5.6669,0,0,0-3.4854,1.0488,3.0951,3.0951,0,0,0-1.4067,2.541h-3.9053a5.3613,5.3613,0,0,1,1.2075-3.2861,8.2414,8.2414,0,0,1,3.2754-2.5088,11.0266,11.0266,0,0,1,4.5454-.9238,8.9826,8.9826,0,0,1,6.1519,1.9629,7.0836,7.0836,0,0,1,2.31,5.4063v10.457a12.7726,12.7726,0,0,0,.7979,4.9756V215.2Zm-6.4458-2.96a6.8273,6.8273,0,0,0,3.4644-.9453,5.718,5.718,0,0,0,2.3726-2.457v-4.66h-3.0444q-7.1389,0-7.1387,4.1777a3.5351,3.5351,0,0,0,1.2178,2.8555A4.6817,4.6817,0,0,0,250.2207,212.24Z"/><path d="M269.6841,192.4824l.105,2.52a8.3912,8.3912,0,0,1,6.74-2.9395q4.7659,0,6.4878,3.6533a8.6081,8.6081,0,0,1,2.95-2.6455,8.7138,8.7138,0,0,1,4.2939-1.0078q7.4744,0,7.6006,7.916V215.2h-3.8843V200.209a5.2173,5.2173,0,0,0-1.1128-3.6426,4.902,4.902,0,0,0-3.7373-1.207,5.1476,5.1476,0,0,0-3.59,1.291,5.2359,5.2359,0,0,0-1.6587,3.4746V215.2h-3.9053V200.3145q0-4.9556-4.85-4.9551a5.1956,5.1956,0,0,0-5.228,3.2539V215.2H266.01V192.4824Z"/><path d="M302.69,203.6309a13.42,13.42,0,0,1,1.312-6.0039,9.7876,9.7876,0,0,1,3.6533-4.1152,9.9374,9.9374,0,0,1,5.3438-1.4492,9.5767,9.5767,0,0,1,7.5059,3.2129,12.355,12.355,0,0,1,2.8662,8.5449v.2734a13.5322,13.5322,0,0,1-1.2705,5.9521,9.6428,9.6428,0,0,1-3.6318,4.1045,10.0558,10.0558,0,0,1-5.4277,1.47,9.56,9.56,0,0,1-7.4854-3.2119,12.3018,12.3018,0,0,1-2.8657-8.5039Zm3.9053.4629a9.7158,9.7158,0,0,0,1.7534,6.0674,5.9418,5.9418,0,0,0,9.3955-.0312,10.63,10.63,0,0,0,1.7427-6.499,9.7035,9.7035,0,0,0-1.7739-6.0566,5.641,5.641,0,0,0-4.7139-2.32,5.5785,5.5785,0,0,0-4.64,2.2891A10.5475,10.5475,0,0,0,306.5952,204.0938Z"/><path d="M342.2676,212.9531q-2.2676,2.6675-6.6558,2.667a7.0612,7.0612,0,0,1-5.5327-2.11q-1.9-2.1094-1.9209-6.2461V192.4824h3.8843v14.6758q0,5.165,4.1992,5.166,4.4509,0,5.9209-3.3184V192.4824h3.8843V215.2h-3.6953Z"/><path d="M355.6211,192.4824l.126,2.8555a8.2777,8.2777,0,0,1,6.8027-3.2754q7.2012,0,7.2646,8.125V215.2H365.93V200.167a5.23,5.23,0,0,0-1.123-3.6318,4.5016,4.5016,0,0,0-3.4331-1.1758,5.6057,5.6057,0,0,0-3.3174,1.0078,6.8365,6.8365,0,0,0-2.2256,2.6445V215.2h-3.8843V192.4824Z"/><path d="M380.9424,186.9814v5.501h4.2412v3.002h-4.2412v14.1064a3.1527,3.1527,0,0,0,.5669,2.05,2.3868,2.3868,0,0,0,1.9316.6836,9.4087,9.4087,0,0,0,1.8477-.252v3.1309a11.3629,11.3629,0,0,1-2.9814.417,4.8345,4.8345,0,0,1-3.9263-1.5752,6.7618,6.7618,0,0,1-1.3228-4.4717V195.4844h-4.1362v-3.002h4.1362v-5.501Z"/><path d="M399.335,203.6309a13.42,13.42,0,0,1,1.312-6.0039,9.7876,9.7876,0,0,1,3.6533-4.1152,9.9374,9.9374,0,0,1,5.3438-1.4492,9.5767,9.5767,0,0,1,7.5059,3.2129,12.355,12.355,0,0,1,2.8662,8.5449v.2734a13.5322,13.5322,0,0,1-1.2705,5.9521,9.6428,9.6428,0,0,1-3.6318,4.1045,10.0558,10.0558,0,0,1-5.4277,1.47,9.56,9.56,0,0,1-7.4854-3.2119,12.3018,12.3018,0,0,1-2.8657-8.5039Zm3.9053.4629a9.7158,9.7158,0,0,0,1.7534,6.0674,5.9418,5.9418,0,0,0,9.3955-.0312,10.63,10.63,0,0,0,1.7427-6.499,9.7035,9.7035,0,0,0-1.7739-6.0566,5.641,5.641,0,0,0-4.7139-2.32,5.5785,5.5785,0,0,0-4.64,2.2891A10.5475,10.5475,0,0,0,403.24,204.0938Z"/><path d="M426.7979,215.2V195.4844h-3.59v-3.002h3.59v-2.33a7.7376,7.7376,0,0,1,1.9526-5.6484,7.3742,7.3742,0,0,1,5.522-1.9941,10.3019,10.3019,0,0,1,2.6665.3535l-.21,3.1309a11.2423,11.2423,0,0,0-2.1-.1885,3.7858,3.7858,0,0,0-2.9185,1.1064,4.4812,4.4812,0,0,0-1.0288,3.17v2.4h4.85v3.002h-4.85V215.2Z"/><path d="M450.4814,186.457a2.315,2.315,0,0,1,.5776-1.5957,2.1685,2.1685,0,0,1,1.7109-.6514,2.2031,2.2031,0,0,1,1.7217.6514,2.2934,2.2934,0,0,1,.5879,1.5957,2.3,2.3,0,1,1-4.5981,0ZM454.6807,215.2h-3.8843V192.4824h3.8843Z"/><path d="M464.57,192.4824l.126,2.8555a8.2777,8.2777,0,0,1,6.8027-3.2754q7.2,0,7.2651,8.125V215.2h-3.8848V200.167a5.2281,5.2281,0,0,0-1.123-3.6318,4.5016,4.5016,0,0,0-3.4331-1.1758,5.6057,5.6057,0,0,0-3.3174,1.0078,6.8365,6.8365,0,0,0-2.2256,2.6445V215.2h-3.8843V192.4824Z"/><path d="M486.5313,215.2V195.4844h-3.59v-3.002h3.59v-2.33a7.7378,7.7378,0,0,1,1.9531-5.6484,7.3745,7.3745,0,0,1,5.5215-1.9941,10.3,10.3,0,0,1,2.667.3535l-.21,3.1309a11.2385,11.2385,0,0,0-2.1-.1885,3.7847,3.7847,0,0,0-2.918,1.1064,4.4791,4.4791,0,0,0-1.0293,3.17v2.4h4.85v3.002h-4.85V215.2Z"/><path d="M498.5205,203.6309a13.4267,13.4267,0,0,1,1.3115-6.0039,9.79,9.79,0,0,1,3.6543-4.1152,9.9363,9.9363,0,0,1,5.3438-1.4492,9.5774,9.5774,0,0,1,7.5059,3.2129,12.3592,12.3592,0,0,1,2.8652,8.5449v.2734a13.5523,13.5523,0,0,1-1.27,5.9521,9.6513,9.6513,0,0,1-3.6328,4.1045,10.0523,10.0523,0,0,1-5.4277,1.47,9.5577,9.5577,0,0,1-7.4844-3.2119,12.302,12.302,0,0,1-2.8662-8.5039Zm3.9053.4629a9.71,9.71,0,0,0,1.7539,6.0674,5.9408,5.9408,0,0,0,9.3945-.0312,10.627,10.627,0,0,0,1.7422-6.499,9.6973,9.6973,0,0,0-1.7734-6.0566,5.6393,5.6393,0,0,0-4.7129-2.32,5.5794,5.5794,0,0,0-4.6406,2.2891A10.5475,10.5475,0,0,0,502.4258,204.0938Z"/><path d="M535.0537,195.9678a11.67,11.67,0,0,0-1.91-.1475,5.1184,5.1184,0,0,0-5.1855,3.2549V215.2h-3.8848V192.4824h3.7793l.0625,2.625a6.0513,6.0513,0,0,1,5.418-3.0449,3.9575,3.9575,0,0,1,1.7207.2939Z"/><path d="M542.2773,192.4824l.1045,2.52a8.3936,8.3936,0,0,1,6.74-2.9395q4.7666,0,6.4883,3.6533A8.6021,8.6021,0,0,1,558.56,193.07a8.7151,8.7151,0,0,1,4.2939-1.0078q7.4751,0,7.6006,7.916V215.2h-3.8848V200.209a5.2149,5.2149,0,0,0-1.1123-3.6426,4.9012,4.9012,0,0,0-3.7373-1.207,5.1464,5.1464,0,0,0-3.59,1.291,5.2386,5.2386,0,0,0-1.6592,3.4746V215.2h-3.9053V200.3145q0-4.9556-4.85-4.9551a5.1963,5.1963,0,0,0-5.2285,3.2539V215.2h-3.8848V192.4824Z"/><path d="M590.3369,215.2a8.1567,8.1567,0,0,1-.5459-2.3936,8.6649,8.6649,0,0,1-6.4668,2.8135,8.0211,8.0211,0,0,1-5.5117-1.9,6.1458,6.1458,0,0,1-2.1514-4.8184,6.423,6.423,0,0,1,2.6973-5.5117q2.6982-1.9629,7.59-1.9629h3.7793v-1.7842a4.364,4.364,0,0,0-1.2168-3.2441,4.8965,4.8965,0,0,0-3.5908-1.207,5.6669,5.6669,0,0,0-3.4854,1.0488,3.0958,3.0958,0,0,0-1.4062,2.541h-3.9062a5.359,5.359,0,0,1,1.208-3.2861,8.2414,8.2414,0,0,1,3.2754-2.5088,11.0256,11.0256,0,0,1,4.5459-.9238,8.98,8.98,0,0,1,6.1514,1.9629,7.0819,7.0819,0,0,1,2.31,5.4063v10.457a12.7726,12.7726,0,0,0,.7979,4.9756V215.2Zm-6.4453-2.96a6.8281,6.8281,0,0,0,3.4639-.9453,5.7112,5.7112,0,0,0,2.3721-2.457v-4.66h-3.0439q-7.1382,0-7.1387,4.1777a3.5366,3.5366,0,0,0,1.2178,2.8555A4.6821,4.6821,0,0,0,583.8916,212.24Z"/><path d="M604.9707,186.9814v5.501h4.2422v3.002h-4.2422v14.1064a3.1527,3.1527,0,0,0,.5674,2.05,2.3868,2.3868,0,0,0,1.9316.6836,9.4041,9.4041,0,0,0,1.8477-.252v3.1309a11.36,11.36,0,0,1-2.9814.417,4.8328,4.8328,0,0,1-3.9258-1.5752,6.7565,6.7565,0,0,1-1.3232-4.4717V195.4844h-4.1357v-3.002h4.1357v-5.501Z"/><path d="M613.7686,186.457a2.3123,2.3123,0,0,1,.5771-1.5957,2.1685,2.1685,0,0,1,1.7109-.6514,2.2024,2.2024,0,0,1,1.7217.6514,2.2934,2.2934,0,0,1,.5879,1.5957,2.2994,2.2994,0,1,1-4.5977,0ZM617.9678,215.2H614.083V192.4824h3.8848Z"/><path d="M623.1533,203.6309a13.414,13.414,0,0,1,1.3125-6.0039,9.7876,9.7876,0,0,1,3.6533-4.1152,9.9363,9.9363,0,0,1,5.3438-1.4492,9.576,9.576,0,0,1,7.5059,3.2129,12.355,12.355,0,0,1,2.8662,8.5449v.2734a13.539,13.539,0,0,1-1.2705,5.9521,9.6428,9.6428,0,0,1-3.6318,4.1045,10.0546,10.0546,0,0,1-5.4277,1.47,9.5611,9.5611,0,0,1-7.4854-3.2119,12.302,12.302,0,0,1-2.8662-8.5039Zm3.9063.4629a9.7157,9.7157,0,0,0,1.7529,6.0674,5.9418,5.9418,0,0,0,9.3955-.0312,10.627,10.627,0,0,0,1.7422-6.499,9.7034,9.7034,0,0,0-1.7734-6.0566,5.641,5.641,0,0,0-4.7139-2.32,5.5776,5.5776,0,0,0-4.64,2.2891A10.5475,10.5475,0,0,0,627.06,204.0938Z"/><path d="M652.38,192.4824l.127,2.8555a8.2777,8.2777,0,0,1,6.8027-3.2754q7.2012,0,7.2637,8.125V215.2h-3.8838V200.167a5.2281,5.2281,0,0,0-1.123-3.6318,4.5018,4.5018,0,0,0-3.4326-1.1758,5.61,5.61,0,0,0-3.3184,1.0078,6.8383,6.8383,0,0,0-2.2246,2.6445V215.2h-3.8848V192.4824Z"/><path d="M702.2676,204.0938a13.604,13.604,0,0,1-2.3721,8.3555A7.6043,7.6043,0,0,1,693.47,215.62a8.3277,8.3277,0,0,1-6.5078-2.624v10.9385h-3.8848V192.4824h3.5488l.1885,2.52a8.0039,8.0039,0,0,1,6.5928-2.9395,7.7494,7.7494,0,0,1,6.4775,3.0859q2.3818,3.0879,2.3828,8.5879Zm-3.8838-.4414a10.04,10.04,0,0,0-1.6387-6.0684,5.2766,5.2766,0,0,0-4.4922-2.2246,5.7106,5.7106,0,0,0-5.291,3.1279v10.8545a5.7188,5.7188,0,0,0,5.332,3.1074,5.2524,5.2524,0,0,0,4.4414-2.2148Q698.3833,208.02,698.3838,203.6523Z"/><path d="M718.1826,195.9678a11.67,11.67,0,0,0-1.91-.1475,5.1184,5.1184,0,0,0-5.1855,3.2549V215.2h-3.8848V192.4824h3.7793l.0625,2.625a6.0513,6.0513,0,0,1,5.418-3.0449,3.9575,3.9575,0,0,1,1.7207.2939Z"/><path d="M720.3037,203.6309a13.414,13.414,0,0,1,1.3125-6.0039,9.7876,9.7876,0,0,1,3.6533-4.1152,9.9363,9.9363,0,0,1,5.3438-1.4492,9.576,9.576,0,0,1,7.5059,3.2129,12.355,12.355,0,0,1,2.8662,8.5449v.2734a13.539,13.539,0,0,1-1.2705,5.9521,9.6428,9.6428,0,0,1-3.6318,4.1045,10.0546,10.0546,0,0,1-5.4277,1.47,9.5611,9.5611,0,0,1-7.4854-3.2119,12.302,12.302,0,0,1-2.8662-8.5039Zm3.9063.4629a9.7157,9.7157,0,0,0,1.7529,6.0674,5.9418,5.9418,0,0,0,9.3955-.0312,10.627,10.627,0,0,0,1.7422-6.499,9.7034,9.7034,0,0,0-1.7734-6.0566,5.641,5.641,0,0,0-4.7139-2.32,5.5776,5.5776,0,0,0-4.64,2.2891A10.5475,10.5475,0,0,0,724.21,204.0938Z"/><path d="M744.9111,203.6523a13.3063,13.3063,0,0,1,2.4785-8.4092,8.4288,8.4288,0,0,1,12.8066-.4512V182.95h3.8848V215.2h-3.5693l-.1885-2.4355a7.9135,7.9135,0,0,1-6.4883,2.8555,7.7583,7.7583,0,0,1-6.4355-3.2334,13.4613,13.4613,0,0,1-2.4883-8.44Zm3.8848.4414a10.08,10.08,0,0,0,1.5957,6.0469,5.16,5.16,0,0,0,4.4092,2.1836,5.6635,5.6635,0,0,0,5.3955-3.3184V198.5713a5.7085,5.7085,0,0,0-5.3535-3.2119,5.1826,5.1826,0,0,0-4.4512,2.2041Q748.7964,199.7681,748.7959,204.0938Z"/><path d="M784.1318,212.9531q-2.2676,2.6675-6.6562,2.667a7.0608,7.0608,0,0,1-5.5322-2.11q-1.9-2.1094-1.9209-6.2461V192.4824h3.8848v14.6758q0,5.165,4.1992,5.166,4.45,0,5.92-3.3184V192.4824h3.8848V215.2h-3.6953Z"/><path d="M802.9238,212.4492a5.5924,5.5924,0,0,0,3.6318-1.26,4.4313,4.4313,0,0,0,1.7227-3.1484h3.6738a7.0451,7.0451,0,0,1-1.3437,3.7158,8.8524,8.8524,0,0,1-3.3066,2.8135,9.55,9.55,0,0,1-4.3779,1.05,9.3572,9.3572,0,0,1-7.38-3.0967q-2.7407-3.0967-2.74-8.4727v-.65a13.6891,13.6891,0,0,1,1.2178-5.9,9.2744,9.2744,0,0,1,3.4961-4.01,9.9351,9.9351,0,0,1,5.3857-1.4277,9.112,9.112,0,0,1,6.3506,2.2891,8.18,8.18,0,0,1,2.6982,5.9414h-3.6738a5.356,5.356,0,0,0-1.67-3.6221,5.1946,5.1946,0,0,0-3.7051-1.417,5.4367,5.4367,0,0,0-4.5879,2.1309,10.0069,10.0069,0,0,0-1.627,6.1621v.7354a9.8043,9.8043,0,0,0,1.6162,6.0469A5.4614,5.4614,0,0,0,802.9238,212.4492Z"/><path d="M825.7471,215.62a9.9244,9.9244,0,0,1-7.5176-3.0342,11.2583,11.2583,0,0,1-2.8965-8.1152v-.7129a13.63,13.63,0,0,1,1.291-6.0371,10.07,10.07,0,0,1,3.6113-4.1572,9.0753,9.0753,0,0,1,5.0283-1.501,8.5092,8.5092,0,0,1,6.8867,2.918q2.4565,2.9194,2.4561,8.3574v1.6162h-15.39a8.0743,8.0743,0,0,0,1.9629,5.4277,6.1725,6.1725,0,0,0,4.7764,2.0674,6.7625,6.7625,0,0,0,3.4863-.84,8.741,8.741,0,0,0,2.498-2.2246l2.373,1.8477A9.54,9.54,0,0,1,825.7471,215.62Zm-.4834-20.3662a5.1814,5.1814,0,0,0-3.9473,1.7109,8.32,8.32,0,0,0-1.9736,4.7979h11.38v-.2939a7.3994,7.3994,0,0,0-1.5957-4.5879A4.88,4.88,0,0,0,825.2637,195.2539Z"/><path d="M838.1553,203.6523a13.3063,13.3063,0,0,1,2.4785-8.4092,8.4288,8.4288,0,0,1,12.8066-.4512V182.95h3.8848V215.2h-3.5693l-.1885-2.4355a7.9135,7.9135,0,0,1-6.4883,2.8555,7.7583,7.7583,0,0,1-6.4355-3.2334,13.4613,13.4613,0,0,1-2.4883-8.44Zm3.8848.4414a10.08,10.08,0,0,0,1.5957,6.0469,5.16,5.16,0,0,0,4.4092,2.1836,5.6635,5.6635,0,0,0,5.3955-3.3184V198.5713a5.7085,5.7085,0,0,0-5.3535-3.2119,5.1826,5.1826,0,0,0-4.4512,2.2041Q842.0405,199.7681,842.04,204.0938Z"/><path d="M893.2275,204.0938a13.5064,13.5064,0,0,1-2.3936,8.3662,7.6486,7.6486,0,0,1-6.4248,3.16,7.9221,7.9221,0,0,1-6.6562-3.0439l-.1885,2.624h-3.5693V182.95H877.88v12.03a7.8731,7.8731,0,0,1,6.4873-2.918,7.6926,7.6926,0,0,1,6.498,3.1289q2.3628,3.1289,2.3623,8.5664Zm-3.8848-.4414a10.4982,10.4982,0,0,0-1.5322-6.1309,5.0735,5.0735,0,0,0-4.4092-2.1621,5.7017,5.7017,0,0,0-5.5215,3.5684v9.8262a5.86,5.86,0,0,0,5.5635,3.57,5.0465,5.0465,0,0,0,4.3467-2.1631Q889.3428,207.999,889.3428,203.6523Z"/><path d="M905.5527,209.51l5.291-17.0273h4.1572l-9.1328,26.2246q-2.1211,5.6689-6.74,5.668l-.7344-.0625-1.4492-.2734v-3.1484l1.05.084a5.1688,5.1688,0,0,0,3.0762-.7988,5.7686,5.7686,0,0,0,1.8154-2.918l.8613-2.31-8.1045-22.4658h4.2412Z"/><path d="M943.1357,215.2a8.1567,8.1567,0,0,1-.5459-2.3936,8.6649,8.6649,0,0,1-6.4668,2.8135,8.0211,8.0211,0,0,1-5.5117-1.9,6.1458,6.1458,0,0,1-2.1514-4.8184,6.423,6.423,0,0,1,2.6973-5.5117q2.6982-1.9629,7.59-1.9629h3.7793v-1.7842a4.364,4.364,0,0,0-1.2168-3.2441,4.8965,4.8965,0,0,0-3.5908-1.207,5.6669,5.6669,0,0,0-3.4854,1.0488,3.0958,3.0958,0,0,0-1.4062,2.541h-3.9062a5.359,5.359,0,0,1,1.208-3.2861,8.2414,8.2414,0,0,1,3.2754-2.5088,11.0256,11.0256,0,0,1,4.5459-.9238,8.98,8.98,0,0,1,6.1514,1.9629,7.0819,7.0819,0,0,1,2.31,5.4063v10.457a12.7726,12.7726,0,0,0,.7979,4.9756V215.2Zm-6.4453-2.96a6.8281,6.8281,0,0,0,3.4639-.9453,5.7112,5.7112,0,0,0,2.3721-2.457v-4.66h-3.0439q-7.1382,0-7.1387,4.1777a3.5366,3.5366,0,0,0,1.2178,2.8555A4.6821,4.6821,0,0,0,936.69,212.24Z"/><path d="M376.376,247.5674a11.6766,11.6766,0,0,0-1.9106-.1475,5.1194,5.1194,0,0,0-5.186,3.2549V266.8H365.395V244.082h3.7793l.063,2.625a6.0486,6.0486,0,0,1,5.417-3.0449,3.9638,3.9638,0,0,1,1.7217.2939Z"/><path d="M393.1309,266.8a8.1407,8.1407,0,0,1-.5459-2.3936,8.6657,8.6657,0,0,1-6.4668,2.8135,8.0211,8.0211,0,0,1-5.5117-1.9,6.1463,6.1463,0,0,1-2.1519-4.8184,6.4246,6.4246,0,0,1,2.6978-5.5117q2.6982-1.9629,7.59-1.9629h3.7793v-1.7842a4.3646,4.3646,0,0,0-1.2178-3.2441,4.8953,4.8953,0,0,0-3.59-1.207,5.6669,5.6669,0,0,0-3.4854,1.0488,3.0951,3.0951,0,0,0-1.4067,2.541h-3.9053a5.3613,5.3613,0,0,1,1.2075-3.2861,8.2414,8.2414,0,0,1,3.2754-2.5088,11.0266,11.0266,0,0,1,4.5454-.9238,8.9826,8.9826,0,0,1,6.1519,1.9629,7.0836,7.0836,0,0,1,2.31,5.4063v10.457a12.7726,12.7726,0,0,0,.7979,4.9756V266.8Zm-6.4458-2.96a6.8273,6.8273,0,0,0,3.4644-.9453,5.718,5.718,0,0,0,2.3726-2.457v-4.66h-3.0444q-7.1389,0-7.1387,4.1777a3.5351,3.5351,0,0,0,1.2178,2.8555A4.6817,4.6817,0,0,0,386.6851,263.84Z"/><path d="M406.1694,244.082l.126,2.8555a8.2777,8.2777,0,0,1,6.8027-3.2754q7.2012,0,7.2646,8.125V266.8h-3.8843V251.7666a5.23,5.23,0,0,0-1.123-3.6318,4.5016,4.5016,0,0,0-3.4331-1.1758,5.6057,5.6057,0,0,0-3.3174,1.0078,6.8365,6.8365,0,0,0-2.2256,2.6445V266.8h-3.8843V244.082Z"/><path d="M425.2759,255.252a13.309,13.309,0,0,1,2.4775-8.4092,8.43,8.43,0,0,1,12.8076-.4512V234.55h3.8843V266.8H440.876l-.189-2.4355a7.9112,7.9112,0,0,1-6.4878,2.8555,7.7583,7.7583,0,0,1-6.4355-3.2334,13.4612,13.4612,0,0,1-2.4878-8.44Zm3.8843.4414a10.0766,10.0766,0,0,0,1.5957,6.0469,5.16,5.16,0,0,0,4.4092,2.1836,5.6656,5.6656,0,0,0,5.396-3.3184V250.1709a5.71,5.71,0,0,0-5.354-3.2119,5.182,5.182,0,0,0-4.4512,2.2041Q429.16,251.3677,429.16,255.6934Z"/><path d="M449.4424,255.23a13.42,13.42,0,0,1,1.312-6.0039,9.7876,9.7876,0,0,1,3.6533-4.1152,9.9374,9.9374,0,0,1,5.3438-1.4492,9.5767,9.5767,0,0,1,7.5059,3.2129,12.355,12.355,0,0,1,2.8662,8.5449v.2734a13.5322,13.5322,0,0,1-1.2705,5.9521,9.6428,9.6428,0,0,1-3.6318,4.1045,10.0558,10.0558,0,0,1-5.4277,1.47,9.56,9.56,0,0,1-7.4854-3.2119,12.3018,12.3018,0,0,1-2.8657-8.5039Zm3.9053.4629a9.7158,9.7158,0,0,0,1.7534,6.0674,5.9418,5.9418,0,0,0,9.3955-.0312,10.63,10.63,0,0,0,1.7427-6.499,9.7035,9.7035,0,0,0-1.7739-6.0566,5.641,5.641,0,0,0-4.7139-2.32,5.5785,5.5785,0,0,0-4.64,2.2891A10.5475,10.5475,0,0,0,453.3477,255.6934Z"/><path d="M478.6484,244.082l.1045,2.52a8.39,8.39,0,0,1,6.7393-2.9395q4.7666,0,6.4883,3.6533A8.6109,8.6109,0,0,1,494.93,244.67a8.7163,8.7163,0,0,1,4.2949-1.0078q7.4736,0,7.6,7.916V266.8H502.94V251.8086a5.22,5.22,0,0,0-1.1123-3.6426,4.9037,4.9037,0,0,0-3.7383-1.207,5.1464,5.1464,0,0,0-3.59,1.291,5.2333,5.2333,0,0,0-1.6582,3.4746V266.8h-3.9062V251.9141q0-4.9556-4.85-4.9551a5.1963,5.1963,0,0,0-5.2285,3.2539V266.8h-3.8838V244.082Z"/><path d="M536.5557,260.7734a2.8582,2.8582,0,0,0-1.1865-2.4453,11.4176,11.4176,0,0,0-4.1357-1.502,19.5655,19.5655,0,0,1-4.6826-1.5117,6.6577,6.6577,0,0,1-2.5615-2.1,5.0188,5.0188,0,0,1-.8291-2.8965,5.8937,5.8937,0,0,1,2.3623-4.7246,9.2272,9.2272,0,0,1,6.0361-1.9316,9.4985,9.4985,0,0,1,6.2676,1.9941,6.3378,6.3378,0,0,1,2.4043,5.1025h-3.9062a3.51,3.51,0,0,0-1.3535-2.751,5.0765,5.0765,0,0,0-3.4121-1.1543,5.314,5.314,0,0,0-3.3174.9238,2.9079,2.9079,0,0,0-1.1963,2.4141,2.3548,2.3548,0,0,0,1.1123,2.1211,13.6629,13.6629,0,0,0,4.0205,1.3652,20.9648,20.9648,0,0,1,4.7139,1.5527,6.8735,6.8735,0,0,1,2.6768,2.1738,5.3406,5.3406,0,0,1,.8711,3.0967,5.8126,5.8126,0,0,1-2.4355,4.8818,10.2137,10.2137,0,0,1-6.3193,1.8369,11.4448,11.4448,0,0,1-4.8291-.9658,7.8523,7.8523,0,0,1-3.2861-2.6982,6.4985,6.4985,0,0,1-1.1865-3.7471h3.8848a4.021,4.021,0,0,0,1.5645,3.0967,6.0679,6.0679,0,0,0,3.8525,1.1436,6.268,6.268,0,0,0,3.5381-.8916A2.7426,2.7426,0,0,0,536.5557,260.7734Z"/><path d="M544.4707,255.23a13.414,13.414,0,0,1,1.3125-6.0039,9.7876,9.7876,0,0,1,3.6533-4.1152,9.9363,9.9363,0,0,1,5.3438-1.4492,9.576,9.576,0,0,1,7.5059,3.2129,12.355,12.355,0,0,1,2.8662,8.5449v.2734a13.539,13.539,0,0,1-1.2705,5.9521A9.6428,9.6428,0,0,1,560.25,265.75a10.0546,10.0546,0,0,1-5.4277,1.47,9.5611,9.5611,0,0,1-7.4854-3.2119,12.302,12.302,0,0,1-2.8662-8.5039Zm3.9063.4629a9.7157,9.7157,0,0,0,1.7529,6.0674,5.9418,5.9418,0,0,0,9.3955-.0312,10.627,10.627,0,0,0,1.7422-6.499,9.7034,9.7034,0,0,0-1.7734-6.0566,5.641,5.641,0,0,0-4.7139-2.32,5.5776,5.5776,0,0,0-4.64,2.2891A10.5475,10.5475,0,0,0,548.377,255.6934Z"/><path d="M584.0488,264.5527q-2.2676,2.6675-6.6562,2.667a7.0608,7.0608,0,0,1-5.5322-2.11q-1.9-2.1094-1.9209-6.2461V244.082h3.8848v14.6758q0,5.165,4.1992,5.166,4.45,0,5.92-3.3184V244.082h3.8848V266.8h-3.6953Z"/><path d="M604.709,247.5674a11.67,11.67,0,0,0-1.91-.1475,5.1184,5.1184,0,0,0-5.1855,3.2549V266.8h-3.8848V244.082h3.7793l.0625,2.625a6.0513,6.0513,0,0,1,5.418-3.0449,3.9575,3.9575,0,0,1,1.7207.2939Z"/><path d="M616.9932,264.0488a5.5924,5.5924,0,0,0,3.6318-1.26,4.4313,4.4313,0,0,0,1.7227-3.1484h3.6738a7.0451,7.0451,0,0,1-1.3437,3.7158,8.8524,8.8524,0,0,1-3.3066,2.8135,9.5505,9.5505,0,0,1-4.3779,1.05,9.3572,9.3572,0,0,1-7.38-3.0967q-2.7407-3.0967-2.74-8.4727V255a13.6891,13.6891,0,0,1,1.2178-5.9,9.2744,9.2744,0,0,1,3.4961-4.01,9.9351,9.9351,0,0,1,5.3857-1.4277,9.112,9.112,0,0,1,6.3506,2.2891,8.18,8.18,0,0,1,2.6982,5.9414h-3.6738a5.356,5.356,0,0,0-1.67-3.6221,5.1946,5.1946,0,0,0-3.7051-1.417,5.4367,5.4367,0,0,0-4.5879,2.1309,10.0069,10.0069,0,0,0-1.627,6.1621v.7354a9.8043,9.8043,0,0,0,1.6162,6.0469A5.4614,5.4614,0,0,0,616.9932,264.0488Z"/><path d="M639.8164,267.22a9.9244,9.9244,0,0,1-7.5176-3.0342,11.2583,11.2583,0,0,1-2.8965-8.1152v-.7129a13.63,13.63,0,0,1,1.291-6.0371,10.07,10.07,0,0,1,3.6113-4.1572,9.0753,9.0753,0,0,1,5.0283-1.501,8.5092,8.5092,0,0,1,6.8867,2.918q2.4565,2.9194,2.4561,8.3574v1.6162h-15.39a8.0743,8.0743,0,0,0,1.9629,5.4277,6.1725,6.1725,0,0,0,4.7764,2.0674,6.7625,6.7625,0,0,0,3.4863-.84,8.741,8.741,0,0,0,2.498-2.2246l2.373,1.8477A9.54,9.54,0,0,1,639.8164,267.22Zm-.4834-20.3662a5.1814,5.1814,0,0,0-3.9473,1.7109,8.32,8.32,0,0,0-1.9736,4.7979h11.38v-.2939a7.3994,7.3994,0,0,0-1.5957-4.5879A4.88,4.88,0,0,0,639.333,246.8535Z"/><path d="M653.2539,264.7637a2.4292,2.4292,0,0,1,.5986-1.68,2.2778,2.2778,0,0,1,1.7949-.6719,2.3481,2.3481,0,0,1,1.8164.6719,2.3858,2.3858,0,0,1,.6191,1.68,2.2562,2.2562,0,0,1-.6191,1.6162,2.393,2.393,0,0,1-1.8164.6514,2.32,2.32,0,0,1-1.7949-.6514A2.2954,2.2954,0,0,1,653.2539,264.7637Z"/><path class="a" d="M439.92,335.334H429.7163L427.26,343.25h-3.8843l9.8682-30.57h3.2544l9.7,30.57H442.335Zm-9.1543-3.38h8.1255l-4.0312-13.27Z"/><path d="M493.9219,331.4707H477.86v-3.1914h16.0615Z"/><path d="M502.8457,324.1641v-4.01l18.54,7.9365v3.0654l-18.54,7.957V335.082l13.585-5.123,1.26-.3564-1.26-.3994Z"/><path d="M573.582,331.6182a18.0969,18.0969,0,0,1-.6826,5.2178,10.5058,10.5058,0,0,1-1.9639,3.7793,8.162,8.162,0,0,1-3.1279,2.2988,11.45,11.45,0,0,1-8.2939,0,8.2575,8.2575,0,0,1-3.1387-2.2988,10.6708,10.6708,0,0,1-1.9941-3.7793,17.5381,17.5381,0,0,1-.7031-5.2178v-7.3066a17.8135,17.8135,0,0,1,.6924-5.2178,10.55,10.55,0,0,1,1.9844-3.7793,8.2662,8.2662,0,0,1,3.1279-2.2988,10.5054,10.5054,0,0,1,4.126-.7773,10.6357,10.6357,0,0,1,4.1572.7773,8.25,8.25,0,0,1,3.1387,2.2988,10.55,10.55,0,0,1,1.9844,3.7793,17.8119,17.8119,0,0,1,.6934,5.2178Zm-14.0254-2.52,8.1465-6.0674a8.6116,8.6116,0,0,0-1.0713-4.5781,3.4074,3.4074,0,0,0-3.0234-1.49,3.372,3.372,0,0,0-3.0439,1.5742,9.1845,9.1845,0,0,0-1.0078,4.8506Zm8.1465-2.1-8.1465,6.0469a8.4989,8.4989,0,0,0,1.1123,4.4824,3.3876,3.3876,0,0,0,2.9814,1.46,3.3533,3.3533,0,0,0,3.0547-1.5957,9.4335,9.4335,0,0,0,.998-4.8926Z"/><path d="M599.3867,331.6182a18.0969,18.0969,0,0,1-.6826,5.2178,10.5058,10.5058,0,0,1-1.9639,3.7793,8.162,8.162,0,0,1-3.1279,2.2988,11.45,11.45,0,0,1-8.2939,0,8.2575,8.2575,0,0,1-3.1387-2.2988,10.6708,10.6708,0,0,1-1.9941-3.7793,17.5381,17.5381,0,0,1-.7031-5.2178v-7.3066a17.8135,17.8135,0,0,1,.6924-5.2178,10.55,10.55,0,0,1,1.9844-3.7793,8.2662,8.2662,0,0,1,3.1279-2.2988,10.5054,10.5054,0,0,1,4.126-.7773,10.6357,10.6357,0,0,1,4.1572.7773,8.25,8.25,0,0,1,3.1387,2.2988,10.55,10.55,0,0,1,1.9844,3.7793,17.8119,17.8119,0,0,1,.6934,5.2178Zm-14.0254-2.52,8.1465-6.0674a8.6116,8.6116,0,0,0-1.0713-4.5781,3.4074,3.4074,0,0,0-3.0234-1.49,3.372,3.372,0,0,0-3.0439,1.5742,9.1845,9.1845,0,0,0-1.0078,4.8506Zm8.1465-2.1-8.1465,6.0469a8.4989,8.4989,0,0,0,1.1123,4.4824,3.3876,3.3876,0,0,0,2.9814,1.46,3.3533,3.3533,0,0,0,3.0547-1.5957,9.4335,9.4335,0,0,0,.998-4.8926Z"/><path class="a" d="M425.2861,394.85v-30.57h9.0913a15.2219,15.2219,0,0,1,3.6953.4932,9.9106,9.9106,0,0,1,3.2124,1.46,7.0919,7.0919,0,0,1,3.0654,6.1934,6.5509,6.5509,0,0,1-.3887,2.1836,6.2277,6.2277,0,0,1-1.0078,1.7744,7.04,7.04,0,0,1-1.501,1.375,11.1017,11.1017,0,0,1-1.8267,1.0078,8.4311,8.4311,0,0,1,2.2358,1.0186A7.143,7.143,0,0,1,444.76,383.49a7.6646,7.6646,0,0,1,.41,2.541,8.0007,8.0007,0,0,1-.8188,3.7793,8.1784,8.1784,0,0,1-2.2466,2.74A10.2942,10.2942,0,0,1,438.86,394.24a12.7885,12.7885,0,0,1-3.79.6094Zm3.9053-17.5312h5.417a7.7318,7.7318,0,0,0,2.1416-.3467,6.0209,6.0209,0,0,0,1.8687-.9453,4.8375,4.8375,0,0,0,1.3228-1.5225,4.2335,4.2335,0,0,0,.5039-2.1,4.5007,4.5007,0,0,0-.4932-2.1836,4.2733,4.2733,0,0,0-1.3232-1.4795,5.7843,5.7843,0,0,0-1.91-.8506,9.7631,9.7631,0,0,0-2.2153-.2939h-5.312Zm0,3.2324v11.002h5.9839a7.1858,7.1858,0,0,0,2.31-.4092,6.3521,6.3521,0,0,0,1.9316-1.0811,5.0671,5.0671,0,0,0,1.3335-1.7012,5.1411,5.1411,0,0,0,.4932-2.2881,5.379,5.379,0,0,0-.4307-2.31,4.94,4.94,0,0,0-1.249-1.7109,5.6287,5.6287,0,0,0-1.8687-1.082,7.6937,7.6937,0,0,0-2.31-.42Z"/><path d="M493.9219,383.07H477.86v-3.1914h16.0615Z"/><path d="M502.8457,375.7637v-4.01l18.54,7.9365v3.0654l-18.54,7.957v-4.0312l13.585-5.123,1.26-.3564-1.26-.3994Z"/><path d="M573.582,383.2178a18.0969,18.0969,0,0,1-.6826,5.2178,10.5058,10.5058,0,0,1-1.9639,3.7793,8.162,8.162,0,0,1-3.1279,2.2988,11.45,11.45,0,0,1-8.2939,0,8.2575,8.2575,0,0,1-3.1387-2.2988,10.6708,10.6708,0,0,1-1.9941-3.7793,17.5381,17.5381,0,0,1-.7031-5.2178v-7.3066a17.8135,17.8135,0,0,1,.6924-5.2178,10.55,10.55,0,0,1,1.9844-3.7793,8.2662,8.2662,0,0,1,3.1279-2.2988,10.5054,10.5054,0,0,1,4.126-.7773,10.6357,10.6357,0,0,1,4.1572.7773,8.25,8.25,0,0,1,3.1387,2.2988,10.55,10.55,0,0,1,1.9844,3.7793,17.8119,17.8119,0,0,1,.6934,5.2178Zm-14.0254-2.52,8.1465-6.0674a8.6116,8.6116,0,0,0-1.0713-4.5781,3.4074,3.4074,0,0,0-3.0234-1.49,3.372,3.372,0,0,0-3.0439,1.5742,9.1845,9.1845,0,0,0-1.0078,4.8506Zm8.1465-2.1-8.1465,6.0469a8.4989,8.4989,0,0,0,1.1123,4.4824,3.3876,3.3876,0,0,0,2.9814,1.46,3.3533,3.3533,0,0,0,3.0547-1.5957,9.4335,9.4335,0,0,0,.998-4.8926Z"/><path d="M593.78,394.85h-5.8994V371.3965l-7.7266,2.7715v-5.08l13.3105-4.8086h.3154Z"/><path class="a" d="M445.1274,437.2539a13.2824,13.2824,0,0,1-1.0918,3.8945,10.0331,10.0331,0,0,1-2.1313,3.0449,9.27,9.27,0,0,1-3.1074,1.9736,10.8816,10.8816,0,0,1-4,.7031,10.4384,10.4384,0,0,1-3.4331-.5352,9.462,9.462,0,0,1-2.75-1.48,9.83,9.83,0,0,1-2.0791-2.2256,13.5115,13.5115,0,0,1-1.4482-2.792,16.8122,16.8122,0,0,1-.8613-3.1709,21.5032,21.5032,0,0,1-.3042-3.3594v-4.2627a21.5247,21.5247,0,0,1,.3042-3.3594,16.8024,16.8024,0,0,1,.8613-3.17,13.7732,13.7732,0,0,1,1.4482-2.8027,9.72,9.72,0,0,1,2.0791-2.2363,9.4869,9.4869,0,0,1,2.74-1.48,10.408,10.408,0,0,1,3.4434-.5352,11.2168,11.2168,0,0,1,4.0942.7031,8.9934,8.9934,0,0,1,3.1074,1.9951,9.84,9.84,0,0,1,2.0889,3.0967,13.9031,13.9031,0,0,1,1.04,3.9893h-3.8843a11.4773,11.4773,0,0,0-.6509-2.583,7.146,7.146,0,0,0-1.2388-2.1,5.4976,5.4976,0,0,0-1.9-1.417,6.3332,6.3332,0,0,0-2.6558-.5146,6.2,6.2,0,0,0-2.4458.4521,5.6389,5.6389,0,0,0-1.8271,1.2275,7.0222,7.0222,0,0,0-1.28,1.8066,11.7781,11.7781,0,0,0-.83,2.1836,15.6681,15.6681,0,0,0-.4517,2.3613,20.9066,20.9066,0,0,0-.1362,2.3418v4.3037a20.8763,20.8763,0,0,0,.1362,2.3408,15.9853,15.9853,0,0,0,.4517,2.373,12.2242,12.2242,0,0,0,.8188,2.1934,6.8414,6.8414,0,0,0,1.2808,1.8164,5.6853,5.6853,0,0,0,1.8267,1.2393,6.1821,6.1821,0,0,0,2.4565.4512,6.6839,6.6839,0,0,0,2.6558-.4834,5.3148,5.3148,0,0,0,1.9-1.3535,6.7327,6.7327,0,0,0,1.2388-2.0576,11.2789,11.2789,0,0,0,.6509-2.5723Z"/><path d="M493.9219,434.6709H477.86v-3.1914h16.0615Z"/><path d="M502.8457,427.3643v-4.01l18.54,7.9365v3.0654l-18.54,7.957v-4.0312l13.585-5.123,1.26-.3564-1.26-.3994Z"/><path d="M567.9756,446.45h-5.8994V422.9971l-7.7266,2.7715v-5.08L567.66,415.88h.3154Z"/><path d="M599.3867,434.8184a18.0969,18.0969,0,0,1-.6826,5.2178,10.5058,10.5058,0,0,1-1.9639,3.7793,8.162,8.162,0,0,1-3.1279,2.2988,11.45,11.45,0,0,1-8.2939,0,8.2575,8.2575,0,0,1-3.1387-2.2988,10.6708,10.6708,0,0,1-1.9941-3.7793,17.5381,17.5381,0,0,1-.7031-5.2178v-7.3066a17.8135,17.8135,0,0,1,.6924-5.2178,10.55,10.55,0,0,1,1.9844-3.7793,8.2662,8.2662,0,0,1,3.1279-2.2988,10.5054,10.5054,0,0,1,4.126-.7773,10.6357,10.6357,0,0,1,4.1572.7773,8.25,8.25,0,0,1,3.1387,2.2988,10.55,10.55,0,0,1,1.9844,3.7793,17.8119,17.8119,0,0,1,.6934,5.2178Zm-14.0254-2.52,8.1465-6.0674a8.6116,8.6116,0,0,0-1.0713-4.5781,3.4074,3.4074,0,0,0-3.0234-1.49,3.372,3.372,0,0,0-3.0439,1.5742,9.1845,9.1845,0,0,0-1.0078,4.8506Zm8.1465-2.1-8.1465,6.0469a8.4989,8.4989,0,0,0,1.1123,4.4824,3.3876,3.3876,0,0,0,2.9814,1.46,3.3533,3.3533,0,0,0,3.0547-1.5957,9.4335,9.4335,0,0,0,.998-4.8926Z"/><path class="a" d="M424.9292,498.05v-30.57h7.0757a15.3317,15.3317,0,0,1,5.7,1.0811,11.9805,11.9805,0,0,1,4.2412,2.8975,12.5414,12.5414,0,0,1,2.6455,4.4512,17.54,17.54,0,0,1,.9346,5.7422v2.2471a17.5352,17.5352,0,0,1-.9346,5.7422,12.5243,12.5243,0,0,1-2.6455,4.4512,11.9552,11.9552,0,0,1-4.2412,2.8975,15.0272,15.0272,0,0,1-5.7,1.0605Zm3.9473-27.3789V494.88h3.1284a10.1825,10.1825,0,0,0,4.2832-.8721,8.3545,8.3545,0,0,0,2.9922-2.3193,9.7855,9.7855,0,0,0,1.7637-3.4648,16.0385,16.0385,0,0,0,.5981-4.3252V481.61a15.6532,15.6532,0,0,0-.6089-4.3154,9.92,9.92,0,0,0-1.7637-3.4434,8.2078,8.2078,0,0,0-2.9814-2.2988,10.5225,10.5225,0,0,0-4.2832-.8818Z"/><path d="M493.9219,486.2705H477.86v-3.1914h16.0615Z"/><path d="M502.8457,478.9639v-4.01l18.54,7.9365v3.0654l-18.54,7.957v-4.0312l13.585-5.123,1.26-.3564-1.26-.3994Z"/><path d="M567.9756,498.05h-5.8994V474.5967l-7.7266,2.7715v-5.08l13.3105-4.8086h.3154Z"/><path d="M593.78,498.05h-5.8994V474.5967l-7.7266,2.7715v-5.08l13.3105-4.8086h.3154Z"/></svg>