<svg xmlns="http://www.w3.org/2000/svg" viewBox="0 0 1024 768"><defs><style>.a{fill:none;stroke:#fff;stroke-linecap:square;stroke-width:6px;}.b{fill:#cb1009;}.c{fill:#fff;}</style></defs><title>Slide V</title><path d="M394.877,81.4609a30.2483,30.2483,0,0,1-2.3555,12.3926,21.5408,21.5408,0,0,1-6.5039,8.49l8.2617,6.5391-7.6289,6.4688-11.0039-8.8594a22.8721,22.8721,0,0,1-3.0937.2109,22.1871,22.1871,0,0,1-11.6016-3.0234,20.5635,20.5635,0,0,1-7.8926-8.6484,29.3729,29.3729,0,0,1-2.9355-12.9375v-2.707a30.29,30.29,0,0,1,2.76-13.2891,20.5671,20.5671,0,0,1,7.875-8.8594,23.4158,23.4158,0,0,1,23.3262-.0352,20.8451,20.8451,0,0,1,7.9277,8.8066,29.4484,29.4484,0,0,1,2.8652,13.0957Zm-12.5508-2.1445q0-7.6289-2.5488-11.584a8.7861,8.7861,0,0,0-14.6426-.0527q-2.4609,3.9023-2.4961,11.4258v2.3555q0,7.5586,2.4961,11.584a8.1716,8.1716,0,0,0,7.418,4.0254,8.0542,8.0542,0,0,0,7.2246-3.9727q2.5137-3.9727,2.5488-11.4258Z"/><path d="M423.2832,101.8867a12.215,12.215,0,0,1-10.16,4.8164q-6.2578,0-9.4746-3.6387t-3.2168-10.459V67.9609h11.8477V92.6758q0,4.8867,4.7461,4.8867,4.0781,0,5.8008-2.918V67.9609h11.918V106H423.6348Z"/><path d="M459.6348,106.7031q-8.7539,0-14.168-5.2207t-5.4141-13.5879V86.91a23.3607,23.3607,0,0,1,2.1621-10.3008,15.8206,15.8206,0,0,1,6.3105-6.9082,19.0505,19.0505,0,0,1,9.8438-2.4434q8.0156,0,12.6563,4.9746t4.6406,13.8691V90.707H452.1113a8.5394,8.5394,0,0,0,2.7773,5.0273,8.264,8.264,0,0,0,5.5547,1.8281,10.6479,10.6479,0,0,0,8.7891-3.9375l5.4141,6.3984a15.1344,15.1344,0,0,1-6.2754,4.8691A21.2065,21.2065,0,0,1,459.6348,106.7031Zm-1.3359-30.3047q-5.2031,0-6.1875,6.8906h11.9531V82.375a5.8684,5.8684,0,0,0-1.4414-4.4121A5.7357,5.7357,0,0,0,458.2988,76.3984Z"/><path d="M500.3457,95.3125a2.7371,2.7371,0,0,0-1.582-2.4258,24.0642,24.0642,0,0,0-6.0117-1.8984,27.4134,27.4134,0,0,1-7.3125-2.584,12.2488,12.2488,0,0,1-4.3945-3.8848,9.2765,9.2765,0,0,1-1.5117-5.2383,10.5136,10.5136,0,0,1,4.3242-8.6309q4.3242-3.3926,11.32-3.3926,7.5234,0,12.0938,3.41a10.664,10.664,0,0,1,4.57,8.9648H499.959q0-4.57-4.8164-4.57A4.7744,4.7744,0,0,0,492.0137,76.1a3.2111,3.2111,0,0,0-1.2656,2.584,2.9475,2.9475,0,0,0,1.5469,2.5664,14.6158,14.6158,0,0,0,4.9395,1.6172,42.6847,42.6847,0,0,1,5.959,1.5117q8.5781,2.9531,8.5781,10.582a9.9622,9.9622,0,0,1-4.623,8.4727q-4.623,3.27-11.9707,3.27a20.6888,20.6888,0,0,1-8.7187-1.7578,14.5794,14.5794,0,0,1-5.9766-4.7812,10.8267,10.8267,0,0,1-2.1445-6.3633h11.0742a4.5786,4.5786,0,0,0,1.7578,3.85,7.2306,7.2306,0,0,0,4.3242,1.2129,5.6881,5.6881,0,0,0,3.6387-.9844A3.1489,3.1489,0,0,0,500.3457,95.3125Z"/><path d="M531.1074,58.5039v9.457h6.2578v8.2266h-6.2578V93.59a4.4432,4.4432,0,0,0,.7734,2.9883q.7734.8438,3.0586.8438a17.38,17.38,0,0,0,2.9531-.2109v8.4727a21.8651,21.8651,0,0,1-6.68,1.02q-6.1172,0-9.0352-2.8828t-2.918-8.7539V76.1875h-4.8516V67.9609H519.26v-9.457Z"/><path d="M541.9355,58.1523a5.2881,5.2881,0,0,1,1.8281-4.1484,7.773,7.773,0,0,1,9.4922,0,5.6209,5.6209,0,0,1,0,8.2969,7.773,7.773,0,0,1-9.4922,0A5.2881,5.2881,0,0,1,541.9355,58.1523ZM554.5215,106H542.6387V67.9609h11.8828Z"/><path d="M560.3223,86.6289a22.4512,22.4512,0,0,1,2.2148-10.1426A15.8389,15.8389,0,0,1,568.9,69.6484a19.1644,19.1644,0,0,1,9.7383-2.3906q8.543,0,13.4648,5.291t4.9219,14.3965v.4219q0,8.8945-4.9395,14.1152t-13.377,5.2207q-8.1211,0-13.043-4.8691t-5.3086-13.2012Zm11.8477.7383q0,5.2734,1.6523,7.7344a5.5047,5.5047,0,0,0,4.8867,2.4609q6.3281,0,6.4688-9.7383V86.6289q0-10.23-6.5391-10.23-5.9414,0-6.4336,8.8242Z"/><path d="M613.127,67.9609l.3867,4.4648a12.9,12.9,0,0,1,10.8633-5.168q5.9414,0,8.877,3.5508t3.041,10.6875V106H624.4121V81.9883a6.4191,6.4191,0,0,0-1.16-4.2363q-1.16-1.3535-4.2187-1.3535a5.65,5.65,0,0,0-5.168,2.7422V106H602.0176V67.9609Z"/><path d="M662.7676,95.3125a2.7371,2.7371,0,0,0-1.582-2.4258,24.0642,24.0642,0,0,0-6.0117-1.8984,27.4134,27.4134,0,0,1-7.3125-2.584,12.2488,12.2488,0,0,1-4.3945-3.8848,9.2765,9.2765,0,0,1-1.5117-5.2383,10.5136,10.5136,0,0,1,4.3242-8.6309q4.3242-3.3926,11.32-3.3926,7.5234,0,12.0938,3.41a10.664,10.664,0,0,1,4.57,8.9648H662.3809q0-4.57-4.8164-4.57A4.7744,4.7744,0,0,0,654.4355,76.1a3.2111,3.2111,0,0,0-1.2656,2.584,2.9475,2.9475,0,0,0,1.5469,2.5664,14.6158,14.6158,0,0,0,4.9395,1.6172,42.6847,42.6847,0,0,1,5.959,1.5117q8.5781,2.9531,8.5781,10.582a9.9622,9.9622,0,0,1-4.623,8.4727q-4.623,3.27-11.9707,3.27a20.6888,20.6888,0,0,1-8.7187-1.7578,14.5794,14.5794,0,0,1-5.9766-4.7812,10.8267,10.8267,0,0,1-2.1445-6.3633H651.834a4.5786,4.5786,0,0,0,1.7578,3.85,7.2306,7.2306,0,0,0,4.3242,1.2129,5.6881,5.6881,0,0,0,3.6387-.9844A3.1489,3.1489,0,0,0,662.7676,95.3125Z"/><path d="M344.1289,576.6738q.5361-3.5156-3.833-5.2246l-1.9775-.7324q-5.5181-1.9277-7.8369-4.5654a8.1667,8.1667,0,0,1-2.1-6.1279,9.2057,9.2057,0,0,1,2.0635-5.334,12.0167,12.0167,0,0,1,4.9189-3.5527,16.0984,16.0984,0,0,1,6.4941-1.1719,12.9873,12.9873,0,0,1,5.9082,1.4531,9.5544,9.5544,0,0,1,3.9551,3.832,10.6212,10.6212,0,0,1,1.27,5.6035l-6.0059-.0244a5.0356,5.0356,0,0,0-5.4687-5.9326,7.887,7.887,0,0,0-4.8213,1.3428,5.372,5.372,0,0,0-2.3076,3.76q-.4878,3.1011,4.15,4.8828l1.8311.6592q5.59,2.0024,7.8125,4.6992a8.6839,8.6839,0,0,1,1.9531,6.3848,9.6164,9.6164,0,0,1-1.9775,5.2363,11.0936,11.0936,0,0,1-4.7979,3.4551,17.4609,17.4609,0,0,1-6.75,1.1719,14.04,14.04,0,0,1-6.3359-1.4648,10.1494,10.1494,0,0,1-5.749-9.79l6.03.0244a5.6558,5.6558,0,0,0,1.4893,4.6631,6.8168,6.8168,0,0,0,4.834,1.6846,8.4446,8.4446,0,0,0,4.8955-1.2451A5.2285,5.2285,0,0,0,344.1289,576.6738Z"/><path d="M378.1621,572.89a21.7709,21.7709,0,0,1-2.1113,7.1777,12.25,12.25,0,0,1-4.127,4.87,9.529,9.529,0,0,1-5.6025,1.5752,8.2858,8.2858,0,0,1-6.4941-2.93l-2.3682,12.5732h-5.8105l6.3477-36.5723,5.2979-.0244-.4395,2.7344a9.1493,9.1493,0,0,1,7.2021-3.1982,7.7484,7.7484,0,0,1,4.37,1.2813,7.9224,7.9224,0,0,1,2.8447,3.65,14.8183,14.8183,0,0,1,1.0615,5.3223A32.4527,32.4527,0,0,1,378.1621,572.89Zm-5.7129-.5127.1221-1.7822a8.6559,8.6559,0,0,0-1.0381-4.8828,3.8049,3.8049,0,0,0-3.332-1.7822,6.7366,6.7366,0,0,0-5.6641,3.0029l-2.0508,11.792a4.4737,4.4737,0,0,0,4.4678,3.0518,5.8988,5.8988,0,0,0,4.8467-2.2461Q371.7651,577.2114,372.4492,572.377Z"/><path d="M392.9326,586.4883a11.0656,11.0656,0,0,1-5.97-1.7334,9.8561,9.8561,0,0,1-3.7344-4.541,13.4852,13.4852,0,0,1-.916-6.4209l.0732-1.001a17.6739,17.6739,0,0,1,2.3564-7.2393,13.449,13.449,0,0,1,4.7725-4.87,11.6078,11.6078,0,0,1,6.2012-1.5869,8.6561,8.6561,0,0,1,7.4346,3.6924q2.4771,3.5947,1.8672,9.3652l-.3418,2.543H388.05a7.1738,7.1738,0,0,0,1.27,5.0605,5.0306,5.0306,0,0,0,4.1016,1.9707,8.8954,8.8954,0,0,0,6.8848-3.2471l2.93,3.0762a11.1237,11.1237,0,0,1-4.37,3.6738A13.0177,13.0177,0,0,1,392.9326,586.4883Zm2.4658-22.6562q-4.5908-.1465-6.8848,6.4941l10.9619.0244.0977-.5127a7.6468,7.6468,0,0,0,.0244-2.1973,4.4983,4.4983,0,0,0-1.3672-2.7344A4.33,4.33,0,0,0,395.3984,563.832Z"/><path d="M418.7627,581.7764a5.6555,5.6555,0,0,0,5.7129-4.4922l5.4688-.0244a9.3465,9.3465,0,0,1-1.8916,4.7607,10.9994,10.9994,0,0,1-4.1631,3.3447,11.5588,11.5588,0,0,1-5.2979,1.123,9.95,9.95,0,0,1-5.7861-1.7578,9.7151,9.7151,0,0,1-3.4912-4.7246,15.1094,15.1094,0,0,1-.7324-6.7256l.0732-.8545a17.2713,17.2713,0,0,1,2.2334-6.9453,13.0366,13.0366,0,0,1,4.7-4.7979,11.7748,11.7748,0,0,1,6.3965-1.5869,9.2461,9.2461,0,0,1,6.86,2.8438,10.0487,10.0487,0,0,1,2.5635,7.1416h-5.42a5.9066,5.9066,0,0,0-1.11-3.7109,4.07,4.07,0,0,0-3.2109-1.5381,5.8623,5.8623,0,0,0-5.3467,2.8809q-1.9526,2.9795-2.1,8.3984Q414.05,581.68,418.7627,581.7764Z"/><path d="M439.0264,586H433.24l4.59-26.416h5.7861Zm-.3662-33.1787a3.2647,3.2647,0,0,1,.8789-2.2949,3.2207,3.2207,0,0,1,2.3682-1.001,3.0776,3.0776,0,0,1,2.3564.8672,2.9991,2.9991,0,0,1,.9395,2.2334,3.0829,3.0829,0,0,1-.916,2.2949,3.3489,3.3489,0,0,1-2.3311.9521,3.1282,3.1282,0,0,1-2.3437-.8418A2.906,2.906,0,0,1,438.66,552.8213Z"/><path d="M461.1943,586a7.842,7.842,0,0,1-.2441-2.4658,9.795,9.795,0,0,1-7.0557,2.9541,8.1,8.1,0,0,1-5.7012-2.209,6.8139,6.8139,0,0,1-2.1113-5.4814,8.0873,8.0873,0,0,1,3.6133-6.5674q3.4175-2.3921,9.18-2.3926l3.76.0488.3418-1.8066a5.4513,5.4513,0,0,0,0-1.7822q-.4893-2.6367-3.4912-2.71a5.27,5.27,0,0,0-3.2588.9395,4.071,4.071,0,0,0-1.7217,2.6494l-5.7861.0488a7.236,7.236,0,0,1,1.7334-4.2842,10.2725,10.2725,0,0,1,4.15-2.8691,14.0574,14.0574,0,0,1,5.4688-.9766,9.24,9.24,0,0,1,6.7383,2.6,7.7087,7.7087,0,0,1,2.002,6.4824l-2.0264,12.3779-.1953,2.1973a7.8022,7.8022,0,0,0,.3662,2.8076l-.0244.4395Zm-5.957-4.248a6.3764,6.3764,0,0,0,3.3936-.8418,8.9563,8.9563,0,0,0,2.6611-2.3076l.9033-5.0049-2.7588-.0244a9.6928,9.6928,0,0,0-5.2246,1.2334,4.52,4.52,0,0,0-2.2217,3.3809,2.986,2.986,0,0,0,.7207,2.5762A3.52,3.52,0,0,0,455.2373,581.752Z"/><path d="M478.1377,586h-5.7861l6.5186-37.5h5.7861Z"/><path d="M509.9,553.1631l-1.123,6.4209h4.5166l-.7568,4.3945h-4.541l-2.49,14.7949a5.08,5.08,0,0,0-.0244,1.0986q.1465,1.5879,1.9531,1.66a11.0238,11.0238,0,0,0,2.0508-.22l-.3906,4.6387a13.2646,13.2646,0,0,1-3.6377.5127,5.4035,5.4035,0,0,1-4.5293-2.0635,7.4656,7.4656,0,0,1-1.1836-5.334l2.4658-15.0879h-4.2236l.7813-4.3945h4.1992l1.123-6.4209Z"/><path d="M522.8643,562.4893a9.7672,9.7672,0,0,1,7.4951-3.3691,6.4456,6.4456,0,0,1,5.5781,2.6611q1.8193,2.6133,1.3555,7.2266L534.4609,586h-5.7861l2.8809-17.0654a9.9944,9.9944,0,0,0,.0488-1.9531q-.3179-2.978-3.5156-3.0518-3.2227-.0483-5.7617,3.1738L519.0313,586h-5.7861l6.4941-37.5H525.55Z"/><path d="M556.1895,586a7.8132,7.8132,0,0,1-.2441-2.4658,9.7966,9.7966,0,0,1-7.0557,2.9541,8.1,8.1,0,0,1-5.7012-2.209,6.817,6.817,0,0,1-2.1113-5.4814A8.0873,8.0873,0,0,1,544.69,572.23q3.4175-2.3921,9.18-2.3926l3.76.0488.3418-1.8066a5.4513,5.4513,0,0,0,0-1.7822q-.4893-2.6367-3.4912-2.71a5.27,5.27,0,0,0-3.2588.9395,4.0674,4.0674,0,0,0-1.7217,2.6494l-5.7861.0488a7.236,7.236,0,0,1,1.7334-4.2842,10.2658,10.2658,0,0,1,4.15-2.8691,14.0542,14.0542,0,0,1,5.4688-.9766,9.24,9.24,0,0,1,6.7383,2.6,7.7087,7.7087,0,0,1,2.002,6.4824L561.78,580.5557l-.1953,2.1973a7.8022,7.8022,0,0,0,.3662,2.8076l-.0244.4395Zm-5.957-4.248a6.3764,6.3764,0,0,0,3.3936-.8418,8.9563,8.9563,0,0,0,2.6611-2.3076l.9033-5.0049-2.7588-.0244a9.6905,9.6905,0,0,0-5.2246,1.2334,4.5177,4.5177,0,0,0-2.2217,3.3809,2.986,2.986,0,0,0,.7207,2.5762A3.52,3.52,0,0,0,550.2324,581.752Z"/><path d="M576.917,559.56l-.5859,3.1006a10.0806,10.0806,0,0,1,7.8369-3.5645,6.3873,6.3873,0,0,1,5.4932,2.6484q1.7813,2.5767,1.3184,7.19L588.123,586h-5.7861l2.8809-17.1387a8.8286,8.8286,0,0,0,.0244-1.9531q-.3179-2.9048-3.4668-2.9785-3.2959-.0483-5.7861,3.2471L572.6934,586h-5.7861l4.5654-26.416Z"/><path d="M604.7246,574.7207l-3.2715,2.9053-1.44,8.374h-5.7861l6.4941-37.5h5.7861l-3.7109,21.2891,2.0264-2.1,8.3984-8.1055h7.3975l-11.7187,11.2793L616.6143,586H610.34Z"/><path d="M635.56,578.6758q.4146-2.417-3.1377-3.3574a39.6928,39.6928,0,0,1-4.8457-1.501q-5.03-2.1475-4.8584-6.543a7.4267,7.4267,0,0,1,3.2354-5.8955,11.8515,11.8515,0,0,1,7.458-2.2832,10.2145,10.2145,0,0,1,6.8486,2.3682,7.5556,7.5556,0,0,1,2.6,6.0791l-5.7373-.0244a3.7051,3.7051,0,0,0-1.001-2.8682,4.084,4.084,0,0,0-2.8809-1.0869,5.68,5.68,0,0,0-3.3086.9521,3.55,3.55,0,0,0-1.5986,2.49q-.3428,2.2222,3.125,3.0879a34.378,34.378,0,0,1,5.127,1.6q4.834,2.124,4.6631,6.6406a7.3065,7.3065,0,0,1-1.6484,4.3828,9.6089,9.6089,0,0,1-4.0889,2.8555,13.9746,13.9746,0,0,1-5.4443.916,10.7437,10.7437,0,0,1-7.166-2.5146,7.8471,7.8471,0,0,1-2.7949-6.3232l5.5908.0244a4.25,4.25,0,0,0,1.27,3.2227,4.9021,4.9021,0,0,0,3.3447,1.123,6.6341,6.6341,0,0,0,3.5762-.8916A3.415,3.415,0,0,0,635.56,578.6758Z"/><path d="M670.3252,553.1631l-1.123,6.4209h4.5166l-.7568,4.3945h-4.541l-2.49,14.7949a5.0185,5.0185,0,0,0-.0244,1.0986q.1465,1.5879,1.9531,1.66a11.0407,11.0407,0,0,0,2.0508-.22l-.3906,4.6387a13.27,13.27,0,0,1-3.6377.5127,5.3991,5.3991,0,0,1-4.5283-2.0635,7.4561,7.4561,0,0,1-1.1846-5.334l2.4658-15.0879h-4.2236l.7813-4.3945h4.1992l1.123-6.4209Z"/><path d="M674.4023,572.6943a17.3919,17.3919,0,0,1,2.2822-7.0557,13.5656,13.5656,0,0,1,4.7979-4.9072,11.8617,11.8617,0,0,1,6.4941-1.6357,9.81,9.81,0,0,1,9.46,6.6162,15.2622,15.2622,0,0,1,.7939,6.7871,17.7155,17.7155,0,0,1-2.2822,7.4219,13.5092,13.5092,0,0,1-4.834,4.9443,12.0409,12.0409,0,0,1-6.5312,1.623,9.8009,9.8009,0,0,1-9.4238-6.58,15.0579,15.0579,0,0,1-.83-6.7012Zm5.6885,3.3447a6.9683,6.9683,0,0,0,1.3555,4.1133,4.3317,4.3317,0,0,0,3.43,1.624,6.0839,6.0839,0,0,0,4.9922-2.2949,12.0638,12.0638,0,0,0,2.5273-6.47l.1465-2.3926a8.4541,8.4541,0,0,0-1.2451-4.9072,4.3735,4.3735,0,0,0-3.6133-1.88q-3.7119-.0967-5.8594,3.6377a13.5769,13.5769,0,0,0-1.6357,5.2246A20.3324,20.3324,0,0,0,680.0908,576.0391Z"/><path d="M209.1074,646h-5.835l-11.1084-25.4639L187.7451,646h-6.03l6.1768-35.5469h5.835l11.1084,25.5615,4.4434-25.5615h6.0059Z"/><path d="M231.52,646a7.8132,7.8132,0,0,1-.2441-2.4658,9.7966,9.7966,0,0,1-7.0557,2.9541,8.0956,8.0956,0,0,1-5.7-2.209,6.8146,6.8146,0,0,1-2.1123-5.4814,8.09,8.09,0,0,1,3.6133-6.5674q3.4175-2.3921,9.18-2.3926l3.76.0488.3418-1.8066a5.4513,5.4513,0,0,0,0-1.7822q-.4878-2.6367-3.4912-2.71a5.2733,5.2733,0,0,0-3.26.9395,4.07,4.07,0,0,0-1.7207,2.6494l-5.7861.0488a7.2422,7.2422,0,0,1,1.7334-4.2842,10.2658,10.2658,0,0,1,4.15-2.8691,14.0542,14.0542,0,0,1,5.4688-.9766,9.24,9.24,0,0,1,6.7383,2.6,7.7087,7.7087,0,0,1,2.002,6.4824L237.11,640.5557l-.1953,2.1973a7.8022,7.8022,0,0,0,.3662,2.8076l-.0244.4395Zm-5.957-4.248a6.3764,6.3764,0,0,0,3.3936-.8418,8.9442,8.9442,0,0,0,2.6611-2.3076l.9033-5.0049-2.7588-.0244a9.6905,9.6905,0,0,0-5.2246,1.2334,4.5177,4.5177,0,0,0-2.2217,3.3809,2.9946,2.9946,0,0,0,.72,2.5762A3.5262,3.5262,0,0,0,225.5625,641.752Z"/><path d="M255.2744,613.1631l-1.123,6.4209h4.5166l-.7568,4.3945H253.37l-2.49,14.7949a5.0185,5.0185,0,0,0-.0244,1.0986q.1465,1.5879,1.9531,1.66a11.0407,11.0407,0,0,0,2.0508-.22l-.3906,4.6387a13.27,13.27,0,0,1-3.6377.5127,5.3991,5.3991,0,0,1-4.5283-2.0635,7.4561,7.4561,0,0,1-1.1846-5.334l2.4658-15.0879H243.36l.7813-4.3945h4.1992l1.123-6.4209Z"/><path d="M270.6553,646.4883a11.0656,11.0656,0,0,1-5.97-1.7334,9.8561,9.8561,0,0,1-3.7344-4.541,13.4852,13.4852,0,0,1-.916-6.4209l.0732-1.001a17.6739,17.6739,0,0,1,2.3564-7.2393,13.449,13.449,0,0,1,4.7725-4.87,11.6078,11.6078,0,0,1,6.2012-1.5869,8.6561,8.6561,0,0,1,7.4346,3.6924q2.4771,3.5947,1.8672,9.3652l-.3418,2.543h-16.626a7.1738,7.1738,0,0,0,1.27,5.0605,5.0306,5.0306,0,0,0,4.1016,1.9707,8.8954,8.8954,0,0,0,6.8848-3.2471l2.93,3.0762a11.1237,11.1237,0,0,1-4.37,3.6738A13.0177,13.0177,0,0,1,270.6553,646.4883Zm2.4658-22.6562q-4.5908-.1465-6.8848,6.4941l10.9619.0244.0977-.5127a7.6468,7.6468,0,0,0,.0244-2.1973,4.4983,4.4983,0,0,0-1.3672-2.7344A4.33,4.33,0,0,0,273.1211,623.832Z"/><path d="M326.0508,634.4033a13.8068,13.8068,0,0,1-5.0049,8.874,14.9838,14.9838,0,0,1-9.9854,3.2109,11.8,11.8,0,0,1-5.9453-1.6113,10.4159,10.4159,0,0,1-3.9912-4.48,16.7224,16.7224,0,0,1-1.6113-6.6523,35.9659,35.9659,0,0,1,.6836-7.58,23.9332,23.9332,0,0,1,3.1865-8.6064,16.113,16.113,0,0,1,5.7852-5.7373,14.7622,14.7622,0,0,1,7.63-1.8555,11.3539,11.3539,0,0,1,8.3857,3.332q3.0879,3.2358,3.2842,8.9238h-5.9814q-.123-3.8086-1.6-5.5059a5.7,5.7,0,0,0-4.3818-1.77,8.25,8.25,0,0,0-6.665,2.8535q-2.6865,2.9766-3.6133,8.6592l-.4883,3.2441-.22,2.4883a14.7019,14.7019,0,0,0,.3545,4.72,6.15,6.15,0,0,0,1.94,3.3662,5.6608,5.6608,0,0,0,3.54,1.2314q6.8115.27,8.74-7.0557Z"/><path d="M344.8984,646a7.8132,7.8132,0,0,1-.2441-2.4658,9.7966,9.7966,0,0,1-7.0557,2.9541,8.0956,8.0956,0,0,1-5.7-2.209,6.8146,6.8146,0,0,1-2.1123-5.4814,8.09,8.09,0,0,1,3.6133-6.5674q3.4175-2.3921,9.18-2.3926l3.76.0488.3418-1.8066a5.4513,5.4513,0,0,0,0-1.7822q-.4878-2.6367-3.4912-2.71a5.2733,5.2733,0,0,0-3.26.9395,4.07,4.07,0,0,0-1.7207,2.6494l-5.7861.0488a7.2422,7.2422,0,0,1,1.7334-4.2842,10.2658,10.2658,0,0,1,4.15-2.8691,14.0542,14.0542,0,0,1,5.4688-.9766,9.24,9.24,0,0,1,6.7383,2.6,7.7087,7.7087,0,0,1,2.002,6.4824l-2.0264,12.3779-.1953,2.1973a7.8022,7.8022,0,0,0,.3662,2.8076l-.0244.4395Zm-5.957-4.248a6.3764,6.3764,0,0,0,3.3936-.8418,8.9442,8.9442,0,0,0,2.6611-2.3076l.9033-5.0049-2.7588-.0244a9.6905,9.6905,0,0,0-5.2246,1.2334,4.5177,4.5177,0,0,0-2.2217,3.3809,2.9946,2.9946,0,0,0,.72,2.5762A3.5262,3.5262,0,0,0,338.9414,641.752Z"/><path d="M372.9746,625.0039a10.7045,10.7045,0,0,0-2.2705-.2441,6.777,6.777,0,0,0-6.0547,3.1494L361.4756,646h-5.7861l4.5654-26.416,5.4932-.0244-.5859,3.0029q2.71-3.5889,6.25-3.5156a9.5009,9.5009,0,0,1,2.2217.3662Z"/><path d="M374.2441,632.7676a20.9173,20.9173,0,0,1,2.1973-7.3242,12.391,12.391,0,0,1,4.2236-4.8457,9.7529,9.7529,0,0,1,5.5908-1.5264,7.8067,7.8067,0,0,1,6.2988,3.0029L395.0938,608.5h5.8105L394.3857,646H389.21l.3906-2.7344a9.2078,9.2078,0,0,1-7.2266,3.2471,7.2646,7.2646,0,0,1-5.8955-2.8447,12.4094,12.4094,0,0,1-2.3809-7.4336,19.742,19.742,0,0,1,.0732-2.9541Zm5.6152,2.2705a8.1322,8.1322,0,0,0,.9395,4.81,3.7531,3.7531,0,0,0,3.3086,1.8311q3.3442.0981,5.7861-3.2471l1.9775-11.3525a4.5184,4.5184,0,0,0-4.4434-3.1494,5.9453,5.9453,0,0,0-5.3467,2.93A15.62,15.62,0,0,0,379.8594,635.0381Z"/><path d="M401.9785,632.6943a17.3635,17.3635,0,0,1,2.2832-7.0557,13.5477,13.5477,0,0,1,4.7969-4.9072,11.8617,11.8617,0,0,1,6.4941-1.6357,9.812,9.812,0,0,1,9.4609,6.6162,15.29,15.29,0,0,1,.793,6.7871,17.7022,17.7022,0,0,1-2.2832,7.4219,13.5092,13.5092,0,0,1-4.834,4.9443,12.0354,12.0354,0,0,1-6.53,1.623,9.7985,9.7985,0,0,1-9.4238-6.58,15.0719,15.0719,0,0,1-.83-6.7012Zm5.6885,3.3447a6.9679,6.9679,0,0,0,1.3545,4.1133,4.3351,4.3351,0,0,0,3.4307,1.624,6.0882,6.0882,0,0,0,4.9932-2.2949,12.0787,12.0787,0,0,0,2.5264-6.47l.1465-2.3926a8.4541,8.4541,0,0,0-1.2451-4.9072,4.3735,4.3735,0,0,0-3.6133-1.88q-3.7119-.0967-5.8594,3.6377a13.5769,13.5769,0,0,0-1.6357,5.2246A20.442,20.442,0,0,0,407.667,636.0391Z"/><path d="M435.2793,641.2637H448.707L447.877,646H427.0518l.7324-4.1748,15.82-17.4561H431.0313l.8545-4.7852h20.0928l-.708,4.0283Z"/><path d="M453.6875,632.6943a17.3635,17.3635,0,0,1,2.2832-7.0557,13.5477,13.5477,0,0,1,4.7969-4.9072,11.8617,11.8617,0,0,1,6.4941-1.6357,9.812,9.812,0,0,1,9.4609,6.6162,15.29,15.29,0,0,1,.793,6.7871,17.7022,17.7022,0,0,1-2.2832,7.4219,13.5092,13.5092,0,0,1-4.834,4.9443,12.0354,12.0354,0,0,1-6.53,1.623,9.7985,9.7985,0,0,1-9.4238-6.58,15.0719,15.0719,0,0,1-.83-6.7012Zm5.6885,3.3447a6.9679,6.9679,0,0,0,1.3545,4.1133,4.3351,4.3351,0,0,0,3.4307,1.624,6.0882,6.0882,0,0,0,4.9932-2.2949,12.0787,12.0787,0,0,0,2.5264-6.47l.1465-2.3926a8.4541,8.4541,0,0,0-1.2451-4.9072,4.3735,4.3735,0,0,0-3.6133-1.88q-3.7119-.0967-5.8594,3.6377a13.5769,13.5769,0,0,0-1.6357,5.2246A20.442,20.442,0,0,0,459.376,636.0391Z"/><path d="M508.18,646a7.8132,7.8132,0,0,1-.2441-2.4658,9.7966,9.7966,0,0,1-7.0557,2.9541,8.0956,8.0956,0,0,1-5.7-2.209,6.8146,6.8146,0,0,1-2.1123-5.4814,8.09,8.09,0,0,1,3.6133-6.5674q3.4175-2.3921,9.18-2.3926l3.76.0488.3418-1.8066a5.4513,5.4513,0,0,0,0-1.7822q-.4878-2.6367-3.4912-2.71a5.2733,5.2733,0,0,0-3.26.9395,4.07,4.07,0,0,0-1.7207,2.6494l-5.7861.0488a7.2422,7.2422,0,0,1,1.7334-4.2842,10.2658,10.2658,0,0,1,4.15-2.8691,14.0542,14.0542,0,0,1,5.4688-.9766,9.24,9.24,0,0,1,6.7383,2.6,7.7087,7.7087,0,0,1,2.002,6.4824l-2.0264,12.3779-.1953,2.1973a7.8022,7.8022,0,0,0,.3662,2.8076L513.917,646Zm-5.957-4.248a6.3764,6.3764,0,0,0,3.3936-.8418,8.9442,8.9442,0,0,0,2.6611-2.3076l.9033-5.0049-2.7588-.0244a9.6905,9.6905,0,0,0-5.2246,1.2334,4.5177,4.5177,0,0,0-2.2217,3.3809,2.9946,2.9946,0,0,0,.72,2.5762A3.5262,3.5262,0,0,0,502.2227,641.752Z"/><path d="M528.9072,619.56l-.5859,3.1006a10.0806,10.0806,0,0,1,7.8369-3.5645,6.3873,6.3873,0,0,1,5.4932,2.6484q1.7813,2.5767,1.3184,7.19L540.1133,646h-5.7861l2.8809-17.1387a8.8286,8.8286,0,0,0,.0244-1.9531q-.3179-2.9048-3.4668-2.9785-3.2959-.0483-5.7861,3.2471L524.6836,646h-5.7861l4.5654-26.416Z"/><path d="M547.4619,632.7676a20.9173,20.9173,0,0,1,2.1973-7.3242,12.391,12.391,0,0,1,4.2236-4.8457,9.7508,9.7508,0,0,1,5.5908-1.5264,7.8067,7.8067,0,0,1,6.2988,3.0029L568.3115,608.5h5.8105L567.6035,646h-5.1758l.3906-2.7344a9.2078,9.2078,0,0,1-7.2266,3.2471,7.2646,7.2646,0,0,1-5.8955-2.8447,12.4094,12.4094,0,0,1-2.3809-7.4336,19.742,19.742,0,0,1,.0732-2.9541Zm5.6152,2.2705a8.1322,8.1322,0,0,0,.9395,4.81,3.7543,3.7543,0,0,0,3.3086,1.8311q3.3442.0981,5.7861-3.2471l1.9775-11.3525a4.5184,4.5184,0,0,0-4.4434-3.1494,5.9453,5.9453,0,0,0-5.3467,2.93A15.6111,15.6111,0,0,0,553.0771,635.0381Z"/><path d="M599.4883,630.6924l-4.8828,4.4678-1.88,10.84h-6.03l6.1768-35.5469h6.03l-2.8564,16.333,3.7354-3.8818,12.2559-12.4512h7.7148l-15.82,16.04L613.917,646h-6.7383Z"/><path d="M632.7158,643.3877a9.58,9.58,0,0,1-7.52,3.1006,7.3693,7.3693,0,0,1-4.2607-1.27,6.5984,6.5984,0,0,1-2.416-3.4062,12.4584,12.4584,0,0,1-.4277-5.1387l2.8564-17.09h5.7861l-2.8809,17.1631a9.0729,9.0729,0,0,0-.0244,1.7578q.2432,3.0278,3.0518,3.1494a6.9885,6.9885,0,0,0,6.2012-3.0762l3.32-18.9941h5.7861L637.623,646h-5.42Z"/><path d="M660.8652,625.0039a10.7045,10.7045,0,0,0-2.2705-.2441,6.777,6.777,0,0,0-6.0547,3.1494L649.3662,646H643.58l4.5654-26.416,5.4932-.0244-.5859,3.0029q2.71-3.5889,6.25-3.5156a9.5009,9.5009,0,0,1,2.2217.3662Z"/><path d="M675.05,613.1631l-1.123,6.4209h4.5166l-.7568,4.3945h-4.541l-2.49,14.7949a5.0185,5.0185,0,0,0-.0244,1.0986q.1465,1.5879,1.9531,1.66a11.0407,11.0407,0,0,0,2.0508-.22l-.3906,4.6387a13.27,13.27,0,0,1-3.6377.5127,5.3991,5.3991,0,0,1-4.5283-2.0635,7.4561,7.4561,0,0,1-1.1846-5.334l2.4658-15.0879h-4.2236l.7813-4.3945h4.1992l1.123-6.4209Z"/><path d="M705.03,646.4883a12.0367,12.0367,0,0,1-6.0908-1.66,10.6568,10.6568,0,0,1-4.09-4.6016,17.5594,17.5594,0,0,1-1.66-6.8486,31.5073,31.5073,0,0,1,.5488-7.1289,24.0023,24.0023,0,0,1,2.5645-7.4346,18.6832,18.6832,0,0,1,4.4063-5.48,14.5233,14.5233,0,0,1,9.7656-3.3691,10.9689,10.9689,0,0,1,8.41,3.6377q3.1377,3.5405,3.4307,9.57a31.4473,31.4473,0,0,1-.55,6.9463,25.1223,25.1223,0,0,1-2.3926,7.2012,18.3825,18.3825,0,0,1-4.2109,5.4814A14.4093,14.4093,0,0,1,705.03,646.4883Zm11.1084-19.2139.22-2.5879a15.5252,15.5252,0,0,0-.4639-4.9189,6.4643,6.4643,0,0,0-2.0625-3.4434,5.9561,5.9561,0,0,0-3.6748-1.2568,8.2555,8.2555,0,0,0-5.4561,1.7334,12.696,12.696,0,0,0-3.8574,5.5664,29.1273,29.1273,0,0,0-1.7217,9.375,11.8871,11.8871,0,0,0,1.3672,7.0313,5.5473,5.5473,0,0,0,4.834,2.6611,8.34,8.34,0,0,0,6.97-3.1738q2.748-3.2959,3.6016-9.2773Z"/><path d="M749.2686,632.89a21.7485,21.7485,0,0,1-2.1123,7.1777,12.2382,12.2382,0,0,1-4.125,4.87,9.536,9.536,0,0,1-5.6035,1.5752,8.2844,8.2844,0,0,1-6.4941-2.93l-2.3682,12.5732h-5.8105l6.3477-36.5723L734.4,619.56l-.4395,2.7344a9.1479,9.1479,0,0,1,7.2021-3.1982,7.7484,7.7484,0,0,1,4.37,1.2813,7.9144,7.9144,0,0,1,2.8438,3.65,14.7769,14.7769,0,0,1,1.0625,5.3223A32.701,32.701,0,0,1,749.2686,632.89Zm-5.7129-.5127.1221-1.7822a8.6564,8.6564,0,0,0-1.0371-4.8828,3.8077,3.8077,0,0,0-3.333-1.7822,6.7366,6.7366,0,0,0-5.6641,3.0029l-2.0508,11.792a4.4737,4.4737,0,0,0,4.4678,3.0518,5.897,5.897,0,0,0,4.8457-2.2461Q742.8721,637.2114,743.5557,632.377Z"/><path d="M767.8721,638.6758q.4146-2.417-3.1377-3.3574a39.6928,39.6928,0,0,1-4.8457-1.501q-5.03-2.1475-4.8584-6.543a7.4267,7.4267,0,0,1,3.2354-5.8955,11.8515,11.8515,0,0,1,7.458-2.2832,10.2145,10.2145,0,0,1,6.8486,2.3682,7.5556,7.5556,0,0,1,2.6,6.0791l-5.7373-.0244a3.7051,3.7051,0,0,0-1.001-2.8682,4.084,4.084,0,0,0-2.8809-1.0869,5.68,5.68,0,0,0-3.3086.9521,3.55,3.55,0,0,0-1.5986,2.49q-.3428,2.2222,3.125,3.0879a34.378,34.378,0,0,1,5.127,1.6q4.834,2.124,4.6631,6.6406a7.3065,7.3065,0,0,1-1.6484,4.3828,9.6089,9.6089,0,0,1-4.0889,2.8555,13.9746,13.9746,0,0,1-5.4443.916,10.7437,10.7437,0,0,1-7.166-2.5146,7.8471,7.8471,0,0,1-2.7949-6.3232l5.5908.0244a4.25,4.25,0,0,0,1.27,3.2227,4.9021,4.9021,0,0,0,3.3447,1.123,6.6341,6.6341,0,0,0,3.5762-.8916A3.415,3.415,0,0,0,767.8721,638.6758Z"/><path d="M793.043,646a7.8132,7.8132,0,0,1-.2441-2.4658,9.7966,9.7966,0,0,1-7.0557,2.9541,8.1,8.1,0,0,1-5.7012-2.209,6.817,6.817,0,0,1-2.1113-5.4814,8.0873,8.0873,0,0,1,3.6133-6.5674q3.4175-2.3921,9.18-2.3926l3.76.0488.3418-1.8066a5.4513,5.4513,0,0,0,0-1.7822q-.4893-2.6367-3.4912-2.71a5.27,5.27,0,0,0-3.2588.9395,4.0674,4.0674,0,0,0-1.7217,2.6494l-5.7861.0488a7.236,7.236,0,0,1,1.7334-4.2842,10.2658,10.2658,0,0,1,4.15-2.8691,14.0542,14.0542,0,0,1,5.4688-.9766,9.24,9.24,0,0,1,6.7383,2.6,7.7087,7.7087,0,0,1,2.002,6.4824l-2.0264,12.3779-.1953,2.1973a7.8022,7.8022,0,0,0,.3662,2.8076L798.78,646Zm-5.957-4.248a6.3764,6.3764,0,0,0,3.3936-.8418,8.9563,8.9563,0,0,0,2.6611-2.3076l.9033-5.0049-2.7588-.0244a9.6905,9.6905,0,0,0-5.2246,1.2334,4.5177,4.5177,0,0,0-2.2217,3.3809,2.986,2.986,0,0,0,.7207,2.5762A3.52,3.52,0,0,0,787.0859,641.752Z"/><path d="M813.38,622.4893a9.7672,9.7672,0,0,1,7.4951-3.3691,6.4456,6.4456,0,0,1,5.5781,2.6611q1.8193,2.6133,1.3555,7.2266L824.9766,646H819.19l2.8809-17.0654a9.9944,9.9944,0,0,0,.0488-1.9531q-.3179-2.978-3.5156-3.0518-3.2227-.0483-5.7617,3.1738L809.5469,646h-5.7861l6.4941-37.5h5.8105Z"/><path d="M837.1592,646H831.373l6.5186-37.5h5.7861Z"/><path d="M153.59,706a7.8132,7.8132,0,0,1-.2441-2.4658,9.7966,9.7966,0,0,1-7.0557,2.9541,8.0956,8.0956,0,0,1-5.7-2.209,6.8146,6.8146,0,0,1-2.1123-5.4814,8.09,8.09,0,0,1,3.6133-6.5674q3.4175-2.3921,9.18-2.3926l3.76.0488.3418-1.8066a5.4513,5.4513,0,0,0,0-1.7822q-.4878-2.6367-3.4912-2.71a5.2733,5.2733,0,0,0-3.26.9395,4.07,4.07,0,0,0-1.7207,2.6494l-5.7861.0488a7.2422,7.2422,0,0,1,1.7334-4.2842,10.2658,10.2658,0,0,1,4.15-2.8691,14.0542,14.0542,0,0,1,5.4688-.9766,9.24,9.24,0,0,1,6.7383,2.6,7.7087,7.7087,0,0,1,2.002,6.4824l-2.0264,12.3779-.1953,2.1973a7.8022,7.8022,0,0,0,.3662,2.8076l-.0244.4395Zm-5.957-4.248a6.3764,6.3764,0,0,0,3.3936-.8418,8.9442,8.9442,0,0,0,2.6611-2.3076l.9033-5.0049-2.7588-.0244a9.6905,9.6905,0,0,0-5.2246,1.2334,4.5177,4.5177,0,0,0-2.2217,3.3809,2.9946,2.9946,0,0,0,.72,2.5762A3.5262,3.5262,0,0,0,147.6328,701.752Z"/><path d="M177.3447,673.1631l-1.123,6.4209h4.5166l-.7568,4.3945H175.44l-2.49,14.7949a5.0185,5.0185,0,0,0-.0244,1.0986q.1465,1.5879,1.9531,1.66a11.0407,11.0407,0,0,0,2.0508-.22l-.3906,4.6387a13.27,13.27,0,0,1-3.6377.5127A5.3991,5.3991,0,0,1,168.373,704.4a7.4561,7.4561,0,0,1-1.1846-5.334l2.4658-15.0879h-4.2236l.7813-4.3945h4.1992l1.123-6.4209Z"/><path d="M206.0557,673.1631l-1.123,6.4209h4.5166l-.7568,4.3945h-4.541l-2.49,14.7949a5.0185,5.0185,0,0,0-.0244,1.0986q.1465,1.5879,1.9531,1.66a11.0407,11.0407,0,0,0,2.0508-.22l-.3906,4.6387a13.27,13.27,0,0,1-3.6377.5127A5.3991,5.3991,0,0,1,197.084,704.4a7.4561,7.4561,0,0,1-1.1846-5.334l2.4658-15.0879h-4.2236l.7813-4.3945h4.1992l1.123-6.4209Z"/><path d="M219.02,682.4893a9.7672,9.7672,0,0,1,7.4951-3.3691,6.4474,6.4474,0,0,1,5.5791,2.6611q1.8179,2.6133,1.3545,7.2266L230.6162,706H224.83l2.8809-17.0654a9.9944,9.9944,0,0,0,.0488-1.9531q-.3179-2.978-3.5156-3.0518-3.2227-.0483-5.7617,3.1738L215.1865,706H209.4l6.4941-37.5h5.8105Z"/><path d="M248.6094,706.4883a11.0571,11.0571,0,0,1-5.9687-1.7334,9.86,9.86,0,0,1-3.7363-4.541,13.5092,13.5092,0,0,1-.915-6.4209l.0732-1.001a17.6874,17.6874,0,0,1,2.3555-7.2393,13.4513,13.4513,0,0,1,4.7734-4.87,11.6056,11.6056,0,0,1,6.2012-1.5869,8.6544,8.6544,0,0,1,7.4336,3.6924q2.4785,3.5947,1.8682,9.3652l-.3418,2.543h-16.626a7.1738,7.1738,0,0,0,1.27,5.0605,5.028,5.028,0,0,0,4.1016,1.9707,8.8954,8.8954,0,0,0,6.8848-3.2471l2.93,3.0762a11.1306,11.1306,0,0,1-4.37,3.6738A13.0177,13.0177,0,0,1,248.6094,706.4883Zm2.4658-22.6562q-4.5894-.1465-6.8848,6.4941l10.9619.0244.0977-.5127a7.6819,7.6819,0,0,0,.0244-2.1973,4.4932,4.4932,0,0,0-1.3672-2.7344A4.33,4.33,0,0,0,251.0752,683.832Z"/><path d="M298.7559,690.1309h-14.16l-1.9043,10.9375h16.5527L298.39,706h-22.583l6.1523-35.5469h22.4365l-.8789,4.98H287.1348l-1.709,9.8145H299.61Z"/><path d="M325.9775,690.9365H312.11L309.498,706h-6.03l6.1523-35.5469h21.9727l-.8789,4.98h-15.918l-1.8311,10.5713h13.8916Z"/><path d="M352.8574,690.9365H338.99L336.3779,706h-6.03L336.5,670.4531h21.9727l-.8789,4.98h-15.918l-1.8311,10.5713h13.8916Z"/><path d="M362.55,681l-2.9053-1.9287a16.9059,16.9059,0,0,0,3.2715-6.543l.7324-4.0283h5.0781l-.5371,3.32A14.2234,14.2234,0,0,1,362.55,681Z"/><path d="M377.5645,698.6758q.4146-2.417-3.1367-3.3574a39.6084,39.6084,0,0,1-4.8467-1.501q-5.0288-2.1475-4.8584-6.543a7.431,7.431,0,0,1,3.2344-5.8955,11.8581,11.8581,0,0,1,7.459-2.2832,10.21,10.21,0,0,1,6.8477,2.3682,7.5564,7.5564,0,0,1,2.6006,6.0791l-5.7373-.0244a3.7016,3.7016,0,0,0-1.001-2.8682,4.084,4.084,0,0,0-2.8809-1.0869,5.6752,5.6752,0,0,0-3.3076.9521,3.548,3.548,0,0,0-1.6,2.49q-.3428,2.2222,3.125,3.0879a34.378,34.378,0,0,1,5.127,1.6q4.834,2.124,4.6631,6.6406a7.3055,7.3055,0,0,1-1.6475,4.3828,9.6182,9.6182,0,0,1-4.09,2.8555,13.9715,13.9715,0,0,1-5.4443.916,10.7392,10.7392,0,0,1-7.165-2.5146A7.848,7.848,0,0,1,362.11,697.65l5.5908.0244a4.25,4.25,0,0,0,1.27,3.2227,4.9021,4.9021,0,0,0,3.3447,1.123,6.64,6.64,0,0,0,3.5771-.8916A3.4193,3.4193,0,0,0,377.5645,698.6758Z"/><path d="M428.126,694.4033a13.8068,13.8068,0,0,1-5.0049,8.874,14.9821,14.9821,0,0,1-9.9854,3.2109,11.7935,11.7935,0,0,1-5.9443-1.6113,10.4179,10.4179,0,0,1-3.9922-4.48,16.69,16.69,0,0,1-1.6113-6.6523,35.9659,35.9659,0,0,1,.6836-7.58,23.9319,23.9319,0,0,1,3.1855-8.6064,16.1177,16.1177,0,0,1,5.7871-5.7373,14.7563,14.7563,0,0,1,7.6289-1.8555,11.3594,11.3594,0,0,1,8.3867,3.332q3.0879,3.2358,3.2832,8.9238h-5.9814q-.1216-3.8086-1.5986-5.5059a5.7041,5.7041,0,0,0-4.3828-1.77,8.25,8.25,0,0,0-6.665,2.8535q-2.6851,2.9766-3.6133,8.6592l-.4883,3.2441-.22,2.4883a14.73,14.73,0,0,0,.3535,4.72,6.1627,6.1627,0,0,0,1.9414,3.3662,5.6608,5.6608,0,0,0,3.54,1.2314q6.8115.27,8.74-7.0557Z"/><path d="M432.667,692.6943a17.3919,17.3919,0,0,1,2.2822-7.0557,13.5656,13.5656,0,0,1,4.7979-4.9072,11.8639,11.8639,0,0,1,6.4941-1.6357,9.81,9.81,0,0,1,9.46,6.6162,15.2622,15.2622,0,0,1,.7939,6.7871,17.7155,17.7155,0,0,1-2.2822,7.4219,13.5092,13.5092,0,0,1-4.834,4.9443,12.0409,12.0409,0,0,1-6.5312,1.623,9.8009,9.8009,0,0,1-9.4238-6.58,15.0579,15.0579,0,0,1-.83-6.7012Zm5.6885,3.3447a6.9683,6.9683,0,0,0,1.3555,4.1133,4.3317,4.3317,0,0,0,3.43,1.624,6.0839,6.0839,0,0,0,4.9922-2.2949,12.0638,12.0638,0,0,0,2.5273-6.47l.1465-2.3926a8.4541,8.4541,0,0,0-1.2451-4.9072,4.3722,4.3722,0,0,0-3.6133-1.88q-3.71-.0967-5.8594,3.6377a13.5936,13.5936,0,0,0-1.6357,5.2246A20.3324,20.3324,0,0,0,438.3555,696.0391Z"/><path d="M460.4014,692.7676a20.9173,20.9173,0,0,1,2.1973-7.3242,12.3987,12.3987,0,0,1,4.2236-4.8457,9.7508,9.7508,0,0,1,5.5908-1.5264,7.8067,7.8067,0,0,1,6.2988,3.0029L481.251,668.5h5.8105L480.543,706h-5.1758l.3906-2.7344a9.2078,9.2078,0,0,1-7.2266,3.2471,7.2664,7.2664,0,0,1-5.8965-2.8447,12.4221,12.4221,0,0,1-2.38-7.4336,19.742,19.742,0,0,1,.0732-2.9541Zm5.6152,2.2705a8.1244,8.1244,0,0,0,.94,4.81,3.7515,3.7515,0,0,0,3.3076,1.8311q3.3442.0981,5.7861-3.2471l1.9775-11.3525a4.5176,4.5176,0,0,0-4.4434-3.1494,5.9453,5.9453,0,0,0-5.3467,2.93A15.6111,15.6111,0,0,0,466.0166,695.0381Z"/><path d="M498.707,706.4883a11.0571,11.0571,0,0,1-5.9687-1.7334,9.86,9.86,0,0,1-3.7363-4.541,13.5092,13.5092,0,0,1-.915-6.4209l.0732-1.001a17.6874,17.6874,0,0,1,2.3555-7.2393,13.4513,13.4513,0,0,1,4.7734-4.87,11.6056,11.6056,0,0,1,6.2012-1.5869,8.6544,8.6544,0,0,1,7.4336,3.6924q2.4785,3.5947,1.8682,9.3652l-.3418,2.543h-16.626a7.1738,7.1738,0,0,0,1.27,5.0605,5.028,5.028,0,0,0,4.1016,1.9707A8.8954,8.8954,0,0,0,506.08,698.48l2.93,3.0762a11.1306,11.1306,0,0,1-4.37,3.6738A13.0177,13.0177,0,0,1,498.707,706.4883Zm2.4658-22.6562q-4.5894-.1465-6.8848,6.4941l10.9619.0244.0977-.5127a7.6819,7.6819,0,0,0,.0244-2.1973,4.4932,4.4932,0,0,0-1.3672-2.7344A4.33,4.33,0,0,0,501.1729,683.832Z"/><path d="M530.2988,685.0039a10.7045,10.7045,0,0,0-2.2705-.2441,6.777,6.777,0,0,0-6.0547,3.1494L518.8,706h-5.7861l4.5654-26.416,5.4932-.0244-.5859,3.0029q2.71-3.5889,6.25-3.5156a9.5009,9.5009,0,0,1,2.2217.3662Z"/><path d="M546.0947,698.6758q.4146-2.417-3.1377-3.3574a39.6928,39.6928,0,0,1-4.8457-1.501q-5.03-2.1475-4.8584-6.543a7.4267,7.4267,0,0,1,3.2354-5.8955,11.8515,11.8515,0,0,1,7.458-2.2832,10.2145,10.2145,0,0,1,6.8486,2.3682,7.5556,7.5556,0,0,1,2.6,6.0791l-5.7373-.0244a3.7051,3.7051,0,0,0-1.001-2.8682,4.084,4.084,0,0,0-2.8809-1.0869,5.68,5.68,0,0,0-3.3086.9521,3.55,3.55,0,0,0-1.5986,2.49q-.3428,2.2222,3.125,3.0879a34.378,34.378,0,0,1,5.127,1.6q4.834,2.124,4.6631,6.6406a7.3065,7.3065,0,0,1-1.6484,4.3828,9.6089,9.6089,0,0,1-4.0889,2.8555,13.9746,13.9746,0,0,1-5.4443.916,10.7437,10.7437,0,0,1-7.166-2.5146,7.8471,7.8471,0,0,1-2.7949-6.3232l5.5908.0244a4.25,4.25,0,0,0,1.27,3.2227,4.9021,4.9021,0,0,0,3.3447,1.123,6.6341,6.6341,0,0,0,3.5762-.8916A3.415,3.415,0,0,0,546.0947,698.6758Z"/><path d="M561.4512,681l-2.9053-1.9287a16.9059,16.9059,0,0,0,3.2715-6.543L562.55,668.5h5.0781l-.5371,3.32A14.2234,14.2234,0,0,1,561.4512,681Z"/><path d="M594.4346,692.3281h-6.7871L585.2549,706h-6.03l6.1768-35.5469,11.2061.0244q5.7861,0,8.8623,2.7861t2.6611,7.7451a10.651,10.651,0,0,1-2.2949,5.9746,13.3567,13.3567,0,0,1-5.6885,3.9707l5.249,14.68-.0244.3662h-6.3965Zm-5.957-4.98,5.835.0488a8.2839,8.2839,0,0,0,5.2607-1.6484,6.4943,6.4943,0,0,0,2.4785-4.4795,5.0391,5.0391,0,0,0-.9766-4.2354,5.5244,5.5244,0,0,0-4.0771-1.5752l-6.4453-.0244Z"/><path d="M615.333,706h-5.7861l4.59-26.416h5.7861Zm-.3662-33.1787a3.2647,3.2647,0,0,1,.8789-2.2949,3.2207,3.2207,0,0,1,2.3682-1.001,3.0755,3.0755,0,0,1,2.3555.8672,2.9964,2.9964,0,0,1,.94,2.2334,3.09,3.09,0,0,1-.915,2.2949,3.3567,3.3567,0,0,1-2.332.9521,3.1282,3.1282,0,0,1-2.3437-.8418A2.906,2.906,0,0,1,614.9668,672.8213Z"/><path d="M623.1211,692.7676a20.4167,20.4167,0,0,1,2.1367-7.1533,12.9188,12.9188,0,0,1,4.2109-4.8955,9.94,9.94,0,0,1,5.8105-1.6475,7.7969,7.7969,0,0,1,6.5674,3.1982l.9033-2.71,5.2734.0244-4.37,25.6836A12.4687,12.4687,0,0,1,630.47,716.4248a12.3437,12.3437,0,0,1-5.2734-1.27,10.9743,10.9743,0,0,1-4.0039-3.2227l3.0762-3.4912a7.4124,7.4124,0,0,0,6.0547,3.2959,7.1016,7.1016,0,0,0,4.87-1.55,8.0838,8.0838,0,0,0,2.7227-4.7l.415-1.8555a9.3493,9.3493,0,0,1-6.9336,2.8564,7.3949,7.3949,0,0,1-5.9443-2.8076,12.4115,12.4115,0,0,1-2.4541-7.4219A24.3033,24.3033,0,0,1,623.1211,692.7676Zm5.7373.5127a17.77,17.77,0,0,0-.0977,2.6855,6.9621,6.9621,0,0,0,1.1719,4.1016,3.9276,3.9276,0,0,0,3.1982,1.5869,6.8281,6.8281,0,0,0,5.7617-3.0518l2.0752-11.67a4.7153,4.7153,0,0,0-4.5166-3.0029A6.0257,6.0257,0,0,0,631.52,686.2a12.7145,12.7145,0,0,0-2.6123,6.5674Z"/><path d="M659.083,682.4893a9.7672,9.7672,0,0,1,7.4951-3.3691,6.4456,6.4456,0,0,1,5.5781,2.6611q1.8193,2.6133,1.3555,7.2266L670.68,706h-5.7861l2.8809-17.0654a9.9944,9.9944,0,0,0,.0488-1.9531q-.3179-2.978-3.5156-3.0518-3.2227-.0483-5.7617,3.1738L655.25,706h-5.7861l6.4941-37.5h5.8105Z"/><path d="M689.6738,673.1631l-1.123,6.4209h4.5166l-.7568,4.3945H687.77l-2.49,14.7949a5.0185,5.0185,0,0,0-.0244,1.0986q.1465,1.5879,1.9531,1.66a11.0407,11.0407,0,0,0,2.0508-.22l-.3906,4.6387a13.27,13.27,0,0,1-3.6377.5127,5.3991,5.3991,0,0,1-4.5283-2.0635,7.4561,7.4561,0,0,1-1.1846-5.334l2.4658-15.0879H677.76l.7813-4.3945H682.74l1.123-6.4209Z"/><path d="M708.8877,698.6758q.4146-2.417-3.1377-3.3574a39.6928,39.6928,0,0,1-4.8457-1.501q-5.03-2.1475-4.8584-6.543a7.4267,7.4267,0,0,1,3.2354-5.8955,11.8515,11.8515,0,0,1,7.458-2.2832,10.2145,10.2145,0,0,1,6.8486,2.3682,7.5556,7.5556,0,0,1,2.6,6.0791l-5.7373-.0244a3.7051,3.7051,0,0,0-1.001-2.8682,4.084,4.084,0,0,0-2.8809-1.0869,5.68,5.68,0,0,0-3.3086.9521,3.55,3.55,0,0,0-1.5986,2.49q-.3428,2.2222,3.125,3.0879a34.378,34.378,0,0,1,5.127,1.6q4.834,2.124,4.6631,6.6406a7.3065,7.3065,0,0,1-1.6484,4.3828,9.6089,9.6089,0,0,1-4.0889,2.8555,13.9746,13.9746,0,0,1-5.4443.916,10.7437,10.7437,0,0,1-7.166-2.5146,7.8471,7.8471,0,0,1-2.7949-6.3232l5.5908.0244a4.25,4.25,0,0,0,1.27,3.2227,4.9021,4.9021,0,0,0,3.3447,1.123,6.6341,6.6341,0,0,0,3.5762-.8916A3.415,3.415,0,0,0,708.8877,698.6758Z"/><path d="M739.5762,692.8164,737.2813,706h-6.03l6.1768-35.5469,12.3047.0244q5.5664,0,8.74,3.043a9.4781,9.4781,0,0,1,2.7588,8.0537,11.3034,11.3034,0,0,1-4.2236,8.2236q-3.7852,3.0439-9.9121,3.043Zm.8545-4.98,6.9092.0488a8.345,8.345,0,0,0,5.3594-1.66,6.88,6.88,0,0,0,2.502-4.6387,5.4934,5.4934,0,0,0-1.0137-4.3574,5.3115,5.3115,0,0,0-4.0889-1.7705l-7.52-.0244Z"/><path d="M779.2246,685.0039a10.7045,10.7045,0,0,0-2.2705-.2441,6.777,6.777,0,0,0-6.0547,3.1494L767.7256,706h-5.7861l4.5654-26.416,5.4932-.0244-.5859,3.0029q2.71-3.5889,6.25-3.5156a9.5009,9.5009,0,0,1,2.2217.3662Z"/><path d="M779.7373,692.6943a17.3919,17.3919,0,0,1,2.2822-7.0557,13.5656,13.5656,0,0,1,4.7979-4.9072,11.8617,11.8617,0,0,1,6.4941-1.6357,9.81,9.81,0,0,1,9.46,6.6162,15.2622,15.2622,0,0,1,.7939,6.7871,17.7155,17.7155,0,0,1-2.2822,7.4219,13.5092,13.5092,0,0,1-4.834,4.9443,12.0409,12.0409,0,0,1-6.5312,1.623,9.8009,9.8009,0,0,1-9.4238-6.58,15.0579,15.0579,0,0,1-.83-6.7012Zm5.6885,3.3447a6.9683,6.9683,0,0,0,1.3555,4.1133,4.3317,4.3317,0,0,0,3.43,1.624,6.0839,6.0839,0,0,0,4.9922-2.2949,12.0638,12.0638,0,0,0,2.5273-6.47l.1465-2.3926a8.4541,8.4541,0,0,0-1.2451-4.9072,4.3735,4.3735,0,0,0-3.6133-1.88q-3.7119-.0967-5.8594,3.6377a13.5769,13.5769,0,0,0-1.6357,5.2246A20.3324,20.3324,0,0,0,785.4258,696.0391Z"/><path d="M816.8223,679.584l-4.8584,28.7354a10.1957,10.1957,0,0,1-2.832,6.2861,8.1508,8.1508,0,0,1-5.9814,2.1367,16.4556,16.4556,0,0,1-3.2959-.4639l.4883-4.6875a8.9035,8.9035,0,0,0,2.0508.2686q3.1011,0,3.7354-3.6377l4.9072-28.6377Zm-5.0781-6.7627a3.1532,3.1532,0,0,1,3.2227-3.2959,3.1277,3.1277,0,0,1,2.3564.8418,2.9825,2.9825,0,0,1,.9395,2.2588,3.0829,3.0829,0,0,1-.916,2.2949,3.3507,3.3507,0,0,1-2.3311.9521,3.2756,3.2756,0,0,1-2.3682-.8672A2.8969,2.8969,0,0,1,811.7441,672.8213Z"/><path d="M830.5674,706.4883a11.0571,11.0571,0,0,1-5.9687-1.7334,9.86,9.86,0,0,1-3.7363-4.541,13.5092,13.5092,0,0,1-.915-6.4209l.0732-1.001a17.6874,17.6874,0,0,1,2.3555-7.2393,13.459,13.459,0,0,1,4.7734-4.87,11.6056,11.6056,0,0,1,6.2012-1.5869,8.6532,8.6532,0,0,1,7.4336,3.6924q2.4785,3.5947,1.8682,9.3652l-.3418,2.543h-16.626a7.1738,7.1738,0,0,0,1.27,5.0605,5.028,5.028,0,0,0,4.1016,1.9707A8.8954,8.8954,0,0,0,837.94,698.48l2.93,3.0762a11.1306,11.1306,0,0,1-4.37,3.6738A13.0177,13.0177,0,0,1,830.5674,706.4883Zm2.4658-22.6562q-4.5908-.1465-6.8848,6.4941l10.9619.0244.0977-.5127a7.6819,7.6819,0,0,0,.0244-2.1973,4.4983,4.4983,0,0,0-1.3672-2.7344A4.33,4.33,0,0,0,833.0332,683.832Z"/><path d="M856.3975,701.7764a5.6574,5.6574,0,0,0,5.7129-4.4922l5.4688-.0244a9.3478,9.3478,0,0,1-1.8926,4.7607,10.9887,10.9887,0,0,1-4.1621,3.3447,11.5614,11.5614,0,0,1-5.2979,1.123A9.95,9.95,0,0,1,850.44,704.73a9.7091,9.7091,0,0,1-3.4912-4.7246,15.1094,15.1094,0,0,1-.7324-6.7256l.0732-.8545a17.2723,17.2723,0,0,1,2.2344-6.9453,13.0267,13.0267,0,0,1,4.6992-4.7979,11.7726,11.7726,0,0,1,6.3965-1.5869,9.2461,9.2461,0,0,1,6.86,2.8438,10.0487,10.0487,0,0,1,2.5635,7.1416h-5.42a5.901,5.901,0,0,0-1.1113-3.7109,4.067,4.067,0,0,0-3.21-1.5381,5.8623,5.8623,0,0,0-5.3467,2.8809q-1.9541,2.9795-2.1,8.3984Q851.6851,701.68,856.3975,701.7764Z"/><path d="M883.4727,673.1631l-1.123,6.4209h4.5166l-.7568,4.3945h-4.541l-2.49,14.7949a5.0185,5.0185,0,0,0-.0244,1.0986q.1465,1.5879,1.9531,1.66a11.0407,11.0407,0,0,0,2.0508-.22l-.3906,4.6387a13.27,13.27,0,0,1-3.6377.5127A5.3991,5.3991,0,0,1,874.501,704.4a7.4561,7.4561,0,0,1-1.1846-5.334l2.4658-15.0879h-4.2236l.7813-4.3945h4.1992l1.123-6.4209Z"/><path class="a" d="M669.5,407A107.5,107.5,0,1,1,562,299.5,107.5391,107.5391,0,0,1,669.5,407Z"/><path class="a" d="M424.5,334.5h110v30h-110Zm0,115h110v30h-110Zm0-60h105v30h-105Zm-70-55h70v145h-70Z"/><path class="b" d="M669.5,407A107.5,107.5,0,1,1,562,299.5,107.5392,107.5392,0,0,1,669.5,407Z"/><path d="M424.5,334.5h110v30h-110Zm0,115h110v30h-110Zm0-60h105v30h-105Zm-70-55h70v145h-70Z"/><path class="c" d="M564.5,339.5h15v10h-15Zm0,25h10v10h-10Zm-10-25h10v60h-10Z"/><path class="c" d="M564.5,419.5h15v10h-15Zm0,25h10v10h-10Zm-10-25h10v60h-10Z"/></svg>