<svg xmlns="http://www.w3.org/2000/svg" viewBox="0 0 1024 768"><defs><style>.a{fill:red;}</style></defs><title>Slide S</title><path d="M337.5371,96.4375h-16.91L317.6738,106H304.49l18.7734-51.1875h11.6016L353.7793,106H340.5254ZM323.58,86.91H334.584l-5.52-17.7539Z"/><path d="M355.4668,86.6992q0-9.0352,3.9023-14.2383a12.8449,12.8449,0,0,1,10.8984-5.2031,10.9251,10.9251,0,0,1,8.5781,4.0078V52h11.8828v54H380.0762l-.5977-4.0781a11.22,11.22,0,0,1-9.2812,4.7813A12.8216,12.8216,0,0,1,359.4395,101.5Q355.4661,96.2969,355.4668,86.6992Zm11.8477.7383q0,10.125,5.9063,10.125a5.832,5.832,0,0,0,5.625-3.3047V79.7734a5.6757,5.6757,0,0,0-5.5547-3.375q-5.4844,0-5.9414,8.8594Z"/><path d="M408.6582,67.9609l.3867,4.4648a13.0778,13.0778,0,0,1,10.8633-5.168q7.2063,0,9.7383,5.73a12.6594,12.6594,0,0,1,11.18-5.73q11.5664,0,11.8828,13.9922V106H440.8262V81.9883a7.2554,7.2554,0,0,0-.9844-4.2539q-.9844-1.3359-3.5859-1.3359a5.6128,5.6128,0,0,0-5.2383,3.1289l.0352.4922V106H419.17V82.0586a7.622,7.622,0,0,0-.9492-4.3242q-.9492-1.3359-3.6211-1.3359a5.6817,5.6817,0,0,0-5.2031,3.1289V106H397.5488V67.9609Z"/><path d="M457.9824,86.6289a22.4512,22.4512,0,0,1,2.2148-10.1426,15.8389,15.8389,0,0,1,6.3633-6.8379,19.1631,19.1631,0,0,1,9.7383-2.3906q8.543,0,13.4648,5.291t4.9219,14.3965v.4219q0,8.8945-4.9395,14.1152t-13.377,5.2207q-8.1211,0-13.043-4.8691t-5.3086-13.2012Zm11.8477.7383q0,5.2734,1.6523,7.7344a5.5042,5.5042,0,0,0,4.8867,2.4609q6.3281,0,6.4688-9.7383V86.6289q0-10.23-6.5391-10.23-5.9414,0-6.4336,8.8242Z"/><path d="M510.7871,67.9609l.3867,4.4648a12.9,12.9,0,0,1,10.8633-5.168q5.9414,0,8.877,3.5508t3.041,10.6875V106H522.0723V81.9883a6.4191,6.4191,0,0,0-1.16-4.2363q-1.16-1.3535-4.2187-1.3535a5.65,5.65,0,0,0-5.168,2.7422V106H499.6777V67.9609Z"/><path d="M540.4238,58.1523a5.2881,5.2881,0,0,1,1.8281-4.1484,7.773,7.773,0,0,1,9.4922,0,5.6209,5.6209,0,0,1,0,8.2969,7.773,7.773,0,0,1-9.4922,0A5.2881,5.2881,0,0,1,540.4238,58.1523ZM553.01,106H541.127V67.9609H553.01Z"/><path d="M574.1035,58.5039v9.457h6.2578v8.2266h-6.2578V93.59a4.4432,4.4432,0,0,0,.7734,2.9883q.7734.8438,3.0586.8438a17.38,17.38,0,0,0,2.9531-.2109v8.4727a21.8651,21.8651,0,0,1-6.68,1.02q-6.1172,0-9.0352-2.8828t-2.918-8.7539V76.1875h-4.8516V67.9609h4.8516v-9.457Z"/><path d="M584.9316,58.1523a5.2881,5.2881,0,0,1,1.8281-4.1484,7.773,7.773,0,0,1,9.4922,0,5.6209,5.6209,0,0,1,0,8.2969,7.773,7.773,0,0,1-9.4922,0A5.2881,5.2881,0,0,1,584.9316,58.1523ZM597.5176,106H585.6348V67.9609h11.8828Z"/><path d="M603.3184,86.6289a22.4512,22.4512,0,0,1,2.2148-10.1426,15.8389,15.8389,0,0,1,6.3633-6.8379,19.1644,19.1644,0,0,1,9.7383-2.3906q8.543,0,13.4648,5.291t4.9219,14.3965v.4219q0,8.8945-4.9395,14.1152t-13.377,5.2207q-8.1211,0-13.043-4.8691t-5.3086-13.2012Zm11.8477.7383q0,5.2734,1.6523,7.7344a5.5047,5.5047,0,0,0,4.8867,2.4609q6.3281,0,6.4688-9.7383V86.6289q0-10.23-6.5391-10.23-5.9414,0-6.4336,8.8242Z"/><path d="M656.123,67.9609l.3867,4.4648a12.9,12.9,0,0,1,10.8633-5.168q5.9414,0,8.877,3.5508t3.041,10.6875V106H667.4082V81.9883a6.4191,6.4191,0,0,0-1.16-4.2363q-1.16-1.3535-4.2187-1.3535a5.65,5.65,0,0,0-5.168,2.7422V106H645.0137V67.9609Z"/><path d="M705.7637,95.3125a2.7371,2.7371,0,0,0-1.582-2.4258,24.0642,24.0642,0,0,0-6.0117-1.8984,27.4134,27.4134,0,0,1-7.3125-2.584,12.2488,12.2488,0,0,1-4.3945-3.8848,9.2765,9.2765,0,0,1-1.5117-5.2383,10.5136,10.5136,0,0,1,4.3242-8.6309q4.3242-3.3926,11.32-3.3926,7.5234,0,12.0938,3.41a10.664,10.664,0,0,1,4.57,8.9648H705.377q0-4.57-4.8164-4.57A4.7744,4.7744,0,0,0,697.4316,76.1a3.2111,3.2111,0,0,0-1.2656,2.584,2.9475,2.9475,0,0,0,1.5469,2.5664,14.6158,14.6158,0,0,0,4.9395,1.6172,42.6847,42.6847,0,0,1,5.959,1.5117q8.5781,2.9531,8.5781,10.582a9.9622,9.9622,0,0,1-4.623,8.4727q-4.623,3.27-11.9707,3.27a20.6888,20.6888,0,0,1-8.7187-1.7578,14.5794,14.5794,0,0,1-5.9766-4.7812,10.8267,10.8267,0,0,1-2.1445-6.3633H694.83a4.5786,4.5786,0,0,0,1.7578,3.85,7.2306,7.2306,0,0,0,4.3242,1.2129,5.6881,5.6881,0,0,0,3.6387-.9844A3.1489,3.1489,0,0,0,705.7637,95.3125Z"/><path d="M85.3394,230.0078H71.24v-5.2637H85.3394Z"/><path d="M126.9385,234.8965H111.792L108.623,244H101.56l14.7705-39.1016h6.0962L137.2241,244h-7.09Zm-13.24-5.4785h11.333l-5.6665-16.2207Z"/><path d="M158.3325,241.1533q-2.874,3.3838-8.1641,3.3838-4.7271,0-7.1572-2.7656t-2.43-8.0039V214.9424h6.5259v18.7451q0,5.5327,4.5923,5.5322,4.7534,0,6.4185-3.4111V214.9424h6.5259V244h-6.15Z"/><path d="M179.4678,207.8789v7.0635h5.1294v4.834h-5.1294v16.2207a3.5716,3.5716,0,0,0,.6577,2.4033,3.0526,3.0526,0,0,0,2.35.7383,10.07,10.07,0,0,0,2.2827-.2676V243.92a16.1,16.1,0,0,1-4.2969.6172q-7.52,0-7.52-8.2988V219.7764h-4.78v-4.834h4.78v-7.0635Z"/><path d="M196.0107,218.1113a10.2138,10.2138,0,0,1,8.0835-3.7061q9.2915,0,9.4263,10.6084V244h-6.5259V225.2549q0-3.0073-1.3022-4.2568a5.3283,5.3283,0,0,0-3.8271-1.248,6.2872,6.2872,0,0,0-5.8545,3.49V244h-6.5259V202.75h6.5259Z"/><path d="M232.91,244.5371A13.5019,13.5019,0,0,1,222.853,240.63q-3.854-3.9082-3.854-10.4072v-.8047a17.445,17.445,0,0,1,1.6782-7.7754,12.7774,12.7774,0,0,1,4.7134-5.33,12.457,12.457,0,0,1,6.7676-1.9072q5.9348,0,9.1714,3.7861,3.2358,3.7881,3.2358,10.7158v2.6318H225.5786a8.7254,8.7254,0,0,0,2.4033,5.6934,7.2167,7.2167,0,0,0,5.3042,2.0947,8.8345,8.8345,0,0,0,7.3047-3.626l3.5181,3.3574a11.7554,11.7554,0,0,1-4.6592,4.042A14.5869,14.5869,0,0,1,232.91,244.5371Zm-.7788-24.8945a5.4973,5.4973,0,0,0-4.3369,1.8789,9.7449,9.7449,0,0,0-2.1084,5.2373H238.12v-.4834a7.9365,7.9365,0,0,0-1.7456-4.9551A5.4528,5.4528,0,0,0,232.1313,219.6426Z"/><path d="M255.6836,214.9424l.188,3.3564a10.4484,10.4484,0,0,1,8.4595-3.8936q9.0769,0,9.2383,10.3936V244h-6.5259V225.1738a5.9831,5.9831,0,0,0-1.1948-4.0947,5.0263,5.0263,0,0,0-3.9077-1.3291,6.2883,6.2883,0,0,0-5.8813,3.5713V244h-6.5259V214.9424Z"/><path d="M288.3936,207.8789v7.0635h5.1294v4.834h-5.1294v16.2207a3.5716,3.5716,0,0,0,.6577,2.4033,3.0526,3.0526,0,0,0,2.35.7383,10.07,10.07,0,0,0,2.2827-.2676V243.92a16.1,16.1,0,0,1-4.2969.6172q-7.52,0-7.52-8.2988V219.7764h-4.78v-4.834h4.78v-7.0635Z"/><path d="M298.5181,207.3965a3.463,3.463,0,0,1,.9536-2.498,3.6014,3.6014,0,0,1,2.7256-.9941,3.648,3.648,0,0,1,2.7393.9941,3.437,3.437,0,0,1,.9668,2.498,3.3587,3.3587,0,0,1-.9668,2.457,3.6759,3.6759,0,0,1-2.7393.98,3.6287,3.6287,0,0,1-2.7256-.98A3.3837,3.3837,0,0,1,298.5181,207.3965ZM305.4468,244h-6.5259V214.9424h6.5259Z"/><path d="M324.4873,239.3271a5.8991,5.8991,0,0,0,4.0552-1.4229,4.8648,4.8648,0,0,0,1.7188-3.5186h6.15a9.5906,9.5906,0,0,1-1.6919,5.0625,11.111,11.111,0,0,1-4.2969,3.72,12.8179,12.8179,0,0,1-5.8545,1.3691A12.3909,12.3909,0,0,1,314.9,240.59q-3.572-3.9492-3.5718-10.9043v-.6709q0-6.6328,3.5449-10.6211a12.275,12.275,0,0,1,9.668-3.9883,11.9357,11.9357,0,0,1,8.4458,3.0215,10.8192,10.8192,0,0,1,3.4243,7.9355h-6.15a5.9767,5.9767,0,0,0-1.7051-4.1084,5.4879,5.4879,0,0,0-4.0688-1.6113,5.7408,5.7408,0,0,0-4.8877,2.2959q-1.719,2.2954-1.7456,6.9688v1.0479q0,4.7256,1.7051,7.0488A5.7384,5.7384,0,0,0,324.4873,239.3271Z"/><path d="M358.7012,244a10.0589,10.0589,0,0,1-.752-2.7129,10.9762,10.9762,0,0,1-14.7705.752,7.9863,7.9863,0,0,1-2.7661-6.1758,8.252,8.252,0,0,1,3.4512-7.1309q3.45-2.4844,9.8691-2.4844h4.0015v-1.9062a5.0914,5.0914,0,0,0-1.2622-3.6123,5.0071,5.0071,0,0,0-3.84-1.3564,5.7466,5.7466,0,0,0-3.6523,1.1152,3.4477,3.4477,0,0,0-1.4233,2.833H341.03a7.2432,7.2432,0,0,1,1.5845-4.4717,10.5639,10.5639,0,0,1,4.3105-3.2627,15.1312,15.1312,0,0,1,6.0825-1.1816,12.1929,12.1929,0,0,1,8.1372,2.5645,9.1482,9.1482,0,0,1,3.1152,7.2109v13.1055a14.8411,14.8411,0,0,0,1.1011,6.2568V244Zm-7.17-4.6992a7.4189,7.4189,0,0,0,3.6387-.94,6.2743,6.2743,0,0,0,2.5649-2.5244v-5.4785h-3.5181a9.6249,9.6249,0,0,0-5.4517,1.2617,4.09,4.09,0,0,0-1.8262,3.5723,3.8124,3.8124,0,0,0,1.2485,2.9941A4.8367,4.8367,0,0,0,351.5308,239.3008Z"/><path d="M379.2725,207.8789v7.0635h5.1294v4.834h-5.1294v16.2207A3.5716,3.5716,0,0,0,379.93,238.4a3.0526,3.0526,0,0,0,2.35.7383,10.07,10.07,0,0,0,2.2827-.2676V243.92a16.1,16.1,0,0,1-4.2969.6172q-7.52,0-7.52-8.2988V219.7764h-4.78v-4.834h4.78v-7.0635Z"/><path d="M402.18,244.5371A13.5019,13.5019,0,0,1,392.123,240.63q-3.854-3.9082-3.854-10.4072v-.8047a17.445,17.445,0,0,1,1.6782-7.7754,12.7774,12.7774,0,0,1,4.7134-5.33,12.457,12.457,0,0,1,6.7676-1.9072q5.9348,0,9.1714,3.7861,3.2358,3.7881,3.2358,10.7158v2.6318H394.8486a8.7254,8.7254,0,0,0,2.4033,5.6934,7.2167,7.2167,0,0,0,5.3042,2.0947,8.8345,8.8345,0,0,0,7.3047-3.626l3.5181,3.3574a11.7554,11.7554,0,0,1-4.6592,4.042A14.5869,14.5869,0,0,1,402.18,244.5371Zm-.7788-24.8945a5.4973,5.4973,0,0,0-4.3369,1.8789,9.7449,9.7449,0,0,0-2.1084,5.2373H407.39v-.4834a7.9365,7.9365,0,0,0-1.7456-4.9551A5.4528,5.4528,0,0,0,401.4014,219.6426Z"/><path d="M458.12,235.0039l4.6191-20.0615h6.3647L461.1816,244h-5.3711l-6.23-19.9531L443.457,244h-5.3711l-7.9492-29.0576h6.3647l4.7,19.8467,5.9619-19.8467h4.9146Z"/><path d="M479.9,218.1113a10.2138,10.2138,0,0,1,8.0835-3.7061q9.2915,0,9.4263,10.6084V244h-6.5259V225.2549q0-3.0073-1.3022-4.2568a5.3283,5.3283,0,0,0-3.8271-1.248,6.2872,6.2872,0,0,0-5.8545,3.49V244H473.374V202.75H479.9Z"/><path d="M516.8,244.5371a13.5023,13.5023,0,0,1-10.0576-3.9072q-3.854-3.9082-3.854-10.4072v-.8047a17.445,17.445,0,0,1,1.6782-7.7754,12.7774,12.7774,0,0,1,4.7134-5.33,12.4575,12.4575,0,0,1,6.7681-1.9072q5.9341,0,9.1709,3.7861,3.2358,3.7881,3.2354,10.7158v2.6318H509.4678a8.7254,8.7254,0,0,0,2.4033,5.6934,7.2179,7.2179,0,0,0,5.3037,2.0947,8.8326,8.8326,0,0,0,7.3047-3.626l3.5186,3.3574a11.7554,11.7554,0,0,1-4.6592,4.042A14.5893,14.5893,0,0,1,516.8,244.5371Zm-.7793-24.8945a5.498,5.498,0,0,0-4.3369,1.8789,9.7449,9.7449,0,0,0-2.1084,5.2373h12.4336v-.4834a7.9306,7.9306,0,0,0-1.7451-4.9551A5.4521,5.4521,0,0,0,516.0205,219.6426Z"/><path d="M539.5732,214.9424l.1885,3.3564a10.4474,10.4474,0,0,1,8.459-3.8936q9.0776,0,9.2383,10.3936V244h-6.5254V225.1738a5.9856,5.9856,0,0,0-1.1953-4.0947A5.0267,5.0267,0,0,0,545.83,219.75a6.2886,6.2886,0,0,0-5.8809,3.5713V244h-6.5254V214.9424Z"/><path d="M576.9023,244.5371a13.5008,13.5008,0,0,1-10.0576-3.9072q-3.854-3.9082-3.8545-10.4072v-.8047a17.4385,17.4385,0,0,1,1.6787-7.7754,12.7785,12.7785,0,0,1,4.7139-5.33,12.4547,12.4547,0,0,1,6.7676-1.9072q5.9341,0,9.1709,3.7861,3.2358,3.7881,3.2354,10.7158v2.6318H569.57a8.7278,8.7278,0,0,0,2.4033,5.6934,7.2164,7.2164,0,0,0,5.3037,2.0947,8.8326,8.8326,0,0,0,7.3047-3.626l3.5186,3.3574a11.7554,11.7554,0,0,1-4.6592,4.042A14.5893,14.5893,0,0,1,576.9023,244.5371Zm-.7793-24.8945a5.498,5.498,0,0,0-4.3369,1.8789,9.7487,9.7487,0,0,0-2.1084,5.2373h12.4336v-.4834a7.9306,7.9306,0,0,0-1.7451-4.9551A5.4521,5.4521,0,0,0,576.123,219.6426Z"/><path d="M603.5146,235.7285l6.1494-20.7861h6.7412L606.334,244h-5.666l-10.1514-29.0576h6.7676Z"/><path d="M633.2715,244.5371a13.5008,13.5008,0,0,1-10.0576-3.9072q-3.854-3.9082-3.8545-10.4072v-.8047a17.4385,17.4385,0,0,1,1.6787-7.7754,12.7785,12.7785,0,0,1,4.7139-5.33,12.4547,12.4547,0,0,1,6.7676-1.9072q5.9341,0,9.1709,3.7861,3.2358,3.7881,3.2354,10.7158v2.6318H625.9395a8.7278,8.7278,0,0,0,2.4033,5.6934,7.2164,7.2164,0,0,0,5.3037,2.0947,8.8326,8.8326,0,0,0,7.3047-3.626l3.5186,3.3574a11.7554,11.7554,0,0,1-4.6592,4.042A14.5893,14.5893,0,0,1,633.2715,244.5371Zm-.7793-24.8945a5.498,5.498,0,0,0-4.3369,1.8789,9.7487,9.7487,0,0,0-2.1084,5.2373H638.48v-.4834a7.9306,7.9306,0,0,0-1.7451-4.9551A5.4521,5.4521,0,0,0,632.4922,219.6426Z"/><path d="M665.2012,220.9043a16.2141,16.2141,0,0,0-2.6582-.2148q-4.4854,0-6.043,3.4375V244h-6.5254V214.9424h6.23l.1611,3.249a7.3539,7.3539,0,0,1,6.5527-3.7861,6.1221,6.1221,0,0,1,2.31.376Z"/><path d="M708.4658,229.7666q0,6.7412-3.0615,10.7559a10.6354,10.6354,0,0,1-15.8721.8721v13.7773h-6.5254V214.9424h6.0156l.2686,2.9541a9.5866,9.5866,0,0,1,7.8154-3.4912,9.9033,9.9033,0,0,1,8.3379,3.9609q3.022,3.9624,3.0215,10.9971Zm-6.499-.5635a12.1178,12.1178,0,0,0-1.7324-6.9023A5.6283,5.6283,0,0,0,695.28,219.75a6.0061,6.0061,0,0,0-5.748,3.3027v12.8906a6.0607,6.0607,0,0,0,5.8008,3.3838,5.626,5.626,0,0,0,4.875-2.5107Q701.9658,234.3057,701.9668,229.2031Z"/><path d="M712.7617,229.2031a17.1307,17.1307,0,0,1,1.6924-7.6943,12.3482,12.3482,0,0,1,4.7529-5.2637,13.3936,13.3936,0,0,1,7.0371-1.84,12.6974,12.6974,0,0,1,9.5469,3.7861,14.901,14.901,0,0,1,3.9609,10.0449l.0273,1.53a17.2817,17.2817,0,0,1-1.6523,7.6807,12.1993,12.1993,0,0,1-4.7266,5.2363,13.4832,13.4832,0,0,1-7.1035,1.8535,12.6022,12.6022,0,0,1-9.8418-4.0957q-3.6929-4.0957-3.6934-10.916Zm6.5264.5635a11.7129,11.7129,0,0,0,1.8525,7.0225,6.0253,6.0253,0,0,0,5.1563,2.5381,5.9587,5.9587,0,0,0,5.1436-2.5781q1.8384-2.5781,1.8389-7.5459a11.56,11.56,0,0,0-1.8926-6.9824,6.3824,6.3824,0,0,0-10.2187-.041Q719.2886,224.7183,719.2881,229.7666Z"/><path d="M761.585,236.1045a2.96,2.96,0,0,0-1.4365-2.6592,15.352,15.352,0,0,0-4.7666-1.6113,24.4809,24.4809,0,0,1-5.5586-1.7715q-4.8882-2.3643-4.8887-6.8486a7.7343,7.7343,0,0,1,3.17-6.2842,12.5284,12.5284,0,0,1,8.0566-2.5244,13.0363,13.0363,0,0,1,8.4189,2.5781,8.1833,8.1833,0,0,1,3.209,6.6865h-6.5264a4.0192,4.0192,0,0,0-1.3965-3.1279,5.3476,5.3476,0,0,0-3.7051-1.249,5.7837,5.7837,0,0,0-3.5049.9941,3.1319,3.1319,0,0,0-1.3564,2.6582,2.6445,2.6445,0,0,0,1.2617,2.3359,17.33,17.33,0,0,0,5.1035,1.6787,24.1521,24.1521,0,0,1,6.0283,2.0146,8.5457,8.5457,0,0,1,3.25,2.8066,7.155,7.155,0,0,1,1.0605,3.9746,7.5706,7.5706,0,0,1-3.249,6.3506,13.8607,13.8607,0,0,1-8.5137,2.4307,15.03,15.03,0,0,1-6.3652-1.2891,10.4741,10.4741,0,0,1-4.35-3.5449,8.3874,8.3874,0,0,1-1.5586-4.8613h6.3379a4.5975,4.5975,0,0,0,1.7461,3.5586,6.7805,6.7805,0,0,0,4.27,1.249,6.6043,6.6043,0,0,0,3.9219-.98A3.0336,3.0336,0,0,0,761.585,236.1045Z"/><path d="M789.9707,236.1045a2.96,2.96,0,0,0-1.4365-2.6592,15.352,15.352,0,0,0-4.7666-1.6113,24.4809,24.4809,0,0,1-5.5586-1.7715q-4.8882-2.3643-4.8887-6.8486a7.7343,7.7343,0,0,1,3.17-6.2842,12.5284,12.5284,0,0,1,8.0566-2.5244,13.0363,13.0363,0,0,1,8.4189,2.5781,8.1833,8.1833,0,0,1,3.209,6.6865h-6.5264a4.0192,4.0192,0,0,0-1.3965-3.1279,5.3476,5.3476,0,0,0-3.7051-1.249,5.7837,5.7837,0,0,0-3.5049.9941,3.1319,3.1319,0,0,0-1.3564,2.6582,2.6445,2.6445,0,0,0,1.2617,2.3359,17.33,17.33,0,0,0,5.1035,1.6787,24.1521,24.1521,0,0,1,6.0283,2.0146,8.5457,8.5457,0,0,1,3.25,2.8066,7.155,7.155,0,0,1,1.0605,3.9746,7.5706,7.5706,0,0,1-3.249,6.3506,13.8607,13.8607,0,0,1-8.5137,2.4307,15.03,15.03,0,0,1-6.3652-1.2891,10.4741,10.4741,0,0,1-4.35-3.5449,8.3874,8.3874,0,0,1-1.5586-4.8613h6.3379a4.5975,4.5975,0,0,0,1.7461,3.5586,6.7805,6.7805,0,0,0,4.27,1.249,6.6043,6.6043,0,0,0,3.9219-.98A3.0336,3.0336,0,0,0,789.9707,236.1045Z"/><path d="M802.084,207.3965a3.4626,3.4626,0,0,1,.9531-2.498,3.6006,3.6006,0,0,1,2.7256-.9941,3.648,3.648,0,0,1,2.7393.9941,3.437,3.437,0,0,1,.9668,2.498,3.3587,3.3587,0,0,1-.9668,2.457,3.6759,3.6759,0,0,1-2.7393.98,3.6279,3.6279,0,0,1-2.7256-.98A3.3833,3.3833,0,0,1,802.084,207.3965ZM809.0117,244h-6.5254V214.9424h6.5254Z"/><path d="M841.6143,229.7666q0,6.7676-3.0215,10.7686a9.84,9.84,0,0,1-8.3115,4.002,9.4787,9.4787,0,0,1-7.9492-3.68L822.01,244h-5.9082V202.75h6.5254v14.9854a9.4494,9.4494,0,0,1,7.6006-3.33,9.9531,9.9531,0,0,1,8.3525,3.9482q3.0337,3.9463,3.0342,11.0371Zm-6.5264-.5635q0-4.7271-1.6641-7.09a5.5438,5.5438,0,0,0-4.834-2.3633,6.06,6.06,0,0,0-5.9629,3.7051v11.9785a6.1235,6.1235,0,0,0,6.0156,3.7861,5.5028,5.5028,0,0,0,4.7266-2.2822q1.6655-2.2822,1.7188-6.9023Z"/><path d="M854.0215,244h-6.5254V202.75h6.5254Z"/><path d="M873.9219,244.5371a13.5008,13.5008,0,0,1-10.0576-3.9072q-3.854-3.9082-3.8545-10.4072v-.8047a17.4385,17.4385,0,0,1,1.6787-7.7754,12.7785,12.7785,0,0,1,4.7139-5.33,12.4547,12.4547,0,0,1,6.7676-1.9072q5.9341,0,9.1709,3.7861,3.2358,3.7881,3.2354,10.7158v2.6318H866.59a8.7278,8.7278,0,0,0,2.4033,5.6934,7.2164,7.2164,0,0,0,5.3037,2.0947,8.8326,8.8326,0,0,0,7.3047-3.626l3.5186,3.3574a11.7554,11.7554,0,0,1-4.6592,4.042A14.5893,14.5893,0,0,1,873.9219,244.5371Zm-.7793-24.8945a5.498,5.498,0,0,0-4.3369,1.8789,9.7487,9.7487,0,0,0-2.1084,5.2373h12.4336v-.4834a7.9306,7.9306,0,0,0-1.7451-4.9551A5.4521,5.4521,0,0,0,873.1426,219.6426Z"/><path d="M85.3394,296.0078H71.24v-5.2637H85.3394Z"/><path d="M133.6523,270.8984v26.1309a12.7,12.7,0,0,1-3.9878,9.8691q-3.9888,3.6387-10.6216,3.6387-6.7141,0-10.6616-3.585t-3.9478-9.95V270.8984h6.7676v26.1572a8.3088,8.3088,0,0,0,1.9873,5.9893,7.7511,7.7511,0,0,0,5.8545,2.0674q7.8413,0,7.8418-8.2715V270.8984Z"/><path d="M156.56,302.1045a2.9606,2.9606,0,0,0-1.437-2.6592,15.3473,15.3473,0,0,0-4.7666-1.6113,24.4857,24.4857,0,0,1-5.5591-1.7715q-4.8882-2.3643-4.8877-6.8486a7.7347,7.7347,0,0,1,3.1689-6.2842,12.5284,12.5284,0,0,1,8.0566-2.5244,13.0367,13.0367,0,0,1,8.4194,2.5781,8.1819,8.1819,0,0,1,3.209,6.6865h-6.5259a4.0223,4.0223,0,0,0-1.3965-3.1279,5.35,5.35,0,0,0-3.7061-1.249,5.7831,5.7831,0,0,0-3.5044.9941,3.1319,3.1319,0,0,0-1.3564,2.6582,2.6429,2.6429,0,0,0,1.2622,2.3359,17.3152,17.3152,0,0,0,5.1025,1.6787,24.15,24.15,0,0,1,6.0288,2.0146,8.5383,8.5383,0,0,1,3.25,2.8066,7.155,7.155,0,0,1,1.0605,3.9746,7.571,7.571,0,0,1-3.25,6.3506,13.8582,13.8582,0,0,1-8.5132,2.4307,15.0241,15.0241,0,0,1-6.3647-1.2891,10.4709,10.4709,0,0,1-4.3506-3.5449,8.39,8.39,0,0,1-1.5576-4.8613h6.3379a4.5956,4.5956,0,0,0,1.7456,3.5586,6.78,6.78,0,0,0,4.27,1.249,6.6009,6.6009,0,0,0,3.9209-.98A3.0334,3.0334,0,0,0,156.56,302.1045Z"/><path d="M181.4551,310.5371a13.5019,13.5019,0,0,1-10.0571-3.9072q-3.854-3.9082-3.854-10.4072v-.8047a17.445,17.445,0,0,1,1.6782-7.7754,12.7774,12.7774,0,0,1,4.7134-5.33,12.457,12.457,0,0,1,6.7676-1.9072q5.9348,0,9.1714,3.7861,3.2358,3.7881,3.2358,10.7158v2.6318H174.1235a8.7254,8.7254,0,0,0,2.4033,5.6934,7.2167,7.2167,0,0,0,5.3042,2.0947,8.8345,8.8345,0,0,0,7.3047-3.626l3.5181,3.3574a11.7554,11.7554,0,0,1-4.6592,4.042A14.5869,14.5869,0,0,1,181.4551,310.5371Zm-.7788-24.8945a5.4973,5.4973,0,0,0-4.3369,1.8789,9.7449,9.7449,0,0,0-2.1084,5.2373H186.665v-.4834a7.9365,7.9365,0,0,0-1.7456-4.9551A5.4528,5.4528,0,0,0,180.6763,285.6426Z"/><path d="M218.3008,284.1113a10.2138,10.2138,0,0,1,8.0835-3.7061q9.2915,0,9.4263,10.6084V310h-6.5259V291.2549q0-3.0073-1.3022-4.2568a5.3283,5.3283,0,0,0-3.8271-1.248,6.2872,6.2872,0,0,0-5.8545,3.49V310h-6.5259V268.75h6.5259Z"/><path d="M242.417,273.3965a3.463,3.463,0,0,1,.9536-2.498,3.6014,3.6014,0,0,1,2.7256-.9941,3.648,3.648,0,0,1,2.7393.9941,3.437,3.437,0,0,1,.9668,2.498,3.3587,3.3587,0,0,1-.9668,2.457,3.6759,3.6759,0,0,1-2.7393.98,3.6287,3.6287,0,0,1-2.7256-.98A3.3837,3.3837,0,0,1,242.417,273.3965ZM249.3457,310H242.82V280.9424h6.5259Z"/><path d="M255.3076,295.2559q0-6.7676,3.1826-10.8086a10.2108,10.2108,0,0,1,8.4458-4.042,9.5716,9.5716,0,0,1,7.8149,3.4639l.2954-2.9268h5.8813v28.1709a11.7053,11.7053,0,0,1-3.5586,9.0234q-3.5581,3.3047-9.6006,3.3037a15.4829,15.4829,0,0,1-6.2441-1.3291,11.0972,11.0972,0,0,1-4.6323-3.4785l3.0884-3.92a9.3269,9.3269,0,0,0,7.4121,3.5713,7.2129,7.2129,0,0,0,5.1294-1.7588,6.7437,6.7437,0,0,0,1.88-5.17v-1.9609a9.6055,9.6055,0,0,1-7.52,3.1426,10.1893,10.1893,0,0,1-8.3384-4.0547Q255.3074,302.4277,255.3076,295.2559Zm6.499.5645a11.6974,11.6974,0,0,0,1.7861,6.8887,5.742,5.742,0,0,0,4.9546,2.5107,6.2806,6.2806,0,0,0,5.8545-3.3838V289.0527a6.19,6.19,0,0,0-5.8008-3.3027,5.7633,5.7633,0,0,0-5.0083,2.5508Q261.8064,290.8525,261.8066,295.82Z"/><path d="M294.06,284.1113a10.2138,10.2138,0,0,1,8.0835-3.7061q9.2915,0,9.4263,10.6084V310h-6.5259V291.2549q0-3.0073-1.3022-4.2568a5.3283,5.3283,0,0,0-3.8271-1.248,6.2872,6.2872,0,0,0-5.8545,3.49V310h-6.5259V268.75H294.06Z"/><path d="M330.8252,296.0078H316.7261v-5.2637h14.0991Z"/><path d="M349.0063,310.5371a13.5019,13.5019,0,0,1-10.0571-3.9072q-3.854-3.9082-3.854-10.4072v-.8047a17.445,17.445,0,0,1,1.6782-7.7754,12.7774,12.7774,0,0,1,4.7134-5.33,12.457,12.457,0,0,1,6.7676-1.9072q5.9348,0,9.1714,3.7861,3.2358,3.7881,3.2358,10.7158v2.6318H341.6748a8.7254,8.7254,0,0,0,2.4033,5.6934,7.2167,7.2167,0,0,0,5.3042,2.0947,8.8345,8.8345,0,0,0,7.3047-3.626l3.5181,3.3574a11.7554,11.7554,0,0,1-4.6592,4.042A14.5869,14.5869,0,0,1,349.0063,310.5371Zm-.7788-24.8945a5.4973,5.4973,0,0,0-4.3369,1.8789,9.7449,9.7449,0,0,0-2.1084,5.2373h12.4341v-.4834a7.9365,7.9365,0,0,0-1.7456-4.9551A5.4528,5.4528,0,0,0,348.2275,285.6426Z"/><path d="M371.78,280.9424l.188,3.3564a10.4484,10.4484,0,0,1,8.4595-3.8936q9.0769,0,9.2383,10.3936V310H383.14V291.1738a5.9831,5.9831,0,0,0-1.1948-4.0947,5.0263,5.0263,0,0,0-3.9077-1.3291,6.2883,6.2883,0,0,0-5.8813,3.5713V310H365.63V280.9424Z"/><path d="M404.49,273.8789v7.0635h5.1294v4.834H404.49v16.2207a3.5716,3.5716,0,0,0,.6577,2.4033,3.0526,3.0526,0,0,0,2.35.7383,10.07,10.07,0,0,0,2.2827-.2676V309.92a16.1,16.1,0,0,1-4.2969.6172q-7.52,0-7.52-8.2988V285.7764h-4.78v-4.834h4.78v-7.0635Z"/><path d="M429.8145,286.9043a16.22,16.22,0,0,0-2.6587-.2148q-4.4854,0-6.0425,3.4375V310h-6.5259V280.9424h6.23l.1611,3.249a7.3539,7.3539,0,0,1,6.5527-3.7861,6.1239,6.1239,0,0,1,2.31.376Z"/><path d="M431.748,295.2031a17.1305,17.1305,0,0,1,1.6919-7.6943,12.3492,12.3492,0,0,1,4.7534-5.2637,13.3913,13.3913,0,0,1,7.0361-1.84,12.697,12.697,0,0,1,9.5474,3.7861,14.901,14.901,0,0,1,3.9609,10.0449l.0269,1.53a17.2816,17.2816,0,0,1-1.6519,7.6807,12.1962,12.1962,0,0,1-4.7266,5.2363,13.4814,13.4814,0,0,1-7.103,1.8535,12.6032,12.6032,0,0,1-9.8423-4.0957q-3.6929-4.0957-3.6929-10.916Zm6.5259.5635a11.706,11.706,0,0,0,1.853,7.0225,6.0229,6.0229,0,0,0,5.1563,2.5381,5.959,5.959,0,0,0,5.1431-2.5781q1.8391-2.5781,1.8394-7.5459a11.56,11.56,0,0,0-1.8931-6.9824,6.3824,6.3824,0,0,0-10.2187-.041Q438.2737,290.7183,438.2739,295.7666Z"/><path d="M489.729,295.7666q0,6.7412-3.0615,10.7559a10.6349,10.6349,0,0,1-15.8716.8721v13.7773H464.27V280.9424h6.0156l.2686,2.9541a9.5856,9.5856,0,0,1,7.8149-3.4912,9.9042,9.9042,0,0,1,8.3384,3.9609q3.022,3.9624,3.0215,10.9971Zm-6.499-.5635a12.1178,12.1178,0,0,0-1.7324-6.9023,5.6291,5.6291,0,0,0-4.9546-2.5508,6.0042,6.0042,0,0,0-5.7471,3.3027v12.8906a6.0607,6.0607,0,0,0,5.8008,3.3838,5.6257,5.6257,0,0,0,4.8745-2.5107Q483.23,300.3057,483.23,295.2031Z"/><path d="M505.4126,300.6543l5.9082-19.7119h6.9556l-11.5479,33.4619q-2.6587,7.3315-9.0234,7.332a11.6211,11.6211,0,0,1-3.1421-.4863v-5.0732l1.2354.0811a6.3572,6.3572,0,0,0,3.7192-.8994,5.9616,5.9616,0,0,0,1.9741-3.0186l.94-2.4961-10.2051-28.9014h7.0361Z"/><path d="M522.9492,318.8086l-3.5176-2.0947a18.9855,18.9855,0,0,0,2.1348-4.2568,12.6939,12.6939,0,0,0,.6045-3.6924v-5.0752h5.8818l-.0273,4.6992a13.104,13.104,0,0,1-1.4365,5.707A14.1847,14.1847,0,0,1,522.9492,318.8086Z"/><path d="M563.0176,286.9043a16.2141,16.2141,0,0,0-2.6582-.2148q-4.4854,0-6.043,3.4375V310H547.791V280.9424h6.23l.1611,3.249a7.3539,7.3539,0,0,1,6.5527-3.7861,6.1221,6.1221,0,0,1,2.31.376Z"/><path d="M583.6963,310a10.0771,10.0771,0,0,1-.752-2.7129,10.975,10.975,0,0,1-14.77.752,7.9852,7.9852,0,0,1-2.7666-6.1758,8.252,8.252,0,0,1,3.4512-7.1309q3.45-2.4844,9.8691-2.4844h4.001v-1.9062a5.0889,5.0889,0,0,0-1.2617-3.6123,5.006,5.006,0,0,0-3.84-1.3564,5.7456,5.7456,0,0,0-3.6523,1.1152,3.4481,3.4481,0,0,0-1.4238,2.833h-6.5254a7.2426,7.2426,0,0,1,1.584-4.4717,10.5671,10.5671,0,0,1,4.3105-3.2627,15.13,15.13,0,0,1,6.082-1.1816,12.1925,12.1925,0,0,1,8.1377,2.5645,9.1466,9.1466,0,0,1,3.1152,7.2109v13.1055a14.8571,14.8571,0,0,0,1.1006,6.2568V310Zm-7.17-4.6992a7.4189,7.4189,0,0,0,3.6387-.94,6.27,6.27,0,0,0,2.5645-2.5244v-5.4785h-3.5176a9.622,9.622,0,0,0-5.4512,1.2617,4.09,4.09,0,0,0-1.8262,3.5723,3.8121,3.8121,0,0,0,1.248,2.9941A4.8367,4.8367,0,0,0,576.5264,305.3008Z"/><path d="M602.1465,280.9424l.1885,3.3564a10.4474,10.4474,0,0,1,8.459-3.8936q9.0776,0,9.2383,10.3936V310h-6.5254V291.1738a5.9856,5.9856,0,0,0-1.1953-4.0947,5.0267,5.0267,0,0,0-3.9082-1.3291,6.2886,6.2886,0,0,0-5.8809,3.5713V310h-6.5254V280.9424Z"/><path d="M625.4561,295.2559q0-6.7119,3.1152-10.7822a9.9839,9.9839,0,0,1,8.3525-4.0684,9.4842,9.4842,0,0,1,7.4658,3.2227V268.75h6.5254V310h-5.9082l-.3223-3.0078a9.618,9.618,0,0,1-7.8145,3.5449,9.9232,9.9232,0,0,1-8.2578-4.1094Q625.4556,302.32,625.4561,295.2559Zm6.5264.5645a12.094,12.094,0,0,0,1.7051,6.915,5.5334,5.5334,0,0,0,4.8477,2.4844,6.1628,6.1628,0,0,0,5.8545-3.5713V289.24a6.07,6.07,0,0,0-5.8008-3.49,5.5721,5.5721,0,0,0-4.8877,2.5107Q631.9829,290.7715,631.9824,295.82Z"/><path d="M656.501,295.2031a17.1307,17.1307,0,0,1,1.6924-7.6943,12.3482,12.3482,0,0,1,4.7529-5.2637,13.3936,13.3936,0,0,1,7.0371-1.84,12.6974,12.6974,0,0,1,9.5469,3.7861,14.901,14.901,0,0,1,3.9609,10.0449l.0273,1.53a17.2817,17.2817,0,0,1-1.6523,7.6807,12.1993,12.1993,0,0,1-4.7266,5.2363,13.4832,13.4832,0,0,1-7.1035,1.8535,12.6022,12.6022,0,0,1-9.8418-4.0957q-3.6929-4.0957-3.6934-10.916Zm6.5264.5635a11.7129,11.7129,0,0,0,1.8525,7.0225,6.0253,6.0253,0,0,0,5.1563,2.5381,5.9587,5.9587,0,0,0,5.1436-2.5781q1.8384-2.5781,1.8389-7.5459a11.56,11.56,0,0,0-1.8926-6.9824,6.3824,6.3824,0,0,0-10.2187-.041Q663.0278,290.7183,663.0273,295.7666Z"/><path d="M695.1738,280.9424l.1875,3.0342a10.4566,10.4566,0,0,1,8.3789-3.5713q5.8271,0,7.9766,4.458a10.3057,10.3057,0,0,1,8.916-4.458q4.8062,0,7.1563,2.6592,2.35,2.6572,2.4043,7.8418V310H723.667V291.0938a5.783,5.783,0,0,0-1.208-4.0547,5.2924,5.2924,0,0,0-4.002-1.2891,5.435,5.435,0,0,0-3.6387,1.1943,6.3083,6.3083,0,0,0-1.9746,3.1289L712.8711,310h-6.5254V290.8789q-.1348-5.13-5.2373-5.1289a5.7449,5.7449,0,0,0-5.56,3.1953V310h-6.5254V280.9424Z"/><path d="M779.8223,270.8984v26.1309a12.7005,12.7005,0,0,1-3.9883,9.8691q-3.9888,3.6387-10.6211,3.6387-6.7148,0-10.6621-3.585t-3.9473-9.95V270.8984h6.7676v26.1572a8.3128,8.3128,0,0,0,1.9863,5.9893,7.7542,7.7542,0,0,0,5.8555,2.0674q7.8413,0,7.8418-8.2715V270.8984Z"/><path d="M801.44,294.9609h-7.5723V310h-6.7949V270.8984h13.75q6.7676,0,10.4473,3.0371t3.6787,8.7891a11.0055,11.0055,0,0,1-1.8936,6.5723,12.0515,12.0515,0,0,1-5.2773,4.0723l8.7822,16.2822V310h-7.2783Zm-7.5723-5.4785h6.9824a7.7645,7.7645,0,0,0,5.3711-1.7324,6.04,6.04,0,0,0,1.9336-4.74,6.4312,6.4312,0,0,0-1.7861-4.86,7.5917,7.5917,0,0,0-5.3311-1.7725h-7.17Z"/><path d="M828.1895,304.5752H845.94V310H821.3945V270.8984h6.7949Z"/><path d="M866.8066,302.1045a2.96,2.96,0,0,0-1.4365-2.6592,15.352,15.352,0,0,0-4.7666-1.6113,24.4809,24.4809,0,0,1-5.5586-1.7715q-4.8882-2.3643-4.8887-6.8486a7.7343,7.7343,0,0,1,3.17-6.2842,12.5284,12.5284,0,0,1,8.0566-2.5244,13.0363,13.0363,0,0,1,8.4189,2.5781,8.1833,8.1833,0,0,1,3.209,6.6865h-6.5264a4.0192,4.0192,0,0,0-1.3965-3.1279,5.3476,5.3476,0,0,0-3.7051-1.249,5.7837,5.7837,0,0,0-3.5049.9941,3.1319,3.1319,0,0,0-1.3564,2.6582,2.6445,2.6445,0,0,0,1.2617,2.3359,17.33,17.33,0,0,0,5.1035,1.6787,24.1521,24.1521,0,0,1,6.0283,2.0146,8.5457,8.5457,0,0,1,3.25,2.8066,7.155,7.155,0,0,1,1.0605,3.9746,7.5706,7.5706,0,0,1-3.249,6.3506,13.8607,13.8607,0,0,1-8.5137,2.4307,15.03,15.03,0,0,1-6.3652-1.2891,10.4741,10.4741,0,0,1-4.35-3.5449,8.3874,8.3874,0,0,1-1.5586-4.8613h6.3379a4.5975,4.5975,0,0,0,1.7461,3.5586,6.7805,6.7805,0,0,0,4.27,1.249,6.6043,6.6043,0,0,0,3.9219-.98A3.0336,3.0336,0,0,0,866.8066,302.1045Z"/><path d="M85.3394,362.0078H71.24v-5.2637H85.3394Z"/><path d="M105.0513,376V336.8984h11.5479a18.1116,18.1116,0,0,1,9.1982,2.31,15.75,15.75,0,0,1,6.2168,6.5527,20.8051,20.8051,0,0,1,2.2021,9.7217v1.9609A20.71,20.71,0,0,1,132,367.2188a15.554,15.554,0,0,1-6.3105,6.498A18.9469,18.9469,0,0,1,116.3037,376Zm6.7944-33.623v28.1982h4.4312q5.3438,0,8.2041-3.3437t2.9141-9.6006v-2.1758q0-6.3633-2.7661-9.7207t-8.03-3.3574Z"/><path d="M139.1309,361.2031a17.1305,17.1305,0,0,1,1.6919-7.6943,12.3492,12.3492,0,0,1,4.7534-5.2637,13.3913,13.3913,0,0,1,7.0361-1.84,12.697,12.697,0,0,1,9.5474,3.7861,14.901,14.901,0,0,1,3.9609,10.0449l.0269,1.53a17.2816,17.2816,0,0,1-1.6519,7.6807,12.1962,12.1962,0,0,1-4.7266,5.2363,13.4814,13.4814,0,0,1-7.103,1.8535,12.6032,12.6032,0,0,1-9.8423-4.0957q-3.6929-4.0957-3.6929-10.916Zm6.5259.5635a11.706,11.706,0,0,0,1.853,7.0225,6.0229,6.0229,0,0,0,5.1563,2.5381,5.959,5.959,0,0,0,5.1431-2.5781q1.8391-2.5781,1.8394-7.5459a11.56,11.56,0,0,0-1.8931-6.9824,6.3824,6.3824,0,0,0-10.2187-.041Q145.6565,356.7183,145.6567,361.7666Z"/><path d="M177.7222,346.9424l.188,3.3564a10.4484,10.4484,0,0,1,8.4595-3.8936q9.0769,0,9.2383,10.3936V376H189.082V357.1738a5.9831,5.9831,0,0,0-1.1948-4.0947,5.0263,5.0263,0,0,0-3.9077-1.3291,6.2883,6.2883,0,0,0-5.8813,3.5713V376h-6.5259V346.9424Z"/><path d="M200.3882,348.5l-3.33-2.0684a13.4218,13.4218,0,0,0,2.4976-7.4385V334.75h5.72v3.7061a12.3312,12.3312,0,0,1-1.41,5.5723A13.28,13.28,0,0,1,200.3882,348.5Z"/><path d="M219.1333,339.8789v7.0635h5.1294v4.834h-5.1294v16.2207a3.5716,3.5716,0,0,0,.6577,2.4033,3.0526,3.0526,0,0,0,2.35.7383,10.07,10.07,0,0,0,2.2827-.2676V375.92a16.1,16.1,0,0,1-4.2969.6172q-7.52,0-7.52-8.2988V351.7764h-4.78v-4.834h4.78v-7.0635Z"/><path d="M241.7188,361.2559q0-6.7119,3.1152-10.7822a9.9823,9.9823,0,0,1,8.3521-4.0684,9.4849,9.4849,0,0,1,7.4658,3.2227V334.75h6.5259V376H261.27l-.3223-3.0078a9.62,9.62,0,0,1-7.8149,3.5449,9.9226,9.9226,0,0,1-8.2578-4.1094Q241.7185,368.32,241.7188,361.2559Zm6.5259.5645a12.094,12.094,0,0,0,1.7051,6.915,5.534,5.534,0,0,0,4.8477,2.4844,6.1633,6.1633,0,0,0,5.8545-3.5713V355.24a6.0708,6.0708,0,0,0-5.8008-3.49,5.5715,5.5715,0,0,0-4.8877,2.5107Q248.2444,356.7715,248.2446,361.82Z"/><path d="M273.999,339.3965a3.463,3.463,0,0,1,.9536-2.498,3.6014,3.6014,0,0,1,2.7256-.9941,3.648,3.648,0,0,1,2.7393.9941,3.437,3.437,0,0,1,.9668,2.498,3.3587,3.3587,0,0,1-.9668,2.457,3.6759,3.6759,0,0,1-2.7393.98,3.6287,3.6287,0,0,1-2.7256-.98A3.3837,3.3837,0,0,1,273.999,339.3965ZM280.9277,376h-6.5259V346.9424h6.5259Z"/><path d="M304.3188,368.1045a2.9606,2.9606,0,0,0-1.437-2.6592,15.3473,15.3473,0,0,0-4.7666-1.6113,24.4857,24.4857,0,0,1-5.5591-1.7715q-4.8882-2.3643-4.8877-6.8486a7.7347,7.7347,0,0,1,3.1689-6.2842,12.5284,12.5284,0,0,1,8.0566-2.5244,13.0367,13.0367,0,0,1,8.4194,2.5781,8.1819,8.1819,0,0,1,3.209,6.6865h-6.5259A4.0223,4.0223,0,0,0,302.6,352.542a5.35,5.35,0,0,0-3.7061-1.249,5.7831,5.7831,0,0,0-3.5044.9941,3.1319,3.1319,0,0,0-1.3564,2.6582,2.6429,2.6429,0,0,0,1.2622,2.3359,17.3152,17.3152,0,0,0,5.1025,1.6787,24.15,24.15,0,0,1,6.0288,2.0146,8.5383,8.5383,0,0,1,3.25,2.8066,7.155,7.155,0,0,1,1.0605,3.9746,7.571,7.571,0,0,1-3.25,6.3506,13.8582,13.8582,0,0,1-8.5132,2.4307,15.0241,15.0241,0,0,1-6.3647-1.2891,10.4709,10.4709,0,0,1-4.3506-3.5449,8.39,8.39,0,0,1-1.5576-4.8613H293.04a4.5956,4.5956,0,0,0,1.7456,3.5586,6.78,6.78,0,0,0,4.27,1.249,6.6009,6.6009,0,0,0,3.9209-.98A3.0334,3.0334,0,0,0,304.3188,368.1045Z"/><path d="M341.8628,361.7666q0,6.7412-3.0615,10.7559a10.6349,10.6349,0,0,1-15.8716.8721v13.7773h-6.5259V346.9424h6.0156l.2686,2.9541a9.5856,9.5856,0,0,1,7.8149-3.4912,9.9042,9.9042,0,0,1,8.3384,3.9609q3.022,3.9624,3.0215,10.9971Zm-6.499-.5635a12.1178,12.1178,0,0,0-1.7324-6.9023,5.6291,5.6291,0,0,0-4.9546-2.5508,6.0042,6.0042,0,0,0-5.7471,3.3027v12.8906a6.0607,6.0607,0,0,0,5.8008,3.3838,5.6257,5.6257,0,0,0,4.8745-2.5107Q335.3635,366.3057,335.3638,361.2031Z"/><path d="M354.3237,376h-6.5259V334.75h6.5259Z"/><path d="M378.7891,376a10.0589,10.0589,0,0,1-.752-2.7129,10.9762,10.9762,0,0,1-14.7705.752,7.9863,7.9863,0,0,1-2.7661-6.1758,8.252,8.252,0,0,1,3.4512-7.1309q3.45-2.4844,9.8691-2.4844h4.0015v-1.9062a5.0914,5.0914,0,0,0-1.2622-3.6123,5.0071,5.0071,0,0,0-3.84-1.3564,5.7466,5.7466,0,0,0-3.6523,1.1152,3.4477,3.4477,0,0,0-1.4233,2.833h-6.5259a7.2432,7.2432,0,0,1,1.5845-4.4717,10.5639,10.5639,0,0,1,4.3105-3.2627,15.1312,15.1312,0,0,1,6.0825-1.1816,12.1929,12.1929,0,0,1,8.1372,2.5645,9.1482,9.1482,0,0,1,3.1152,7.2109v13.1055a14.8411,14.8411,0,0,0,1.1011,6.2568V376Zm-7.17-4.6992a7.4189,7.4189,0,0,0,3.6387-.94,6.2743,6.2743,0,0,0,2.5649-2.5244v-5.4785h-3.5181a9.6249,9.6249,0,0,0-5.4517,1.2617,4.09,4.09,0,0,0-1.8262,3.5723,3.8124,3.8124,0,0,0,1.2485,2.9941A4.8367,4.8367,0,0,0,371.6187,371.3008Z"/><path d="M401.3477,366.6543l5.9082-19.7119h6.9556l-11.5479,33.4619q-2.6587,7.3315-9.0234,7.332a11.6211,11.6211,0,0,1-3.1421-.4863v-5.0732l1.2354.0811a6.3572,6.3572,0,0,0,3.7192-.8994,5.9616,5.9616,0,0,0,1.9741-3.0186l.94-2.4961-10.2051-28.9014h7.0361Z"/><path d="M449.0161,376a10.0589,10.0589,0,0,1-.752-2.7129,10.9762,10.9762,0,0,1-14.7705.752,7.9863,7.9863,0,0,1-2.7661-6.1758,8.252,8.252,0,0,1,3.4512-7.1309q3.45-2.4844,9.8691-2.4844h4.0015v-1.9062a5.0914,5.0914,0,0,0-1.2622-3.6123,5.0071,5.0071,0,0,0-3.84-1.3564,5.7466,5.7466,0,0,0-3.6523,1.1152,3.4477,3.4477,0,0,0-1.4233,2.833h-6.5259A7.2432,7.2432,0,0,1,432.93,350.85a10.5639,10.5639,0,0,1,4.3105-3.2627,15.1312,15.1312,0,0,1,6.0825-1.1816A12.1929,12.1929,0,0,1,451.46,348.97a9.1482,9.1482,0,0,1,3.1152,7.2109v13.1055a14.8411,14.8411,0,0,0,1.1011,6.2568V376Zm-7.17-4.6992a7.4189,7.4189,0,0,0,3.6387-.94,6.2743,6.2743,0,0,0,2.5649-2.5244v-5.4785h-3.5181a9.6249,9.6249,0,0,0-5.4517,1.2617,4.09,4.09,0,0,0-1.8262,3.5723,3.8124,3.8124,0,0,0,1.2485,2.9941A4.8367,4.8367,0,0,0,441.8457,371.3008Z"/><path d="M467.4658,346.9424l.188,3.3564a10.4484,10.4484,0,0,1,8.4595-3.8936q9.0769,0,9.2383,10.3936V376h-6.5259V357.1738a5.9831,5.9831,0,0,0-1.1948-4.0947,5.0263,5.0263,0,0,0-3.9077-1.3291,6.2883,6.2883,0,0,0-5.8813,3.5713V376h-6.5259V346.9424Z"/><path d="M502.1631,366.6543l5.9082-19.7119h6.9561L503.479,380.4043q-2.6587,7.3315-9.0234,7.332a11.6211,11.6211,0,0,1-3.1421-.4863v-5.0732l1.2354.0811a6.3572,6.3572,0,0,0,3.7192-.8994,5.9616,5.9616,0,0,0,1.9741-3.0186l.94-2.4961-10.2051-28.9014h7.0361Z"/><path d="M550.0732,373.1533q-2.874,3.3838-8.1641,3.3838-4.7271,0-7.1572-2.7656t-2.4307-8.0039V346.9424h6.5264v18.7451q0,5.5327,4.5928,5.5322,4.752,0,6.418-3.4111V346.9424h6.5254V376h-6.1494Z"/><path d="M579.3184,368.1045a2.96,2.96,0,0,0-1.4365-2.6592,15.352,15.352,0,0,0-4.7666-1.6113,24.4809,24.4809,0,0,1-5.5586-1.7715q-4.8882-2.3643-4.8887-6.8486a7.7343,7.7343,0,0,1,3.17-6.2842,12.5284,12.5284,0,0,1,8.0566-2.5244,13.0363,13.0363,0,0,1,8.4189,2.5781,8.1833,8.1833,0,0,1,3.209,6.6865h-6.5264A4.0192,4.0192,0,0,0,577.6,352.542a5.3476,5.3476,0,0,0-3.7051-1.249,5.7837,5.7837,0,0,0-3.5049.9941,3.1319,3.1319,0,0,0-1.3564,2.6582,2.6445,2.6445,0,0,0,1.2617,2.3359,17.33,17.33,0,0,0,5.1035,1.6787,24.1521,24.1521,0,0,1,6.0283,2.0146,8.5457,8.5457,0,0,1,3.25,2.8066,7.155,7.155,0,0,1,1.0605,3.9746,7.5706,7.5706,0,0,1-3.249,6.3506,13.8607,13.8607,0,0,1-8.5137,2.4307,15.03,15.03,0,0,1-6.3652-1.2891,10.4741,10.4741,0,0,1-4.35-3.5449,8.3874,8.3874,0,0,1-1.5586-4.8613h6.3379a4.5975,4.5975,0,0,0,1.7461,3.5586,6.7805,6.7805,0,0,0,4.27,1.249,6.6043,6.6043,0,0,0,3.9219-.98A3.0336,3.0336,0,0,0,579.3184,368.1045Z"/><path d="M604.2148,376.5371a13.5008,13.5008,0,0,1-10.0576-3.9072q-3.854-3.9082-3.8545-10.4072v-.8047a17.4385,17.4385,0,0,1,1.6787-7.7754,12.7785,12.7785,0,0,1,4.7139-5.33,12.4547,12.4547,0,0,1,6.7676-1.9072q5.9341,0,9.1709,3.7861,3.2358,3.7881,3.2354,10.7158v2.6318H596.8828a8.7278,8.7278,0,0,0,2.4033,5.6934,7.2164,7.2164,0,0,0,5.3037,2.0947,8.8326,8.8326,0,0,0,7.3047-3.626l3.5186,3.3574a11.7554,11.7554,0,0,1-4.6592,4.042A14.5893,14.5893,0,0,1,604.2148,376.5371Zm-.7793-24.8945a5.498,5.498,0,0,0-4.3369,1.8789,9.7487,9.7487,0,0,0-2.1084,5.2373h12.4336v-.4834a7.9306,7.9306,0,0,0-1.7451-4.9551A5.4521,5.4521,0,0,0,603.4355,351.6426Z"/><path d="M636.1445,352.9043a16.2141,16.2141,0,0,0-2.6582-.2148q-4.4854,0-6.043,3.4375V376H620.918V346.9424h6.23l.1611,3.249a7.3539,7.3539,0,0,1,6.5527-3.7861,6.1221,6.1221,0,0,1,2.31.376Z"/><path d="M653.9775,339.3965a3.4626,3.4626,0,0,1,.9531-2.498,3.6006,3.6006,0,0,1,2.7256-.9941,3.648,3.648,0,0,1,2.7393.9941,3.437,3.437,0,0,1,.9668,2.498,3.3587,3.3587,0,0,1-.9668,2.457,3.6759,3.6759,0,0,1-2.7393.98,3.6279,3.6279,0,0,1-2.7256-.98A3.3833,3.3833,0,0,1,653.9775,339.3965ZM660.9053,376H654.38V346.9424h6.5254Z"/><path d="M674.0654,346.9424l.1885,3.3564a10.4474,10.4474,0,0,1,8.459-3.8936q9.0776,0,9.2383,10.3936V376h-6.5254V357.1738a5.9856,5.9856,0,0,0-1.1953-4.0947,5.0267,5.0267,0,0,0-3.9082-1.3291,6.2886,6.2886,0,0,0-5.8809,3.5713V376H667.916V346.9424Z"/><path d="M700.8936,376V351.7764h-4.4307v-4.834h4.4307v-2.6592q0-4.834,2.6855-7.4648t7.52-2.6328a15.0879,15.0879,0,0,1,3.6523.4844l-.1611,5.1016a12.9052,12.9052,0,0,0-2.498-.2148q-4.6729,0-4.6719,4.8076v2.5781h5.9082v4.834H707.42V376Z"/><path d="M716.8721,361.2031a17.1307,17.1307,0,0,1,1.6924-7.6943,12.3482,12.3482,0,0,1,4.7529-5.2637,13.3936,13.3936,0,0,1,7.0371-1.84,12.6974,12.6974,0,0,1,9.5469,3.7861,14.901,14.901,0,0,1,3.9609,10.0449l.0273,1.53a17.2817,17.2817,0,0,1-1.6523,7.6807,12.1993,12.1993,0,0,1-4.7266,5.2363,13.4832,13.4832,0,0,1-7.1035,1.8535,12.6022,12.6022,0,0,1-9.8418-4.0957q-3.6929-4.0957-3.6934-10.916Zm6.5264.5635a11.7129,11.7129,0,0,0,1.8525,7.0225,6.0253,6.0253,0,0,0,5.1563,2.5381,5.9587,5.9587,0,0,0,5.1436-2.5781q1.8384-2.5781,1.8389-7.5459a11.56,11.56,0,0,0-1.8926-6.9824,6.3824,6.3824,0,0,0-10.2187-.041Q723.3989,356.7183,723.3984,361.7666Z"/><path d="M85.3394,428.0078H71.24v-5.2637H85.3394Z"/><path d="M133.6523,402.8984v26.1309a12.7,12.7,0,0,1-3.9878,9.8691q-3.9888,3.6387-10.6216,3.6387-6.7141,0-10.6616-3.585t-3.9478-9.95V402.8984h6.7676v26.1572a8.3088,8.3088,0,0,0,1.9873,5.9893,7.7548,7.7548,0,0,0,5.8545,2.0674q7.8413,0,7.8418-8.2715V402.8984Z"/><path d="M156.56,434.1045a2.96,2.96,0,0,0-1.437-2.6592,15.2958,15.2958,0,0,0-4.7666-1.6113,24.4857,24.4857,0,0,1-5.5591-1.7715q-4.8882-2.3643-4.8877-6.8486a7.7333,7.7333,0,0,1,3.1689-6.2842,12.5284,12.5284,0,0,1,8.0566-2.5244,13.0367,13.0367,0,0,1,8.4194,2.5781,8.1819,8.1819,0,0,1,3.209,6.6865h-6.5259a4.0209,4.0209,0,0,0-1.3965-3.1279,5.35,5.35,0,0,0-3.7061-1.249,5.7766,5.7766,0,0,0-3.5044.9941,3.1307,3.1307,0,0,0-1.3564,2.6582,2.6429,2.6429,0,0,0,1.2622,2.3359,17.3152,17.3152,0,0,0,5.1025,1.6787,24.15,24.15,0,0,1,6.0288,2.0146,8.53,8.53,0,0,1,3.25,2.8066,7.155,7.155,0,0,1,1.0605,3.9746,7.571,7.571,0,0,1-3.25,6.3506,13.8518,13.8518,0,0,1-8.5132,2.4307,15.0241,15.0241,0,0,1-6.3647-1.2891,10.4709,10.4709,0,0,1-4.3506-3.5449,8.39,8.39,0,0,1-1.5576-4.8613h6.3379a4.5971,4.5971,0,0,0,1.7456,3.5586,6.78,6.78,0,0,0,4.27,1.249,6.5939,6.5939,0,0,0,3.9209-.98A3.0334,3.0334,0,0,0,156.56,434.1045Z"/><path d="M181.4551,442.5371a13.5019,13.5019,0,0,1-10.0571-3.9072q-3.854-3.9082-3.854-10.4072v-.8047a17.445,17.445,0,0,1,1.6782-7.7754,12.7715,12.7715,0,0,1,4.7134-5.33,12.457,12.457,0,0,1,6.7676-1.9072q5.9348,0,9.1714,3.7861,3.2358,3.7881,3.2358,10.7158v2.6318H174.1235a8.7254,8.7254,0,0,0,2.4033,5.6934,7.2167,7.2167,0,0,0,5.3042,2.0947,8.8345,8.8345,0,0,0,7.3047-3.626l3.5181,3.3574a11.7554,11.7554,0,0,1-4.6592,4.042A14.6,14.6,0,0,1,181.4551,442.5371Zm-.7788-24.8945a5.4942,5.4942,0,0,0-4.3369,1.8789,9.7417,9.7417,0,0,0-2.1084,5.2373H186.665v-.4834a7.9342,7.9342,0,0,0-1.7456-4.9551A5.4561,5.4561,0,0,0,180.6763,417.6426Z"/><path d="M229.231,442a10.0589,10.0589,0,0,1-.752-2.7129,10.9762,10.9762,0,0,1-14.7705.752,7.9878,7.9878,0,0,1-2.7661-6.1758,8.252,8.252,0,0,1,3.4512-7.1309q3.45-2.4829,9.8691-2.4844h4.0015v-1.9062a5.0914,5.0914,0,0,0-1.2622-3.6123,5.0071,5.0071,0,0,0-3.84-1.3564,5.7466,5.7466,0,0,0-3.6523,1.1152,3.449,3.449,0,0,0-1.4233,2.833H211.56a7.2412,7.2412,0,0,1,1.5845-4.4717,10.5639,10.5639,0,0,1,4.3105-3.2627,15.1312,15.1312,0,0,1,6.0825-1.1816,12.198,12.198,0,0,1,8.1372,2.5645,9.1467,9.1467,0,0,1,3.1152,7.2109v13.1055a14.8411,14.8411,0,0,0,1.1011,6.2568V442Zm-7.17-4.6992a7.4189,7.4189,0,0,0,3.6387-.94,6.28,6.28,0,0,0,2.5649-2.5244v-5.4785h-3.5181a9.6249,9.6249,0,0,0-5.4517,1.2617,4.0889,4.0889,0,0,0-1.8262,3.5723,3.8138,3.8138,0,0,0,1.2485,2.9941A4.8367,4.8367,0,0,0,222.0605,437.3008Z"/><path d="M247.6807,412.9424l.188,3.3564a10.4484,10.4484,0,0,1,8.4595-3.8936q9.0769,0,9.2383,10.3936V442h-6.5259V423.1738a5.9831,5.9831,0,0,0-1.1948-4.0947,5.0263,5.0263,0,0,0-3.9077-1.3291,6.2883,6.2883,0,0,0-5.8813,3.5713V442h-6.5259V412.9424Z"/><path d="M280.3906,405.8789v7.0635H285.52v4.834h-5.1294v16.2207a3.5716,3.5716,0,0,0,.6577,2.4033,3.0488,3.0488,0,0,0,2.35.7383,10.07,10.07,0,0,0,2.2827-.2676V441.92a16.1,16.1,0,0,1-4.2969.6172q-7.52,0-7.52-8.2988V417.7764h-4.78v-4.834h4.78v-7.0635Z"/><path d="M290.5151,405.3965a3.463,3.463,0,0,1,.9536-2.498,3.6014,3.6014,0,0,1,2.7256-.9941,3.648,3.648,0,0,1,2.7393.9941,3.437,3.437,0,0,1,.9668,2.498,3.3572,3.3572,0,0,1-.9668,2.457,3.6759,3.6759,0,0,1-2.7393.98,3.6287,3.6287,0,0,1-2.7256-.98A3.3821,3.3821,0,0,1,290.5151,405.3965ZM297.4438,442H290.918V412.9424h6.5259Z"/><path d="M317.2095,428.0078H303.11v-5.2637h14.0991Z"/><path d="M338.8818,434.1045a2.96,2.96,0,0,0-1.437-2.6592,15.2958,15.2958,0,0,0-4.7666-1.6113,24.4857,24.4857,0,0,1-5.5591-1.7715q-4.8882-2.3643-4.8877-6.8486A7.7333,7.7333,0,0,1,325.4,414.93a12.5284,12.5284,0,0,1,8.0566-2.5244,13.0367,13.0367,0,0,1,8.4194,2.5781,8.1819,8.1819,0,0,1,3.209,6.6865H338.56a4.0209,4.0209,0,0,0-1.3965-3.1279,5.35,5.35,0,0,0-3.7061-1.249,5.7766,5.7766,0,0,0-3.5044.9941,3.1307,3.1307,0,0,0-1.3564,2.6582,2.6429,2.6429,0,0,0,1.2622,2.3359,17.3152,17.3152,0,0,0,5.1025,1.6787,24.15,24.15,0,0,1,6.0288,2.0146,8.53,8.53,0,0,1,3.25,2.8066,7.155,7.155,0,0,1,1.0605,3.9746,7.571,7.571,0,0,1-3.25,6.3506,13.8518,13.8518,0,0,1-8.5132,2.4307,15.0241,15.0241,0,0,1-6.3647-1.2891,10.4709,10.4709,0,0,1-4.3506-3.5449,8.39,8.39,0,0,1-1.5576-4.8613h6.3379a4.5971,4.5971,0,0,0,1.7456,3.5586,6.78,6.78,0,0,0,4.27,1.249,6.5939,6.5939,0,0,0,3.9209-.98A3.0334,3.0334,0,0,0,338.8818,434.1045Z"/><path d="M362.9175,437.3271a5.9038,5.9038,0,0,0,4.0552-1.4229,4.8648,4.8648,0,0,0,1.7188-3.5186h6.15a9.5878,9.5878,0,0,1-1.6919,5.0625,11.111,11.111,0,0,1-4.2969,3.72,12.8179,12.8179,0,0,1-5.8545,1.3691,12.3909,12.3909,0,0,1-9.668-3.9473q-3.572-3.9492-3.5718-10.9043v-.6709q0-6.6328,3.5449-10.6211a12.275,12.275,0,0,1,9.668-3.9883,11.9357,11.9357,0,0,1,8.4458,3.0215,10.8192,10.8192,0,0,1,3.4243,7.9355h-6.15a5.9767,5.9767,0,0,0-1.7051-4.1084,5.4879,5.4879,0,0,0-4.0688-1.6113,5.7408,5.7408,0,0,0-4.8877,2.2959q-1.719,2.2954-1.7456,6.9688v1.0479q0,4.7256,1.7051,7.0488A5.7384,5.7384,0,0,0,362.9175,437.3271Z"/><path d="M394.9829,418.9043a16.1134,16.1134,0,0,0-2.6587-.2148q-4.4854,0-6.0425,3.4375V442h-6.5259V412.9424h6.23l.1611,3.249a7.3539,7.3539,0,0,1,6.5527-3.7861,6.1046,6.1046,0,0,1,2.31.376Z"/><path d="M415.6616,442a10.0589,10.0589,0,0,1-.752-2.7129,10.9762,10.9762,0,0,1-14.7705.752,7.9878,7.9878,0,0,1-2.7661-6.1758,8.252,8.252,0,0,1,3.4512-7.1309q3.45-2.4829,9.8691-2.4844h4.0015v-1.9062a5.0914,5.0914,0,0,0-1.2622-3.6123,5.0071,5.0071,0,0,0-3.84-1.3564,5.7466,5.7466,0,0,0-3.6523,1.1152,3.449,3.449,0,0,0-1.4233,2.833h-6.5259a7.2412,7.2412,0,0,1,1.5845-4.4717,10.5639,10.5639,0,0,1,4.3105-3.2627,15.1312,15.1312,0,0,1,6.0825-1.1816,12.198,12.198,0,0,1,8.1372,2.5645,9.1467,9.1467,0,0,1,3.1152,7.2109v13.1055a14.8411,14.8411,0,0,0,1.1011,6.2568V442Zm-7.17-4.6992a7.4189,7.4189,0,0,0,3.6387-.94,6.28,6.28,0,0,0,2.5649-2.5244v-5.4785h-3.5181a9.6249,9.6249,0,0,0-5.4517,1.2617,4.0889,4.0889,0,0,0-1.8262,3.5723,3.8138,3.8138,0,0,0,1.2485,2.9941A4.8367,4.8367,0,0,0,408.4912,437.3008Z"/><path d="M453.501,427.7666q0,6.7412-3.0615,10.7559a10.6349,10.6349,0,0,1-15.8716.8721v13.7773H428.042V412.9424h6.0156l.2686,2.9541a9.5856,9.5856,0,0,1,7.8149-3.4912,9.9042,9.9042,0,0,1,8.3384,3.9609q3.022,3.9624,3.0215,10.9971Zm-6.499-.5635a12.1178,12.1178,0,0,0-1.7324-6.9023,5.6291,5.6291,0,0,0-4.9546-2.5508,6.0042,6.0042,0,0,0-5.7471,3.3027v12.8906a6.0607,6.0607,0,0,0,5.8008,3.3838,5.6257,5.6257,0,0,0,4.8745-2.5107Q447.0017,432.3057,447.002,427.2031Z"/><path d="M459.0332,405.3965a3.463,3.463,0,0,1,.9536-2.498,3.6014,3.6014,0,0,1,2.7256-.9941,3.648,3.648,0,0,1,2.7393.9941,3.437,3.437,0,0,1,.9668,2.498,3.3572,3.3572,0,0,1-.9668,2.457,3.6759,3.6759,0,0,1-2.7393.98,3.6287,3.6287,0,0,1-2.7256-.98A3.3821,3.3821,0,0,1,459.0332,405.3965ZM465.9619,442H459.436V412.9424h6.5259Z"/><path d="M479.1211,412.9424l.188,3.3564a10.4484,10.4484,0,0,1,8.4595-3.8936q9.0769,0,9.2383,10.3936V442H490.481V423.1738a5.9831,5.9831,0,0,0-1.1948-4.0947,5.0263,5.0263,0,0,0-3.9077-1.3291,6.2883,6.2883,0,0,0-5.8813,3.5713V442h-6.5259V412.9424Z"/><path d="M502.5122,427.2559q0-6.7676,3.1826-10.8086a10.2134,10.2134,0,0,1,8.4458-4.042,9.5681,9.5681,0,0,1,7.8145,3.4639l.2969-2.9268h5.8809v28.1709a11.71,11.71,0,0,1-3.5586,9.0234q-3.56,3.3047-9.6016,3.3037a15.4824,15.4824,0,0,1-6.2437-1.3291,11.0972,11.0972,0,0,1-4.6323-3.4785l3.0884-3.92a9.3271,9.3271,0,0,0,7.4126,3.5713,7.2124,7.2124,0,0,0,5.1289-1.7588,6.74,6.74,0,0,0,1.8809-5.17v-1.9609a9.6069,9.6069,0,0,1-7.52,3.1426,10.19,10.19,0,0,1-8.3394-4.0547Q502.512,434.4263,502.5122,427.2559Zm6.499.5645a11.6974,11.6974,0,0,0,1.7861,6.8887,5.7414,5.7414,0,0,0,4.9546,2.5107,6.2811,6.2811,0,0,0,5.8555-3.3838V421.0527a6.1916,6.1916,0,0,0-5.8008-3.3027,5.765,5.765,0,0,0-5.0093,2.5508Q509.011,422.8525,509.0112,427.82Z"/><path d="M564.8164,434.1045a2.9591,2.9591,0,0,0-1.4365-2.6592,15.3006,15.3006,0,0,0-4.7666-1.6113,24.4809,24.4809,0,0,1-5.5586-1.7715q-4.8882-2.3643-4.8887-6.8486a7.733,7.733,0,0,1,3.17-6.2842,12.5284,12.5284,0,0,1,8.0566-2.5244,13.0363,13.0363,0,0,1,8.4189,2.5781,8.1833,8.1833,0,0,1,3.209,6.6865h-6.5264a4.0177,4.0177,0,0,0-1.3965-3.1279,5.3476,5.3476,0,0,0-3.7051-1.249,5.7771,5.7771,0,0,0-3.5049.9941,3.1307,3.1307,0,0,0-1.3564,2.6582,2.6445,2.6445,0,0,0,1.2617,2.3359,17.33,17.33,0,0,0,5.1035,1.6787,24.1521,24.1521,0,0,1,6.0283,2.0146,8.5374,8.5374,0,0,1,3.25,2.8066,7.155,7.155,0,0,1,1.0605,3.9746,7.5706,7.5706,0,0,1-3.249,6.3506,13.8543,13.8543,0,0,1-8.5137,2.4307,15.03,15.03,0,0,1-6.3652-1.2891,10.4741,10.4741,0,0,1-4.35-3.5449,8.3874,8.3874,0,0,1-1.5586-4.8613h6.3379a4.599,4.599,0,0,0,1.7461,3.5586,6.7805,6.7805,0,0,0,4.27,1.249,6.5972,6.5972,0,0,0,3.9219-.98A3.0336,3.0336,0,0,0,564.8164,434.1045Z"/><path d="M589.7119,442.5371a13.5008,13.5008,0,0,1-10.0576-3.9072q-3.854-3.9082-3.8545-10.4072v-.8047a17.4385,17.4385,0,0,1,1.6787-7.7754,12.7726,12.7726,0,0,1,4.7139-5.33,12.4547,12.4547,0,0,1,6.7676-1.9072q5.9341,0,9.1709,3.7861,3.2358,3.7881,3.2354,10.7158v2.6318H582.38a8.7278,8.7278,0,0,0,2.4033,5.6934,7.2164,7.2164,0,0,0,5.3037,2.0947,8.8326,8.8326,0,0,0,7.3047-3.626l3.5186,3.3574a11.7554,11.7554,0,0,1-4.6592,4.042A14.6023,14.6023,0,0,1,589.7119,442.5371Zm-.7793-24.8945a5.4949,5.4949,0,0,0-4.3369,1.8789,9.7454,9.7454,0,0,0-2.1084,5.2373h12.4336v-.4834a7.9284,7.9284,0,0,0-1.7451-4.9551A5.4554,5.4554,0,0,0,588.9326,417.6426Z"/><path d="M621.6416,418.9043a16.1074,16.1074,0,0,0-2.6582-.2148q-4.4854,0-6.043,3.4375V442H606.415V412.9424h6.23l.1611,3.249a7.3539,7.3539,0,0,1,6.5527-3.7861,6.1028,6.1028,0,0,1,2.31.376Z"/><path d="M636.4932,433.7285l6.1494-20.7861h6.7412L639.3125,442h-5.666l-10.1514-29.0576h6.7676Z"/><path d="M653.4668,405.3965a3.4626,3.4626,0,0,1,.9531-2.498,3.6006,3.6006,0,0,1,2.7256-.9941,3.648,3.648,0,0,1,2.7393.9941,3.437,3.437,0,0,1,.9668,2.498,3.3572,3.3572,0,0,1-.9668,2.457,3.6759,3.6759,0,0,1-2.7393.98,3.6279,3.6279,0,0,1-2.7256-.98A3.3817,3.3817,0,0,1,653.4668,405.3965ZM660.3945,442h-6.5254V412.9424h6.5254Z"/><path d="M679.4355,437.3271a5.9025,5.9025,0,0,0,4.0547-1.4229,4.863,4.863,0,0,0,1.7188-3.5186h6.15a9.5884,9.5884,0,0,1-1.6924,5.0625,11.1075,11.1075,0,0,1-4.2969,3.72,12.8179,12.8179,0,0,1-5.8545,1.3691,12.3909,12.3909,0,0,1-9.668-3.9473q-3.5713-3.9492-3.5723-10.9043v-.6709q0-6.6328,3.5449-10.6211a12.275,12.275,0,0,1,9.668-3.9883,11.9353,11.9353,0,0,1,8.4463,3.0215,10.82,10.82,0,0,1,3.4248,7.9355h-6.15a5.9767,5.9767,0,0,0-1.7051-4.1084,5.4876,5.4876,0,0,0-4.0684-1.6113,5.7433,5.7433,0,0,0-4.8887,2.2959q-1.7183,2.2954-1.7451,6.9688v1.0479q0,4.7256,1.7051,7.0488A5.7387,5.7387,0,0,0,679.4355,437.3271Z"/><path d="M709.084,442.5371a13.5008,13.5008,0,0,1-10.0576-3.9072q-3.854-3.9082-3.8545-10.4072v-.8047a17.4385,17.4385,0,0,1,1.6787-7.7754,12.7726,12.7726,0,0,1,4.7139-5.33,12.4547,12.4547,0,0,1,6.7676-1.9072q5.9341,0,9.1709,3.7861,3.2358,3.7881,3.2354,10.7158v2.6318H701.752a8.7278,8.7278,0,0,0,2.4033,5.6934,7.2164,7.2164,0,0,0,5.3037,2.0947,8.8326,8.8326,0,0,0,7.3047-3.626l3.5186,3.3574a11.7554,11.7554,0,0,1-4.6592,4.042A14.6023,14.6023,0,0,1,709.084,442.5371Zm-.7793-24.8945a5.4949,5.4949,0,0,0-4.3369,1.8789,9.7454,9.7454,0,0,0-2.1084,5.2373H714.293v-.4834a7.9284,7.9284,0,0,0-1.7451-4.9551A5.4554,5.4554,0,0,0,708.3047,417.6426Z"/><path d="M742.0879,434.1045a2.9591,2.9591,0,0,0-1.4365-2.6592,15.3006,15.3006,0,0,0-4.7666-1.6113,24.4809,24.4809,0,0,1-5.5586-1.7715q-4.8882-2.3643-4.8887-6.8486a7.733,7.733,0,0,1,3.17-6.2842,12.5284,12.5284,0,0,1,8.0566-2.5244,13.0363,13.0363,0,0,1,8.4189,2.5781,8.1833,8.1833,0,0,1,3.209,6.6865h-6.5264a4.0177,4.0177,0,0,0-1.3965-3.1279,5.3476,5.3476,0,0,0-3.7051-1.249,5.7771,5.7771,0,0,0-3.5049.9941,3.1307,3.1307,0,0,0-1.3564,2.6582,2.6445,2.6445,0,0,0,1.2617,2.3359,17.33,17.33,0,0,0,5.1035,1.6787,24.1521,24.1521,0,0,1,6.0283,2.0146,8.5374,8.5374,0,0,1,3.25,2.8066,7.155,7.155,0,0,1,1.0605,3.9746,7.5706,7.5706,0,0,1-3.249,6.3506,13.8543,13.8543,0,0,1-8.5137,2.4307,15.03,15.03,0,0,1-6.3652-1.2891,10.4741,10.4741,0,0,1-4.35-3.5449,8.3874,8.3874,0,0,1-1.5586-4.8613h6.3379a4.599,4.599,0,0,0,1.7461,3.5586,6.7805,6.7805,0,0,0,4.27,1.249,6.5972,6.5972,0,0,0,3.9219-.98A3.0336,3.0336,0,0,0,742.0879,434.1045Z"/><path class="a" d="M95.2769,539.7988a7.7678,7.7678,0,0,1-1.2622,4.3721,8.76,8.76,0,0,1-3.4424,3.0176A9.5456,9.5456,0,0,1,94.6,550.5156a8.4,8.4,0,0,1,1.4111,4.7734,8.7671,8.7671,0,0,1-2.9834,6.9883,11.708,11.708,0,0,1-7.94,2.582,11.7511,11.7511,0,0,1-7.9746-2.5937,8.7568,8.7568,0,0,1-2.9951-6.9766,8.4874,8.4874,0,0,1,1.4229-4.8184,9.1352,9.1352,0,0,1,3.9932-3.2822,8.706,8.706,0,0,1-3.4082-3.0176,7.8171,7.8171,0,0,1-1.25-4.3721,8.69,8.69,0,0,1,2.7539-6.77,10.6377,10.6377,0,0,1,7.4355-2.502,10.6721,10.6721,0,0,1,7.4585,2.502A8.69,8.69,0,0,1,95.2769,539.7988Zm-4.8423,15.2148a5.5087,5.5087,0,0,0-1.48-4.0039,5.2038,5.2038,0,0,0-3.9131-1.5264,5.1462,5.1462,0,0,0-3.89,1.5146,5.5461,5.5461,0,0,0-1.4575,4.0156,5.3749,5.3749,0,0,0,1.4341,3.9248,6.1116,6.1116,0,0,0,7.8945.0459A5.3894,5.3894,0,0,0,90.4346,555.0137Zm-.7114-15.0078a5.1848,5.1848,0,0,0-1.2622-3.5918,4.8487,4.8487,0,0,0-6.77-.0693,5.9865,5.9865,0,0,0,.0117,7.31,4.9089,4.9089,0,0,0,6.77,0A5.1652,5.1652,0,0,0,89.7231,540.0059Z"/><path class="a" d="M119.81,552.49h4.1538v4.4746H119.81V564.4h-5.5767v-7.4355H99.7979l-.1606-3.3965,14.4121-22.582h5.76Zm-14.32,0h8.7437V538.5371l-.4131.7344Z"/><path class="a" d="M146.5225,552.49h4.1538v4.4746h-4.1538V564.4h-5.5767v-7.4355H126.5107l-.1606-3.3965,14.4121-22.582h5.76Zm-14.32,0h8.7437V538.5371l-.4131.7344Z"/><path class="a" d="M165.6621,564.8594a11.5376,11.5376,0,0,1-8.5942-3.3389,12.1132,12.1132,0,0,1-3.2935-8.8936v-.6875a14.9066,14.9066,0,0,1,1.4341-6.6445,10.9142,10.9142,0,0,1,4.0278-4.5547,10.6411,10.6411,0,0,1,5.7832-1.63,9.7507,9.7507,0,0,1,7.8374,3.2354q2.7649,3.2373,2.7651,9.1572v2.249H159.397a7.453,7.453,0,0,0,2.0537,4.8652,6.1671,6.1671,0,0,0,4.5327,1.79,7.55,7.55,0,0,0,6.2422-3.0986l3.0063,2.8691a10.0389,10.0389,0,0,1-3.9814,3.4541A12.47,12.47,0,0,1,165.6621,564.8594Zm-.6655-21.2734a4.6957,4.6957,0,0,0-3.7061,1.6055,8.3242,8.3242,0,0,0-1.8018,4.4756h10.6255v-.4131a6.7825,6.7825,0,0,0-1.4917-4.2344A4.6609,4.6609,0,0,0,164.9966,543.5859Z"/><path class="a" d="M186.041,545.1465h3.3965a6.0745,6.0745,0,0,0,4.0732-1.332,4.7469,4.7469,0,0,0,1.5034-3.7861,5.1764,5.1764,0,0,0-1.25-3.7061,5.0349,5.0349,0,0,0-3.8213-1.32,5.3256,5.3256,0,0,0-3.6948,1.2969,4.3341,4.3341,0,0,0-1.4458,3.3848h-5.5767a8.4416,8.4416,0,0,1,1.3657-4.6816,9.17,9.17,0,0,1,3.81-3.293,12.4182,12.4182,0,0,1,5.4731-1.1816q5.0024,0,7.86,2.5127a8.8185,8.8185,0,0,1,2.8574,6.9883,7.1011,7.1011,0,0,1-1.4346,4.2344,9,9,0,0,1-3.7061,2.9951,8.2015,8.2015,0,0,1,4.1885,2.96,8.1112,8.1112,0,0,1,1.4341,4.8193,8.9748,8.9748,0,0,1-3.0864,7.16,13.5516,13.5516,0,0,1-16.0073.0918,8.4634,8.4634,0,0,1-3.0752-6.8389H184.48a4.6635,4.6635,0,0,0,1.48,3.58,5.6113,5.6113,0,0,0,3.9814,1.377,5.7908,5.7908,0,0,0,4.085-1.377,5.1664,5.1664,0,0,0,1.4917-3.9932,5.2224,5.2224,0,0,0-1.5605-4.0625,6.6743,6.6743,0,0,0-4.6357-1.4219H186.041Z"/><path class="a" d="M208.623,564.4V543.7h-3.7866v-4.1309h3.7866v-2.2725a8.5242,8.5242,0,0,1,2.2949-6.3789,8.7883,8.7883,0,0,1,6.4258-2.25,12.893,12.893,0,0,1,3.1211.4141l-.1377,4.3594a11.0141,11.0141,0,0,0-2.1343-.1836q-3.9932,0-3.9932,4.1084v2.2031h5.0488V543.7H214.2v20.7Z"/><path class="a" d="M244.0107,539.7988a7.7678,7.7678,0,0,1-1.2622,4.3721,8.76,8.76,0,0,1-3.4424,3.0176,9.5456,9.5456,0,0,1,4.0278,3.3271,8.4,8.4,0,0,1,1.4111,4.7734,8.7671,8.7671,0,0,1-2.9834,6.9883,13.5283,13.5283,0,0,1-15.915-.0117,8.7568,8.7568,0,0,1-2.9951-6.9766,8.4874,8.4874,0,0,1,1.4229-4.8184,9.1352,9.1352,0,0,1,3.9932-3.2822,8.706,8.706,0,0,1-3.4082-3.0176,7.8171,7.8171,0,0,1-1.25-4.3721,8.69,8.69,0,0,1,2.7539-6.77,12.3339,12.3339,0,0,1,14.894,0A8.69,8.69,0,0,1,244.0107,539.7988Zm-4.8423,15.2148a5.5087,5.5087,0,0,0-1.48-4.0039,5.2038,5.2038,0,0,0-3.9131-1.5264,5.1462,5.1462,0,0,0-3.89,1.5146,5.5461,5.5461,0,0,0-1.4575,4.0156,5.3749,5.3749,0,0,0,1.4341,3.9248,6.1116,6.1116,0,0,0,7.8945.0459A5.3894,5.3894,0,0,0,239.1685,555.0137Zm-.7114-15.0078a5.1848,5.1848,0,0,0-1.2622-3.5918,4.8487,4.8487,0,0,0-6.77-.0693,5.9865,5.9865,0,0,0,.0117,7.31,4.9089,4.9089,0,0,0,6.77,0A5.1652,5.1652,0,0,0,238.457,540.0059Z"/><path class="a" d="M264.78,564.4h-5.5537V537.5566l-8.1929,2.793V535.668l13.0352-4.7969h.7114Z"/><path class="a" d="M287.5684,552.4434H275.52v-4.498h12.0483Z"/><path class="a" d="M314.2813,564.4H291.814v-3.832l11.13-12.1406a27.6964,27.6964,0,0,0,3.4307-4.4863,7.2735,7.2735,0,0,0,1.0215-3.6152,5.4907,5.4907,0,0,0-1.3428-3.8555,4.6578,4.6578,0,0,0-3.6143-1.4687,5.3668,5.3668,0,0,0-4.2,1.6523,6.499,6.499,0,0,0-1.4917,4.5215h-5.5767A10.9272,10.9272,0,0,1,292.56,535.68a9.5626,9.5626,0,0,1,3.9707-3.7988,12.6379,12.6379,0,0,1,5.9551-1.3535,11.3028,11.3028,0,0,1,7.6768,2.4443,8.4849,8.4849,0,0,1,2.811,6.7588,11.4624,11.4624,0,0,1-1.4116,5.2432,29.8077,29.8077,0,0,1-4.624,6.2314l-8.17,8.7432h15.5137Z"/><path class="a" d="M320.0186,547.8311l1.813-16.8447h17.9463v4.8193H326.4673l-.918,7.9863a10.3214,10.3214,0,0,1,5.2324-1.3311,9.3091,9.3091,0,0,1,7.4243,3.0527,12.0956,12.0956,0,0,1,2.65,8.2148,11.1357,11.1357,0,0,1-2.9375,8.1133,10.722,10.722,0,0,1-8.0552,3.0176,11.229,11.229,0,0,1-7.6079-2.6045,9.4173,9.4173,0,0,1-3.27-6.874h5.3931a5.8865,5.8865,0,0,0,1.7441,3.7295,5.3006,5.3006,0,0,0,3.7178,1.2969,4.793,4.793,0,0,0,4.0049-1.8359,7.9271,7.9271,0,0,0,1.4341-5.0029,7.0053,7.0053,0,0,0-1.5835-4.8311,5.5388,5.5388,0,0,0-4.36-1.7783,6.0889,6.0889,0,0,0-4.8652,1.9736Z"/><path class="a" d="M351.6885,545.1465h3.3965a6.0745,6.0745,0,0,0,4.0732-1.332,4.7469,4.7469,0,0,0,1.5034-3.7861,5.1764,5.1764,0,0,0-1.25-3.7061,5.0349,5.0349,0,0,0-3.8213-1.32,5.3256,5.3256,0,0,0-3.6948,1.2969,4.3341,4.3341,0,0,0-1.4458,3.3848h-5.5767a8.4416,8.4416,0,0,1,1.3657-4.6816,9.17,9.17,0,0,1,3.81-3.293,12.4182,12.4182,0,0,1,5.4731-1.1816q5.0024,0,7.86,2.5127a8.8185,8.8185,0,0,1,2.8574,6.9883,7.1011,7.1011,0,0,1-1.4346,4.2344,9,9,0,0,1-3.7061,2.9951,8.2015,8.2015,0,0,1,4.1885,2.96,8.1112,8.1112,0,0,1,1.4341,4.8193,8.9748,8.9748,0,0,1-3.0864,7.16,13.5516,13.5516,0,0,1-16.0073.0918,8.4634,8.4634,0,0,1-3.0752-6.8389h5.5767a4.6635,4.6635,0,0,0,1.48,3.58,5.6113,5.6113,0,0,0,3.9814,1.377,5.7908,5.7908,0,0,0,4.085-1.377,5.1664,5.1664,0,0,0,1.4917-3.9932,5.2224,5.2224,0,0,0-1.5605-4.0625,6.6743,6.6743,0,0,0-4.6357-1.4219h-3.2817Z"/><path class="a" d="M387.145,564.4a8.5879,8.5879,0,0,1-.6426-2.3184,9.3795,9.3795,0,0,1-12.6221.6426,6.8245,6.8245,0,0,1-2.3638-5.2773,7.0518,7.0518,0,0,1,2.9492-6.0937q2.948-2.1226,8.4336-2.123h3.4194v-1.6289a4.3529,4.3529,0,0,0-1.0786-3.0869,4.2767,4.2767,0,0,0-3.2817-1.1592,4.9124,4.9124,0,0,0-3.1211.9531,2.9476,2.9476,0,0,0-1.2163,2.4209h-5.5767a6.1914,6.1914,0,0,1,1.354-3.8213,9.0235,9.0235,0,0,1,3.6836-2.7881,12.94,12.94,0,0,1,5.1978-1.01,10.4205,10.4205,0,0,1,6.9536,2.1914,7.8188,7.8188,0,0,1,2.6621,6.1621v11.1992a12.6822,12.6822,0,0,0,.9409,5.3467V564.4Zm-6.1274-4.0156a6.3365,6.3365,0,0,0,3.1094-.8037,5.3609,5.3609,0,0,0,2.1919-2.1572v-4.6816h-3.0063a8.2226,8.2226,0,0,0-4.6587,1.0781,3.4957,3.4957,0,0,0-1.5605,3.0527,3.2591,3.2591,0,0,0,1.0669,2.5586A4.13,4.13,0,0,0,381.0176,560.3848Z"/><path class="a" d="M408.5566,552.4434H396.5083v-4.498h12.0483Z"/><path class="a" d="M431.6665,552.49H435.82v4.4746h-4.1538V564.4H426.09v-7.4355H411.6548l-.1606-3.3965,14.4121-22.582h5.76Zm-14.32,0H426.09V538.5371l-.4131.7344Z"/><path class="a" d="M461.9824,564.4H439.5151v-3.832l11.13-12.1406a27.6964,27.6964,0,0,0,3.4307-4.4863,7.2735,7.2735,0,0,0,1.0215-3.6152,5.4907,5.4907,0,0,0-1.3428-3.8555,4.6578,4.6578,0,0,0-3.6143-1.4687,5.3668,5.3668,0,0,0-4.2,1.6523,6.499,6.499,0,0,0-1.4917,4.5215h-5.5767a10.9272,10.9272,0,0,1,1.3882-5.4961,9.5626,9.5626,0,0,1,3.9707-3.7988,12.6379,12.6379,0,0,1,5.9551-1.3535,11.3028,11.3028,0,0,1,7.6768,2.4443,8.4849,8.4849,0,0,1,2.811,6.7588,11.4624,11.4624,0,0,1-1.4116,5.2432,29.8077,29.8077,0,0,1-4.624,6.2314l-8.17,8.7432h15.5137Z"/><path class="a" d="M483.5776,530.8262v4.6123h-.6885a11.0721,11.0721,0,0,0-7.4814,2.57A10.7535,10.7535,0,0,0,472.08,545.1a9.0583,9.0583,0,0,1,6.8618-2.8223,8.5546,8.5546,0,0,1,6.9878,3.1211,12.2916,12.2916,0,0,1,2.5591,8.0547,11.4952,11.4952,0,0,1-2.9946,8.251,10.34,10.34,0,0,1-7.86,3.1553,10.0952,10.0952,0,0,1-8.1123-3.6953,14.5292,14.5292,0,0,1-3.11-9.6836v-1.9053q0-8.7891,4.28-13.77t12.3125-4.9795Zm-5.99,15.9492a5.8653,5.8653,0,0,0-3.3623,1.0332,6.0238,6.0238,0,0,0-2.2373,2.7539V552.26a10.004,10.004,0,0,0,1.5605,5.91,4.7588,4.7588,0,0,0,4.0391,2.1914,4.7049,4.7049,0,0,0,3.9243-1.8594,7.7373,7.7373,0,0,0,1.4458-4.8877,7.8563,7.8563,0,0,0-1.4687-4.9346A4.683,4.683,0,0,0,477.5879,546.7754Z"/><path class="a" d="M495.2588,564.4V543.7h-3.7866v-4.1309h3.7866v-2.2725a8.5242,8.5242,0,0,1,2.2949-6.3789,8.7883,8.7883,0,0,1,6.4258-2.25,12.893,12.893,0,0,1,3.1211.4141l-.1377,4.3594a11.0141,11.0141,0,0,0-2.1343-.1836q-3.9932,0-3.9932,4.1084v2.2031h5.0488V543.7h-5.0488v20.7Z"/><path class="a" d="M520.7783,552.4434H508.73v-4.498h12.0483Z"/><path class="a" d="M540.8359,550.4238a9.114,9.114,0,0,1-13.5635-.126,12.1185,12.1185,0,0,1-2.6152-8.1123,13.3132,13.3132,0,0,1,1.33-5.99,9.9253,9.9253,0,0,1,3.7871-4.1758,10.7372,10.7372,0,0,1,5.6914-1.4922,9.6565,9.6565,0,0,1,8.01,3.7637q2.959,3.7646,2.96,10.0742v1.5605q0,9.0425-4.085,13.793t-12.1855,4.8193h-.666v-4.6123h.8027q4.9351-.07,7.5742-2.376T540.8359,550.4238Zm-5.37-1.3994a5.6315,5.6315,0,0,0,3.1445-.9639,6.3556,6.3556,0,0,0,2.2715-2.6621v-2.18a10.47,10.47,0,0,0-1.5146-5.9443,4.5633,4.5633,0,0,0-3.9248-2.249,4.51,4.51,0,0,0-3.8437,1.9854,8.3459,8.3459,0,0,0-1.4336,5.0146,8.2406,8.2406,0,0,0,1.4453,5.0713A4.58,4.58,0,0,0,535.4658,549.0244Z"/><path class="a" d="M569.0869,530.8262v4.6123h-.6895a11.07,11.07,0,0,0-7.48,2.57,10.7516,10.7516,0,0,0-3.3281,7.0908,9.0579,9.0579,0,0,1,6.8613-2.8223,8.5549,8.5549,0,0,1,6.9883,3.1211,12.2914,12.2914,0,0,1,2.5586,8.0547,11.4949,11.4949,0,0,1-2.9941,8.251,10.34,10.34,0,0,1-7.86,3.1553,10.0939,10.0939,0,0,1-8.1123-3.6953,14.5315,14.5315,0,0,1-3.1094-9.6836v-1.9053q0-8.7891,4.2793-13.77t12.3125-4.9795Zm-5.99,15.9492a5.8642,5.8642,0,0,0-3.3623,1.0332,6.0207,6.0207,0,0,0-2.2373,2.7539V552.26a10,10,0,0,0,1.5605,5.91,4.7588,4.7588,0,0,0,4.0391,2.1914,4.7027,4.7027,0,0,0,3.9238-1.8594,7.7316,7.7316,0,0,0,1.4463-4.8877,7.8593,7.8593,0,0,0-1.4687-4.9346A4.6836,4.6836,0,0,0,563.0967,546.7754Z"/><path class="a" d="M599.4941,539.7988a7.7643,7.7643,0,0,1-1.2627,4.3721,8.75,8.75,0,0,1-3.4414,3.0176,9.5441,9.5441,0,0,1,4.0273,3.3271,8.4,8.4,0,0,1,1.4111,4.7734,8.7686,8.7686,0,0,1-2.9834,6.9883,13.5283,13.5283,0,0,1-15.915-.0117,8.7568,8.7568,0,0,1-2.9951-6.9766,8.4837,8.4837,0,0,1,1.4229-4.8184,9.1352,9.1352,0,0,1,3.9932-3.2822,8.706,8.706,0,0,1-3.4082-3.0176,7.8168,7.8168,0,0,1-1.25-4.3721,8.69,8.69,0,0,1,2.7539-6.77,12.3332,12.3332,0,0,1,14.8936,0A8.69,8.69,0,0,1,599.4941,539.7988Zm-4.8428,15.2148a5.5084,5.5084,0,0,0-1.4795-4.0039,5.2045,5.2045,0,0,0-3.9131-1.5264,5.1455,5.1455,0,0,0-3.89,1.5146,5.5485,5.5485,0,0,0-1.458,4.0156,5.3752,5.3752,0,0,0,1.4346,3.9248,6.1116,6.1116,0,0,0,7.8945.0459A5.3892,5.3892,0,0,0,594.6514,555.0137Zm-.7109-15.0078a5.1868,5.1868,0,0,0-1.2617-3.5918,4.8493,4.8493,0,0,0-6.7705-.0693,5.9865,5.9865,0,0,0,.0117,7.31,4.9089,4.9089,0,0,0,6.77,0A5.1652,5.1652,0,0,0,593.94,540.0059Z"/><path class="a" d="M611.6113,545.1465h3.3965a6.0754,6.0754,0,0,0,4.0732-1.332,4.7472,4.7472,0,0,0,1.5039-3.7861,5.1788,5.1788,0,0,0-1.251-3.7061,5.0349,5.0349,0,0,0-3.8213-1.32,5.3277,5.3277,0,0,0-3.6953,1.2969,4.3369,4.3369,0,0,0-1.4453,3.3848h-5.5762a8.4373,8.4373,0,0,1,1.3652-4.6816,9.1729,9.1729,0,0,1,3.81-3.293,12.42,12.42,0,0,1,5.4736-1.1816q5.0024,0,7.8594,2.5127a8.8185,8.8185,0,0,1,2.8574,6.9883,7.1011,7.1011,0,0,1-1.4346,4.2344,9,9,0,0,1-3.7061,2.9951,8.2035,8.2035,0,0,1,4.1885,2.96,8.1081,8.1081,0,0,1,1.4346,4.8193,8.9737,8.9737,0,0,1-3.0869,7.16,13.5508,13.5508,0,0,1-16.0068.0918,8.4627,8.4627,0,0,1-3.0762-6.8389h5.5771a4.6635,4.6635,0,0,0,1.48,3.58,5.6113,5.6113,0,0,0,3.9814,1.377,5.7916,5.7916,0,0,0,4.085-1.377,5.1662,5.1662,0,0,0,1.4912-3.9932,5.219,5.219,0,0,0-1.5605-4.0625,6.6708,6.6708,0,0,0-4.6348-1.4219h-3.2822Z"/><path class="a" d="M643.0518,552.4434H631.0029v-4.498h12.0488Z"/><path class="a" d="M662.4893,564.4a8.6244,8.6244,0,0,1-.6426-2.3184,9.3783,9.3783,0,0,1-12.6211.6426,6.8249,6.8249,0,0,1-2.3643-5.2773,7.0506,7.0506,0,0,1,2.9492-6.0937q2.9487-2.1226,8.4336-2.123h3.4189v-1.6289a4.3526,4.3526,0,0,0-1.0781-3.0869,4.2762,4.2762,0,0,0-3.2812-1.1592,4.9115,4.9115,0,0,0-3.1211.9531,2.9468,2.9468,0,0,0-1.2168,2.4209H647.39a6.1878,6.1878,0,0,1,1.3535-3.8213,9.02,9.02,0,0,1,3.6836-2.7881,12.94,12.94,0,0,1,5.1973-1.01,10.4219,10.4219,0,0,1,6.9541,2.1914,7.8188,7.8188,0,0,1,2.6621,6.1621v11.1992a12.6906,12.6906,0,0,0,.94,5.3467V564.4Zm-6.127-4.0156a6.3365,6.3365,0,0,0,3.1094-.8037,5.3567,5.3567,0,0,0,2.1914-2.1572v-4.6816h-3.0059a8.2209,8.2209,0,0,0-4.6582,1.0781,3.4946,3.4946,0,0,0-1.5605,3.0527,3.2587,3.2587,0,0,0,1.0664,2.5586A4.13,4.13,0,0,0,656.3623,560.3848Z"/><path class="a" d="M684.0166,564.8594a11.5379,11.5379,0,0,1-8.5947-3.3389,12.1116,12.1116,0,0,1-3.2939-8.8936v-.6875a14.9068,14.9068,0,0,1,1.4346-6.6445,10.9119,10.9119,0,0,1,4.0283-4.5547,10.6411,10.6411,0,0,1,5.7832-1.63,9.749,9.749,0,0,1,7.8369,3.2354q2.7642,3.2373,2.7646,9.1572v2.249H677.751a7.453,7.453,0,0,0,2.0537,4.8652,6.1668,6.1668,0,0,0,4.5322,1.79,7.5469,7.5469,0,0,0,6.2422-3.0986l3.0068,2.8691a10.0455,10.0455,0,0,1-3.9814,3.4541A12.47,12.47,0,0,1,684.0166,564.8594Zm-.666-21.2734a4.6957,4.6957,0,0,0-3.7061,1.6055,8.3242,8.3242,0,0,0-1.8018,4.4756h10.625v-.4131a6.78,6.78,0,0,0-1.4912-4.2344A4.6609,4.6609,0,0,0,683.3506,543.5859Z"/><path class="a" d="M699.4385,547.8311l1.8135-16.8447h17.9453v4.8193H705.8867l-.918,7.9863a10.3265,10.3265,0,0,1,5.2324-1.3311,9.31,9.31,0,0,1,7.4248,3.0527,12.0956,12.0956,0,0,1,2.65,8.2148,11.1357,11.1357,0,0,1-2.9375,8.1133,10.7231,10.7231,0,0,1-8.0557,3.0176,11.2286,11.2286,0,0,1-7.6074-2.6045,9.4169,9.4169,0,0,1-3.27-6.874h5.3926a5.8841,5.8841,0,0,0,1.7441,3.7295,5.3006,5.3006,0,0,0,3.7178,1.2969,4.7943,4.7943,0,0,0,4.0049-1.8359,7.924,7.924,0,0,0,1.4336-5.0029,7.0051,7.0051,0,0,0-1.583-4.8311,5.54,5.54,0,0,0-4.36-1.7783,6.0889,6.0889,0,0,0-4.8652,1.9736Z"/><path class="a" d="M740.4717,550.4238a9.114,9.114,0,0,1-13.5635-.126,12.1185,12.1185,0,0,1-2.6152-8.1123,13.3132,13.3132,0,0,1,1.33-5.99A9.9253,9.9253,0,0,1,729.41,532.02a10.7372,10.7372,0,0,1,5.6914-1.4922,9.6565,9.6565,0,0,1,8.01,3.7637q2.959,3.7646,2.96,10.0742v1.5605q0,9.0425-4.085,13.793t-12.1855,4.8193h-.666v-4.6123h.8027q4.9351-.07,7.5742-2.376T740.4717,550.4238Zm-5.37-1.3994a5.6315,5.6315,0,0,0,3.1445-.9639,6.3556,6.3556,0,0,0,2.2715-2.6621v-2.18a10.47,10.47,0,0,0-1.5146-5.9443,4.5633,4.5633,0,0,0-3.9248-2.249,4.51,4.51,0,0,0-3.8437,1.9854,8.3459,8.3459,0,0,0-1.4336,5.0146,8.2406,8.2406,0,0,0,1.4453,5.0713A4.58,4.58,0,0,0,735.1016,549.0244Z"/><path class="a" d="M773.84,564.4H751.373v-3.832l11.13-12.1406a27.6964,27.6964,0,0,0,3.4307-4.4863,7.2735,7.2735,0,0,0,1.0215-3.6152,5.4907,5.4907,0,0,0-1.3428-3.8555,4.6578,4.6578,0,0,0-3.6143-1.4687,5.3657,5.3657,0,0,0-4.1992,1.6523,6.4969,6.4969,0,0,0-1.4922,4.5215H750.73a10.9269,10.9269,0,0,1,1.3877-5.4961,9.5626,9.5626,0,0,1,3.9707-3.7988,12.6379,12.6379,0,0,1,5.9551-1.3535,11.3037,11.3037,0,0,1,7.6768,2.4443,8.483,8.483,0,0,1,2.8105,6.7588,11.4615,11.4615,0,0,1-1.4111,5.2432,29.8077,29.8077,0,0,1-4.624,6.2314l-8.17,8.7432H773.84Z"/><path class="a" d="M795.4355,530.8262v4.6123h-.6895a11.07,11.07,0,0,0-7.48,2.57,10.7516,10.7516,0,0,0-3.3281,7.0908,9.0579,9.0579,0,0,1,6.8613-2.8223,8.5549,8.5549,0,0,1,6.9883,3.1211,12.2914,12.2914,0,0,1,2.5586,8.0547,11.4949,11.4949,0,0,1-2.9941,8.251,10.34,10.34,0,0,1-7.86,3.1553,10.0939,10.0939,0,0,1-8.1123-3.6953A14.5315,14.5315,0,0,1,778.27,551.48v-1.9053q0-8.7891,4.2793-13.77t12.3125-4.9795Zm-5.99,15.9492a5.8642,5.8642,0,0,0-3.3623,1.0332,6.0207,6.0207,0,0,0-2.2373,2.7539V552.26a10,10,0,0,0,1.5605,5.91,4.7588,4.7588,0,0,0,4.0391,2.1914,4.7027,4.7027,0,0,0,3.9238-1.8594,7.7316,7.7316,0,0,0,1.4463-4.8877,7.8593,7.8593,0,0,0-1.4687-4.9346A4.6836,4.6836,0,0,0,789.4453,546.7754Z"/><path class="a" d="M820.61,550.4238a9.114,9.114,0,0,1-13.5635-.126,12.1185,12.1185,0,0,1-2.6152-8.1123,13.3132,13.3132,0,0,1,1.33-5.99,9.9253,9.9253,0,0,1,3.7871-4.1758,10.7372,10.7372,0,0,1,5.6914-1.4922,9.6565,9.6565,0,0,1,8.01,3.7637q2.959,3.7646,2.96,10.0742v1.5605q0,9.0425-4.085,13.793t-12.1855,4.8193h-.666v-4.6123h.8027q4.9351-.07,7.5742-2.376T820.61,550.4238Zm-5.37-1.3994a5.6315,5.6315,0,0,0,3.1445-.9639,6.3556,6.3556,0,0,0,2.2715-2.6621v-2.18a10.47,10.47,0,0,0-1.5146-5.9443,4.5633,4.5633,0,0,0-3.9248-2.249,4.51,4.51,0,0,0-3.8437,1.9854,8.3459,8.3459,0,0,0-1.4336,5.0146,8.2406,8.2406,0,0,0,1.4453,5.0713A4.58,4.58,0,0,0,815.24,549.0244Z"/><path class="a" d="M853.749,534.084,840.3926,564.4H834.541l13.333-28.9395h-17.28v-4.4746H853.749Z"/><path class="a" d="M880.6914,564.4H858.2246v-3.832l11.13-12.1406a27.6964,27.6964,0,0,0,3.4307-4.4863,7.2735,7.2735,0,0,0,1.0215-3.6152,5.4907,5.4907,0,0,0-1.3428-3.8555,4.6578,4.6578,0,0,0-3.6143-1.4687,5.3657,5.3657,0,0,0-4.1992,1.6523,6.4969,6.4969,0,0,0-1.4922,4.5215H857.582A10.9269,10.9269,0,0,1,858.97,535.68a9.5626,9.5626,0,0,1,3.9707-3.7988,12.6379,12.6379,0,0,1,5.9551-1.3535,11.3037,11.3037,0,0,1,7.6768,2.4443,8.483,8.483,0,0,1,2.8105,6.7588,11.4615,11.4615,0,0,1-1.4111,5.2432,29.8077,29.8077,0,0,1-4.624,6.2314l-8.17,8.7432h15.5137Z"/><path class="a" d="M887.2549,564.4V543.7h-3.7861v-4.1309h3.7861v-2.2725a8.5242,8.5242,0,0,1,2.2949-6.3789,8.7875,8.7875,0,0,1,6.4258-2.25,12.8961,12.8961,0,0,1,3.1211.4141l-.1377,4.3594a11.0123,11.0123,0,0,0-2.1348-.1836q-3.9932,0-3.9922,4.1084v2.2031h5.0488V543.7H892.832v20.7Z"/><path class="a" d="M923.7441,552.2373q0,5.7832-2.582,9.2021a8.4083,8.4083,0,0,1-7.1025,3.42,8.0978,8.0978,0,0,1-6.793-3.1445l-.2754,2.6855h-5.0488V529.15h5.5762v12.8057a8.0756,8.0756,0,0,1,6.4951-2.8457,8.5056,8.5056,0,0,1,7.1377,3.374q2.5928,3.3721,2.5928,9.4316Zm-5.5771-.4814q0-4.04-1.4219-6.0586a4.7388,4.7388,0,0,0-4.1309-2.02,5.1778,5.1778,0,0,0-5.0957,3.166V557.08a5.2334,5.2334,0,0,0,5.1406,3.2354,4.7035,4.7035,0,0,0,4.0391-1.95q1.4238-1.9512,1.4688-5.8984Z"/><path class="a" d="M949.1025,539.7988a7.7643,7.7643,0,0,1-1.2627,4.3721,8.75,8.75,0,0,1-3.4414,3.0176,9.5441,9.5441,0,0,1,4.0273,3.3271,8.4,8.4,0,0,1,1.4111,4.7734,8.7686,8.7686,0,0,1-2.9834,6.9883,13.5283,13.5283,0,0,1-15.915-.0117,8.7568,8.7568,0,0,1-2.9951-6.9766,8.4837,8.4837,0,0,1,1.4229-4.8184,9.1352,9.1352,0,0,1,3.9932-3.2822,8.706,8.706,0,0,1-3.4082-3.0176,7.8168,7.8168,0,0,1-1.25-4.3721,8.69,8.69,0,0,1,2.7539-6.77,12.3332,12.3332,0,0,1,14.8936,0A8.69,8.69,0,0,1,949.1025,539.7988ZM944.26,555.0137A5.5084,5.5084,0,0,0,942.78,551.01a5.2045,5.2045,0,0,0-3.9131-1.5264,5.1455,5.1455,0,0,0-3.89,1.5146,5.5485,5.5485,0,0,0-1.458,4.0156,5.3752,5.3752,0,0,0,1.4346,3.9248,6.1116,6.1116,0,0,0,7.8945.0459A5.3892,5.3892,0,0,0,944.26,555.0137Zm-.7109-15.0078a5.1868,5.1868,0,0,0-1.2617-3.5918,4.8493,4.8493,0,0,0-6.7705-.0693,5.9865,5.9865,0,0,0,.0117,7.31,4.9089,4.9089,0,0,0,6.77,0A5.1652,5.1652,0,0,0,943.5488,540.0059Z"/></svg>