<svg xmlns="http://www.w3.org/2000/svg" viewBox="0 0 1024 768"><defs><style>.a{fill:red;}.b{fill:#1200bd;}</style></defs><title>Slide L b</title><path d="M204.1543,106H191.85V54.8125h12.3047Z"/><path d="M223.0684,67.9609l.3867,4.4648a12.9,12.9,0,0,1,10.8633-5.168q5.9414,0,8.877,3.5508t3.041,10.6875V106H234.3535V81.9883a6.4191,6.4191,0,0,0-1.16-4.2363q-1.16-1.3535-4.2187-1.3535a5.65,5.65,0,0,0-5.168,2.7422V106H211.959V67.9609Z"/><path d="M255.4121,106V76.1875h-5.52V67.9609h5.52V64.9375q0-6.5039,3.832-10.09t10.7578-3.5859A23.5577,23.5577,0,0,1,275.5566,52l.0352,8.7188a10.8235,10.8235,0,0,0-2.918-.3164q-5.3789,0-5.3789,4.6406v2.918h7.418v8.2266h-7.418V106Z"/><path d="M277.3848,86.6289A22.4512,22.4512,0,0,1,279.6,76.4863a15.8389,15.8389,0,0,1,6.3633-6.8379,19.1644,19.1644,0,0,1,9.7383-2.3906q8.543,0,13.4648,5.291t4.9219,14.3965v.4219q0,8.8945-4.9395,14.1152t-13.377,5.2207q-8.1211,0-13.043-4.8691T277.42,88.6328Zm11.8477.7383q0,5.2734,1.6523,7.7344a5.5047,5.5047,0,0,0,4.8867,2.4609q6.3281,0,6.4688-9.7383V86.6289q0-10.23-6.5391-10.23-5.9414,0-6.4336,8.8242Z"/><path d="M342.3184,78.6836l-3.9023-.2812q-5.59,0-7.1719,3.5156V106H319.3965V67.9609h11.1094l.3867,4.8867q2.9883-5.59,8.332-5.59a11.5535,11.5535,0,0,1,3.3047.4219Z"/><path d="M357.7871,67.9609l.3867,4.4648a13.0791,13.0791,0,0,1,10.8633-5.168q7.207,0,9.7383,5.73a12.6594,12.6594,0,0,1,11.18-5.73q11.5664,0,11.8828,13.9922V106H389.9551V81.9883a7.2517,7.2517,0,0,0-.9844-4.2539q-.9844-1.3359-3.5859-1.3359a5.6133,5.6133,0,0,0-5.2383,3.1289l.0352.4922V106H368.2988V82.0586a7.622,7.622,0,0,0-.9492-4.3242q-.9492-1.3359-3.6211-1.3359a5.6817,5.6817,0,0,0-5.2031,3.1289V106H346.6777V67.9609Z"/><path d="M430.0332,106a13.3772,13.3772,0,0,1-1.125-3.41,11.0168,11.0168,0,0,1-9.1406,4.1133,13.4964,13.4964,0,0,1-9.1406-3.252,10.3509,10.3509,0,0,1-3.7617-8.1738q0-6.1875,4.57-9.3516t13.2891-3.1641h3.6563V80.748q0-5.2646-4.5352-5.2637-4.2187,0-4.2187,4.1689H407.7793a10.621,10.621,0,0,1,4.6934-8.9541q4.6934-3.4409,11.9707-3.4414t11.4961,3.5508a12.3453,12.3453,0,0,1,4.3242,9.7383v16.84q.07,5.2383,1.6172,8.0156V106Zm-7.418-7.7344a6.6087,6.6087,0,0,0,3.6738-.9492,5.9491,5.9491,0,0,0,2.0918-2.1445V89.09h-3.4453q-6.1875,0-6.1875,5.5547a3.3916,3.3916,0,0,0,1.09,2.6191A3.9439,3.9439,0,0,0,422.6152,98.2656Z"/><path d="M460.6191,58.5039v9.457h6.2578v8.2266h-6.2578V93.59a4.4432,4.4432,0,0,0,.7734,2.9883q.7734.8438,3.0586.8438a17.38,17.38,0,0,0,2.9531-.2109v8.4727a21.8651,21.8651,0,0,1-6.68,1.02q-6.1172,0-9.0352-2.8828t-2.918-8.7539V76.1875H443.92V67.9609h4.8516v-9.457Z"/><path d="M471.4473,58.1523a5.2881,5.2881,0,0,1,1.8281-4.1484,7.773,7.773,0,0,1,9.4922,0,5.6209,5.6209,0,0,1,0,8.2969,7.773,7.773,0,0,1-9.4922,0A5.2881,5.2881,0,0,1,471.4473,58.1523ZM484.0332,106H472.15V67.9609h11.8828Z"/><path d="M489.834,86.6289a22.4512,22.4512,0,0,1,2.2148-10.1426,15.8389,15.8389,0,0,1,6.3633-6.8379,19.1644,19.1644,0,0,1,9.7383-2.3906q8.543,0,13.4648,5.291t4.9219,14.3965v.4219q0,8.8945-4.9395,14.1152t-13.377,5.2207q-8.1211,0-13.043-4.8691t-5.3086-13.2012Zm11.8477.7383q0,5.2734,1.6523,7.7344a5.5047,5.5047,0,0,0,4.8867,2.4609q6.3281,0,6.4688-9.7383V86.6289q0-10.23-6.5391-10.23-5.9414,0-6.4336,8.8242Z"/><path d="M542.6387,67.9609l.3867,4.4648a12.9,12.9,0,0,1,10.8633-5.168q5.9414,0,8.877,3.5508t3.041,10.6875V106H553.9238V81.9883a6.4191,6.4191,0,0,0-1.16-4.2363q-1.16-1.3535-4.2187-1.3535a5.65,5.65,0,0,0-5.168,2.7422V106H531.5293V67.9609Z"/><path d="M622.584,84.2734H603.1777V96.5078H626.1V106H590.8379V54.8125H626.17V64.34H603.1777v10.793H622.584Z"/><path d="M641.4629,67.9609l.3867,4.4648a12.9,12.9,0,0,1,10.8633-5.168q5.9414,0,8.877,3.5508t3.041,10.6875V106H652.748V81.9883a6.4191,6.4191,0,0,0-1.16-4.2363q-1.16-1.3535-4.2187-1.3535a5.65,5.65,0,0,0-5.168,2.7422V106H630.3535V67.9609Z"/><path d="M684.9863,58.5039v9.457h6.2578v8.2266h-6.2578V93.59a4.4432,4.4432,0,0,0,.7734,2.9883q.7734.8438,3.0586.8438a17.38,17.38,0,0,0,2.9531-.2109v8.4727a21.8651,21.8651,0,0,1-6.68,1.02q-6.1172,0-9.0352-2.8828t-2.918-8.7539V76.1875h-4.8516V67.9609h4.8516v-9.457Z"/><path d="M718.9121,78.6836l-3.9023-.2812q-5.59,0-7.1719,3.5156V106H695.99V67.9609H707.1l.3867,4.8867q2.9883-5.59,8.332-5.59a11.5535,11.5535,0,0,1,3.3047.4219Z"/><path d="M720.4238,86.6289a22.4512,22.4512,0,0,1,2.2148-10.1426,15.8389,15.8389,0,0,1,6.3633-6.8379,19.1644,19.1644,0,0,1,9.7383-2.3906q8.543,0,13.4648,5.291t4.9219,14.3965v.4219q0,8.8945-4.9395,14.1152t-13.377,5.2207q-8.1211,0-13.043-4.8691T720.459,88.6328Zm11.8477.7383q0,5.2734,1.6523,7.7344a5.5047,5.5047,0,0,0,4.8867,2.4609q6.3281,0,6.4688-9.7383V86.6289q0-10.23-6.5391-10.23-5.9414,0-6.4336,8.8242Z"/><path d="M797.6621,87.2617q0,8.8594-3.99,14.15a12.7934,12.7934,0,0,1-10.7754,5.291,10.9664,10.9664,0,0,1-8.6133-3.832V120.625H762.4355V67.9609H773.51l.3516,3.5156a10.967,10.967,0,0,1,8.9648-4.2187A12.8965,12.8965,0,0,1,793.76,72.4434q3.9023,5.1855,3.9023,14.2559Zm-11.8477-.7383q0-10.125-5.9062-10.125-4.2187,0-5.625,3.0234V94.3984q1.5469,3.1641,5.6953,3.1641,5.66,0,5.8359-9.7734Z"/><path d="M818.0879,89.4063l6.3281-21.4453h12.6914l-15.5039,44.4023-.668,1.6172q-3.3047,7.3828-11.6719,7.3828a18.5727,18.5727,0,0,1-4.8867-.7v-8.44h1.5469a8.1082,8.1082,0,0,0,3.8145-.7207,4.3835,4.3835,0,0,0,1.9512-2.5869l.9492-2.5322L799.42,67.9609h12.6563Z"/><path d="M94.8711,207.2012H82.0625l-2.876,7.999H75.0293l11.6738-30.57H90.23l11.6953,30.57H97.7891Zm-11.59-3.2969H93.6738l-5.207-14.2988Z"/><path d="M111.877,209.93l5.627-17.4473h3.9688L113.3262,215.2h-2.9609l-8.23-22.7178h3.9688Z"/><path d="M134.6367,215.62a9.9216,9.9216,0,0,1-7.5156-3.0342,11.2594,11.2594,0,0,1-2.8984-8.1152v-.7129a13.6306,13.6306,0,0,1,1.292-6.0371,10.07,10.07,0,0,1,3.6113-4.1572,9.0753,9.0753,0,0,1,5.0283-1.501,8.5092,8.5092,0,0,1,6.8867,2.918q2.4565,2.9194,2.457,8.3574v1.6162H128.1074a8.0792,8.0792,0,0,0,1.9629,5.4277,6.1746,6.1746,0,0,0,4.7773,2.0674,6.7551,6.7551,0,0,0,3.4844-.84,8.7317,8.7317,0,0,0,2.499-2.2246l2.3721,1.8477A9.538,9.538,0,0,1,134.6367,215.62Zm-.4824-20.3662a5.18,5.18,0,0,0-3.9473,1.7109,8.3133,8.3133,0,0,0-1.9736,4.7979h11.38v-.2939a7.4052,7.4052,0,0,0-1.5957-4.5879A4.8818,4.8818,0,0,0,134.1543,195.2539Z"/><path d="M158.9717,195.9678a11.6827,11.6827,0,0,0-1.9111-.1475,5.12,5.12,0,0,0-5.1855,3.2549V215.2H147.99V192.4824H151.77l.0635,2.625a6.0486,6.0486,0,0,1,5.417-3.0449,3.9624,3.9624,0,0,1,1.7217.2939Z"/><path d="M175.7266,215.2a8.1248,8.1248,0,0,1-.5459-2.3936,8.6665,8.6665,0,0,1-6.4668,2.8135,8.0211,8.0211,0,0,1-5.5117-1.9,6.1458,6.1458,0,0,1-2.1514-4.8184,6.423,6.423,0,0,1,2.6973-5.5117q2.6982-1.9629,7.59-1.9629h3.7793v-1.7842a4.3678,4.3678,0,0,0-1.2168-3.2441,4.8981,4.8981,0,0,0-3.5908-1.207,5.6669,5.6669,0,0,0-3.4854,1.0488,3.0958,3.0958,0,0,0-1.4062,2.541h-3.9062a5.359,5.359,0,0,1,1.208-3.2861,8.2414,8.2414,0,0,1,3.2754-2.5088,11.0256,11.0256,0,0,1,4.5459-.9238,8.98,8.98,0,0,1,6.1514,1.9629,7.0853,7.0853,0,0,1,2.31,5.4063v10.457a12.7726,12.7726,0,0,0,.7979,4.9756V215.2Zm-6.4453-2.96a6.8281,6.8281,0,0,0,3.4639-.9453,5.7167,5.7167,0,0,0,2.3721-2.457v-4.66h-3.0439q-7.1382,0-7.1387,4.1777a3.5337,3.5337,0,0,0,1.2178,2.8555A4.6821,4.6821,0,0,0,169.2813,212.24Z"/><path d="M184.167,203.6523q0-5.3115,2.4561-8.4512a8.47,8.47,0,0,1,12.9971-.1992l.1885-2.52h3.5488v22.1719a9.2386,9.2386,0,0,1-2.6143,6.9492,9.6455,9.6455,0,0,1-7.0225,2.541,11.6768,11.6768,0,0,1-4.8086-1.05,8.2759,8.2759,0,0,1-3.59-2.876l2.0156-2.3311a7.5935,7.5935,0,0,0,6.1094,3.0869,5.9569,5.9569,0,0,0,4.42-1.5957,6.103,6.103,0,0,0,1.585-4.4941v-1.9521A7.9834,7.9834,0,0,1,193.09,215.62a7.7631,7.7631,0,0,1-6.4561-3.2119Q184.167,209.1943,184.167,203.6523Zm3.9053.4414a10.1947,10.1947,0,0,0,1.5742,6.0361,5.12,5.12,0,0,0,4.41,2.1943,5.69,5.69,0,0,0,5.3955-3.3389V198.6133a5.7563,5.7563,0,0,0-5.3545-3.2539,5.1622,5.1622,0,0,0-4.43,2.2041Q188.0713,199.7681,188.0723,204.0938Z"/><path d="M218.6426,215.62a9.9223,9.9223,0,0,1-7.5166-3.0342,11.2588,11.2588,0,0,1-2.8975-8.1152v-.7129a13.63,13.63,0,0,1,1.291-6.0371,10.0771,10.0771,0,0,1,3.6113-4.1572,9.0785,9.0785,0,0,1,5.0293-1.501,8.5106,8.5106,0,0,1,6.8867,2.918q2.4551,2.9194,2.4561,8.3574v1.6162h-15.39a8.07,8.07,0,0,0,1.9629,5.4277,6.1711,6.1711,0,0,0,4.7764,2.0674,6.7588,6.7588,0,0,0,3.4854-.84,8.7281,8.7281,0,0,0,2.498-2.2246l2.373,1.8477A9.54,9.54,0,0,1,218.6426,215.62Zm-.4824-20.3662a5.1785,5.1785,0,0,0-3.9473,1.7109,8.3138,8.3138,0,0,0-1.9746,4.7979h11.3809v-.2939a7.4111,7.4111,0,0,0-1.5957-4.5879A4.8831,4.8831,0,0,0,218.16,195.2539Z"/><path d="M256.666,215.2a8.1319,8.1319,0,0,1-.5449-2.3936,8.668,8.668,0,0,1-6.4668,2.8135,8.0194,8.0194,0,0,1-5.5117-1.9,6.1436,6.1436,0,0,1-2.1523-4.8184,6.4254,6.4254,0,0,1,2.6973-5.5117q2.6982-1.9629,7.5908-1.9629h3.7793v-1.7842a4.3646,4.3646,0,0,0-1.2178-3.2441,4.8956,4.8956,0,0,0-3.59-1.207,5.6679,5.6679,0,0,0-3.4863,1.0488,3.0958,3.0958,0,0,0-1.4062,2.541h-3.9053a5.359,5.359,0,0,1,1.208-3.2861,8.2414,8.2414,0,0,1,3.2754-2.5088,11.021,11.021,0,0,1,4.5449-.9238,8.9847,8.9847,0,0,1,6.1523,1.9629,7.0846,7.0846,0,0,1,2.3086,5.4063v10.457a12.7525,12.7525,0,0,0,.7988,4.9756V215.2Zm-6.4453-2.96a6.829,6.829,0,0,0,3.4648-.9453,5.7167,5.7167,0,0,0,2.3721-2.457v-4.66h-3.0439q-7.14,0-7.1387,4.1777a3.5359,3.5359,0,0,0,1.2168,2.8555A4.6857,4.6857,0,0,0,250.2207,212.24Z"/><path d="M269.6836,192.4824l.1055,2.52a8.3922,8.3922,0,0,1,6.74-2.9395q4.7651,0,6.4873,3.6533a8.6053,8.6053,0,0,1,2.95-2.6455,8.7113,8.7113,0,0,1,4.293-1.0078q7.4751,0,7.6016,7.916V215.2h-3.8848V200.209a5.215,5.215,0,0,0-1.1133-3.6426,4.9,4.9,0,0,0-3.7363-1.207,5.1488,5.1488,0,0,0-3.5908,1.291,5.2386,5.2386,0,0,0-1.6592,3.4746V215.2h-3.9043V200.3145q0-4.9556-4.8506-4.9551a5.195,5.195,0,0,0-5.2275,3.2539V215.2H266.01V192.4824Z"/><path d="M302.6895,203.6309a13.414,13.414,0,0,1,1.3125-6.0039,9.7876,9.7876,0,0,1,3.6533-4.1152,9.9386,9.9386,0,0,1,5.3438-1.4492,9.5774,9.5774,0,0,1,7.5059,3.2129,12.355,12.355,0,0,1,2.8662,8.5449v.2734a13.539,13.539,0,0,1-1.2705,5.9521,9.6428,9.6428,0,0,1-3.6318,4.1045,10.057,10.057,0,0,1-5.4277,1.47,9.56,9.56,0,0,1-7.4854-3.2119,12.302,12.302,0,0,1-2.8662-8.5039Zm3.9063.4629a9.7157,9.7157,0,0,0,1.7529,6.0674,5.9418,5.9418,0,0,0,9.3955-.0312,10.627,10.627,0,0,0,1.7422-6.499,9.7034,9.7034,0,0,0-1.7734-6.0566,5.641,5.641,0,0,0-4.7139-2.32,5.5776,5.5776,0,0,0-4.64,2.2891A10.5475,10.5475,0,0,0,306.5957,204.0938Z"/><path d="M342.2676,212.9531q-2.2676,2.6675-6.6562,2.667a7.0594,7.0594,0,0,1-5.5322-2.11q-1.9-2.1094-1.9209-6.2461V192.4824h3.8848v14.6758q0,5.165,4.1992,5.166,4.45,0,5.92-3.3184V192.4824h3.8848V215.2h-3.6953Z"/><path d="M355.6211,192.4824l.126,2.8555a8.2777,8.2777,0,0,1,6.8027-3.2754q7.2012,0,7.2646,8.125V215.2H365.93V200.167a5.2281,5.2281,0,0,0-1.123-3.6318,4.4989,4.4989,0,0,0-3.4326-1.1758,5.6046,5.6046,0,0,0-3.3174,1.0078,6.8406,6.8406,0,0,0-2.2256,2.6445V215.2h-3.8838V192.4824Z"/><path d="M380.9424,186.9814v5.501h4.2412v3.002h-4.2412v14.1064a3.147,3.147,0,0,0,.5674,2.05,2.3854,2.3854,0,0,0,1.9316.6836,9.4224,9.4224,0,0,0,1.8477-.252v3.1309a11.3672,11.3672,0,0,1-2.9824.417,4.8341,4.8341,0,0,1-3.9258-1.5752,6.7617,6.7617,0,0,1-1.3223-4.4717V195.4844h-4.1367v-3.002h4.1367v-5.501Z"/><path d="M399.335,203.6309a13.4267,13.4267,0,0,1,1.3115-6.0039,9.79,9.79,0,0,1,3.6543-4.1152,9.9363,9.9363,0,0,1,5.3438-1.4492,9.5774,9.5774,0,0,1,7.5059,3.2129,12.3592,12.3592,0,0,1,2.8652,8.5449v.2734a13.5387,13.5387,0,0,1-1.27,5.9521,9.6513,9.6513,0,0,1-3.6328,4.1045,10.0523,10.0523,0,0,1-5.4277,1.47,9.5577,9.5577,0,0,1-7.4844-3.2119,12.302,12.302,0,0,1-2.8662-8.5039Zm3.9053.4629a9.71,9.71,0,0,0,1.7539,6.0674,5.9408,5.9408,0,0,0,9.3945-.0312,10.627,10.627,0,0,0,1.7432-6.499,9.6976,9.6976,0,0,0-1.7744-6.0566,5.6393,5.6393,0,0,0-4.7129-2.32,5.5794,5.5794,0,0,0-4.6406,2.2891A10.5475,10.5475,0,0,0,403.24,204.0938Z"/><path d="M426.7979,215.2V195.4844H423.207v-3.002h3.5908v-2.33a7.7415,7.7415,0,0,1,1.9521-5.6484,7.3769,7.3769,0,0,1,5.5225-1.9941,10.3111,10.3111,0,0,1,2.667.3535l-.2109,3.1309a11.2385,11.2385,0,0,0-2.1-.1885,3.7847,3.7847,0,0,0-2.918,1.1064,4.4836,4.4836,0,0,0-1.0293,3.17v2.4h4.8506v3.002h-4.8506V215.2Z"/><path d="M450.4814,186.457a2.3169,2.3169,0,0,1,.5771-1.5957,2.1685,2.1685,0,0,1,1.7109-.6514,2.2061,2.2061,0,0,1,1.7227.6514,2.2979,2.2979,0,0,1,.5879,1.5957,2.3,2.3,0,1,1-4.5986,0ZM454.6807,215.2h-3.8838V192.4824h3.8838Z"/><path d="M464.57,192.4824l.125,2.8555a8.28,8.28,0,0,1,6.8027-3.2754q7.2012,0,7.2656,8.125V215.2h-3.8848V200.167a5.2281,5.2281,0,0,0-1.123-3.6318,4.5013,4.5013,0,0,0-3.4336-1.1758,5.6016,5.6016,0,0,0-3.3164,1.0078,6.8346,6.8346,0,0,0-2.2266,2.6445V215.2h-3.8838V192.4824Z"/><path d="M486.5313,215.2V195.4844h-3.59v-3.002h3.59v-2.33a7.7378,7.7378,0,0,1,1.9531-5.6484,7.3745,7.3745,0,0,1,5.5215-1.9941,10.3,10.3,0,0,1,2.667.3535l-.21,3.1309a11.2385,11.2385,0,0,0-2.1-.1885,3.7847,3.7847,0,0,0-2.918,1.1064,4.4791,4.4791,0,0,0-1.0293,3.17v2.4h4.85v3.002h-4.85V215.2Z"/><path d="M498.5205,203.6309a13.4267,13.4267,0,0,1,1.3115-6.0039,9.79,9.79,0,0,1,3.6543-4.1152,9.9363,9.9363,0,0,1,5.3438-1.4492,9.5774,9.5774,0,0,1,7.5059,3.2129,12.3592,12.3592,0,0,1,2.8652,8.5449v.2734a13.5523,13.5523,0,0,1-1.27,5.9521,9.6513,9.6513,0,0,1-3.6328,4.1045,10.0523,10.0523,0,0,1-5.4277,1.47,9.5577,9.5577,0,0,1-7.4844-3.2119,12.302,12.302,0,0,1-2.8662-8.5039Zm3.9053.4629a9.71,9.71,0,0,0,1.7539,6.0674,5.9408,5.9408,0,0,0,9.3945-.0312,10.627,10.627,0,0,0,1.7422-6.499,9.6973,9.6973,0,0,0-1.7734-6.0566,5.6393,5.6393,0,0,0-4.7129-2.32,5.5794,5.5794,0,0,0-4.6406,2.2891A10.5475,10.5475,0,0,0,502.4258,204.0938Z"/><path d="M535.0537,195.9678a11.67,11.67,0,0,0-1.91-.1475,5.1184,5.1184,0,0,0-5.1855,3.2549V215.2h-3.8848V192.4824h3.7793l.0625,2.625a6.0513,6.0513,0,0,1,5.418-3.0449,3.9575,3.9575,0,0,1,1.7207.2939Z"/><path d="M542.2773,192.4824l.1045,2.52a8.3936,8.3936,0,0,1,6.74-2.9395q4.7666,0,6.4883,3.6533A8.6021,8.6021,0,0,1,558.56,193.07a8.7151,8.7151,0,0,1,4.2939-1.0078q7.4751,0,7.6006,7.916V215.2h-3.8848V200.209a5.2149,5.2149,0,0,0-1.1123-3.6426,4.9012,4.9012,0,0,0-3.7373-1.207,5.1464,5.1464,0,0,0-3.59,1.291,5.2386,5.2386,0,0,0-1.6592,3.4746V215.2h-3.9053V200.3145q0-4.9556-4.85-4.9551a5.1963,5.1963,0,0,0-5.2285,3.2539V215.2h-3.8848V192.4824Z"/><path d="M590.3369,215.2a8.1567,8.1567,0,0,1-.5459-2.3936,8.6649,8.6649,0,0,1-6.4668,2.8135,8.0211,8.0211,0,0,1-5.5117-1.9,6.1458,6.1458,0,0,1-2.1514-4.8184,6.423,6.423,0,0,1,2.6973-5.5117q2.6982-1.9629,7.59-1.9629h3.7793v-1.7842a4.364,4.364,0,0,0-1.2168-3.2441,4.8965,4.8965,0,0,0-3.5908-1.207,5.6669,5.6669,0,0,0-3.4854,1.0488,3.0958,3.0958,0,0,0-1.4062,2.541h-3.9062a5.359,5.359,0,0,1,1.208-3.2861,8.2414,8.2414,0,0,1,3.2754-2.5088,11.0256,11.0256,0,0,1,4.5459-.9238,8.98,8.98,0,0,1,6.1514,1.9629,7.0819,7.0819,0,0,1,2.31,5.4063v10.457a12.7726,12.7726,0,0,0,.7979,4.9756V215.2Zm-6.4453-2.96a6.8281,6.8281,0,0,0,3.4639-.9453,5.7112,5.7112,0,0,0,2.3721-2.457v-4.66h-3.0439q-7.1382,0-7.1387,4.1777a3.5366,3.5366,0,0,0,1.2178,2.8555A4.6821,4.6821,0,0,0,583.8916,212.24Z"/><path d="M604.9707,186.9814v5.501h4.2422v3.002h-4.2422v14.1064a3.1527,3.1527,0,0,0,.5674,2.05,2.3868,2.3868,0,0,0,1.9316.6836,9.4041,9.4041,0,0,0,1.8477-.252v3.1309a11.36,11.36,0,0,1-2.9814.417,4.8328,4.8328,0,0,1-3.9258-1.5752,6.7565,6.7565,0,0,1-1.3232-4.4717V195.4844h-4.1357v-3.002h4.1357v-5.501Z"/><path d="M613.7686,186.457a2.3123,2.3123,0,0,1,.5771-1.5957,2.1685,2.1685,0,0,1,1.7109-.6514,2.2024,2.2024,0,0,1,1.7217.6514,2.2934,2.2934,0,0,1,.5879,1.5957,2.2994,2.2994,0,1,1-4.5977,0ZM617.9678,215.2H614.083V192.4824h3.8848Z"/><path d="M623.1533,203.6309a13.414,13.414,0,0,1,1.3125-6.0039,9.7876,9.7876,0,0,1,3.6533-4.1152,9.9363,9.9363,0,0,1,5.3438-1.4492,9.576,9.576,0,0,1,7.5059,3.2129,12.355,12.355,0,0,1,2.8662,8.5449v.2734a13.539,13.539,0,0,1-1.2705,5.9521,9.6428,9.6428,0,0,1-3.6318,4.1045,10.0546,10.0546,0,0,1-5.4277,1.47,9.5611,9.5611,0,0,1-7.4854-3.2119,12.302,12.302,0,0,1-2.8662-8.5039Zm3.9063.4629a9.7157,9.7157,0,0,0,1.7529,6.0674,5.9418,5.9418,0,0,0,9.3955-.0312,10.627,10.627,0,0,0,1.7422-6.499,9.7034,9.7034,0,0,0-1.7734-6.0566,5.641,5.641,0,0,0-4.7139-2.32,5.5776,5.5776,0,0,0-4.64,2.2891A10.5475,10.5475,0,0,0,627.06,204.0938Z"/><path d="M652.38,192.4824l.127,2.8555a8.2777,8.2777,0,0,1,6.8027-3.2754q7.2012,0,7.2637,8.125V215.2h-3.8838V200.167a5.2281,5.2281,0,0,0-1.123-3.6318,4.5018,4.5018,0,0,0-3.4326-1.1758,5.61,5.61,0,0,0-3.3184,1.0078,6.8383,6.8383,0,0,0-2.2246,2.6445V215.2h-3.8848V192.4824Z"/><path d="M702.2676,204.0938a13.604,13.604,0,0,1-2.3721,8.3555A7.6043,7.6043,0,0,1,693.47,215.62a8.3277,8.3277,0,0,1-6.5078-2.624v10.9385h-3.8848V192.4824h3.5488l.1885,2.52a8.0039,8.0039,0,0,1,6.5928-2.9395,7.7494,7.7494,0,0,1,6.4775,3.0859q2.3818,3.0879,2.3828,8.5879Zm-3.8838-.4414a10.04,10.04,0,0,0-1.6387-6.0684,5.2766,5.2766,0,0,0-4.4922-2.2246,5.7106,5.7106,0,0,0-5.291,3.1279v10.8545a5.7188,5.7188,0,0,0,5.332,3.1074,5.2524,5.2524,0,0,0,4.4414-2.2148Q698.3833,208.02,698.3838,203.6523Z"/><path d="M718.1826,195.9678a11.67,11.67,0,0,0-1.91-.1475,5.1184,5.1184,0,0,0-5.1855,3.2549V215.2h-3.8848V192.4824h3.7793l.0625,2.625a6.0513,6.0513,0,0,1,5.418-3.0449,3.9575,3.9575,0,0,1,1.7207.2939Z"/><path d="M720.3037,203.6309a13.414,13.414,0,0,1,1.3125-6.0039,9.7876,9.7876,0,0,1,3.6533-4.1152,9.9363,9.9363,0,0,1,5.3438-1.4492,9.576,9.576,0,0,1,7.5059,3.2129,12.355,12.355,0,0,1,2.8662,8.5449v.2734a13.539,13.539,0,0,1-1.2705,5.9521,9.6428,9.6428,0,0,1-3.6318,4.1045,10.0546,10.0546,0,0,1-5.4277,1.47,9.5611,9.5611,0,0,1-7.4854-3.2119,12.302,12.302,0,0,1-2.8662-8.5039Zm3.9063.4629a9.7157,9.7157,0,0,0,1.7529,6.0674,5.9418,5.9418,0,0,0,9.3955-.0312,10.627,10.627,0,0,0,1.7422-6.499,9.7034,9.7034,0,0,0-1.7734-6.0566,5.641,5.641,0,0,0-4.7139-2.32,5.5776,5.5776,0,0,0-4.64,2.2891A10.5475,10.5475,0,0,0,724.21,204.0938Z"/><path d="M744.9111,203.6523a13.3063,13.3063,0,0,1,2.4785-8.4092,8.4288,8.4288,0,0,1,12.8066-.4512V182.95h3.8848V215.2h-3.5693l-.1885-2.4355a7.9135,7.9135,0,0,1-6.4883,2.8555,7.7583,7.7583,0,0,1-6.4355-3.2334,13.4613,13.4613,0,0,1-2.4883-8.44Zm3.8848.4414a10.08,10.08,0,0,0,1.5957,6.0469,5.16,5.16,0,0,0,4.4092,2.1836,5.6635,5.6635,0,0,0,5.3955-3.3184V198.5713a5.7085,5.7085,0,0,0-5.3535-3.2119,5.1826,5.1826,0,0,0-4.4512,2.2041Q748.7964,199.7681,748.7959,204.0938Z"/><path d="M784.1318,212.9531q-2.2676,2.6675-6.6562,2.667a7.0608,7.0608,0,0,1-5.5322-2.11q-1.9-2.1094-1.9209-6.2461V192.4824h3.8848v14.6758q0,5.165,4.1992,5.166,4.45,0,5.92-3.3184V192.4824h3.8848V215.2h-3.6953Z"/><path d="M802.9238,212.4492a5.5924,5.5924,0,0,0,3.6318-1.26,4.4313,4.4313,0,0,0,1.7227-3.1484h3.6738a7.0451,7.0451,0,0,1-1.3437,3.7158,8.8524,8.8524,0,0,1-3.3066,2.8135,9.55,9.55,0,0,1-4.3779,1.05,9.3572,9.3572,0,0,1-7.38-3.0967q-2.7407-3.0967-2.74-8.4727v-.65a13.6891,13.6891,0,0,1,1.2178-5.9,9.2744,9.2744,0,0,1,3.4961-4.01,9.9351,9.9351,0,0,1,5.3857-1.4277,9.112,9.112,0,0,1,6.3506,2.2891,8.18,8.18,0,0,1,2.6982,5.9414h-3.6738a5.356,5.356,0,0,0-1.67-3.6221,5.1946,5.1946,0,0,0-3.7051-1.417,5.4367,5.4367,0,0,0-4.5879,2.1309,10.0069,10.0069,0,0,0-1.627,6.1621v.7354a9.8043,9.8043,0,0,0,1.6162,6.0469A5.4614,5.4614,0,0,0,802.9238,212.4492Z"/><path d="M825.7471,215.62a9.9244,9.9244,0,0,1-7.5176-3.0342,11.2583,11.2583,0,0,1-2.8965-8.1152v-.7129a13.63,13.63,0,0,1,1.291-6.0371,10.07,10.07,0,0,1,3.6113-4.1572,9.0753,9.0753,0,0,1,5.0283-1.501,8.5092,8.5092,0,0,1,6.8867,2.918q2.4565,2.9194,2.4561,8.3574v1.6162h-15.39a8.0743,8.0743,0,0,0,1.9629,5.4277,6.1725,6.1725,0,0,0,4.7764,2.0674,6.7625,6.7625,0,0,0,3.4863-.84,8.741,8.741,0,0,0,2.498-2.2246l2.373,1.8477A9.54,9.54,0,0,1,825.7471,215.62Zm-.4834-20.3662a5.1814,5.1814,0,0,0-3.9473,1.7109,8.32,8.32,0,0,0-1.9736,4.7979h11.38v-.2939a7.3994,7.3994,0,0,0-1.5957-4.5879A4.88,4.88,0,0,0,825.2637,195.2539Z"/><path d="M838.1553,203.6523a13.3063,13.3063,0,0,1,2.4785-8.4092,8.4288,8.4288,0,0,1,12.8066-.4512V182.95h3.8848V215.2h-3.5693l-.1885-2.4355a7.9135,7.9135,0,0,1-6.4883,2.8555,7.7583,7.7583,0,0,1-6.4355-3.2334,13.4613,13.4613,0,0,1-2.4883-8.44Zm3.8848.4414a10.08,10.08,0,0,0,1.5957,6.0469,5.16,5.16,0,0,0,4.4092,2.1836,5.6635,5.6635,0,0,0,5.3955-3.3184V198.5713a5.7085,5.7085,0,0,0-5.3535-3.2119,5.1826,5.1826,0,0,0-4.4512,2.2041Q842.0405,199.7681,842.04,204.0938Z"/><path d="M893.2275,204.0938a13.5064,13.5064,0,0,1-2.3936,8.3662,7.6486,7.6486,0,0,1-6.4248,3.16,7.9221,7.9221,0,0,1-6.6562-3.0439l-.1885,2.624h-3.5693V182.95H877.88v12.03a7.8731,7.8731,0,0,1,6.4873-2.918,7.6926,7.6926,0,0,1,6.498,3.1289q2.3628,3.1289,2.3623,8.5664Zm-3.8848-.4414a10.4982,10.4982,0,0,0-1.5322-6.1309,5.0735,5.0735,0,0,0-4.4092-2.1621,5.7017,5.7017,0,0,0-5.5215,3.5684v9.8262a5.86,5.86,0,0,0,5.5635,3.57,5.0465,5.0465,0,0,0,4.3467-2.1631Q889.3428,207.999,889.3428,203.6523Z"/><path d="M905.5527,209.51l5.291-17.0273h4.1572l-9.1328,26.2246q-2.1211,5.6689-6.74,5.668l-.7344-.0625-1.4492-.2734v-3.1484l1.05.084a5.1688,5.1688,0,0,0,3.0762-.7988,5.7686,5.7686,0,0,0,1.8154-2.918l.8613-2.31-8.1045-22.4658h4.2412Z"/><path d="M943.1357,215.2a8.1567,8.1567,0,0,1-.5459-2.3936,8.6649,8.6649,0,0,1-6.4668,2.8135,8.0211,8.0211,0,0,1-5.5117-1.9,6.1458,6.1458,0,0,1-2.1514-4.8184,6.423,6.423,0,0,1,2.6973-5.5117q2.6982-1.9629,7.59-1.9629h3.7793v-1.7842a4.364,4.364,0,0,0-1.2168-3.2441,4.8965,4.8965,0,0,0-3.5908-1.207,5.6669,5.6669,0,0,0-3.4854,1.0488,3.0958,3.0958,0,0,0-1.4062,2.541h-3.9062a5.359,5.359,0,0,1,1.208-3.2861,8.2414,8.2414,0,0,1,3.2754-2.5088,11.0256,11.0256,0,0,1,4.5459-.9238,8.98,8.98,0,0,1,6.1514,1.9629,7.0819,7.0819,0,0,1,2.31,5.4063v10.457a12.7726,12.7726,0,0,0,.7979,4.9756V215.2Zm-6.4453-2.96a6.8281,6.8281,0,0,0,3.4639-.9453,5.7112,5.7112,0,0,0,2.3721-2.457v-4.66h-3.0439q-7.1382,0-7.1387,4.1777a3.5366,3.5366,0,0,0,1.2178,2.8555A4.6821,4.6821,0,0,0,936.69,212.24Z"/><path d="M376.376,247.5674a11.6827,11.6827,0,0,0-1.9111-.1475,5.12,5.12,0,0,0-5.1855,3.2549V266.8h-3.8848V244.082h3.7793l.0635,2.625a6.0486,6.0486,0,0,1,5.417-3.0449,3.9624,3.9624,0,0,1,1.7217.2939Z"/><path d="M393.1309,266.8a8.1248,8.1248,0,0,1-.5459-2.3936,8.6665,8.6665,0,0,1-6.4668,2.8135,8.0211,8.0211,0,0,1-5.5117-1.9,6.1458,6.1458,0,0,1-2.1514-4.8184,6.423,6.423,0,0,1,2.6973-5.5117q2.6982-1.9629,7.59-1.9629h3.7793v-1.7842a4.3678,4.3678,0,0,0-1.2168-3.2441,4.8981,4.8981,0,0,0-3.5908-1.207,5.6669,5.6669,0,0,0-3.4854,1.0488,3.0958,3.0958,0,0,0-1.4062,2.541H378.916a5.359,5.359,0,0,1,1.208-3.2861,8.2414,8.2414,0,0,1,3.2754-2.5088,11.0256,11.0256,0,0,1,4.5459-.9238,8.98,8.98,0,0,1,6.1514,1.9629,7.0853,7.0853,0,0,1,2.31,5.4063v10.457a12.7726,12.7726,0,0,0,.7979,4.9756V266.8Zm-6.4453-2.96a6.8281,6.8281,0,0,0,3.4639-.9453,5.7167,5.7167,0,0,0,2.3721-2.457v-4.66h-3.0439q-7.1382,0-7.1387,4.1777a3.5337,3.5337,0,0,0,1.2178,2.8555A4.6821,4.6821,0,0,0,386.6855,263.84Z"/><path d="M406.17,244.082l.125,2.8555a8.28,8.28,0,0,1,6.8027-3.2754q7.2012,0,7.2656,8.125V266.8h-3.8848V251.7666a5.2281,5.2281,0,0,0-1.123-3.6318,4.5013,4.5013,0,0,0-3.4336-1.1758,5.6016,5.6016,0,0,0-3.3164,1.0078,6.8346,6.8346,0,0,0-2.2266,2.6445V266.8h-3.8838V244.082Z"/><path d="M425.2754,255.252a13.3063,13.3063,0,0,1,2.4785-8.4092,8.4288,8.4288,0,0,1,12.8066-.4512V234.55h3.8848V266.8H440.876l-.1885-2.4355a7.9135,7.9135,0,0,1-6.4883,2.8555,7.7583,7.7583,0,0,1-6.4355-3.2334,13.4613,13.4613,0,0,1-2.4883-8.44Zm3.8848.4414a10.0732,10.0732,0,0,0,1.5957,6.0469,5.16,5.16,0,0,0,4.4092,2.1836,5.6635,5.6635,0,0,0,5.3955-3.3184V250.1709a5.71,5.71,0,0,0-5.3535-3.2119,5.1814,5.1814,0,0,0-4.4512,2.2041Q429.1592,251.3677,429.16,255.6934Z"/><path d="M449.4424,255.23a13.4267,13.4267,0,0,1,1.3115-6.0039,9.79,9.79,0,0,1,3.6543-4.1152,9.9363,9.9363,0,0,1,5.3438-1.4492,9.5774,9.5774,0,0,1,7.5059,3.2129,12.3592,12.3592,0,0,1,2.8652,8.5449v.2734a13.5387,13.5387,0,0,1-1.27,5.9521,9.6513,9.6513,0,0,1-3.6328,4.1045,10.0523,10.0523,0,0,1-5.4277,1.47,9.5577,9.5577,0,0,1-7.4844-3.2119,12.302,12.302,0,0,1-2.8662-8.5039Zm3.9053.4629a9.71,9.71,0,0,0,1.7539,6.0674,5.9408,5.9408,0,0,0,9.3945-.0312,10.627,10.627,0,0,0,1.7432-6.499,9.6976,9.6976,0,0,0-1.7744-6.0566,5.6393,5.6393,0,0,0-4.7129-2.32,5.5794,5.5794,0,0,0-4.6406,2.2891A10.5475,10.5475,0,0,0,453.3477,255.6934Z"/><path d="M478.6484,244.082l.1045,2.52a8.39,8.39,0,0,1,6.7393-2.9395q4.7666,0,6.4883,3.6533A8.6109,8.6109,0,0,1,494.93,244.67a8.7163,8.7163,0,0,1,4.2949-1.0078q7.4736,0,7.6,7.916V266.8H502.94V251.8086a5.22,5.22,0,0,0-1.1123-3.6426,4.9037,4.9037,0,0,0-3.7383-1.207,5.1464,5.1464,0,0,0-3.59,1.291,5.2333,5.2333,0,0,0-1.6582,3.4746V266.8h-3.9062V251.9141q0-4.9556-4.85-4.9551a5.1963,5.1963,0,0,0-5.2285,3.2539V266.8h-3.8838V244.082Z"/><path d="M536.5557,260.7734a2.8582,2.8582,0,0,0-1.1865-2.4453,11.4176,11.4176,0,0,0-4.1357-1.502,19.5655,19.5655,0,0,1-4.6826-1.5117,6.6577,6.6577,0,0,1-2.5615-2.1,5.0188,5.0188,0,0,1-.8291-2.8965,5.8937,5.8937,0,0,1,2.3623-4.7246,9.2272,9.2272,0,0,1,6.0361-1.9316,9.4985,9.4985,0,0,1,6.2676,1.9941,6.3378,6.3378,0,0,1,2.4043,5.1025h-3.9062a3.51,3.51,0,0,0-1.3535-2.751,5.0765,5.0765,0,0,0-3.4121-1.1543,5.314,5.314,0,0,0-3.3174.9238,2.9079,2.9079,0,0,0-1.1963,2.4141,2.3548,2.3548,0,0,0,1.1123,2.1211,13.6629,13.6629,0,0,0,4.0205,1.3652,20.9648,20.9648,0,0,1,4.7139,1.5527,6.8735,6.8735,0,0,1,2.6768,2.1738,5.3406,5.3406,0,0,1,.8711,3.0967,5.8126,5.8126,0,0,1-2.4355,4.8818,10.2137,10.2137,0,0,1-6.3193,1.8369,11.4448,11.4448,0,0,1-4.8291-.9658,7.8523,7.8523,0,0,1-3.2861-2.6982,6.4985,6.4985,0,0,1-1.1865-3.7471h3.8848a4.021,4.021,0,0,0,1.5645,3.0967,6.0679,6.0679,0,0,0,3.8525,1.1436,6.268,6.268,0,0,0,3.5381-.8916A2.7426,2.7426,0,0,0,536.5557,260.7734Z"/><path d="M544.4707,255.23a13.414,13.414,0,0,1,1.3125-6.0039,9.7876,9.7876,0,0,1,3.6533-4.1152,9.9363,9.9363,0,0,1,5.3438-1.4492,9.576,9.576,0,0,1,7.5059,3.2129,12.355,12.355,0,0,1,2.8662,8.5449v.2734a13.539,13.539,0,0,1-1.2705,5.9521A9.6428,9.6428,0,0,1,560.25,265.75a10.0546,10.0546,0,0,1-5.4277,1.47,9.5611,9.5611,0,0,1-7.4854-3.2119,12.302,12.302,0,0,1-2.8662-8.5039Zm3.9063.4629a9.7157,9.7157,0,0,0,1.7529,6.0674,5.9418,5.9418,0,0,0,9.3955-.0312,10.627,10.627,0,0,0,1.7422-6.499,9.7034,9.7034,0,0,0-1.7734-6.0566,5.641,5.641,0,0,0-4.7139-2.32,5.5776,5.5776,0,0,0-4.64,2.2891A10.5475,10.5475,0,0,0,548.377,255.6934Z"/><path d="M584.0488,264.5527q-2.2676,2.6675-6.6562,2.667a7.0608,7.0608,0,0,1-5.5322-2.11q-1.9-2.1094-1.9209-6.2461V244.082h3.8848v14.6758q0,5.165,4.1992,5.166,4.45,0,5.92-3.3184V244.082h3.8848V266.8h-3.6953Z"/><path d="M604.709,247.5674a11.67,11.67,0,0,0-1.91-.1475,5.1184,5.1184,0,0,0-5.1855,3.2549V266.8h-3.8848V244.082h3.7793l.0625,2.625a6.0513,6.0513,0,0,1,5.418-3.0449,3.9575,3.9575,0,0,1,1.7207.2939Z"/><path d="M616.9932,264.0488a5.5924,5.5924,0,0,0,3.6318-1.26,4.4313,4.4313,0,0,0,1.7227-3.1484h3.6738a7.0451,7.0451,0,0,1-1.3437,3.7158,8.8524,8.8524,0,0,1-3.3066,2.8135,9.5505,9.5505,0,0,1-4.3779,1.05,9.3572,9.3572,0,0,1-7.38-3.0967q-2.7407-3.0967-2.74-8.4727V255a13.6891,13.6891,0,0,1,1.2178-5.9,9.2744,9.2744,0,0,1,3.4961-4.01,9.9351,9.9351,0,0,1,5.3857-1.4277,9.112,9.112,0,0,1,6.3506,2.2891,8.18,8.18,0,0,1,2.6982,5.9414h-3.6738a5.356,5.356,0,0,0-1.67-3.6221,5.1946,5.1946,0,0,0-3.7051-1.417,5.4367,5.4367,0,0,0-4.5879,2.1309,10.0069,10.0069,0,0,0-1.627,6.1621v.7354a9.8043,9.8043,0,0,0,1.6162,6.0469A5.4614,5.4614,0,0,0,616.9932,264.0488Z"/><path d="M639.8164,267.22a9.9244,9.9244,0,0,1-7.5176-3.0342,11.2583,11.2583,0,0,1-2.8965-8.1152v-.7129a13.63,13.63,0,0,1,1.291-6.0371,10.07,10.07,0,0,1,3.6113-4.1572,9.0753,9.0753,0,0,1,5.0283-1.501,8.5092,8.5092,0,0,1,6.8867,2.918q2.4565,2.9194,2.4561,8.3574v1.6162h-15.39a8.0743,8.0743,0,0,0,1.9629,5.4277,6.1725,6.1725,0,0,0,4.7764,2.0674,6.7625,6.7625,0,0,0,3.4863-.84,8.741,8.741,0,0,0,2.498-2.2246l2.373,1.8477A9.54,9.54,0,0,1,639.8164,267.22Zm-.4834-20.3662a5.1814,5.1814,0,0,0-3.9473,1.7109,8.32,8.32,0,0,0-1.9736,4.7979h11.38v-.2939a7.3994,7.3994,0,0,0-1.5957-4.5879A4.88,4.88,0,0,0,639.333,246.8535Z"/><path d="M653.2539,264.7637a2.4292,2.4292,0,0,1,.5986-1.68,2.2778,2.2778,0,0,1,1.7949-.6719,2.3481,2.3481,0,0,1,1.8164.6719,2.3858,2.3858,0,0,1,.6191,1.68,2.2562,2.2562,0,0,1-.6191,1.6162,2.393,2.393,0,0,1-1.8164.6514,2.32,2.32,0,0,1-1.7949-.6514A2.2954,2.2954,0,0,1,653.2539,264.7637Z"/><path class="a" d="M473.83,576.4h-6.2988V545.83H473.83Z"/><path class="a" d="M478.3223,564.873a13.695,13.695,0,0,1,2.3828-8.4609,7.7336,7.7336,0,0,1,6.52-3.1494,6.959,6.959,0,0,1,5.48,2.4775V544.15h6.0889V576.4h-5.4795l-.2949-2.4141a7.1418,7.1418,0,0,1-5.8359,2.834,7.71,7.71,0,0,1-6.4355-3.16Q478.3223,570.5,478.3223,564.873Zm6.0684.4521a8.9624,8.9624,0,0,0,1.1133,4.8994,3.6217,3.6217,0,0,0,3.2324,1.7031,4.0589,4.0589,0,0,0,3.9688-2.376v-8.9785a4.0016,4.0016,0,0,0-3.9258-2.376Q484.3906,558.1973,484.3906,565.3252Z"/><path class="a" d="M513.9531,576.82a11.1536,11.1536,0,0,1-8.1367-3.0654,10.9,10.9,0,0,1-3.1387-8.167V565a13.7254,13.7254,0,0,1,1.3232-6.1211,9.7245,9.7245,0,0,1,3.7471-4.1572,10.5227,10.5227,0,0,1,5.5332-1.459,9.4273,9.4273,0,0,1,7.3379,2.9395q2.6777,2.94,2.6777,8.335v2.4785H508.83a5.6328,5.6328,0,0,0,1.7734,3.5684,5.3633,5.3633,0,0,0,3.748,1.3438,6.5514,6.5514,0,0,0,5.48-2.54l2.98,3.3389a9.0952,9.0952,0,0,1-3.6953,3.0127A12.1217,12.1217,0,0,1,513.9531,576.82Zm-.6934-18.666a3.7892,3.7892,0,0,0-2.9277,1.2236,6.3331,6.3331,0,0,0-1.4395,3.501h8.4414v-.4854a4.5273,4.5273,0,0,0-1.0918-3.1318A3.9138,3.9138,0,0,0,513.26,558.1543Z"/><path class="a" d="M539.9043,576.4a6.7,6.7,0,0,1-.6084-2.0371,7.3416,7.3416,0,0,1-5.7324,2.457,8.0624,8.0624,0,0,1-5.5322-1.9316,6.2122,6.2122,0,0,1-2.1943-4.8711,6.4217,6.4217,0,0,1,2.6768-5.543q2.6777-1.9321,7.7373-1.9531h2.793v-1.3008a3.7445,3.7445,0,0,0-.8086-2.52,3.1775,3.1775,0,0,0-2.5508-.9453,3.6167,3.6167,0,0,0-2.4043.7344,2.4966,2.4966,0,0,0-.8711,2.0156h-6.0684a6.0939,6.0939,0,0,1,1.2178-3.6523,8.0547,8.0547,0,0,1,3.4434-2.6357,12.5507,12.5507,0,0,1,4.9971-.9551,9.9106,9.9106,0,0,1,6.666,2.11,7.3815,7.3815,0,0,1,2.4668,5.9316v9.8467a10.8666,10.8666,0,0,0,.9033,4.8916V576.4Zm-5.0186-4.2207a5.2332,5.2332,0,0,0,2.4785-.5977,3.9354,3.9354,0,0,0,1.68-1.6064V566.07h-2.2676q-4.5571,0-4.8506,3.1494l-.0205.3564a2.4321,2.4321,0,0,0,.7969,1.8691A3.098,3.098,0,0,0,534.8857,572.18Z"/><path class="a" d="M550.0879,556.2227a3.0583,3.0583,0,0,1,.9756-2.3516,3.795,3.795,0,0,1,4.9131,0,3.0557,3.0557,0,0,1,.9766,2.3516,3.014,3.014,0,0,1-.9658,2.32,3.8563,3.8563,0,0,1-4.9346,0A3.0132,3.0132,0,0,1,550.0879,556.2227Zm0,17.1963a3.0554,3.0554,0,0,1,.9756-2.3516,3.7919,3.7919,0,0,1,4.9131,0,3.0528,3.0528,0,0,1,.9766,2.3516,3.014,3.014,0,0,1-.9658,2.32,3.86,3.86,0,0,1-4.9346,0A3.0132,3.0132,0,0,1,550.0879,573.4189Z"/><path d="M215.7979,597.43v20.7861a9.7535,9.7535,0,0,1-2.7187,7.0752,10.9556,10.9556,0,0,1-7.3174,3.0869l-1.07.042a11.4383,11.4383,0,0,1-8-2.709,9.68,9.68,0,0,1-3.0234-7.4531V597.43h3.9893v20.7021a6.3763,6.3763,0,0,0,7.0342,6.9912,7.0676,7.0676,0,0,0,5.2383-1.8262,6.9793,6.9793,0,0,0,1.8164-5.1445V597.43Z"/><path d="M233.3711,615.6328h-7.18V628h-4.0527V597.43h10.12q5.165,0,7.9473,2.3516a8.4612,8.4612,0,0,1,2.7822,6.8447,8.2251,8.2251,0,0,1-1.5439,4.9756,9.21,9.21,0,0,1-4.2939,3.1709l7.1816,12.9756V628h-4.3262Zm-7.18-3.2959h6.1934a6.9825,6.9825,0,0,0,4.7764-1.5566,5.2632,5.2632,0,0,0,1.7744-4.165,5.5419,5.5419,0,0,0-1.69-4.3535,7.1534,7.1534,0,0,0-4.8818-1.5352h-6.1719Z"/><path d="M252.6875,624.7031h14.4883V628h-18.54V597.43h4.0518Z"/><path d="M285.6934,608.0332a8.2578,8.2578,0,0,1,6.7188-3.1709q7.2012,0,7.2656,8.126V628H295.793V612.9668a5.2325,5.2325,0,0,0-1.123-3.6328,4.505,4.505,0,0,0-3.4336-1.1758,5.6016,5.6016,0,0,0-3.3164,1.0078,6.8407,6.8407,0,0,0-2.2266,2.6465V628H281.81V595.75h3.8838Z"/><path d="M319.5186,628a8.1651,8.1651,0,0,1-.5459-2.3936,8.6649,8.6649,0,0,1-6.4668,2.8135,8.0164,8.0164,0,0,1-5.5117-1.9,6.1481,6.1481,0,0,1-2.1523-4.8184,6.4262,6.4262,0,0,1,2.6982-5.5117q2.6982-1.9629,7.5908-1.9629H318.91v-1.7852a4.3591,4.3591,0,0,0-1.2187-3.2432,4.8928,4.8928,0,0,0-3.59-1.208,5.6616,5.6616,0,0,0-3.4854,1.0508,3.09,3.09,0,0,0-1.4072,2.54h-3.9043a5.3636,5.3636,0,0,1,1.207-3.2861,8.2414,8.2414,0,0,1,3.2754-2.5088,11.0119,11.0119,0,0,1,4.5449-.9238,8.9847,8.9847,0,0,1,6.1523,1.9629,7.084,7.084,0,0,1,2.31,5.4072v10.4551a12.7779,12.7779,0,0,0,.7979,4.9766V628Zm-6.4463-2.9609a6.8253,6.8253,0,0,0,3.4648-.9443,5.7171,5.7171,0,0,0,2.373-2.4561v-4.6621h-3.0449q-7.14,0-7.1387,4.1787a3.5366,3.5366,0,0,0,1.2178,2.8555A4.6807,4.6807,0,0,0,313.0723,625.0391Z"/><path d="M342.11,621.9746a2.8587,2.8587,0,0,0-1.1865-2.4463,11.42,11.42,0,0,0-4.1357-1.501,19.5655,19.5655,0,0,1-4.6826-1.5117,6.6737,6.6737,0,0,1-2.5615-2.1,5.0273,5.0273,0,0,1-.8291-2.8984,5.8919,5.8919,0,0,1,2.3623-4.7236,9.2218,9.2218,0,0,1,6.0361-1.9316,9.4937,9.4937,0,0,1,6.2676,1.9951,6.3345,6.3345,0,0,1,2.4043,5.1016h-3.9062a3.5064,3.5064,0,0,0-1.3535-2.75,5.0739,5.0739,0,0,0-3.4121-1.1553,5.3078,5.3078,0,0,0-3.3174.9238,2.9084,2.9084,0,0,0-1.1963,2.415,2.3543,2.3543,0,0,0,1.1123,2.12,13.6867,13.6867,0,0,0,4.0205,1.3643,20.94,20.94,0,0,1,4.7139,1.5547,6.8647,6.8647,0,0,1,2.6768,2.1729,5.3406,5.3406,0,0,1,.8711,3.0967,5.8139,5.8139,0,0,1-2.4355,4.8818,10.2157,10.2157,0,0,1-6.3193,1.8369,11.4448,11.4448,0,0,1-4.8291-.9658,7.8463,7.8463,0,0,1-3.2861-2.6982,6.5086,6.5086,0,0,1-1.1865-3.748h3.8848a4.0229,4.0229,0,0,0,1.5645,3.0977,6.0682,6.0682,0,0,0,3.8525,1.1445,6.2658,6.2658,0,0,0,3.5381-.8926A2.7422,2.7422,0,0,0,342.11,621.9746Z"/><path d="M365.92,628h-3.8848V595.75H365.92Z"/><path d="M371.1055,616.4316a13.42,13.42,0,0,1,1.3125-6.0059,9.7992,9.7992,0,0,1,3.6533-4.1152,9.9552,9.9552,0,0,1,5.3438-1.4482,9.583,9.583,0,0,1,7.5059,3.2119,12.3593,12.3593,0,0,1,2.8662,8.5459v.2725a13.54,13.54,0,0,1-1.2705,5.9531,9.6428,9.6428,0,0,1-3.6318,4.1045,10.0655,10.0655,0,0,1-5.4277,1.47,9.5541,9.5541,0,0,1-7.4854-3.2129,12.2961,12.2961,0,0,1-2.8662-8.5029Zm3.9063.4609a9.7187,9.7187,0,0,0,1.7529,6.0684,5.94,5.94,0,0,0,9.3955-.0312,10.6258,10.6258,0,0,0,1.7422-6.498,9.7025,9.7025,0,0,0-1.7734-6.0576,5.641,5.641,0,0,0-4.7139-2.32,5.5768,5.5768,0,0,0-4.64,2.2881A10.5514,10.5514,0,0,0,375.0117,616.8926Z"/><path d="M416.7725,622.6465l4.3672-17.3643h3.8838L418.41,628h-3.1494l-5.5225-17.2168L404.3633,628h-3.1484l-6.5937-22.7178h3.8633l4.4727,17.0068,5.291-17.0068h3.1289Z"/><path d="M439.6367,599.2559a2.3228,2.3228,0,0,1,.5781-1.5957,2.168,2.168,0,0,1,1.7109-.65,2.202,2.202,0,0,1,1.7217.65,2.2985,2.2985,0,0,1,.5879,1.5957,2.4045,2.4045,0,0,1-4.0205,1.5752A2.2426,2.2426,0,0,1,439.6367,599.2559ZM443.8359,628h-3.8838V605.2822h3.8838Z"/><path d="M453.7256,605.2822l.126,2.8555a8.2777,8.2777,0,0,1,6.8027-3.2754q7.2012,0,7.2646,8.126V628h-3.8838V612.9668a5.2373,5.2373,0,0,0-1.123-3.6328,4.508,4.508,0,0,0-3.4336-1.1758,5.6067,5.6067,0,0,0-3.3174,1.0078,6.8383,6.8383,0,0,0-2.2256,2.6465V628h-3.8848V605.2822Z"/><path d="M475.6875,628V608.2852h-3.59v-3.0029h3.59v-2.3311a7.7313,7.7313,0,0,1,1.9531-5.6475,7.372,7.372,0,0,1,5.5215-1.9951,10.2533,10.2533,0,0,1,2.666.3555l-.209,3.1309a11.0817,11.0817,0,0,0-2.1-.1895,3.7934,3.7934,0,0,0-2.9189,1.1055,4.4821,4.4821,0,0,0-1.0283,3.17v2.4014h4.85v3.0029h-4.85V628Z"/><path d="M487.6758,616.4316a13.42,13.42,0,0,1,1.3125-6.0059,9.7992,9.7992,0,0,1,3.6533-4.1152,9.9552,9.9552,0,0,1,5.3438-1.4482,9.583,9.583,0,0,1,7.5059,3.2119,12.3593,12.3593,0,0,1,2.8662,8.5459v.2725a13.54,13.54,0,0,1-1.2705,5.9531,9.6428,9.6428,0,0,1-3.6318,4.1045,10.0655,10.0655,0,0,1-5.4277,1.47,9.5541,9.5541,0,0,1-7.4854-3.2129,12.2961,12.2961,0,0,1-2.8662-8.5029Zm3.9063.4609a9.7187,9.7187,0,0,0,1.7529,6.0684,5.94,5.94,0,0,0,9.3955-.0312,10.6258,10.6258,0,0,0,1.7422-6.498,9.7025,9.7025,0,0,0-1.7734-6.0576,5.641,5.641,0,0,0-4.7139-2.32,5.5768,5.5768,0,0,0-4.64,2.2881A10.5514,10.5514,0,0,0,491.582,616.8926Z"/><path d="M524.209,608.7676a11.6746,11.6746,0,0,0-1.91-.1465,5.1164,5.1164,0,0,0-5.1855,3.2539V628h-3.8848V605.2822h3.7793l.0625,2.624a6.05,6.05,0,0,1,5.418-3.0439,3.9575,3.9575,0,0,1,1.7207.2939Z"/><path d="M531.4326,605.2822l.1045,2.52a8.3906,8.3906,0,0,1,6.74-2.9395q4.7666,0,6.4883,3.6533a8.6021,8.6021,0,0,1,2.9492-2.6455,8.7151,8.7151,0,0,1,4.2939-1.0078q7.4751,0,7.6006,7.915V628h-3.8848V613.0088a5.2132,5.2132,0,0,0-1.1123-3.6426,4.9013,4.9013,0,0,0-3.7373-1.208,5.1471,5.1471,0,0,0-3.59,1.292,5.2364,5.2364,0,0,0-1.6592,3.4746V628h-3.9053V613.1133q0-4.9541-4.85-4.9551a5.197,5.197,0,0,0-5.2285,3.2549V628h-3.8848V605.2822Z"/><path d="M579.4922,628a8.1651,8.1651,0,0,1-.5459-2.3936,8.6649,8.6649,0,0,1-6.4668,2.8135,8.0164,8.0164,0,0,1-5.5117-1.9,6.1472,6.1472,0,0,1-2.1514-4.8184,6.423,6.423,0,0,1,2.6973-5.5117q2.6982-1.9629,7.59-1.9629h3.7793v-1.7852a4.3617,4.3617,0,0,0-1.2168-3.2432,4.8968,4.8968,0,0,0-3.5908-1.208,5.6616,5.6616,0,0,0-3.4854,1.0508,3.0916,3.0916,0,0,0-1.4062,2.54h-3.9062a5.359,5.359,0,0,1,1.208-3.2861,8.2414,8.2414,0,0,1,3.2754-2.5088,11.01,11.01,0,0,1,4.5459-.9238,8.98,8.98,0,0,1,6.1514,1.9629,7.084,7.084,0,0,1,2.31,5.4072v10.4551a12.7779,12.7779,0,0,0,.7979,4.9766V628Zm-6.4453-2.9609a6.8271,6.8271,0,0,0,3.4639-.9443,5.7091,5.7091,0,0,0,2.3721-2.4561v-4.6621h-3.0439q-7.1382,0-7.1387,4.1787a3.5366,3.5366,0,0,0,1.2178,2.8555A4.6816,4.6816,0,0,0,573.0469,625.0391Z"/><path d="M594.126,599.7813v5.501h4.2422v3.0029H594.126v14.1055a3.1527,3.1527,0,0,0,.5674,2.05,2.3865,2.3865,0,0,0,1.9316.6826,9.4041,9.4041,0,0,0,1.8477-.252v3.1318a11.32,11.32,0,0,1-2.9814.417,4.8383,4.8383,0,0,1-3.9258-1.5742,6.7629,6.7629,0,0,1-1.3232-4.4727V608.2852h-4.1357v-3.0029h4.1357v-5.501Z"/><path d="M602.9238,599.2559a2.3174,2.3174,0,0,1,.5771-1.5957,2.168,2.168,0,0,1,1.7109-.65,2.202,2.202,0,0,1,1.7217.65,2.2985,2.2985,0,0,1,.5879,1.5957,2.2994,2.2994,0,1,1-4.5977,0ZM607.123,628h-3.8848V605.2822h3.8848Z"/><path d="M612.3086,616.4316a13.42,13.42,0,0,1,1.3125-6.0059,9.7992,9.7992,0,0,1,3.6533-4.1152,9.9528,9.9528,0,0,1,5.3438-1.4482,9.5816,9.5816,0,0,1,7.5059,3.2119A12.3593,12.3593,0,0,1,632.99,616.62v.2725a13.54,13.54,0,0,1-1.2705,5.9531,9.6428,9.6428,0,0,1-3.6318,4.1045,10.0631,10.0631,0,0,1-5.4277,1.47,9.5555,9.5555,0,0,1-7.4854-3.2129,12.2961,12.2961,0,0,1-2.8662-8.5029Zm3.9063.4609a9.7187,9.7187,0,0,0,1.7529,6.0684,5.94,5.94,0,0,0,9.3955-.0312,10.6258,10.6258,0,0,0,1.7422-6.498,9.7025,9.7025,0,0,0-1.7734-6.0576,5.641,5.641,0,0,0-4.7139-2.32,5.5768,5.5768,0,0,0-4.64,2.2881A10.5514,10.5514,0,0,0,616.2148,616.8926Z"/><path d="M641.5352,605.2822l.127,2.8555a8.2777,8.2777,0,0,1,6.8027-3.2754q7.2012,0,7.2637,8.126V628h-3.8838V612.9668a5.2325,5.2325,0,0,0-1.123-3.6328,4.5056,4.5056,0,0,0-3.4326-1.1758,5.61,5.61,0,0,0-3.3184,1.0078,6.8443,6.8443,0,0,0-2.2246,2.6465V628h-3.8848V605.2822Z"/><path d="M681.66,628.42a9.9244,9.9244,0,0,1-7.5176-3.0342,11.2591,11.2591,0,0,1-2.8965-8.1143v-.7148a13.6291,13.6291,0,0,1,1.291-6.0361,10.07,10.07,0,0,1,3.6113-4.1572,9.0832,9.0832,0,0,1,5.0283-1.501,8.5069,8.5069,0,0,1,6.8867,2.9189q2.4565,2.918,2.4561,8.3555v1.6172H675.13a8.0743,8.0743,0,0,0,1.9629,5.4277,6.17,6.17,0,0,0,4.7764,2.0684,6.7721,6.7721,0,0,0,3.4863-.84,8.7776,8.7776,0,0,0,2.498-2.2266l2.373,1.8477A9.5409,9.5409,0,0,1,681.66,628.42Zm-.4834-20.3662a5.1814,5.1814,0,0,0-3.9473,1.7109,8.3225,8.3225,0,0,0-1.9736,4.7979h11.38v-.2939a7.3994,7.3994,0,0,0-1.5957-4.5879A4.88,4.88,0,0,0,681.1768,608.0537Z"/><path d="M698.6875,605.2822l.127,2.8555a8.2777,8.2777,0,0,1,6.8027-3.2754q7.2012,0,7.2637,8.126V628h-3.8838V612.9668a5.2325,5.2325,0,0,0-1.123-3.6328,4.5056,4.5056,0,0,0-3.4326-1.1758,5.61,5.61,0,0,0-3.3184,1.0078,6.8443,6.8443,0,0,0-2.2246,2.6465V628h-3.8848V605.2822Z"/><path d="M724.0088,599.7813v5.501h4.2422v3.0029h-4.2422v14.1055a3.1527,3.1527,0,0,0,.5674,2.05,2.3865,2.3865,0,0,0,1.9316.6826,9.4041,9.4041,0,0,0,1.8477-.252v3.1318a11.32,11.32,0,0,1-2.9814.417,4.8383,4.8383,0,0,1-3.9258-1.5742,6.7629,6.7629,0,0,1-1.3232-4.4727V608.2852h-4.1357v-3.0029h4.1357v-5.501Z"/><path d="M743.7656,608.7676a11.6746,11.6746,0,0,0-1.91-.1465,5.1164,5.1164,0,0,0-5.1855,3.2539V628h-3.8848V605.2822h3.7793l.0625,2.624a6.05,6.05,0,0,1,5.418-3.0439,3.9575,3.9575,0,0,1,1.7207.2939Z"/><path d="M745.8867,616.4316a13.42,13.42,0,0,1,1.3125-6.0059,9.7992,9.7992,0,0,1,3.6533-4.1152,9.9528,9.9528,0,0,1,5.3438-1.4482,9.5816,9.5816,0,0,1,7.5059,3.2119,12.3593,12.3593,0,0,1,2.8662,8.5459v.2725a13.54,13.54,0,0,1-1.2705,5.9531,9.6428,9.6428,0,0,1-3.6318,4.1045,10.0631,10.0631,0,0,1-5.4277,1.47,9.5555,9.5555,0,0,1-7.4854-3.2129,12.2961,12.2961,0,0,1-2.8662-8.5029Zm3.9063.4609a9.7187,9.7187,0,0,0,1.7529,6.0684,5.94,5.94,0,0,0,9.3955-.0312,10.6258,10.6258,0,0,0,1.7422-6.498,9.7025,9.7025,0,0,0-1.7734-6.0576,5.641,5.641,0,0,0-4.7139-2.32,5.5768,5.5768,0,0,0-4.64,2.2881A10.5514,10.5514,0,0,0,749.793,616.8926Z"/><path d="M790.63,616.8926a13.61,13.61,0,0,1-2.3721,8.3574,7.6059,7.6059,0,0,1-6.4258,3.17,8.3284,8.3284,0,0,1-6.5078-2.625v10.9395h-3.8848V605.2822h3.5488l.1885,2.52a8.0011,8.0011,0,0,1,6.5928-2.9395,7.7451,7.7451,0,0,1,6.4775,3.0869q2.3818,3.085,2.3828,8.5869Zm-3.8838-.44a10.0353,10.0353,0,0,0-1.6387-6.0674,5.2735,5.2735,0,0,0-4.4922-2.2266,5.71,5.71,0,0,0-5.291,3.1289v10.8555a5.72,5.72,0,0,0,5.332,3.1074,5.2509,5.2509,0,0,0,4.4414-2.2158Q786.7456,620.8193,786.7461,616.4521Z"/><path d="M802.9971,622.3105l5.291-17.0283h4.1572l-9.1328,26.2236q-2.1211,5.6689-6.74,5.67l-.7344-.0635-1.4492-.2725v-3.15l1.05.084a5.176,5.176,0,0,0,3.0762-.7969,5.7765,5.7765,0,0,0,1.8154-2.9189l.8613-2.31-8.1045-22.4658h4.2412Z"/><path d="M820.4668,619.3564a12.5287,12.5287,0,0,1,.5664-3.9414,10.0977,10.0977,0,0,1,2.1416-3.207l2.751-2.83a6.34,6.34,0,0,0,1.7637-4.2734,4.8775,4.8775,0,0,0-1.1553-3.4463,4.3541,4.3541,0,0,0-3.3594-1.2471,5.0563,5.0563,0,0,0-3.4434,1.1338A3.8324,3.8324,0,0,0,818.43,604.59h-3.8848a7.0774,7.0774,0,0,1,2.4258-5.4912,9.0663,9.0663,0,0,1,6.2041-2.0889,8.56,8.56,0,0,1,6.1836,2.1279,7.7129,7.7129,0,0,1,2.2148,5.8379q0,3.6694-3.4014,7.2324l-2.2891,2.2637a7.0538,7.0538,0,0,0-1.5322,4.8848Zm-.168,6.67a2.3086,2.3086,0,0,1,.5771-1.6,2.1732,2.1732,0,0,1,1.7109-.6475,2.2073,2.2073,0,0,1,1.7217.6475,2.29,2.29,0,0,1,.5879,1.6,2.2145,2.2145,0,0,1-.5879,1.5791,2.25,2.25,0,0,1-1.7217.625,2.078,2.078,0,0,1-2.2881-2.2041Z"/><path d="M178.666,679.6v-30.57H188.66q4.9775,0,7.4854,2.0576a7.4157,7.4157,0,0,1,2.5088,6.0889,6.2172,6.2172,0,0,1-1.2168,3.79,7.8958,7.8958,0,0,1-3.3184,2.5508,7.0924,7.0924,0,0,1,3.916,2.6348,7.562,7.562,0,0,1,1.4385,4.63,8.1776,8.1776,0,0,1-2.667,6.4668q-2.666,2.3511-7.5371,2.3516Zm4.0313-17.5312h6.09a6.3811,6.3811,0,0,0,4.23-1.3262,4.4441,4.4441,0,0,0,1.585-3.5977,4.3711,4.3711,0,0,0-1.47-3.6719,7.2189,7.2189,0,0,0-4.4727-1.1465h-5.9629Zm0,3.2324v11.002h6.6563a6.4054,6.4054,0,0,0,4.44-1.459,5.1237,5.1237,0,0,0,1.6279-4.0205q0-5.5225-6.0059-5.5225Z"/><path d="M215.8086,660.3672a11.6746,11.6746,0,0,0-1.91-.1465,5.1168,5.1168,0,0,0-5.1865,3.2539V679.6h-3.8838V656.8818h3.7793l.0625,2.624a6.0478,6.0478,0,0,1,5.417-3.0439,3.9653,3.9653,0,0,1,1.7217.2939Z"/><path d="M233.4033,677.3535q-2.2676,2.666-6.6553,2.666a7.063,7.063,0,0,1-5.5332-2.11q-1.9-2.1094-1.9209-6.2461V656.8818h3.8838v14.6768q0,5.165,4.1992,5.1641,4.4517,0,5.9219-3.3164V656.8818h3.8838V679.6h-3.6953Z"/><path d="M248.3525,651.3809v5.501h4.2412v3.0029h-4.2412V673.99a3.147,3.147,0,0,0,.5674,2.05,2.3852,2.3852,0,0,0,1.9316.6826,9.4224,9.4224,0,0,0,1.8477-.252v3.1318a11.3265,11.3265,0,0,1-2.9824.417,4.84,4.84,0,0,1-3.9258-1.5742,6.7681,6.7681,0,0,1-1.3223-4.4727V659.8848H240.332v-3.0029h4.1367v-5.501Z"/><path d="M266.5566,680.02a9.9244,9.9244,0,0,1-7.5176-3.0342,11.2591,11.2591,0,0,1-2.8965-8.1143v-.7148a13.6291,13.6291,0,0,1,1.291-6.0361,10.07,10.07,0,0,1,3.6113-4.1572,9.0856,9.0856,0,0,1,5.0283-1.501,8.5069,8.5069,0,0,1,6.8867,2.9189q2.4565,2.918,2.4561,8.3555v1.6172h-15.39a8.0743,8.0743,0,0,0,1.9629,5.4277,6.17,6.17,0,0,0,4.7764,2.0684,6.7746,6.7746,0,0,0,3.4863-.84,8.7776,8.7776,0,0,0,2.498-2.2266l2.373,1.8477A9.5409,9.5409,0,0,1,266.5566,680.02Zm-.4834-20.3662a5.1814,5.1814,0,0,0-3.9473,1.7109,8.3225,8.3225,0,0,0-1.9736,4.7979h11.38v-.2939a7.3994,7.3994,0,0,0-1.5957-4.5879A4.88,4.88,0,0,0,266.0732,659.6533Z"/><path d="M287.9932,668.1992H277.7471v-3.1709h10.2461Z"/><path d="M293.6836,679.6V659.8848h-3.5908v-3.0029h3.5908v-2.3311a7.735,7.735,0,0,1,1.9521-5.6475,7.3744,7.3744,0,0,1,5.5225-1.9951,10.2644,10.2644,0,0,1,2.666.3555l-.21,3.1309a11.0817,11.0817,0,0,0-2.1-.1895,3.7934,3.7934,0,0,0-2.9189,1.1055,4.4866,4.4866,0,0,0-1.0283,3.17v2.4014h4.8506v3.0029h-4.8506V679.6Z"/><path d="M305.6719,668.0313a13.42,13.42,0,0,1,1.3125-6.0059,9.7971,9.7971,0,0,1,3.6523-4.1152,9.9552,9.9552,0,0,1,5.3438-1.4482,9.5816,9.5816,0,0,1,7.5059,3.2119,12.3551,12.3551,0,0,1,2.8672,8.5459v.2725a13.527,13.527,0,0,1-1.2715,5.9531,9.6343,9.6343,0,0,1-3.6309,4.1045,10.0679,10.0679,0,0,1-5.4277,1.47,9.5576,9.5576,0,0,1-7.4863-3.2129,12.2956,12.2956,0,0,1-2.8652-8.5029Zm3.9053.4609a9.7248,9.7248,0,0,0,1.7529,6.0684,5.9412,5.9412,0,0,0,9.3965-.0312,10.6324,10.6324,0,0,0,1.7422-6.498,9.7086,9.7086,0,0,0-1.7734-6.0576,5.6428,5.6428,0,0,0-4.7148-2.32,5.5768,5.5768,0,0,0-4.64,2.2881A10.5514,10.5514,0,0,0,309.5771,668.4922Z"/><path d="M342.2051,660.3672a11.6746,11.6746,0,0,0-1.91-.1465,5.1168,5.1168,0,0,0-5.1865,3.2539V679.6h-3.8838V656.8818h3.7793l.0625,2.624a6.0478,6.0478,0,0,1,5.417-3.0439,3.9653,3.9653,0,0,1,1.7217.2939Z"/><path d="M354.4883,676.85a5.5962,5.5962,0,0,0,3.6318-1.26,4.4341,4.4341,0,0,0,1.7217-3.15h3.6738a7.0424,7.0424,0,0,1-1.3437,3.7168,8.8536,8.8536,0,0,1-3.3066,2.8135,9.5372,9.5372,0,0,1-4.377,1.05,9.3593,9.3593,0,0,1-7.3809-3.0967q-2.7393-3.0967-2.74-8.4717V667.8a13.6614,13.6614,0,0,1,1.2188-5.8994,9.26,9.26,0,0,1,3.4961-4.0107,9.9209,9.9209,0,0,1,5.3848-1.4277,9.1154,9.1154,0,0,1,6.3516,2.2881,8.1788,8.1788,0,0,1,2.6973,5.9424h-3.6738a5.3517,5.3517,0,0,0-1.67-3.6221,5.1914,5.1914,0,0,0-3.7051-1.417,5.4391,5.4391,0,0,0-4.5879,2.1309,10.0165,10.0165,0,0,0-1.627,6.1631v.7344a9.8081,9.8081,0,0,0,1.6172,6.0469A5.4609,5.4609,0,0,0,354.4883,676.85Z"/><path d="M377.3105,680.02a9.9223,9.9223,0,0,1-7.5166-3.0342,11.26,11.26,0,0,1-2.8975-8.1143v-.7148a13.6291,13.6291,0,0,1,1.291-6.0361,10.0771,10.0771,0,0,1,3.6113-4.1572,9.0864,9.0864,0,0,1,5.0293-1.501,8.5083,8.5083,0,0,1,6.8867,2.9189q2.4551,2.918,2.4561,8.3555v1.6172h-15.39a8.07,8.07,0,0,0,1.9629,5.4277,6.1687,6.1687,0,0,0,4.7764,2.0684,6.7684,6.7684,0,0,0,3.4854-.84,8.7646,8.7646,0,0,0,2.498-2.2266l2.373,1.8477A9.5409,9.5409,0,0,1,377.3105,680.02Zm-.4824-20.3662a5.1785,5.1785,0,0,0-3.9473,1.7109,8.3166,8.3166,0,0,0-1.9746,4.7979h11.3809v-.2939a7.4111,7.4111,0,0,0-1.5957-4.5879A4.8831,4.8831,0,0,0,376.8281,659.6533Z"/><path d="M420.541,668.4922a13.5073,13.5073,0,0,1-2.3926,8.3672,7.6478,7.6478,0,0,1-6.4258,3.16,7.9172,7.9172,0,0,1-6.6553-3.0449l-.1885,2.625h-3.57V647.35h3.8848v12.0313a7.873,7.873,0,0,1,6.4883-2.9189,7.6955,7.6955,0,0,1,6.498,3.1279q2.3613,3.1289,2.3613,8.5664Zm-3.8838-.44a10.4982,10.4982,0,0,0-1.5322-6.1309,5.0772,5.0772,0,0,0-4.41-2.1631,5.7029,5.7029,0,0,0-5.5215,3.57v9.8262a5.8625,5.8625,0,0,0,5.5645,3.5684,5.0463,5.0463,0,0,0,4.3457-2.1621Q416.6563,672.3984,416.6572,668.0518Z"/><path d="M424.4043,668.0313a13.42,13.42,0,0,1,1.3125-6.0059A9.7992,9.7992,0,0,1,429.37,657.91a9.9552,9.9552,0,0,1,5.3438-1.4482,9.583,9.583,0,0,1,7.5059,3.2119,12.3593,12.3593,0,0,1,2.8662,8.5459v.2725a13.54,13.54,0,0,1-1.2705,5.9531,9.6428,9.6428,0,0,1-3.6318,4.1045,10.0655,10.0655,0,0,1-5.4277,1.47,9.5541,9.5541,0,0,1-7.4854-3.2129,12.2961,12.2961,0,0,1-2.8662-8.5029Zm3.9063.4609a9.7187,9.7187,0,0,0,1.7529,6.0684,5.94,5.94,0,0,0,9.3955-.0312,10.6258,10.6258,0,0,0,1.7422-6.498,9.7025,9.7025,0,0,0-1.7734-6.0576,5.641,5.641,0,0,0-4.7139-2.32,5.5768,5.5768,0,0,0-4.64,2.2881A10.5514,10.5514,0,0,0,428.3105,668.4922Z"/><path d="M449.0332,668.0518q0-5.3115,2.457-8.4512a8.4687,8.4687,0,0,1,12.9961-.1992l.1895-2.52h3.5479v22.1719a9.2424,9.2424,0,0,1-2.6143,6.95,9.6474,9.6474,0,0,1-7.0234,2.54,11.6791,11.6791,0,0,1-4.8076-1.05,8.2782,8.2782,0,0,1-3.5908-2.877l2.0156-2.33a7.5969,7.5969,0,0,0,6.11,3.0859,5.9507,5.9507,0,0,0,4.42-1.5957,6.0967,6.0967,0,0,0,1.585-4.4922V677.332a7.9813,7.9813,0,0,1-6.3613,2.6875,7.7582,7.7582,0,0,1-6.457-3.2129Q449.0332,673.5957,449.0332,668.0518Zm3.9053.44a10.18,10.18,0,0,0,1.5752,6.0371,5.1139,5.1139,0,0,0,4.4082,2.1934,5.6909,5.6909,0,0,0,5.3965-3.3379V663.0127a5.7558,5.7558,0,0,0-5.3535-3.2549,5.1624,5.1624,0,0,0-4.4307,2.2051Q452.939,664.1675,452.9385,668.4922Z"/><path d="M488.1074,677.3535q-2.2676,2.666-6.6562,2.666a7.063,7.063,0,0,1-5.5332-2.11q-1.8984-2.1094-1.92-6.2461V656.8818h3.8838v14.6768q0,5.165,4.1992,5.1641,4.4517,0,5.9209-3.3164V656.8818h3.8848V679.6h-3.6953Z"/><path d="M511.0137,673.5742a2.8587,2.8587,0,0,0-1.1865-2.4463,11.4055,11.4055,0,0,0-4.1357-1.501,19.5655,19.5655,0,0,1-4.6826-1.5117,6.6664,6.6664,0,0,1-2.5615-2.1,5.0273,5.0273,0,0,1-.8291-2.8984,5.8919,5.8919,0,0,1,2.3623-4.7236,9.22,9.22,0,0,1,6.0361-1.9316,9.4919,9.4919,0,0,1,6.2676,1.9951,6.3345,6.3345,0,0,1,2.4043,5.1016h-3.9053a3.5074,3.5074,0,0,0-1.3545-2.75,5.0721,5.0721,0,0,0-3.4121-1.1553,5.3078,5.3078,0,0,0-3.3174.9238,2.9093,2.9093,0,0,0-1.1973,2.415,2.3551,2.3551,0,0,0,1.1133,2.12,13.6976,13.6976,0,0,0,4.0205,1.3643,20.9572,20.9572,0,0,1,4.7139,1.5547,6.8791,6.8791,0,0,1,2.6768,2.1729,5.3406,5.3406,0,0,1,.8711,3.0967,5.8155,5.8155,0,0,1-2.4346,4.8818,10.2206,10.2206,0,0,1-6.32,1.8369,11.4417,11.4417,0,0,1-4.8291-.9658,7.8523,7.8523,0,0,1-3.2861-2.6982,6.5,6.5,0,0,1-1.1855-3.748h3.8838a4.0169,4.0169,0,0,0,1.5645,3.0977,6.0682,6.0682,0,0,0,3.8525,1.1445,6.268,6.268,0,0,0,3.5381-.8926A2.7422,2.7422,0,0,0,511.0137,673.5742Z"/><path d="M534.8242,679.6h-3.8848V647.35h3.8848Z"/><path d="M541.0605,650.8555a2.3174,2.3174,0,0,1,.5771-1.5957,2.168,2.168,0,0,1,1.7109-.65,2.202,2.202,0,0,1,1.7217.65,2.2985,2.2985,0,0,1,.5879,1.5957,2.2994,2.2994,0,1,1-4.5977,0ZM545.26,679.6H541.375V656.8818H545.26Z"/><path d="M555.1484,656.8818l.127,2.8555a8.2777,8.2777,0,0,1,6.8027-3.2754q7.2012,0,7.2637,8.126V679.6H565.458V664.5664a5.2325,5.2325,0,0,0-1.123-3.6328,4.5056,4.5056,0,0,0-3.4326-1.1758,5.61,5.61,0,0,0-3.3184,1.0078,6.8443,6.8443,0,0,0-2.2246,2.6465V679.6h-3.8848V656.8818Z"/><path d="M581.54,669.08l-2.4355,2.541V679.6h-3.8838V647.35h3.8838v19.5059l2.0791-2.499,7.0752-7.4746h4.7236l-8.8389,9.49L594.0117,679.6h-4.5566Z"/><path d="M610.2217,673.5742a2.8587,2.8587,0,0,0-1.1865-2.4463,11.42,11.42,0,0,0-4.1357-1.501,19.5655,19.5655,0,0,1-4.6826-1.5117,6.6664,6.6664,0,0,1-2.5615-2.1,5.0273,5.0273,0,0,1-.8291-2.8984,5.8919,5.8919,0,0,1,2.3623-4.7236,9.2218,9.2218,0,0,1,6.0361-1.9316,9.4937,9.4937,0,0,1,6.2676,1.9951,6.3345,6.3345,0,0,1,2.4043,5.1016H609.99a3.5064,3.5064,0,0,0-1.3535-2.75,5.0721,5.0721,0,0,0-3.4121-1.1553,5.3078,5.3078,0,0,0-3.3174.9238,2.9084,2.9084,0,0,0-1.1963,2.415,2.3543,2.3543,0,0,0,1.1123,2.12,13.6976,13.6976,0,0,0,4.0205,1.3643,20.9572,20.9572,0,0,1,4.7139,1.5547,6.8719,6.8719,0,0,1,2.6768,2.1729,5.3406,5.3406,0,0,1,.8711,3.0967,5.8139,5.8139,0,0,1-2.4355,4.8818,10.2137,10.2137,0,0,1-6.3193,1.8369,11.4448,11.4448,0,0,1-4.8291-.9658,7.8523,7.8523,0,0,1-3.2861-2.6982,6.5015,6.5015,0,0,1-1.1865-3.748h3.8848a4.02,4.02,0,0,0,1.5645,3.0977,6.0682,6.0682,0,0,0,3.8525,1.1445,6.268,6.268,0,0,0,3.5381-.8926A2.7422,2.7422,0,0,0,610.2217,673.5742Z"/><path d="M643.8359,679.6a8.1651,8.1651,0,0,1-.5459-2.3936,8.6649,8.6649,0,0,1-6.4668,2.8135,8.0164,8.0164,0,0,1-5.5117-1.9,6.1472,6.1472,0,0,1-2.1514-4.8184,6.423,6.423,0,0,1,2.6973-5.5117q2.6982-1.9629,7.59-1.9629h3.7793V664.041a4.3617,4.3617,0,0,0-1.2168-3.2432,4.8968,4.8968,0,0,0-3.5908-1.208,5.6616,5.6616,0,0,0-3.4854,1.0508,3.0916,3.0916,0,0,0-1.4062,2.54h-3.9062a5.359,5.359,0,0,1,1.208-3.2861,8.2414,8.2414,0,0,1,3.2754-2.5088,11.01,11.01,0,0,1,4.5459-.9238,8.98,8.98,0,0,1,6.1514,1.9629,7.084,7.084,0,0,1,2.31,5.4072v10.4551a12.7779,12.7779,0,0,0,.7979,4.9766V679.6Zm-6.4453-2.9609a6.8271,6.8271,0,0,0,3.4639-.9443,5.7091,5.7091,0,0,0,2.3721-2.4561v-4.6621h-3.0439q-7.1382,0-7.1387,4.1787a3.5366,3.5366,0,0,0,1.2178,2.8555A4.6816,4.6816,0,0,0,637.3906,676.6387Z"/><path d="M656.873,656.8818l.127,2.8555a8.2777,8.2777,0,0,1,6.8027-3.2754q7.2012,0,7.2637,8.126V679.6h-3.8838V664.5664a5.2325,5.2325,0,0,0-1.123-3.6328,4.5056,4.5056,0,0,0-3.4326-1.1758,5.61,5.61,0,0,0-3.3184,1.0078,6.8443,6.8443,0,0,0-2.2246,2.6465V679.6h-3.8848V656.8818Z"/><path d="M675.98,668.0518a13.3063,13.3063,0,0,1,2.4785-8.4092,8.4288,8.4288,0,0,1,12.8066-.4512V647.35H695.15V679.6h-3.5693l-.1885-2.4355a7.9135,7.9135,0,0,1-6.4883,2.8555,7.7609,7.7609,0,0,1-6.4355-3.2334,13.4613,13.4613,0,0,1-2.4883-8.44Zm3.8848.44a10.076,10.076,0,0,0,1.5957,6.0469,5.1571,5.1571,0,0,0,4.4092,2.1836,5.6648,5.6648,0,0,0,5.3955-3.3164V662.9707a5.7093,5.7093,0,0,0-5.3535-3.2129,5.1834,5.1834,0,0,0-4.4512,2.2051Q679.8657,664.1675,679.8652,668.4922Z"/><path d="M725.0479,673.5742a2.8587,2.8587,0,0,0-1.1865-2.4463,11.42,11.42,0,0,0-4.1357-1.501,19.5655,19.5655,0,0,1-4.6826-1.5117,6.6664,6.6664,0,0,1-2.5615-2.1,5.0273,5.0273,0,0,1-.8291-2.8984,5.8919,5.8919,0,0,1,2.3623-4.7236,9.2218,9.2218,0,0,1,6.0361-1.9316,9.4937,9.4937,0,0,1,6.2676,1.9951,6.3345,6.3345,0,0,1,2.4043,5.1016h-3.9062a3.5064,3.5064,0,0,0-1.3535-2.75,5.0721,5.0721,0,0,0-3.4121-1.1553,5.3078,5.3078,0,0,0-3.3174.9238,2.9084,2.9084,0,0,0-1.1963,2.415,2.3543,2.3543,0,0,0,1.1123,2.12,13.6976,13.6976,0,0,0,4.0205,1.3643,20.9572,20.9572,0,0,1,4.7139,1.5547,6.8719,6.8719,0,0,1,2.6768,2.1729,5.3406,5.3406,0,0,1,.8711,3.0967,5.8139,5.8139,0,0,1-2.4355,4.8818,10.2137,10.2137,0,0,1-6.3193,1.8369,11.4448,11.4448,0,0,1-4.8291-.9658,7.8523,7.8523,0,0,1-3.2861-2.6982,6.5015,6.5015,0,0,1-1.1865-3.748H714.76a4.02,4.02,0,0,0,1.5645,3.0977,6.0682,6.0682,0,0,0,3.8525,1.1445,6.268,6.268,0,0,0,3.5381-.8926A2.7422,2.7422,0,0,0,725.0479,673.5742Z"/><path d="M743.1045,676.85a5.5924,5.5924,0,0,0,3.6318-1.26,4.4352,4.4352,0,0,0,1.7227-3.15h3.6738a7.0424,7.0424,0,0,1-1.3437,3.7168,8.8612,8.8612,0,0,1-3.3066,2.8135,9.5382,9.5382,0,0,1-4.3779,1.05,9.3572,9.3572,0,0,1-7.38-3.0967q-2.7407-3.0967-2.74-8.4717V667.8a13.6755,13.6755,0,0,1,1.2178-5.8994,9.266,9.266,0,0,1,3.4961-4.0107,9.9266,9.9266,0,0,1,5.3857-1.4277,9.1113,9.1113,0,0,1,6.3506,2.2881,8.1833,8.1833,0,0,1,2.6982,5.9424H748.459a5.356,5.356,0,0,0-1.67-3.6221,5.1946,5.1946,0,0,0-3.7051-1.417,5.4367,5.4367,0,0,0-4.5879,2.1309,10.01,10.01,0,0,0-1.627,6.1631v.7344a9.8082,9.8082,0,0,0,1.6162,6.0469A5.4621,5.4621,0,0,0,743.1045,676.85Z"/><path d="M767.48,660.3672a11.6746,11.6746,0,0,0-1.91-.1465,5.1164,5.1164,0,0,0-5.1855,3.2539V679.6H756.5V656.8818h3.7793l.0625,2.624a6.05,6.05,0,0,1,5.418-3.0439,3.9575,3.9575,0,0,1,1.7207.2939Z"/><path d="M784.2363,679.6a8.1651,8.1651,0,0,1-.5459-2.3936,8.6649,8.6649,0,0,1-6.4668,2.8135,8.0164,8.0164,0,0,1-5.5117-1.9,6.1472,6.1472,0,0,1-2.1514-4.8184,6.423,6.423,0,0,1,2.6973-5.5117q2.6982-1.9629,7.59-1.9629h3.7793V664.041a4.3617,4.3617,0,0,0-1.2168-3.2432,4.8968,4.8968,0,0,0-3.5908-1.208,5.6616,5.6616,0,0,0-3.4854,1.0508,3.0916,3.0916,0,0,0-1.4062,2.54h-3.9062a5.359,5.359,0,0,1,1.208-3.2861,8.2414,8.2414,0,0,1,3.2754-2.5088,11.01,11.01,0,0,1,4.5459-.9238,8.98,8.98,0,0,1,6.1514,1.9629,7.084,7.084,0,0,1,2.31,5.4072v10.4551a12.7779,12.7779,0,0,0,.7979,4.9766V679.6Zm-6.4453-2.9609a6.8271,6.8271,0,0,0,3.4639-.9443,5.7091,5.7091,0,0,0,2.3721-2.4561v-4.6621H780.583q-7.1382,0-7.1387,4.1787a3.5366,3.5366,0,0,0,1.2178,2.8555A4.6816,4.6816,0,0,0,777.791,676.6387Z"/><path d="M812.79,668.4922a13.61,13.61,0,0,1-2.3721,8.3574,7.6059,7.6059,0,0,1-6.4258,3.17,8.3284,8.3284,0,0,1-6.5078-2.625V688.334H793.6V656.8818h3.5488l.1885,2.52a8.0011,8.0011,0,0,1,6.5928-2.9395,7.7451,7.7451,0,0,1,6.4775,3.0869q2.3818,3.085,2.3828,8.5869Zm-3.8838-.44a10.0353,10.0353,0,0,0-1.6387-6.0674,5.2735,5.2735,0,0,0-4.4922-2.2266,5.71,5.71,0,0,0-5.291,3.1289v10.8555a5.72,5.72,0,0,0,5.332,3.1074,5.2509,5.2509,0,0,0,4.4414-2.2158Q808.9058,672.4189,808.9063,668.0518Z"/><path d="M827.1523,680.02a9.9244,9.9244,0,0,1-7.5176-3.0342,11.2591,11.2591,0,0,1-2.8965-8.1143v-.7148a13.6291,13.6291,0,0,1,1.291-6.0361,10.07,10.07,0,0,1,3.6113-4.1572,9.0832,9.0832,0,0,1,5.0283-1.501,8.5069,8.5069,0,0,1,6.8867,2.9189q2.4565,2.918,2.4561,8.3555v1.6172h-15.39a8.0743,8.0743,0,0,0,1.9629,5.4277,6.17,6.17,0,0,0,4.7764,2.0684,6.7721,6.7721,0,0,0,3.4863-.84,8.7776,8.7776,0,0,0,2.498-2.2266l2.373,1.8477A9.5409,9.5409,0,0,1,827.1523,680.02Zm-.4834-20.3662a5.1814,5.1814,0,0,0-3.9473,1.7109,8.3225,8.3225,0,0,0-1.9736,4.7979h11.38v-.2939a7.3994,7.3994,0,0,0-1.5957-4.5879A4.88,4.88,0,0,0,826.6689,659.6533Z"/><path d="M840.59,677.5625a2.4309,2.4309,0,0,1,.5986-1.68,2.2811,2.2811,0,0,1,1.7949-.6719,2.3516,2.3516,0,0,1,1.8164.6719,2.3874,2.3874,0,0,1,.6191,1.68A2.2569,2.2569,0,0,1,844.8,679.18a2.3926,2.3926,0,0,1-1.8164.65,2.32,2.32,0,0,1-1.7949-.65A2.2961,2.2961,0,0,1,840.59,677.5625Z"/><path class="b" d="M439.92,335.334H429.7168l-2.457,7.916H423.375l9.8691-30.57h3.2539l9.7,30.57H442.335Zm-9.1543-3.38h8.126l-4.0312-13.27Z"/><path d="M493.9219,331.4707H477.86v-3.1914h16.0615Z"/><path d="M502.8457,324.1641v-4.01l18.54,7.9365v3.0654l-18.54,7.957V335.082l13.585-5.123,1.26-.3564-1.26-.3994Z"/><path d="M573.582,331.6182a18.0969,18.0969,0,0,1-.6826,5.2178,10.5058,10.5058,0,0,1-1.9639,3.7793,8.162,8.162,0,0,1-3.1279,2.2988,11.45,11.45,0,0,1-8.2939,0,8.2575,8.2575,0,0,1-3.1387-2.2988,10.6708,10.6708,0,0,1-1.9941-3.7793,17.5381,17.5381,0,0,1-.7031-5.2178v-7.3066a17.8135,17.8135,0,0,1,.6924-5.2178,10.55,10.55,0,0,1,1.9844-3.7793,8.2662,8.2662,0,0,1,3.1279-2.2988,10.5054,10.5054,0,0,1,4.126-.7773,10.6357,10.6357,0,0,1,4.1572.7773,8.25,8.25,0,0,1,3.1387,2.2988,10.55,10.55,0,0,1,1.9844,3.7793,17.8119,17.8119,0,0,1,.6934,5.2178Zm-14.0254-2.52,8.1465-6.0674a8.6116,8.6116,0,0,0-1.0713-4.5781,3.4074,3.4074,0,0,0-3.0234-1.49,3.372,3.372,0,0,0-3.0439,1.5742,9.1845,9.1845,0,0,0-1.0078,4.8506Zm8.1465-2.1-8.1465,6.0469a8.4989,8.4989,0,0,0,1.1123,4.4824,3.3876,3.3876,0,0,0,2.9814,1.46,3.3533,3.3533,0,0,0,3.0547-1.5957,9.4335,9.4335,0,0,0,.998-4.8926Z"/><path d="M599.3867,331.6182a18.0969,18.0969,0,0,1-.6826,5.2178,10.5058,10.5058,0,0,1-1.9639,3.7793,8.162,8.162,0,0,1-3.1279,2.2988,11.45,11.45,0,0,1-8.2939,0,8.2575,8.2575,0,0,1-3.1387-2.2988,10.6708,10.6708,0,0,1-1.9941-3.7793,17.5381,17.5381,0,0,1-.7031-5.2178v-7.3066a17.8135,17.8135,0,0,1,.6924-5.2178,10.55,10.55,0,0,1,1.9844-3.7793,8.2662,8.2662,0,0,1,3.1279-2.2988,10.5054,10.5054,0,0,1,4.126-.7773,10.6357,10.6357,0,0,1,4.1572.7773,8.25,8.25,0,0,1,3.1387,2.2988,10.55,10.55,0,0,1,1.9844,3.7793,17.8119,17.8119,0,0,1,.6934,5.2178Zm-14.0254-2.52,8.1465-6.0674a8.6116,8.6116,0,0,0-1.0713-4.5781,3.4074,3.4074,0,0,0-3.0234-1.49,3.372,3.372,0,0,0-3.0439,1.5742,9.1845,9.1845,0,0,0-1.0078,4.8506Zm8.1465-2.1-8.1465,6.0469a8.4989,8.4989,0,0,0,1.1123,4.4824,3.3876,3.3876,0,0,0,2.9814,1.46,3.3533,3.3533,0,0,0,3.0547-1.5957,9.4335,9.4335,0,0,0,.998-4.8926Z"/><path class="b" d="M425.2861,394.85v-30.57h9.0908a15.2155,15.2155,0,0,1,3.6953.4932,9.9038,9.9038,0,0,1,3.2129,1.46,7.0949,7.0949,0,0,1,3.0654,6.1934,6.5632,6.5632,0,0,1-.3887,2.1836,6.251,6.251,0,0,1-1.0078,1.7744,7.0286,7.0286,0,0,1-1.501,1.375,11.137,11.137,0,0,1-1.8262,1.0078,8.4421,8.4421,0,0,1,2.2354,1.0186A7.15,7.15,0,0,1,444.76,383.49a7.6647,7.6647,0,0,1,.41,2.541,8.0008,8.0008,0,0,1-.8193,3.7793,8.1739,8.1739,0,0,1-2.2471,2.74A10.2864,10.2864,0,0,1,438.86,394.24a12.7911,12.7911,0,0,1-3.79.6094Zm3.9053-17.5312h5.417a7.7318,7.7318,0,0,0,2.1416-.3467,6.04,6.04,0,0,0,1.8691-.9453,4.8483,4.8483,0,0,0,1.3223-1.5225,4.2335,4.2335,0,0,0,.5039-2.1,4.4952,4.4952,0,0,0-.4932-2.1836,4.2781,4.2781,0,0,0-1.3232-1.4795,5.7843,5.7843,0,0,0-1.91-.8506,9.7552,9.7552,0,0,0-2.2148-.2939h-5.3125Zm0,3.2324v11.002h5.9844a7.1823,7.1823,0,0,0,2.3086-.4092,6.3347,6.3347,0,0,0,1.9316-1.0811,5.0562,5.0562,0,0,0,1.334-1.7012,5.1478,5.1478,0,0,0,.4932-2.2881,5.3863,5.3863,0,0,0-.4307-2.31,4.9341,4.9341,0,0,0-1.249-1.7109,5.6362,5.6362,0,0,0-1.8682-1.082,7.703,7.703,0,0,0-2.3105-.42Z"/><path d="M493.9219,383.07H477.86v-3.1914h16.0615Z"/><path d="M502.8457,375.7637v-4.01l18.54,7.9365v3.0654l-18.54,7.957v-4.0312l13.585-5.123,1.26-.3564-1.26-.3994Z"/><path d="M573.582,383.2178a18.0969,18.0969,0,0,1-.6826,5.2178,10.5058,10.5058,0,0,1-1.9639,3.7793,8.162,8.162,0,0,1-3.1279,2.2988,11.45,11.45,0,0,1-8.2939,0,8.2575,8.2575,0,0,1-3.1387-2.2988,10.6708,10.6708,0,0,1-1.9941-3.7793,17.5381,17.5381,0,0,1-.7031-5.2178v-7.3066a17.8135,17.8135,0,0,1,.6924-5.2178,10.55,10.55,0,0,1,1.9844-3.7793,8.2662,8.2662,0,0,1,3.1279-2.2988,10.5054,10.5054,0,0,1,4.126-.7773,10.6357,10.6357,0,0,1,4.1572.7773,8.25,8.25,0,0,1,3.1387,2.2988,10.55,10.55,0,0,1,1.9844,3.7793,17.8119,17.8119,0,0,1,.6934,5.2178Zm-14.0254-2.52,8.1465-6.0674a8.6116,8.6116,0,0,0-1.0713-4.5781,3.4074,3.4074,0,0,0-3.0234-1.49,3.372,3.372,0,0,0-3.0439,1.5742,9.1845,9.1845,0,0,0-1.0078,4.8506Zm8.1465-2.1-8.1465,6.0469a8.4989,8.4989,0,0,0,1.1123,4.4824,3.3876,3.3876,0,0,0,2.9814,1.46,3.3533,3.3533,0,0,0,3.0547-1.5957,9.4335,9.4335,0,0,0,.998-4.8926Z"/><path d="M593.78,394.85h-5.8994V371.3965l-7.7266,2.7715v-5.08l13.3105-4.8086h.3154Z"/><path class="b" d="M445.127,437.2539a13.2377,13.2377,0,0,1-1.0918,3.8945,10.0148,10.0148,0,0,1-2.1309,3.0449,9.2752,9.2752,0,0,1-3.1074,1.9736,10.8805,10.8805,0,0,1-4,.7031,10.4354,10.4354,0,0,1-3.4326-.5352,9.462,9.462,0,0,1-2.75-1.48,9.82,9.82,0,0,1-2.0791-2.2256,13.5353,13.5353,0,0,1-1.4482-2.792,16.7756,16.7756,0,0,1-.8613-3.1709,21.5029,21.5029,0,0,1-.3037-3.3594v-4.2627a21.5243,21.5243,0,0,1,.3037-3.3594,16.7657,16.7657,0,0,1,.8613-3.17,13.7978,13.7978,0,0,1,1.4482-2.8027,9.71,9.71,0,0,1,2.0791-2.2363,9.4906,9.4906,0,0,1,2.7393-1.48,10.41,10.41,0,0,1,3.4434-.5352,11.22,11.22,0,0,1,4.0947.7031,8.9889,8.9889,0,0,1,3.1074,1.9951,9.8323,9.8323,0,0,1,2.0889,3.0967,13.9028,13.9028,0,0,1,1.0391,3.9893h-3.8838a11.4256,11.4256,0,0,0-.6514-2.583,7.1342,7.1342,0,0,0-1.2383-2.1,5.493,5.493,0,0,0-1.9-1.417,6.334,6.334,0,0,0-2.6562-.5146,6.1989,6.1989,0,0,0-2.4453.4521,5.6337,5.6337,0,0,0-1.8271,1.2275,7.0222,7.0222,0,0,0-1.28,1.8066,11.814,11.814,0,0,0-.83,2.1836,15.8519,15.8519,0,0,0-.4512,2.3613,20.91,20.91,0,0,0-.1367,2.3418v4.3037a20.88,20.88,0,0,0,.1367,2.3408,16.1748,16.1748,0,0,0,.4512,2.373,12.3,12.3,0,0,0,.8193,2.1934,6.8509,6.8509,0,0,0,1.28,1.8164,5.6875,5.6875,0,0,0,1.8271,1.2393,6.183,6.183,0,0,0,2.4561.4512,6.6847,6.6847,0,0,0,2.6563-.4834,5.3105,5.3105,0,0,0,1.9-1.3535,6.722,6.722,0,0,0,1.2383-2.0576,11.2286,11.2286,0,0,0,.6514-2.5723Z"/><path d="M493.9219,434.6709H477.86v-3.1914h16.0615Z"/><path d="M502.8457,427.3643v-4.01l18.54,7.9365v3.0654l-18.54,7.957v-4.0312l13.585-5.123,1.26-.3564-1.26-.3994Z"/><path d="M567.9756,446.45h-5.8994V422.9971l-7.7266,2.7715v-5.08L567.66,415.88h.3154Z"/><path d="M599.3867,434.8184a18.0969,18.0969,0,0,1-.6826,5.2178,10.5058,10.5058,0,0,1-1.9639,3.7793,8.162,8.162,0,0,1-3.1279,2.2988,11.45,11.45,0,0,1-8.2939,0,8.2575,8.2575,0,0,1-3.1387-2.2988,10.6708,10.6708,0,0,1-1.9941-3.7793,17.5381,17.5381,0,0,1-.7031-5.2178v-7.3066a17.8135,17.8135,0,0,1,.6924-5.2178,10.55,10.55,0,0,1,1.9844-3.7793,8.2662,8.2662,0,0,1,3.1279-2.2988,10.5054,10.5054,0,0,1,4.126-.7773,10.6357,10.6357,0,0,1,4.1572.7773,8.25,8.25,0,0,1,3.1387,2.2988,10.55,10.55,0,0,1,1.9844,3.7793,17.8119,17.8119,0,0,1,.6934,5.2178Zm-14.0254-2.52,8.1465-6.0674a8.6116,8.6116,0,0,0-1.0713-4.5781,3.4074,3.4074,0,0,0-3.0234-1.49,3.372,3.372,0,0,0-3.0439,1.5742,9.1845,9.1845,0,0,0-1.0078,4.8506Zm8.1465-2.1-8.1465,6.0469a8.4989,8.4989,0,0,0,1.1123,4.4824,3.3876,3.3876,0,0,0,2.9814,1.46,3.3533,3.3533,0,0,0,3.0547-1.5957,9.4335,9.4335,0,0,0,.998-4.8926Z"/><path class="b" d="M424.93,498.05v-30.57h7.0752a15.3278,15.3278,0,0,1,5.7,1.0811,11.9805,11.9805,0,0,1,4.2412,2.8975,12.5414,12.5414,0,0,1,2.6455,4.4512,17.5525,17.5525,0,0,1,.9346,5.7422v2.2471a17.5481,17.5481,0,0,1-.9346,5.7422,12.5243,12.5243,0,0,1-2.6455,4.4512,11.9552,11.9552,0,0,1-4.2412,2.8975,15.0235,15.0235,0,0,1-5.7,1.0605Zm3.9473-27.3789V494.88h3.1279a10.1825,10.1825,0,0,0,4.2832-.8721,8.35,8.35,0,0,0,2.9922-2.3193,9.8016,9.8016,0,0,0,1.7637-3.4648,16.0576,16.0576,0,0,0,.5986-4.3252V481.61a15.6714,15.6714,0,0,0-.6094-4.3154,9.9367,9.9367,0,0,0-1.7637-3.4434,8.2037,8.2037,0,0,0-2.9814-2.2988,10.5225,10.5225,0,0,0-4.2832-.8818Z"/><path d="M493.9219,486.2705H477.86v-3.1914h16.0615Z"/><path d="M502.8457,478.9639v-4.01l18.54,7.9365v3.0654l-18.54,7.957v-4.0312l13.585-5.123,1.26-.3564-1.26-.3994Z"/><path d="M567.9756,498.05h-5.8994V474.5967l-7.7266,2.7715v-5.08l13.3105-4.8086h.3154Z"/><path d="M593.78,498.05h-5.8994V474.5967l-7.7266,2.7715v-5.08l13.3105-4.8086h.3154Z"/></svg>